<?xml version="1.0" encoding="UTF-8" standalone="no"?>
<svg
   xmlns:dc="http://purl.org/dc/elements/1.1/"
   xmlns:cc="http://creativecommons.org/ns#"
   xmlns:rdf="http://www.w3.org/1999/02/22-rdf-syntax-ns#"
   xmlns:svg="http://www.w3.org/2000/svg"
   xmlns="http://www.w3.org/2000/svg"
   xmlns:xlink="http://www.w3.org/1999/xlink"
   xmlns:sodipodi="http://sodipodi.sourceforge.net/DTD/sodipodi-0.dtd"
   xmlns:inkscape="http://www.inkscape.org/namespaces/inkscape"
   version="1.1"
   id="svg2"
   viewBox="0 0 737.63 720.5"
   inkscape:version="0.91 r13725"
   sodipodi:docname="pikoblx.svg"
   width="737.63"
   height="720.5">
  <sodipodi:namedview
     pagecolor="#ffffff"
     bordercolor="#666666"
     borderopacity="1"
     objecttolerance="10"
     gridtolerance="10"
     guidetolerance="10"
     inkscape:pageopacity="0"
     inkscape:pageshadow="2"
     inkscape:window-width="1609"
     inkscape:window-height="1001"
     id="namedview231"
     showgrid="false"
     fit-margin-top="1"
     fit-margin-left="1"
     fit-margin-right="1"
     fit-margin-bottom="1"
     inkscape:zoom="0.25186676"
     inkscape:cx="-29.891374"
     inkscape:cy="-359.02887"
     inkscape:window-x="0"
     inkscape:window-y="24"
     inkscape:window-maximized="0"
     inkscape:current-layer="svg2" />
  <metadata
     id="metadata455">
    <rdf:RDF>
      <cc:Work
         rdf:about="">
        <dc:format>image/svg+xml</dc:format>
        <dc:type
           rdf:resource="http://purl.org/dc/dcmitype/StillImage" />
        <dc:title>pikoblx</dc:title>
      </cc:Work>
    </rdf:RDF>
  </metadata>
  <defs
     id="defs4">
    <style
       id="style6">.a{fill:#36443c;}.b{fill:#c48b53;}.c{fill:#ccc;}.d{fill:#333;}.e{fill:#e6e6e6;}.f{fill:#b7895c;}.g{fill:#009245;}.h{fill:#f2f2f2;}.i{fill:#0071bc;}.j{fill:#f7931e;}.k{fill:#ffd3ab;}.l{fill:#999;}.m{fill:url(#a);}.n{fill:url(#b);}.o{fill:url(#c);}.p{fill:url(#d);}.q{fill:url(#e);}.r,.s,.t,.u{fill:none;stroke-miterlimit:10;}.r,.s{stroke:#c48b53;}.r{stroke-width:8px;}.s{stroke-width:10px;}.t{stroke:gray;}.t,.u{stroke-width:3px;}.u{stroke:#262626;}</style>
    <linearGradient
       gradientUnits="userSpaceOnUse"
       y2="389.5"
       x2="667.13"
       y1="184.5"
       x1="667.13"
       id="a">
      <stop
         id="stop9"
         stop-color="#fff"
         offset="0" />
      <stop
         id="stop11"
         stop-color="#eee"
         offset="0.06" />
      <stop
         id="stop13"
         stop-color="#dbdbdb"
         offset="0.14" />
      <stop
         id="stop15"
         stop-color="#d0d0d0"
         offset="0.22" />
      <stop
         id="stop17"
         stop-color="#ccc"
         offset="0.32" />
      <stop
         id="stop19"
         stop-color="#ccc"
         offset="0.79" />
      <stop
         id="stop21"
         stop-color="#c7c7c7"
         offset="0.82" />
      <stop
         id="stop23"
         stop-color="#bababa"
         offset="0.86" />
      <stop
         id="stop25"
         stop-color="#a3a3a3"
         offset="0.9" />
      <stop
         id="stop27"
         stop-color="#838383"
         offset="0.94" />
      <stop
         id="stop29"
         stop-color="#5b5b5b"
         offset="0.98" />
      <stop
         id="stop31"
         stop-color="#434343"
         offset="1" />
    </linearGradient>
    <linearGradient
       xlink:href="#a"
       gradientTransform="translate(-292.5,-666.5)"
       y2="914.5"
       x2="990.5"
       y1="866.5"
       x1="990.5"
       id="b" />
    <linearGradient
       xlink:href="#a"
       gradientTransform="translate(-435.5,-523.5)"
       y2="914.5"
       x2="1133.5"
       y1="866.5"
       x1="1133.5"
       id="c" />
    <linearGradient
       gradientUnits="userSpaceOnUse"
       gradientTransform="translate(-40.87,-14)"
       y2="263.5"
       x2="650.5"
       y1="235.5"
       x1="650.5"
       id="d">
      <stop
         id="stop36"
         stop-color="#ccc"
         offset="0.32" />
      <stop
         id="stop38"
         stop-color="#b9b9b9"
         offset="0.34" />
      <stop
         id="stop40"
         stop-color="#9a9a9a"
         offset="0.38" />
      <stop
         id="stop42"
         stop-color="#7e7e7e"
         offset="0.42" />
      <stop
         id="stop44"
         stop-color="#686868"
         offset="0.47" />
      <stop
         id="stop46"
         stop-color="#575757"
         offset="0.53" />
      <stop
         id="stop48"
         stop-color="#4c4c4c"
         offset="0.61" />
      <stop
         id="stop50"
         stop-color="#454545"
         offset="0.71" />
      <stop
         id="stop52"
         stop-color="#434343"
         offset="1" />
    </linearGradient>
    <linearGradient
       xlink:href="#d"
       gradientTransform="translate(-1130.5,-272.5)"
       y2="635.5"
       x2="1748.5"
       y1="607.5"
       x1="1748.5"
       id="e" />
    <linearGradient
       inkscape:collect="always"
       xlink:href="#a"
       id="linearGradient4755"
       gradientUnits="userSpaceOnUse"
       x1="667.13"
       y1="184.5"
       x2="667.13"
       y2="389.5"
       gradientTransform="translate(1,1)" />
    <linearGradient
       inkscape:collect="always"
       xlink:href="#a"
       id="linearGradient4757"
       gradientTransform="translate(-773,-1581.13)"
       x1="990.5"
       y1="866.5"
       x2="990.5"
       y2="914.5" />
    <linearGradient
       inkscape:collect="always"
       xlink:href="#a"
       id="linearGradient4759"
       gradientTransform="translate(-773,-1581.13)"
       x1="1133.5"
       y1="866.5"
       x2="1133.5"
       y2="914.5" />
    <linearGradient
       inkscape:collect="always"
       xlink:href="#d"
       id="linearGradient4761"
       gradientUnits="userSpaceOnUse"
       gradientTransform="translate(-39.87,-13)"
       x1="650.5"
       y1="235.5"
       x2="650.5"
       y2="263.5" />
    <linearGradient
       inkscape:collect="always"
       xlink:href="#d"
       id="linearGradient4763"
       gradientTransform="translate(-2359.13,-964.00003)"
       x1="1748.5"
       y1="607.5"
       x2="1748.5"
       y2="635.5" />
  </defs>
  <title
     id="title55">pikoblx</title>
  <path
     class="a"
     d="M 641.12,1 79.120004,1 1,82.00003 l 0,559.13 78.120004,78.12 558.249996,0 84.25,-84.25 0,-553.5 z m -8,48.00003"
     id="path4359"
     inkscape:connector-curvature="0"
     style="fill:#36443c" />
  <rect
     class="b"
     x="179.12"
     y="1.999993"
     width="44"
     height="69"
     id="rect4361"
     style="fill:#c48b53" />
  <rect
     class="b"
     x="243.12"
     y="1.999993"
     width="32"
     height="69"
     id="rect4363"
     style="fill:#c48b53" />
  <rect
     class="b"
     x="296.12"
     y="1.999993"
     width="50"
     height="69"
     id="rect4365"
     style="fill:#c48b53" />
  <rect
     class="b"
     x="365.12"
     y="1.999993"
     width="50"
     height="69"
     id="rect4367"
     style="fill:#c48b53" />
  <rect
     class="b"
     x="442.13004"
     y="1.999993"
     width="32"
     height="69"
     id="rect4369"
     style="fill:#c48b53" />
  <rect
     class="b"
     x="496.13004"
     y="1.999993"
     width="44"
     height="69"
     id="rect4371"
     style="fill:#c48b53" />
  <polygon
     class="c"
     points="380.13,228.5 383.13,221.5 383.13,205.5 375.13,205.5 375.13,218.5 375.13,218.5 372.13,225.5 372.13,240.5 380.13,240.5 "
     id="polygon4373"
     transform="translate(1,1)"
     style="fill:#cccccc" />
  <polygon
     class="c"
     points="366.63,228.5 369.63,221.5 369.63,205.5 361.63,205.5 361.63,218.5 361.63,218.5 358.63,225.5 358.63,240.5 366.63,240.5 "
     id="polygon4375"
     transform="translate(1,1)"
     style="fill:#cccccc" />
  <polygon
     class="c"
     points="353.13,228.5 356.13,221.5 356.13,205.5 348.13,205.5 348.13,218.5 348.13,218.5 345.13,225.5 345.13,240.5 353.13,240.5 "
     id="polygon4377"
     transform="translate(1,1)"
     style="fill:#cccccc" />
  <polygon
     class="c"
     points="339.63,228.5 342.63,221.5 342.63,205.5 334.63,205.5 334.63,218.5 334.63,218.5 331.63,225.5 331.63,240.5 339.63,240.5 "
     id="polygon4379"
     transform="translate(1,1)"
     style="fill:#cccccc" />
  <polygon
     class="c"
     points="326.13,228.5 329.13,221.5 329.13,205.5 321.13,205.5 321.13,218.5 321.13,218.5 318.13,225.5 318.13,240.5 326.13,240.5 "
     id="polygon4381"
     transform="translate(1,1)"
     style="fill:#cccccc" />
  <polygon
     class="c"
     points="312.63,228.5 315.63,221.5 315.63,205.5 307.63,205.5 307.63,218.5 307.63,218.5 304.63,225.5 304.63,240.5 312.63,240.5 "
     id="polygon4383"
     transform="translate(1,1)"
     style="fill:#cccccc" />
  <polygon
     class="c"
     points="299.13,228.5 302.13,221.5 302.13,205.5 294.13,205.5 294.13,218.5 294.13,218.5 291.13,225.5 291.13,240.5 299.13,240.5 "
     id="polygon4385"
     transform="translate(1,1)"
     style="fill:#cccccc" />
  <polygon
     class="c"
     points="285.63,228.5 288.63,221.5 288.63,205.5 280.63,205.5 280.63,218.5 280.63,218.5 277.63,225.5 277.63,240.5 285.63,240.5 "
     id="polygon4387"
     transform="translate(1,1)"
     style="fill:#cccccc" />
  <polygon
     class="c"
     points="272.13,228.5 275.13,221.5 275.13,205.5 267.13,205.5 267.13,218.5 267.13,218.5 264.13,225.5 264.13,240.5 272.13,240.5 "
     id="polygon4389"
     transform="translate(1,1)"
     style="fill:#cccccc" />
  <polygon
     class="c"
     points="258.63,228.5 261.63,221.5 261.63,205.5 253.63,205.5 253.63,218.5 253.63,218.5 250.63,225.5 250.63,240.5 258.63,240.5 "
     id="polygon4391"
     transform="translate(1,1)"
     style="fill:#cccccc" />
  <polygon
     class="c"
     points="245.13,228.5 248.13,221.5 248.13,205.5 240.13,205.5 240.13,218.5 240.13,218.5 237.13,225.5 237.13,240.5 245.13,240.5 "
     id="polygon4393"
     transform="translate(1,1)"
     style="fill:#cccccc" />
  <polygon
     class="c"
     points="231.63,228.5 234.63,221.5 234.63,205.5 226.63,205.5 226.63,218.5 226.63,218.5 223.63,225.5 223.63,240.5 231.63,240.5 "
     id="polygon4395"
     transform="translate(1,1)"
     style="fill:#cccccc" />
  <polygon
     class="c"
     points="226.63,446.5 223.63,439.5 223.63,423.5 231.63,423.5 231.63,436.5 231.63,436.5 234.63,443.5 234.63,458.5 226.63,458.5 "
     id="polygon4397"
     transform="translate(1,1)"
     style="fill:#cccccc" />
  <polygon
     class="c"
     points="240.13,446.5 237.13,439.5 237.13,423.5 245.13,423.5 245.13,436.5 245.13,436.5 248.13,443.5 248.13,458.5 240.13,458.5 "
     id="polygon4399"
     transform="translate(1,1)"
     style="fill:#cccccc" />
  <polygon
     class="c"
     points="253.63,446.5 250.63,439.5 250.63,423.5 258.63,423.5 258.63,436.5 258.63,436.5 261.63,443.5 261.63,458.5 253.63,458.5 "
     id="polygon4401"
     transform="translate(1,1)"
     style="fill:#cccccc" />
  <polygon
     class="c"
     points="267.13,446.5 264.13,439.5 264.13,423.5 272.13,423.5 272.13,436.5 272.13,436.5 275.13,443.5 275.13,458.5 267.13,458.5 "
     id="polygon4403"
     transform="translate(1,1)"
     style="fill:#cccccc" />
  <polygon
     class="c"
     points="280.63,446.5 277.63,439.5 277.63,423.5 285.63,423.5 285.63,436.5 285.63,436.5 288.63,443.5 288.63,458.5 280.63,458.5 "
     id="polygon4405"
     transform="translate(1,1)"
     style="fill:#cccccc" />
  <polygon
     class="c"
     points="294.13,446.5 291.13,439.5 291.13,423.5 299.13,423.5 299.13,436.5 299.13,436.5 302.13,443.5 302.13,458.5 294.13,458.5 "
     id="polygon4407"
     transform="translate(1,1)"
     style="fill:#cccccc" />
  <polygon
     class="c"
     points="307.63,446.5 304.63,439.5 304.63,423.5 312.63,423.5 312.63,436.5 312.63,436.5 315.63,443.5 315.63,458.5 307.63,458.5 "
     id="polygon4409"
     transform="translate(1,1)"
     style="fill:#cccccc" />
  <polygon
     class="c"
     points="321.13,446.5 318.13,439.5 318.13,423.5 326.13,423.5 326.13,436.5 326.13,436.5 329.13,443.5 329.13,458.5 321.13,458.5 "
     id="polygon4411"
     transform="translate(1,1)"
     style="fill:#cccccc" />
  <polygon
     class="c"
     points="334.63,446.5 331.63,439.5 331.63,423.5 339.63,423.5 339.63,436.5 339.63,436.5 342.63,443.5 342.63,458.5 334.63,458.5 "
     id="polygon4413"
     transform="translate(1,1)"
     style="fill:#cccccc" />
  <polygon
     class="c"
     points="348.13,446.5 345.13,439.5 345.13,423.5 353.13,423.5 353.13,436.5 353.13,436.5 356.13,443.5 356.13,458.5 348.13,458.5 "
     id="polygon4415"
     transform="translate(1,1)"
     style="fill:#cccccc" />
  <polygon
     class="c"
     points="361.63,446.5 358.63,439.5 358.63,423.5 366.63,423.5 366.63,436.5 366.63,436.5 369.63,443.5 369.63,458.5 361.63,458.5 "
     id="polygon4417"
     transform="translate(1,1)"
     style="fill:#cccccc" />
  <polygon
     class="c"
     points="375.13,446.5 372.13,439.5 372.13,423.5 380.13,423.5 380.13,436.5 380.13,436.5 383.13,443.5 383.13,458.5 375.13,458.5 "
     id="polygon4419"
     transform="translate(1,1)"
     style="fill:#cccccc" />
  <polygon
     class="d"
     points="393.13,415 384.1,424 219.65,424 210.63,415 210.63,250 210.63,250 220.15,240.5 384.1,240.5 392.87,249.25 "
     id="polygon4421"
     transform="translate(1,1)"
     style="fill:#333333" />
  <polygon
     class="c"
     points="404.88,410.75 411.88,413.75 427.88,413.75 427.88,405.75 414.88,405.75 414.88,405.75 407.88,402.75 392.88,402.75 392.88,410.75 "
     id="polygon4423"
     transform="translate(1,1)"
     style="fill:#cccccc" />
  <polygon
     class="c"
     points="404.88,397.25 411.88,400.25 427.88,400.25 427.88,392.25 414.88,392.25 414.88,392.25 407.88,389.25 392.88,389.25 392.88,397.25 "
     id="polygon4425"
     transform="translate(1,1)"
     style="fill:#cccccc" />
  <polygon
     class="c"
     points="404.88,383.75 411.88,386.75 427.88,386.75 427.88,378.75 414.88,378.75 414.88,378.75 407.88,375.75 392.88,375.75 392.88,383.75 "
     id="polygon4427"
     transform="translate(1,1)"
     style="fill:#cccccc" />
  <polygon
     class="c"
     points="404.88,370.25 411.88,373.25 427.88,373.25 427.88,365.25 414.88,365.25 414.88,365.25 407.88,362.25 392.88,362.25 392.88,370.25 "
     id="polygon4429"
     transform="translate(1,1)"
     style="fill:#cccccc" />
  <polygon
     class="c"
     points="404.88,356.75 411.88,359.75 427.88,359.75 427.88,351.75 414.88,351.75 414.88,351.75 407.88,348.75 392.88,348.75 392.88,356.75 "
     id="polygon4431"
     transform="translate(1,1)"
     style="fill:#cccccc" />
  <polygon
     class="c"
     points="404.88,343.25 411.88,346.25 427.88,346.25 427.88,338.25 414.88,338.25 414.88,338.25 407.88,335.25 392.88,335.25 392.88,343.25 "
     id="polygon4433"
     transform="translate(1,1)"
     style="fill:#cccccc" />
  <polygon
     class="c"
     points="404.88,329.75 411.88,332.75 427.88,332.75 427.88,324.75 414.88,324.75 414.88,324.75 407.88,321.75 392.88,321.75 392.88,329.75 "
     id="polygon4435"
     transform="translate(1,1)"
     style="fill:#cccccc" />
  <polygon
     class="c"
     points="404.88,316.25 411.88,319.25 427.88,319.25 427.88,311.25 414.88,311.25 414.88,311.25 407.88,308.25 392.88,308.25 392.88,316.25 "
     id="polygon4437"
     transform="translate(1,1)"
     style="fill:#cccccc" />
  <polygon
     class="c"
     points="404.88,302.75 411.88,305.75 427.88,305.75 427.88,297.75 414.88,297.75 414.88,297.75 407.88,294.75 392.88,294.75 392.88,302.75 "
     id="polygon4439"
     transform="translate(1,1)"
     style="fill:#cccccc" />
  <polygon
     class="c"
     points="404.88,289.25 411.88,292.25 427.88,292.25 427.88,284.25 414.88,284.25 414.88,284.25 407.88,281.25 392.88,281.25 392.88,289.25 "
     id="polygon4441"
     transform="translate(1,1)"
     style="fill:#cccccc" />
  <polygon
     class="c"
     points="404.88,275.75 411.88,278.75 427.88,278.75 427.88,270.75 414.88,270.75 414.88,270.75 407.88,267.75 392.88,267.75 392.88,275.75 "
     id="polygon4443"
     transform="translate(1,1)"
     style="fill:#cccccc" />
  <polygon
     class="c"
     points="404.88,262.25 411.88,265.25 427.88,265.25 427.88,257.25 414.88,257.25 414.88,257.25 407.88,254.25 392.88,254.25 392.88,262.25 "
     id="polygon4445"
     transform="translate(1,1)"
     style="fill:#cccccc" />
  <polygon
     class="c"
     points="186.88,257.25 193.88,254.25 209.88,254.25 209.88,262.25 196.88,262.25 196.88,262.25 189.88,265.25 174.88,265.25 174.88,257.25 "
     id="polygon4447"
     transform="translate(1,1)"
     style="fill:#cccccc" />
  <polygon
     class="c"
     points="186.88,270.75 193.88,267.75 209.88,267.75 209.88,275.75 196.88,275.75 196.88,275.75 189.88,278.75 174.88,278.75 174.88,270.75 "
     id="polygon4449"
     transform="translate(1,1)"
     style="fill:#cccccc" />
  <polygon
     class="c"
     points="186.88,284.25 193.88,281.25 209.88,281.25 209.88,289.25 196.88,289.25 196.88,289.25 189.88,292.25 174.88,292.25 174.88,284.25 "
     id="polygon4451"
     transform="translate(1,1)"
     style="fill:#cccccc" />
  <polygon
     class="c"
     points="186.88,297.75 193.88,294.75 209.88,294.75 209.88,302.75 196.88,302.75 196.88,302.75 189.88,305.75 174.88,305.75 174.88,297.75 "
     id="polygon4453"
     transform="translate(1,1)"
     style="fill:#cccccc" />
  <polygon
     class="c"
     points="186.88,311.25 193.88,308.25 209.88,308.25 209.88,316.25 196.88,316.25 196.88,316.25 189.88,319.25 174.88,319.25 174.88,311.25 "
     id="polygon4455"
     transform="translate(1,1)"
     style="fill:#cccccc" />
  <polygon
     class="c"
     points="186.88,324.75 193.88,321.75 209.88,321.75 209.88,329.75 196.88,329.75 196.88,329.75 189.88,332.75 174.88,332.75 174.88,324.75 "
     id="polygon4457"
     transform="translate(1,1)"
     style="fill:#cccccc" />
  <polygon
     class="c"
     points="186.88,338.25 193.88,335.25 209.88,335.25 209.88,343.25 196.88,343.25 196.88,343.25 189.88,346.25 174.88,346.25 174.88,338.25 "
     id="polygon4459"
     transform="translate(1,1)"
     style="fill:#cccccc" />
  <polygon
     class="c"
     points="186.88,351.75 193.88,348.75 209.88,348.75 209.88,356.75 196.88,356.75 196.88,356.75 189.88,359.75 174.88,359.75 174.88,351.75 "
     id="polygon4461"
     transform="translate(1,1)"
     style="fill:#cccccc" />
  <polygon
     class="c"
     points="186.88,365.25 193.88,362.25 209.88,362.25 209.88,370.25 196.88,370.25 196.88,370.25 189.88,373.25 174.88,373.25 174.88,365.25 "
     id="polygon4463"
     transform="translate(1,1)"
     style="fill:#cccccc" />
  <polygon
     class="c"
     points="186.88,378.75 193.88,375.75 209.88,375.75 209.88,383.75 196.88,383.75 196.88,383.75 189.88,386.75 174.88,386.75 174.88,378.75 "
     id="polygon4465"
     transform="translate(1,1)"
     style="fill:#cccccc" />
  <polygon
     class="c"
     points="186.88,392.25 193.88,389.25 209.88,389.25 209.88,397.25 196.88,397.25 196.88,397.25 189.88,400.25 174.88,400.25 174.88,392.25 "
     id="polygon4467"
     transform="translate(1,1)"
     style="fill:#cccccc" />
  <polygon
     class="c"
     points="186.88,405.75 193.88,402.75 209.88,402.75 209.88,410.75 196.88,410.75 196.88,410.75 189.88,413.75 174.88,413.75 174.88,405.75 "
     id="polygon4469"
     transform="translate(1,1)"
     style="fill:#cccccc" />
  <rect
     class="e"
     x="497.63004"
     y="95.000053"
     width="8.5"
     height="9.5"
     id="rect4471"
     style="fill:#e6e6e6" />
  <rect
     class="e"
     x="484.13004"
     y="95.000053"
     width="8.5"
     height="9.5"
     id="rect4473"
     style="fill:#e6e6e6" />
  <rect
     class="e"
     x="470.63004"
     y="95.000053"
     width="8.5"
     height="9.5"
     id="rect4475"
     style="fill:#e6e6e6" />
  <rect
     class="e"
     x="457.13004"
     y="95.000053"
     width="8.5"
     height="9.5"
     id="rect4477"
     style="fill:#e6e6e6" />
  <rect
     class="e"
     x="443.63004"
     y="95.000053"
     width="8.5"
     height="9.5"
     id="rect4479"
     style="fill:#e6e6e6" />
  <rect
     class="e"
     x="430.13004"
     y="95.000053"
     width="8.5"
     height="9.5"
     id="rect4481"
     style="fill:#e6e6e6" />
  <rect
     class="e"
     x="498.63004"
     y="211.00006"
     width="8.5"
     height="9.5"
     id="rect4483"
     style="fill:#e6e6e6" />
  <rect
     class="e"
     x="485.13004"
     y="211.00006"
     width="8.5"
     height="9.5"
     id="rect4485"
     style="fill:#e6e6e6" />
  <rect
     class="e"
     x="471.63004"
     y="211.00006"
     width="8.5"
     height="9.5"
     id="rect4487"
     style="fill:#e6e6e6" />
  <rect
     class="e"
     x="458.13004"
     y="211.00006"
     width="8.5"
     height="9.5"
     id="rect4489"
     style="fill:#e6e6e6" />
  <rect
     class="e"
     x="444.63004"
     y="211.00006"
     width="8.5"
     height="9.5"
     id="rect4491"
     style="fill:#e6e6e6" />
  <rect
     class="e"
     x="431.13004"
     y="211.00006"
     width="8.5"
     height="9.5"
     id="rect4493"
     style="fill:#e6e6e6" />
  <rect
     class="d"
     x="412.63"
     y="104.50005"
     width="106"
     height="107"
     id="rect4495"
     style="fill:#333333" />
  <rect
     class="e"
     x="402.88"
     y="120.25005"
     width="9.5"
     height="8.5"
     id="rect4497"
     style="fill:#e6e6e6" />
  <rect
     class="e"
     x="402.88"
     y="133.75006"
     width="9.5"
     height="8.5"
     id="rect4499"
     style="fill:#e6e6e6" />
  <rect
     class="e"
     x="402.88"
     y="147.25006"
     width="9.5"
     height="8.5"
     id="rect4501"
     style="fill:#e6e6e6" />
  <rect
     class="e"
     x="402.88"
     y="160.75006"
     width="9.5"
     height="8.5"
     id="rect4503"
     style="fill:#e6e6e6" />
  <rect
     class="e"
     x="402.88"
     y="174.25006"
     width="9.5"
     height="8.5"
     id="rect4505"
     style="fill:#e6e6e6" />
  <rect
     class="e"
     x="402.88"
     y="187.75006"
     width="9.5"
     height="8.5"
     id="rect4507"
     style="fill:#e6e6e6" />
  <rect
     class="e"
     x="518.88"
     y="119.25005"
     width="9.5"
     height="8.5"
     id="rect4509"
     style="fill:#e6e6e6" />
  <rect
     class="e"
     x="518.88"
     y="132.75006"
     width="9.5"
     height="8.5"
     id="rect4511"
     style="fill:#e6e6e6" />
  <rect
     class="e"
     x="518.88"
     y="146.25006"
     width="9.5"
     height="8.5"
     id="rect4513"
     style="fill:#e6e6e6" />
  <rect
     class="e"
     x="518.88"
     y="159.75006"
     width="9.5"
     height="8.5"
     id="rect4515"
     style="fill:#e6e6e6" />
  <rect
     class="e"
     x="518.88"
     y="173.25006"
     width="9.5"
     height="8.5"
     id="rect4517"
     style="fill:#e6e6e6" />
  <rect
     class="e"
     x="518.88"
     y="186.75006"
     width="9.5"
     height="8.5"
     id="rect4519"
     style="fill:#e6e6e6" />
  <rect
     class="e"
     x="249.63"
     y="160.50006"
     width="14"
     height="11"
     id="rect4521"
     style="fill:#e6e6e6" />
  <rect
     class="e"
     x="249.63"
     y="186.50006"
     width="14"
     height="11"
     id="rect4523"
     style="fill:#e6e6e6" />
  <rect
     class="d"
     x="249.63"
     y="171.50006"
     width="14"
     height="15"
     id="rect4525"
     style="fill:#333333" />
  <rect
     class="e"
     x="278.63"
     y="160.50006"
     width="14"
     height="11"
     id="rect4527"
     style="fill:#e6e6e6" />
  <rect
     class="e"
     x="278.63"
     y="186.50006"
     width="14"
     height="11"
     id="rect4529"
     style="fill:#e6e6e6" />
  <rect
     class="d"
     x="278.63"
     y="171.50006"
     width="14"
     height="15"
     id="rect4531"
     style="fill:#333333" />
  <rect
     class="e"
     x="305.63"
     y="160.50006"
     width="14"
     height="11"
     id="rect4533"
     style="fill:#e6e6e6" />
  <rect
     class="e"
     x="305.63"
     y="186.50006"
     width="14"
     height="11"
     id="rect4535"
     style="fill:#e6e6e6" />
  <rect
     class="d"
     x="305.63"
     y="171.50006"
     width="14"
     height="15"
     id="rect4537"
     style="fill:#333333" />
  <rect
     class="e"
     x="331.63"
     y="160.50006"
     width="14"
     height="11"
     id="rect4539"
     style="fill:#e6e6e6" />
  <rect
     class="e"
     x="331.63"
     y="186.50006"
     width="14"
     height="11"
     id="rect4541"
     style="fill:#e6e6e6" />
  <rect
     class="d"
     x="331.63"
     y="171.50006"
     width="14"
     height="15"
     id="rect4543"
     style="fill:#333333" />
  <rect
     class="e"
     x="283.50006"
     y="-489.63004"
     width="14"
     height="11"
     transform="matrix(0,1,-1,0,0,0)"
     id="rect4545"
     style="fill:#e6e6e6" />
  <rect
     class="e"
     x="283.50006"
     y="-463.63004"
     width="14"
     height="11"
     transform="matrix(0,1,-1,0,0,0)"
     id="rect4547"
     style="fill:#e6e6e6" />
  <rect
     class="d"
     x="283.50006"
     y="-478.63004"
     width="14"
     height="15"
     transform="matrix(0,1,-1,0,0,0)"
     id="rect4549"
     style="fill:#333333" />
  <rect
     class="e"
     x="332.63"
     y="519.50006"
     width="14"
     height="11"
     id="rect4551"
     style="fill:#e6e6e6" />
  <rect
     class="e"
     x="332.63"
     y="545.5"
     width="14"
     height="11"
     id="rect4553"
     style="fill:#e6e6e6" />
  <rect
     class="d"
     x="332.63"
     y="530.5"
     width="14"
     height="15"
     id="rect4555"
     style="fill:#333333" />
  <rect
     class="e"
     x="433.63004"
     y="514.50006"
     width="14"
     height="11"
     id="rect4557"
     style="fill:#e6e6e6" />
  <rect
     class="e"
     x="433.63004"
     y="540.5"
     width="14"
     height="11"
     id="rect4559"
     style="fill:#e6e6e6" />
  <rect
     class="d"
     x="433.63004"
     y="525.5"
     width="14"
     height="15"
     id="rect4561"
     style="fill:#333333" />
  <rect
     class="e"
     x="535.5"
     y="-263.63"
     width="14"
     height="11"
     transform="matrix(0,1,-1,0,0,0)"
     id="rect4563"
     style="fill:#e6e6e6" />
  <rect
     class="e"
     x="535.5"
     y="-237.63"
     width="14"
     height="11"
     transform="matrix(0,1,-1,0,0,0)"
     id="rect4565"
     style="fill:#e6e6e6" />
  <rect
     class="d"
     x="535.5"
     y="-252.63"
     width="14"
     height="15"
     transform="matrix(0,1,-1,0,0,0)"
     id="rect4567"
     style="fill:#333333" />
  <rect
     class="e"
     x="463.63004"
     y="380.50006"
     width="37"
     height="19"
     id="rect4569"
     style="fill:#e6e6e6" />
  <rect
     class="e"
     x="463.63004"
     y="428.50006"
     width="37"
     height="19"
     id="rect4571"
     style="fill:#e6e6e6" />
  <rect
     class="f"
     x="463.63004"
     y="399.50006"
     width="37"
     height="29"
     id="rect4573"
     style="fill:#b7895c" />
  <rect
     class="e"
     x="522.63"
     y="380.50006"
     width="37"
     height="19"
     id="rect4575"
     style="fill:#e6e6e6" />
  <rect
     class="e"
     x="522.63"
     y="428.50006"
     width="37"
     height="19"
     id="rect4577"
     style="fill:#e6e6e6" />
  <rect
     class="f"
     x="522.63"
     y="399.50006"
     width="37"
     height="29"
     id="rect4579"
     style="fill:#b7895c" />
  <rect
     class="e"
     x="219.63"
     y="97.500053"
     width="23"
     height="11"
     id="rect4581"
     style="fill:#e6e6e6" />
  <rect
     class="e"
     x="219.63"
     y="144.50006"
     width="23"
     height="11"
     id="rect4583"
     style="fill:#e6e6e6" />
  <rect
     class="g"
     x="219.63"
     y="108.50005"
     width="23"
     height="36"
     id="rect4585"
     style="fill:#009245" />
  <rect
     class="h"
     x="222.63"
     y="111.50005"
     width="8"
     height="13"
     id="rect4587"
     style="fill:#f2f2f2" />
  <rect
     class="e"
     x="326.63"
     y="97.500053"
     width="23"
     height="11"
     id="rect4589"
     style="fill:#e6e6e6" />
  <rect
     class="e"
     x="326.63"
     y="144.50006"
     width="23"
     height="11"
     id="rect4591"
     style="fill:#e6e6e6" />
  <rect
     class="i"
     x="326.63"
     y="108.50005"
     width="23"
     height="36"
     id="rect4593"
     style="fill:#0071bc" />
  <rect
     class="h"
     x="329.63"
     y="111.50005"
     width="8"
     height="13"
     id="rect4595"
     style="fill:#f2f2f2" />
  <rect
     class="e"
     x="177.63"
     y="193.50006"
     width="14"
     height="10"
     id="rect4597"
     style="fill:#e6e6e6" />
  <rect
     class="f"
     x="177.63"
     y="178.50006"
     width="14"
     height="15"
     id="rect4599"
     style="fill:#b7895c" />
  <rect
     class="e"
     x="177.63"
     y="168.50006"
     width="14"
     height="10"
     id="rect4601"
     style="fill:#e6e6e6" />
  <rect
     class="e"
     x="260.50006"
     y="-463.63004"
     width="14"
     height="10"
     transform="matrix(0,1,-1,0,0,0)"
     id="rect4603"
     style="fill:#e6e6e6" />
  <rect
     class="f"
     x="260.50006"
     y="-478.63004"
     width="14"
     height="15"
     transform="matrix(0,1,-1,0,0,0)"
     id="rect4605"
     style="fill:#b7895c" />
  <rect
     class="e"
     x="260.50006"
     y="-488.63004"
     width="14"
     height="10"
     transform="matrix(0,1,-1,0,0,0)"
     id="rect4607"
     style="fill:#e6e6e6" />
  <rect
     class="e"
     x="236.50006"
     y="-463.63004"
     width="14"
     height="10"
     transform="matrix(0,1,-1,0,0,0)"
     id="rect4609"
     style="fill:#e6e6e6" />
  <rect
     class="f"
     x="236.50006"
     y="-478.63004"
     width="14"
     height="15"
     transform="matrix(0,1,-1,0,0,0)"
     id="rect4611"
     style="fill:#b7895c" />
  <rect
     class="e"
     x="236.50006"
     y="-488.63004"
     width="14"
     height="10"
     transform="matrix(0,1,-1,0,0,0)"
     id="rect4613"
     style="fill:#e6e6e6" />
  <rect
     class="e"
     x="163.50006"
     y="-366.63"
     width="14"
     height="10"
     transform="matrix(0,1,-1,0,0,0)"
     id="rect4615"
     style="fill:#e6e6e6" />
  <rect
     class="f"
     x="163.50006"
     y="-381.63"
     width="14"
     height="15"
     transform="matrix(0,1,-1,0,0,0)"
     id="rect4617"
     style="fill:#b7895c" />
  <rect
     class="e"
     x="163.50006"
     y="-391.63"
     width="14"
     height="10"
     transform="matrix(0,1,-1,0,0,0)"
     id="rect4619"
     style="fill:#e6e6e6" />
  <rect
     class="e"
     x="147.63"
     y="407.50006"
     width="14"
     height="10"
     id="rect4621"
     style="fill:#e6e6e6" />
  <rect
     class="f"
     x="147.63"
     y="392.50006"
     width="14"
     height="15"
     id="rect4623"
     style="fill:#b7895c" />
  <rect
     class="e"
     x="147.63"
     y="382.50006"
     width="14"
     height="10"
     id="rect4625"
     style="fill:#e6e6e6" />
  <rect
     class="e"
     x="491.50006"
     y="-235.63"
     width="14"
     height="10"
     transform="matrix(0,1,-1,0,0,0)"
     id="rect4627"
     style="fill:#e6e6e6" />
  <rect
     class="f"
     x="491.50006"
     y="-250.63"
     width="14"
     height="15"
     transform="matrix(0,1,-1,0,0,0)"
     id="rect4629"
     style="fill:#b7895c" />
  <rect
     class="e"
     x="491.50006"
     y="-260.63"
     width="14"
     height="10"
     transform="matrix(0,1,-1,0,0,0)"
     id="rect4631"
     style="fill:#e6e6e6" />
  <rect
     class="e"
     x="484.50006"
     y="-355.63"
     width="14"
     height="10"
     transform="matrix(0,1,-1,0,0,0)"
     id="rect4633"
     style="fill:#e6e6e6" />
  <rect
     class="f"
     x="484.50006"
     y="-370.63"
     width="14"
     height="15"
     transform="matrix(0,1,-1,0,0,0)"
     id="rect4635"
     style="fill:#b7895c" />
  <rect
     class="e"
     x="484.50006"
     y="-380.63"
     width="14"
     height="10"
     transform="matrix(0,1,-1,0,0,0)"
     id="rect4637"
     style="fill:#e6e6e6" />
  <rect
     class="e"
     x="428.63"
     y="447.50006"
     width="23"
     height="11"
     id="rect4639"
     style="fill:#e6e6e6" />
  <rect
     class="e"
     x="428.63"
     y="494.50006"
     width="23"
     height="11"
     id="rect4641"
     style="fill:#e6e6e6" />
  <rect
     class="j"
     x="428.63"
     y="458.50006"
     width="23"
     height="36"
     id="rect4643"
     style="fill:#f7931e" />
  <rect
     class="h"
     x="431.63004"
     y="461.50006"
     width="8"
     height="13"
     id="rect4645"
     style="fill:#f2f2f2" />
  <rect
     class="b"
     x="179.62"
     y="650.5"
     width="44"
     height="69"
     id="rect4647"
     style="fill:#c48b53" />
  <rect
     class="b"
     x="243.62"
     y="650.5"
     width="32"
     height="69"
     id="rect4649"
     style="fill:#c48b53" />
  <rect
     class="b"
     x="296.62"
     y="650.5"
     width="50"
     height="69"
     id="rect4651"
     style="fill:#c48b53" />
  <rect
     class="b"
     x="365.63"
     y="650.5"
     width="50"
     height="69"
     id="rect4653"
     style="fill:#c48b53" />
  <rect
     class="b"
     x="442.63004"
     y="650.5"
     width="32"
     height="69"
     id="rect4655"
     style="fill:#c48b53" />
  <rect
     class="b"
     x="496.63004"
     y="650.5"
     width="44"
     height="69"
     id="rect4657"
     style="fill:#c48b53" />
  <rect
     class="b"
     x="153.63"
     y="487.50006"
     width="17"
     height="35"
     id="rect4659"
     style="fill:#c48b53" />
  <rect
     class="b"
     x="175.63"
     y="487.50006"
     width="17"
     height="35"
     id="rect4661"
     style="fill:#c48b53" />
  <rect
     class="b"
     x="197.63"
     y="487.50006"
     width="17"
     height="35"
     id="rect4663"
     style="fill:#c48b53" />
  <rect
     class="d"
     x="508.63004"
     y="322.50006"
     width="44"
     height="32"
     id="rect4665"
     style="fill:#333333" />
  <rect
     class="e"
     x="493.63004"
     y="329.50006"
     width="15"
     height="19"
     id="rect4667"
     style="fill:#e6e6e6" />
  <rect
     class="e"
     x="552.63"
     y="328.50006"
     width="15"
     height="19"
     id="rect4669"
     style="fill:#e6e6e6" />
  <rect
     class="b"
     x="269.63"
     y="115.50005"
     width="33"
     height="14"
     id="rect4671"
     style="fill:#c48b53" />
  <rect
     class="k"
     x="273.63"
     y="118.50005"
     width="14"
     height="3"
     id="rect4673"
     style="fill:#ffd3ab" />
  <rect
     class="b"
     x="269.63"
     y="134.50006"
     width="33"
     height="14"
     id="rect4675"
     style="fill:#c48b53" />
  <rect
     class="k"
     x="273.63"
     y="137.50006"
     width="14"
     height="3"
     id="rect4677"
     style="fill:#ffd3ab" />
  <rect
     class="l"
     x="548.63"
     y="178.50006"
     width="14"
     height="26"
     id="rect4679"
     style="fill:#999999" />
  <rect
     class="c"
     x="546.63"
     y="204.50006"
     width="7"
     height="8"
     id="rect4681"
     style="fill:#cccccc" />
  <rect
     class="c"
     x="557.63"
     y="204.50006"
     width="7"
     height="8"
     id="rect4683"
     style="fill:#cccccc" />
  <polygon
     class="d"
     points="479.88,527.25 479.88,539.5 542.63,539.5 542.63,527.5 548.63,521.5 548.63,481.5 543.63,475.5 543.88,461.5 479.63,461.5 479.63,461.5 479.63,475.5 474.13,481 474.13,521.5 "
     id="polygon4685"
     transform="translate(1,1)"
     style="fill:#333333" />
  <rect
     class="m"
     x="599.63"
     y="185.50006"
     width="137"
     height="205"
     id="rect4687"
     style="fill:url(#linearGradient4755)" />
  <rect
     class="n"
     x="206.50006"
     y="-714.63"
     width="22"
     height="48"
     transform="matrix(0,1,-1,0,0,0)"
     id="rect4689"
     style="fill:url(#linearGradient4757)" />
  <rect
     class="o"
     x="349.50006"
     y="-714.63"
     width="22"
     height="48"
     transform="matrix(0,1,-1,0,0,0)"
     id="rect4691"
     style="fill:url(#linearGradient4759)" />
  <rect
     class="p"
     x="599.63"
     y="222.50006"
     width="22"
     height="28"
     id="rect4693"
     style="fill:url(#linearGradient4761)" />
  <rect
     class="q"
     x="-621.63"
     y="-356.50006"
     width="22"
     height="28"
     transform="scale(-1,-1)"
     id="rect4695"
     style="fill:url(#linearGradient4763)" />
  <rect
     class="e"
     x="578.63"
     y="315.50006"
     width="21"
     height="12"
     id="rect4697"
     style="fill:#e6e6e6" />
  <rect
     class="e"
     x="578.63"
     y="298.50006"
     width="21"
     height="12"
     id="rect4699"
     style="fill:#e6e6e6" />
  <rect
     class="e"
     x="578.63"
     y="281.50006"
     width="21"
     height="12"
     id="rect4701"
     style="fill:#e6e6e6" />
  <rect
     class="e"
     x="578.63"
     y="264.50006"
     width="21"
     height="12"
     id="rect4703"
     style="fill:#e6e6e6" />
  <rect
     class="e"
     x="578.63"
     y="247.50006"
     width="21"
     height="12"
     id="rect4705"
     style="fill:#e6e6e6" />
  <circle
     class="r"
     cx="36.130009"
     cy="230.00006"
     r="19.5"
     id="circle4707"
     style="fill:none;stroke:#c48b53;stroke-width:8px;stroke-miterlimit:10" />
  <circle
     class="r"
     cx="36.130009"
     cy="296.00006"
     r="19.5"
     id="circle4709"
     style="fill:none;stroke:#c48b53;stroke-width:8px;stroke-miterlimit:10" />
  <circle
     class="r"
     cx="36.130009"
     cy="365.00006"
     r="19.5"
     id="circle4711"
     style="fill:none;stroke:#c48b53;stroke-width:8px;stroke-miterlimit:10" />
  <circle
     class="r"
     cx="36.130009"
     cy="430.00006"
     r="19.5"
     id="circle4713"
     style="fill:none;stroke:#c48b53;stroke-width:8px;stroke-miterlimit:10" />
  <circle
     class="r"
     cx="36.130009"
     cy="499.00006"
     r="19.5"
     id="circle4715"
     style="fill:none;stroke:#c48b53;stroke-width:8px;stroke-miterlimit:10" />
  <circle
     class="r"
     cx="105.13"
     cy="230.00006"
     r="19.5"
     id="circle4717"
     style="fill:none;stroke:#c48b53;stroke-width:8px;stroke-miterlimit:10" />
  <circle
     class="r"
     cx="105.13"
     cy="296.00006"
     r="19.5"
     id="circle4719"
     style="fill:none;stroke:#c48b53;stroke-width:8px;stroke-miterlimit:10" />
  <circle
     class="r"
     cx="105.13"
     cy="365.00006"
     r="19.5"
     id="circle4721"
     style="fill:none;stroke:#c48b53;stroke-width:8px;stroke-miterlimit:10" />
  <circle
     class="r"
     cx="105.13"
     cy="430.00006"
     r="19.5"
     id="circle4723"
     style="fill:none;stroke:#c48b53;stroke-width:8px;stroke-miterlimit:10" />
  <circle
     class="r"
     cx="105.13"
     cy="499.00006"
     r="19.5"
     id="circle4725"
     style="fill:none;stroke:#c48b53;stroke-width:8px;stroke-miterlimit:10" />
  <circle
     class="r"
     cx="610.13"
     cy="438.00006"
     r="19.5"
     id="circle4727"
     style="fill:none;stroke:#c48b53;stroke-width:8px;stroke-miterlimit:10" />
  <circle
     class="r"
     cx="679.13"
     cy="438.00006"
     r="19.5"
     id="circle4729"
     style="fill:none;stroke:#c48b53;stroke-width:8px;stroke-miterlimit:10" />
  <circle
     class="r"
     cx="610.13"
     cy="506.00006"
     r="19.5"
     id="circle4731"
     style="fill:none;stroke:#c48b53;stroke-width:8px;stroke-miterlimit:10" />
  <circle
     class="r"
     cx="679.13"
     cy="506.00006"
     r="19.5"
     id="circle4733"
     style="fill:none;stroke:#c48b53;stroke-width:8px;stroke-miterlimit:10" />
  <circle
     class="r"
     cx="491.63004"
     cy="605.5"
     r="18"
     id="circle4735"
     style="fill:none;stroke:#c48b53;stroke-width:8px;stroke-miterlimit:10" />
  <circle
     class="r"
     cx="424.63"
     cy="605.5"
     r="18"
     id="circle4737"
     style="fill:none;stroke:#c48b53;stroke-width:8px;stroke-miterlimit:10" />
  <circle
     class="s"
     cx="337.13"
     cy="602"
     r="24.5"
     id="circle4739"
     style="fill:none;stroke:#c48b53;stroke-width:10px;stroke-miterlimit:10" />
  <path
     class="b"
     d="m 199.62,570.50003 0,63 63,0 0,-63 z m 31.5,51.5 a 20,20 0 1 1 20,-20 20,20 0 0 1 -20,20 z"
     id="path4741"
     inkscape:connector-curvature="0"
     style="fill:#c48b53" />
  <polyline
     class="t"
     points="384.13 241 220.13 241 211.13 250 210.13 414.5"
     id="polyline4743"
     transform="translate(1,1)"
     style="fill:none;stroke:#808080;stroke-width:3px;stroke-miterlimit:10" />
  <polyline
     class="u"
     points="210.63 414.5 219.63 424.5 384.63 424.5 393.63 415.5 392.63 249.5 384.63 241.5"
     id="polyline4745"
     transform="translate(1,1)"
     style="fill:none;stroke:#262626;stroke-width:3px;stroke-miterlimit:10" />
  <line
     class="t"
     x1="412.13"
     y1="211.00006"
     x2="412.13"
     y2="104.00005"
     id="line4747"
     style="fill:none;stroke:#808080;stroke-width:3px;stroke-miterlimit:10" />
  <line
     class="t"
     x1="518.13"
     y1="104.00005"
     x2="412.13"
     y2="104.00005"
     id="line4749"
     style="fill:none;stroke:#808080;stroke-width:3px;stroke-miterlimit:10" />
  <line
     class="u"
     x1="412.13"
     y1="211.00006"
     x2="518.13"
     y2="211.00006"
     id="line4751"
     style="fill:none;stroke:#262626;stroke-width:3px;stroke-miterlimit:10" />
  <line
     class="u"
     x1="518.13"
     y1="104.00005"
     x2="518.13"
     y2="211.00006"
     id="line4753"
     style="fill:none;stroke:#262626;stroke-width:3px;stroke-miterlimit:10" />
</svg>
