<svg xmlns="http://www.w3.org/2000/svg" xmlns:xlink="http://www.w3.org/1999/xlink" viewBox="0 0 735.63 718.5"><defs><style>.a{fill:#36443c;}.b{fill:#c48b53;}.c{fill:#ccc;}.d{fill:#333;}.e{fill:#e6e6e6;}.f{fill:#b7895c;}.g{fill:#009245;}.h{fill:#f2f2f2;}.i{fill:#0071bc;}.j{fill:#f7931e;}.k{fill:#ffd3ab;}.l{fill:#999;}.m{fill:url(#a);}.n{fill:url(#b);}.o{fill:url(#c);}.p{fill:url(#d);}.q{fill:url(#e);}.r,.s,.t,.u{fill:none;stroke-miterlimit:10;}.r,.s{stroke:#c48b53;}.r{stroke-width:8px;}.s{stroke-width:10px;}.t{stroke:gray;}.t,.u{stroke-width:3px;}.u{stroke:#262626;}</style><linearGradient id="a" x1="667.13" y1="184.5" x2="667.13" y2="389.5" gradientUnits="userSpaceOnUse"><stop offset="0" stop-color="#fff"/><stop offset="0.06" stop-color="#eee"/><stop offset="0.14" stop-color="#dbdbdb"/><stop offset="0.22" stop-color="#d0d0d0"/><stop offset="0.32" stop-color="#ccc"/><stop offset="0.79" stop-color="#ccc"/><stop offset="0.82" stop-color="#c7c7c7"/><stop offset="0.86" stop-color="#bababa"/><stop offset="0.9" stop-color="#a3a3a3"/><stop offset="0.94" stop-color="#838383"/><stop offset="0.98" stop-color="#5b5b5b"/><stop offset="1" stop-color="#434343"/></linearGradient><linearGradient id="b" x1="990.5" y1="866.5" x2="990.5" y2="914.5" gradientTransform="translate(-292.5 -666.5)" xlink:href="#a"/><linearGradient id="c" x1="1133.5" y1="866.5" x2="1133.5" y2="914.5" gradientTransform="translate(-435.5 -523.5)" xlink:href="#a"/><linearGradient id="d" x1="650.5" y1="235.5" x2="650.5" y2="263.5" gradientTransform="translate(-40.87 -14)" gradientUnits="userSpaceOnUse"><stop offset="0.32" stop-color="#ccc"/><stop offset="0.34" stop-color="#b9b9b9"/><stop offset="0.38" stop-color="#9a9a9a"/><stop offset="0.42" stop-color="#7e7e7e"/><stop offset="0.47" stop-color="#686868"/><stop offset="0.53" stop-color="#575757"/><stop offset="0.61" stop-color="#4c4c4c"/><stop offset="0.71" stop-color="#454545"/><stop offset="1" stop-color="#434343"/></linearGradient><linearGradient id="e" x1="1748.5" y1="607.5" x2="1748.5" y2="635.5" gradientTransform="translate(-1130.5 -272.5)" xlink:href="#d"/></defs><title>pikoblx</title><path class="a" d="M648.5,7.5H86.5L8.38,88.5V647.63L86.5,725.75H644.75L729,641.5V88Zm-8,48a46,46,0,1,1-46,46A46,46,0,0,1,640.5,55.5Zm-23,408a19,19,0,1,1,19-19A19,19,0,0,1,617.5,463.5Zm19,49a19,19,0,1,1-19-19A19,19,0,0,1,636.5,512.5Zm-592-295a19,19,0,1,1-19,19A19,19,0,0,1,44.5,217.5Zm0,66a19,19,0,1,1-19,19A19,19,0,0,1,44.5,283.5Zm0,69a19,19,0,1,1-19,19A19,19,0,0,1,44.5,352.5Zm0,65a19,19,0,1,1-19,19A19,19,0,0,1,44.5,417.5Zm-19,89a19,19,0,1,1,19,19A19,19,0,0,1,25.5,506.5Zm76,172a46,46,0,1,1,46-46A46,46,0,0,1,101.5,678.5Zm12-395a19,19,0,1,1-19,19A19,19,0,0,1,113.5,283.5Zm-19-47a19,19,0,1,1,19,19A19,19,0,0,1,94.5,236.5Zm19,116a19,19,0,1,1-19,19A19,19,0,0,1,113.5,352.5Zm0,65a19,19,0,1,1-19,19A19,19,0,0,1,113.5,417.5Zm0,70a19,19,0,1,1-19,19A19,19,0,0,1,113.5,487.5Zm-12-340a46,46,0,1,1,46-46A46,46,0,0,1,101.5,147.5Zm137,485a23,23,0,1,1,23-23A23,23,0,0,1,238.5,632.5Zm107,0a23,23,0,1,1,23-23A23,23,0,0,1,345.5,632.5Zm87-3a17,17,0,1,1,17-17A17,17,0,0,1,432.5,629.5Zm67,0a17,17,0,1,1,17-17A17,17,0,0,1,499.5,629.5Zm141,49a46,46,0,1,1,46-46A46,46,0,0,1,640.5,678.5Zm46-147a19,19,0,1,1,19-19A19,19,0,0,1,686.5,531.5Zm0-68a19,19,0,1,1,19-19A19,19,0,0,1,686.5,463.5Z" transform="translate(-8.38 -7.5)"/><rect class="b" x="178.12" y="1" width="44" height="69"/><rect class="b" x="242.12" y="1" width="32" height="69"/><rect class="b" x="295.12" y="1" width="50" height="69"/><rect class="b" x="364.12" y="1" width="50" height="69"/><rect class="b" x="441.13" y="1" width="32" height="69"/><rect class="b" x="495.13" y="1" width="44" height="69"/><polygon class="c" points="375.13 218.5 372.13 225.5 372.13 240.5 380.13 240.5 380.13 228.5 383.13 221.5 383.13 205.5 375.13 205.5 375.13 218.5"/><polygon class="c" points="361.63 218.5 358.63 225.5 358.63 240.5 366.63 240.5 366.63 228.5 369.63 221.5 369.63 205.5 361.63 205.5 361.63 218.5"/><polygon class="c" points="348.13 218.5 345.13 225.5 345.13 240.5 353.13 240.5 353.13 228.5 356.13 221.5 356.13 205.5 348.13 205.5 348.13 218.5"/><polygon class="c" points="334.63 218.5 331.63 225.5 331.63 240.5 339.63 240.5 339.63 228.5 342.63 221.5 342.63 205.5 334.63 205.5 334.63 218.5"/><polygon class="c" points="321.13 218.5 318.13 225.5 318.13 240.5 326.13 240.5 326.13 228.5 329.13 221.5 329.13 205.5 321.13 205.5 321.13 218.5"/><polygon class="c" points="307.63 218.5 304.63 225.5 304.63 240.5 312.63 240.5 312.63 228.5 315.63 221.5 315.63 205.5 307.63 205.5 307.63 218.5"/><polygon class="c" points="294.13 218.5 291.13 225.5 291.13 240.5 299.13 240.5 299.13 228.5 302.13 221.5 302.13 205.5 294.13 205.5 294.13 218.5"/><polygon class="c" points="280.63 218.5 277.63 225.5 277.63 240.5 285.63 240.5 285.63 228.5 288.63 221.5 288.63 205.5 280.63 205.5 280.63 218.5"/><polygon class="c" points="267.13 218.5 264.13 225.5 264.13 240.5 272.13 240.5 272.13 228.5 275.13 221.5 275.13 205.5 267.13 205.5 267.13 218.5"/><polygon class="c" points="253.63 218.5 250.63 225.5 250.63 240.5 258.63 240.5 258.63 228.5 261.63 221.5 261.63 205.5 253.63 205.5 253.63 218.5"/><polygon class="c" points="240.13 218.5 237.13 225.5 237.13 240.5 245.13 240.5 245.13 228.5 248.13 221.5 248.13 205.5 240.13 205.5 240.13 218.5"/><polygon class="c" points="226.63 218.5 223.63 225.5 223.63 240.5 231.63 240.5 231.63 228.5 234.63 221.5 234.63 205.5 226.63 205.5 226.63 218.5"/><polygon class="c" points="231.63 436.5 234.63 443.5 234.63 458.5 226.63 458.5 226.63 446.5 223.63 439.5 223.63 423.5 231.63 423.5 231.63 436.5"/><polygon class="c" points="245.13 436.5 248.13 443.5 248.13 458.5 240.13 458.5 240.13 446.5 237.13 439.5 237.13 423.5 245.13 423.5 245.13 436.5"/><polygon class="c" points="258.63 436.5 261.63 443.5 261.63 458.5 253.63 458.5 253.63 446.5 250.63 439.5 250.63 423.5 258.63 423.5 258.63 436.5"/><polygon class="c" points="272.13 436.5 275.13 443.5 275.13 458.5 267.13 458.5 267.13 446.5 264.13 439.5 264.13 423.5 272.13 423.5 272.13 436.5"/><polygon class="c" points="285.63 436.5 288.63 443.5 288.63 458.5 280.63 458.5 280.63 446.5 277.63 439.5 277.63 423.5 285.63 423.5 285.63 436.5"/><polygon class="c" points="299.13 436.5 302.13 443.5 302.13 458.5 294.13 458.5 294.13 446.5 291.13 439.5 291.13 423.5 299.13 423.5 299.13 436.5"/><polygon class="c" points="312.63 436.5 315.63 443.5 315.63 458.5 307.63 458.5 307.63 446.5 304.63 439.5 304.63 423.5 312.63 423.5 312.63 436.5"/><polygon class="c" points="326.13 436.5 329.13 443.5 329.13 458.5 321.13 458.5 321.13 446.5 318.13 439.5 318.13 423.5 326.13 423.5 326.13 436.5"/><polygon class="c" points="339.63 436.5 342.63 443.5 342.63 458.5 334.63 458.5 334.63 446.5 331.63 439.5 331.63 423.5 339.63 423.5 339.63 436.5"/><polygon class="c" points="353.13 436.5 356.13 443.5 356.13 458.5 348.13 458.5 348.13 446.5 345.13 439.5 345.13 423.5 353.13 423.5 353.13 436.5"/><polygon class="c" points="366.63 436.5 369.63 443.5 369.63 458.5 361.63 458.5 361.63 446.5 358.63 439.5 358.63 423.5 366.63 423.5 366.63 436.5"/><polygon class="c" points="380.13 436.5 383.13 443.5 383.13 458.5 375.13 458.5 375.13 446.5 372.13 439.5 372.13 423.5 380.13 423.5 380.13 436.5"/><polygon class="d" points="210.63 250 220.15 240.5 384.1 240.5 392.87 249.25 393.13 415 384.1 424 219.65 424 210.63 415 210.63 250"/><polygon class="c" points="414.88 405.75 407.88 402.75 392.88 402.75 392.88 410.75 404.88 410.75 411.88 413.75 427.88 413.75 427.88 405.75 414.88 405.75"/><polygon class="c" points="414.88 392.25 407.88 389.25 392.88 389.25 392.88 397.25 404.88 397.25 411.88 400.25 427.88 400.25 427.88 392.25 414.88 392.25"/><polygon class="c" points="414.88 378.75 407.88 375.75 392.88 375.75 392.88 383.75 404.88 383.75 411.88 386.75 427.88 386.75 427.88 378.75 414.88 378.75"/><polygon class="c" points="414.88 365.25 407.88 362.25 392.88 362.25 392.88 370.25 404.88 370.25 411.88 373.25 427.88 373.25 427.88 365.25 414.88 365.25"/><polygon class="c" points="414.88 351.75 407.88 348.75 392.88 348.75 392.88 356.75 404.88 356.75 411.88 359.75 427.88 359.75 427.88 351.75 414.88 351.75"/><polygon class="c" points="414.88 338.25 407.88 335.25 392.88 335.25 392.88 343.25 404.88 343.25 411.88 346.25 427.88 346.25 427.88 338.25 414.88 338.25"/><polygon class="c" points="414.88 324.75 407.88 321.75 392.88 321.75 392.88 329.75 404.88 329.75 411.88 332.75 427.88 332.75 427.88 324.75 414.88 324.75"/><polygon class="c" points="414.88 311.25 407.88 308.25 392.88 308.25 392.88 316.25 404.88 316.25 411.88 319.25 427.88 319.25 427.88 311.25 414.88 311.25"/><polygon class="c" points="414.88 297.75 407.88 294.75 392.88 294.75 392.88 302.75 404.88 302.75 411.88 305.75 427.88 305.75 427.88 297.75 414.88 297.75"/><polygon class="c" points="414.88 284.25 407.88 281.25 392.88 281.25 392.88 289.25 404.88 289.25 411.88 292.25 427.88 292.25 427.88 284.25 414.88 284.25"/><polygon class="c" points="414.88 270.75 407.88 267.75 392.88 267.75 392.88 275.75 404.88 275.75 411.88 278.75 427.88 278.75 427.88 270.75 414.88 270.75"/><polygon class="c" points="414.88 257.25 407.88 254.25 392.88 254.25 392.88 262.25 404.88 262.25 411.88 265.25 427.88 265.25 427.88 257.25 414.88 257.25"/><polygon class="c" points="196.88 262.25 189.88 265.25 174.88 265.25 174.88 257.25 186.88 257.25 193.88 254.25 209.88 254.25 209.88 262.25 196.88 262.25"/><polygon class="c" points="196.88 275.75 189.88 278.75 174.88 278.75 174.88 270.75 186.88 270.75 193.88 267.75 209.88 267.75 209.88 275.75 196.88 275.75"/><polygon class="c" points="196.88 289.25 189.88 292.25 174.88 292.25 174.88 284.25 186.88 284.25 193.88 281.25 209.88 281.25 209.88 289.25 196.88 289.25"/><polygon class="c" points="196.88 302.75 189.88 305.75 174.88 305.75 174.88 297.75 186.88 297.75 193.88 294.75 209.88 294.75 209.88 302.75 196.88 302.75"/><polygon class="c" points="196.88 316.25 189.88 319.25 174.88 319.25 174.88 311.25 186.88 311.25 193.88 308.25 209.88 308.25 209.88 316.25 196.88 316.25"/><polygon class="c" points="196.88 329.75 189.88 332.75 174.88 332.75 174.88 324.75 186.88 324.75 193.88 321.75 209.88 321.75 209.88 329.75 196.88 329.75"/><polygon class="c" points="196.88 343.25 189.88 346.25 174.88 346.25 174.88 338.25 186.88 338.25 193.88 335.25 209.88 335.25 209.88 343.25 196.88 343.25"/><polygon class="c" points="196.88 356.75 189.88 359.75 174.88 359.75 174.88 351.75 186.88 351.75 193.88 348.75 209.88 348.75 209.88 356.75 196.88 356.75"/><polygon class="c" points="196.88 370.25 189.88 373.25 174.88 373.25 174.88 365.25 186.88 365.25 193.88 362.25 209.88 362.25 209.88 370.25 196.88 370.25"/><polygon class="c" points="196.88 383.75 189.88 386.75 174.88 386.75 174.88 378.75 186.88 378.75 193.88 375.75 209.88 375.75 209.88 383.75 196.88 383.75"/><polygon class="c" points="196.88 397.25 189.88 400.25 174.88 400.25 174.88 392.25 186.88 392.25 193.88 389.25 209.88 389.25 209.88 397.25 196.88 397.25"/><polygon class="c" points="196.88 410.75 189.88 413.75 174.88 413.75 174.88 405.75 186.88 405.75 193.88 402.75 209.88 402.75 209.88 410.75 196.88 410.75"/><rect class="e" x="496.63" y="94" width="8.5" height="9.5"/><rect class="e" x="483.13" y="94" width="8.5" height="9.5"/><rect class="e" x="469.63" y="94" width="8.5" height="9.5"/><rect class="e" x="456.13" y="94" width="8.5" height="9.5"/><rect class="e" x="442.63" y="94" width="8.5" height="9.5"/><rect class="e" x="429.13" y="94" width="8.5" height="9.5"/><rect class="e" x="497.63" y="210" width="8.5" height="9.5"/><rect class="e" x="484.13" y="210" width="8.5" height="9.5"/><rect class="e" x="470.63" y="210" width="8.5" height="9.5"/><rect class="e" x="457.13" y="210" width="8.5" height="9.5"/><rect class="e" x="443.63" y="210" width="8.5" height="9.5"/><rect class="e" x="430.13" y="210" width="8.5" height="9.5"/><rect class="d" x="411.63" y="103.5" width="106" height="107"/><rect class="e" x="401.88" y="119.25" width="9.5" height="8.5"/><rect class="e" x="401.88" y="132.75" width="9.5" height="8.5"/><rect class="e" x="401.88" y="146.25" width="9.5" height="8.5"/><rect class="e" x="401.88" y="159.75" width="9.5" height="8.5"/><rect class="e" x="401.88" y="173.25" width="9.5" height="8.5"/><rect class="e" x="401.88" y="186.75" width="9.5" height="8.5"/><rect class="e" x="517.88" y="118.25" width="9.5" height="8.5"/><rect class="e" x="517.88" y="131.75" width="9.5" height="8.5"/><rect class="e" x="517.88" y="145.25" width="9.5" height="8.5"/><rect class="e" x="517.88" y="158.75" width="9.5" height="8.5"/><rect class="e" x="517.88" y="172.25" width="9.5" height="8.5"/><rect class="e" x="517.88" y="185.75" width="9.5" height="8.5"/><rect class="e" x="248.63" y="159.5" width="14" height="11"/><rect class="e" x="248.63" y="185.5" width="14" height="11"/><rect class="d" x="248.63" y="170.5" width="14" height="15"/><rect class="e" x="277.63" y="159.5" width="14" height="11"/><rect class="e" x="277.63" y="185.5" width="14" height="11"/><rect class="d" x="277.63" y="170.5" width="14" height="15"/><rect class="e" x="304.63" y="159.5" width="14" height="11"/><rect class="e" x="304.63" y="185.5" width="14" height="11"/><rect class="d" x="304.63" y="170.5" width="14" height="15"/><rect class="e" x="330.63" y="159.5" width="14" height="11"/><rect class="e" x="330.63" y="185.5" width="14" height="11"/><rect class="d" x="330.63" y="170.5" width="14" height="15"/><rect class="e" x="484.5" y="291.5" width="14" height="11" transform="translate(780.13 -202) rotate(90)"/><rect class="e" x="458.5" y="291.5" width="14" height="11" transform="translate(754.13 -176) rotate(90)"/><rect class="d" x="471.5" y="289.5" width="14" height="15" transform="translate(767.13 -189) rotate(90)"/><rect class="e" x="331.63" y="518.5" width="14" height="11"/><rect class="e" x="331.63" y="544.5" width="14" height="11"/><rect class="d" x="331.63" y="529.5" width="14" height="15"/><rect class="e" x="432.63" y="513.5" width="14" height="11"/><rect class="e" x="432.63" y="539.5" width="14" height="11"/><rect class="d" x="432.63" y="524.5" width="14" height="15"/><rect class="e" x="258.5" y="543.5" width="14" height="11" transform="translate(806.13 276) rotate(90)"/><rect class="e" x="232.5" y="543.5" width="14" height="11" transform="translate(780.13 302) rotate(90)"/><rect class="d" x="245.5" y="541.5" width="14" height="15" transform="translate(793.13 289) rotate(90)"/><rect class="e" x="462.63" y="379.5" width="37" height="19"/><rect class="e" x="462.63" y="427.5" width="37" height="19"/><rect class="f" x="462.63" y="398.5" width="37" height="29"/><rect class="e" x="521.63" y="379.5" width="37" height="19"/><rect class="e" x="521.63" y="427.5" width="37" height="19"/><rect class="f" x="521.63" y="398.5" width="37" height="29"/><rect class="e" x="218.63" y="96.5" width="23" height="11"/><rect class="e" x="218.63" y="143.5" width="23" height="11"/><rect class="g" x="218.63" y="107.5" width="23" height="36"/><rect class="h" x="221.63" y="110.5" width="8" height="13"/><rect class="e" x="325.63" y="96.5" width="23" height="11"/><rect class="e" x="325.63" y="143.5" width="23" height="11"/><rect class="i" x="325.63" y="107.5" width="23" height="36"/><rect class="h" x="328.63" y="110.5" width="8" height="13"/><rect class="e" x="176.63" y="192.5" width="14" height="10"/><rect class="f" x="176.63" y="177.5" width="14" height="15"/><rect class="e" x="176.63" y="167.5" width="14" height="10"/><rect class="e" x="459" y="269" width="14" height="10" transform="translate(731.63 -199.5) rotate(90)"/><rect class="f" x="471.5" y="266.5" width="14" height="15" transform="translate(744.13 -212) rotate(90)"/><rect class="e" x="484" y="269" width="14" height="10" transform="translate(756.63 -224.5) rotate(90)"/><rect class="e" x="459" y="245" width="14" height="10" transform="translate(707.63 -223.5) rotate(90)"/><rect class="f" x="471.5" y="242.5" width="14" height="15" transform="translate(720.13 -236) rotate(90)"/><rect class="e" x="484" y="245" width="14" height="10" transform="translate(732.63 -248.5) rotate(90)"/><rect class="e" x="362" y="172" width="14" height="10" transform="translate(537.63 -199.5) rotate(90)"/><rect class="f" x="374.5" y="169.5" width="14" height="15" transform="translate(550.13 -212) rotate(90)"/><rect class="e" x="387" y="172" width="14" height="10" transform="translate(562.63 -224.5) rotate(90)"/><rect class="e" x="146.63" y="406.5" width="14" height="10"/><rect class="f" x="146.63" y="391.5" width="14" height="15"/><rect class="e" x="146.63" y="381.5" width="14" height="10"/><rect class="e" x="231" y="500" width="14" height="10" transform="translate(734.63 259.5) rotate(90)"/><rect class="f" x="243.5" y="497.5" width="14" height="15" transform="translate(747.13 247) rotate(90)"/><rect class="e" x="256" y="500" width="14" height="10" transform="translate(759.63 234.5) rotate(90)"/><rect class="e" x="351" y="493" width="14" height="10" transform="translate(847.63 132.5) rotate(90)"/><rect class="f" x="363.5" y="490.5" width="14" height="15" transform="translate(860.13 120) rotate(90)"/><rect class="e" x="376" y="493" width="14" height="10" transform="translate(872.63 107.5) rotate(90)"/><rect class="e" x="427.63" y="446.5" width="23" height="11"/><rect class="e" x="427.63" y="493.5" width="23" height="11"/><rect class="j" x="427.63" y="457.5" width="23" height="36"/><rect class="h" x="430.63" y="460.5" width="8" height="13"/><rect class="b" x="178.62" y="649.5" width="44" height="69"/><rect class="b" x="242.62" y="649.5" width="32" height="69"/><rect class="b" x="295.62" y="649.5" width="50" height="69"/><rect class="b" x="364.63" y="649.5" width="50" height="69"/><rect class="b" x="441.63" y="649.5" width="32" height="69"/><rect class="b" x="495.63" y="649.5" width="44" height="69"/><rect class="b" x="152.63" y="486.5" width="17" height="35"/><rect class="b" x="174.63" y="486.5" width="17" height="35"/><rect class="b" x="196.63" y="486.5" width="17" height="35"/><rect class="d" x="507.63" y="321.5" width="44" height="32"/><rect class="e" x="492.63" y="328.5" width="15" height="19"/><rect class="e" x="551.63" y="327.5" width="15" height="19"/><rect class="b" x="268.63" y="114.5" width="33" height="14"/><rect class="k" x="272.63" y="117.5" width="14" height="3"/><rect class="b" x="268.63" y="133.5" width="33" height="14"/><rect class="k" x="272.63" y="136.5" width="14" height="3"/><rect class="l" x="547.63" y="177.5" width="14" height="26"/><rect class="c" x="545.63" y="203.5" width="7" height="8"/><rect class="c" x="556.63" y="203.5" width="7" height="8"/><polygon class="d" points="479.63 461.5 479.63 475.5 474.13 481 474.13 521.5 479.88 527.25 479.88 539.5 542.63 539.5 542.63 527.5 548.63 521.5 548.63 481.5 543.63 475.5 543.88 461.5 479.63 461.5"/><rect class="m" x="598.63" y="184.5" width="137" height="205"/><rect class="n" x="687" y="200" width="22" height="48" transform="translate(913.63 -481.5) rotate(90)"/><rect class="o" x="687" y="343" width="22" height="48" transform="translate(1056.63 -338.5) rotate(90)"/><rect class="p" x="598.63" y="221.5" width="22" height="28"/><rect class="q" x="607" y="335" width="22" height="28" transform="translate(1227.63 690.5) rotate(180)"/><rect class="e" x="577.63" y="314.5" width="21" height="12"/><rect class="e" x="577.63" y="297.5" width="21" height="12"/><rect class="e" x="577.63" y="280.5" width="21" height="12"/><rect class="e" x="577.63" y="263.5" width="21" height="12"/><rect class="e" x="577.63" y="246.5" width="21" height="12"/><circle class="r" cx="35.13" cy="229" r="19.5"/><circle class="r" cx="35.13" cy="295" r="19.5"/><circle class="r" cx="35.13" cy="364" r="19.5"/><circle class="r" cx="35.13" cy="429" r="19.5"/><circle class="r" cx="35.13" cy="498" r="19.5"/><circle class="r" cx="104.13" cy="229" r="19.5"/><circle class="r" cx="104.13" cy="295" r="19.5"/><circle class="r" cx="104.13" cy="364" r="19.5"/><circle class="r" cx="104.13" cy="429" r="19.5"/><circle class="r" cx="104.13" cy="498" r="19.5"/><circle class="r" cx="609.13" cy="437" r="19.5"/><circle class="r" cx="678.13" cy="437" r="19.5"/><circle class="r" cx="609.13" cy="505" r="19.5"/><circle class="r" cx="678.13" cy="505" r="19.5"/><circle class="r" cx="490.63" cy="604.5" r="18"/><circle class="r" cx="423.63" cy="604.5" r="18"/><circle class="s" cx="336.13" cy="601" r="24.5"/><path class="b" d="M207,577v63h63V577Zm31.5,51.5a20,20,0,1,1,20-20A20,20,0,0,1,238.5,628.5Z" transform="translate(-8.38 -7.5)"/><polyline class="t" points="384.13 241 220.13 241 211.13 250 210.13 414.5"/><polyline class="u" points="210.63 414.5 219.63 424.5 384.63 424.5 393.63 415.5 392.63 249.5 384.63 241.5"/><line class="t" x1="411.13" y1="210" x2="411.13" y2="103"/><line class="t" x1="517.13" y1="103" x2="411.13" y2="103"/><line class="u" x1="411.13" y1="210" x2="517.13" y2="210"/><line class="u" x1="517.13" y1="103" x2="517.13" y2="210"/></svg>