<?xml version="1.0" encoding="utf-8"?>
<!-- Generator: Adobe Illustrator 21.0.2, SVG Export Plug-In . SVG Version: 6.00 Build 0)  -->
<svg version="1.1"
	 id="svg10068" inkscape:export-filename="H:\Documents\Hobbies\W433\My Gauges\vbat-001.png" inkscape:export-xdpi="103.61" inkscape:export-ydpi="103.61" inkscape:version="0.48.3.1 r9886" sodipodi:docname="flightmode-status.svg" xmlns:cc="http://creativecommons.org/ns#" xmlns:dc="http://purl.org/dc/elements/1.1/" xmlns:inkscape="http://www.inkscape.org/namespaces/inkscape" xmlns:rdf="http://www.w3.org/1999/02/22-rdf-syntax-ns#" xmlns:sodipodi="http://sodipodi.sourceforge.net/DTD/sodipodi-0.dtd" xmlns:svg="http://www.w3.org/2000/svg"
	 xmlns="http://www.w3.org/2000/svg" xmlns:xlink="http://www.w3.org/1999/xlink" x="0px" y="0px" viewBox="0 0 270 80.8"
	 style="enable-background:new 0 0 270 80.8;" xml:space="preserve">
<style type="text/css">
	.st0{fill:#303030;}
	.st1{opacity:0;}
	.st2{opacity:0.5301;enable-background:new    ;}
	.st3{fill:url(#SVGID_1_);}
	.st4{opacity:0.8012;enable-background:new    ;}
	.st5{fill:url(#SVGID_2_);}
	.st6{fill:url(#path4802_1_);stroke:#D4D0D0;stroke-width:2.1905;}
	.st7{fill:none;stroke:url(#path4804_1_);stroke-width:1.9828;stroke-linecap:round;stroke-linejoin:round;}
	.st8{opacity:0.98;fill:#FFFFFF;stroke:#E31717;stroke-width:3.1884;stroke-miterlimit:10;enable-background:new    ;}
	.st9{fill:#2980B9;}
</style>
<g id="background">
	<rect class="st0" width="270" height="80.8"/>
</g>
<g id="layer1" inkscape:groupmode="layer" inkscape:label="Status-Symbol">
	<g id="symbol" transform="matrix(2.0683135,0,0,2.0683135,-116.1788,214.61155)" inkscape:label="#g4504" class="st1">
		
			<g id="path4798" sodipodi:cx="14.5" sodipodi:cy="26.6875" sodipodi:rx="10" sodipodi:ry="2.9375" sodipodi:type="arc" class="st2">
			
				<radialGradient id="SVGID_1_" cx="-120.3115" cy="357.9184" r="9.9993" gradientTransform="matrix(5.8031 0 0 1.7047 866.4656 -679.785)" gradientUnits="userSpaceOnUse">
				<stop  offset="0" style="stop-color:#000000"/>
				<stop  offset="1" style="stop-color:#000000;stop-opacity:0"/>
			</radialGradient>
			<ellipse class="st3" cx="168.3" cy="-69.6" rx="28.1" ry="8.2"/>
		</g>
		
			<g id="path4800" sodipodi:cx="14.5" sodipodi:cy="26.6875" sodipodi:rx="10" sodipodi:ry="2.9375" sodipodi:type="arc" class="st4">
			
				<radialGradient id="SVGID_2_" cx="-82.7001" cy="518.3137" r="9.9994" gradientTransform="matrix(3.6262 0 0 1.0652 468.1745 -620.9582)" gradientUnits="userSpaceOnUse">
				<stop  offset="0" style="stop-color:#000000"/>
				<stop  offset="1" style="stop-color:#000000;stop-opacity:0"/>
			</radialGradient>
			<ellipse class="st5" cx="168.3" cy="-68.9" rx="17.5" ry="5.2"/>
		</g>
		
			<radialGradient id="path4802_1_" cx="-57.8914" cy="239.084" r="29.7035" gradientTransform="matrix(2.9902 0 0 3.033 341.4045 -810.5636)" gradientUnits="userSpaceOnUse">
			<stop  offset="0" style="stop-color:#FFFFFF"/>
			<stop  offset="0.5" style="stop-color:#757575"/>
			<stop  offset="1" style="stop-color:#9C9C9C"/>
		</radialGradient>
		
			<path id="path4802" sodipodi:cx="29.392656" sodipodi:cy="29.207693" sodipodi:rx="29.010935" sodipodi:ry="29.010935" sodipodi:type="arc" class="st6" d="
			M181.5-80.7c0,7.3-5.9,13.3-13.2,13.3c-7.3,0-13.2-5.9-13.2-13.3S161-94,168.3-94C175.6-94,181.5-88,181.5-80.7z"/>
		
			<radialGradient id="path4804_1_" cx="-104.3757" cy="180.0849" r="25.3795" gradientTransform="matrix(4.8465 0 0 4.8492 674.144 -965.7027)" gradientUnits="userSpaceOnUse">
			<stop  offset="0" style="stop-color:#FFFFFF"/>
			<stop  offset="1" style="stop-color:#FFFFFF;stop-opacity:0"/>
		</radialGradient>
		
			<path id="path4804" sodipodi:cx="29.77438" sodipodi:cy="30.352861" sodipodi:rx="24.175779" sodipodi:ry="24.175779" sodipodi:type="arc" class="st7" d="
			M180.5-80.7c0,6.7-5.5,12.2-12.2,12.2s-12.2-5.5-12.2-12.2s5.5-12.2,12.2-12.2S180.5-87.4,180.5-80.7z"/>
	</g>
	<path id="value" inkscape:label="#rect2989" class="st8" d="M18.5,31.5h125.8c1.9,0,3.4,1.2,3.4,2.7v12.6c0,1.5-1.5,2.7-3.4,2.7
		H18.5c-1.9,0-3.4-1.2-3.4-2.7V34.2C15,32.7,16.5,31.5,18.5,31.5z"/>
	<g id="symbol-PositionHold_1_">
		<g>
			<rect x="183" y="-22.5" class="st9" width="25.4" height="6.3"/>
		</g>
		<polygon class="st9" points="208.4,-39 200.4,-39 200.4,-59.8 190.9,-59.8 190.9,-39 183,-39 195.7,-25.8 		"/>
	</g>
	<path id="symbol-Manual" class="st9" d="M179.2-22l-20.2-35.4c-1.8-3.2-4.8-3.2-6.7,0L132-22c-1.8,3.2-0.3,5.8,3.4,5.8h40.4
		C179.5-16.2,181-18.8,179.2-22z M158.4-21.9h-5.7v-5.5h5.7V-21.9z M158.4-40.1v2.8v6.7h-5.7v-6.7v-2.8v-6.7h5.7V-40.1z"/>
	<g id="symbol-Stabilized1">
		<path class="st9" d="M94.7-29.3c-4.2-7.3-2.5-16.5,3.8-21.8l-2.3-4c-8.4,6.6-10.9,18.6-5.4,28.1s17.1,13.4,27.1,9.3l-2.3-4
			C107.7-19,98.9-22,94.7-29.3z"/>
		<path class="st9" d="M128.5-48.8c-5.5-9.5-17.1-13.3-27.1-9.3l2.3,4c7.7-2.8,16.5,0.3,20.7,7.6s2.5,16.5-3.8,21.8l2.3,4
			C131.5-27.4,134-39.3,128.5-48.8z"/>
		<path class="st9" d="M111.2-46.8l2.4-4.2c-5.9-1.8-12.6,0.6-15.8,6.2s-2,12.6,2.5,16.8l2.4-4.2c-2.4-2.8-2.9-7-0.9-10.3
			C103.7-45.8,107.5-47.5,111.2-46.8z"/>
		<path class="st9" d="M118.9-47.9l-2.4,4.2c2.4,2.8,2.9,7,0.9,10.4c-2,3.4-5.8,5-9.4,4.4l-2.4,4.1c5.9,1.8,12.6-0.6,15.8-6.2
			C124.6-36.7,123.4-43.7,118.9-47.9z"/>
	</g>
	<g id="symbol-Stabilized2">
		<path class="st9" d="M47.8-28.9c-4.2-7.3-2.5-16.5,3.8-21.8l-2.3-4c-8.4,6.6-10.9,18.6-5.4,28.1s17.1,13.4,27,9.3l-2.3-4
			C60.8-18.5,52-21.6,47.8-28.9z"/>
		<path class="st9" d="M81.6-48.4c-5.5-9.5-17.1-13.4-27-9.3l2.3,4c7.7-2.8,16.5,0.3,20.7,7.6s2.5,16.5-3.8,21.8l2.3,4
			C84.6-26.9,87.1-38.9,81.6-48.4z"/>
		<path class="st9" d="M64.3-46.4l2.4-4.2c-5.9-1.8-12.6,0.6-15.8,6.2c-3.2,5.6-2,12.6,2.5,16.8l2.4-4.1c-2.4-2.8-2.9-7-0.9-10.4
			C56.8-45.4,60.7-47,64.3-46.4z"/>
		<path class="st9" d="M72-47.5l-2.4,4.2c2.4,2.8,2.9,7,0.9,10.4c-2,3.4-5.8,5-9.4,4.4l-2.4,4.1c5.9,1.8,12.6-0.6,15.8-6.2
			C77.8-36.3,76.6-43.3,72-47.5z"/>
	</g>
	<g id="symbol-Stabilized3">
		<path class="st9" d="M0.9-29.4c-4.2-7.3-2.5-16.5,3.8-21.8l-2.3-4c-8.4,6.6-10.9,18.6-5.4,28.1s17.1,13.4,27,9.3l-2.3-4
			C14-19,5.2-22.1,0.9-29.4z"/>
		<path class="st9" d="M34.7-48.9c-5.5-9.5-17.1-13.4-27-9.3l2.3,4c7.7-2.8,16.5,0.3,20.7,7.6s2.5,16.5-3.8,21.8l2.3,4
			C37.7-27.4,40.3-39.4,34.7-48.9z"/>
		<path class="st9" d="M17.4-46.9l2.4-4.2C13.9-52.9,7.3-50.5,4-44.8S2-32.3,6.6-28L9-32.2C6.6-35,6.1-39.2,8-42.5
			C10-45.9,13.8-47.6,17.4-46.9z"/>
		<path class="st9" d="M25.1-48l-2.4,4.2c2.4,2.8,2.9,7,0.9,10.3c-2,3.4-5.8,5-9.4,4.4L11.9-25c5.9,1.8,12.6-0.6,15.8-6.2
			C30.9-36.8,29.7-43.8,25.1-48z"/>
	</g>
</g>
</svg>
