<?xml version="1.0" encoding="utf-8"?>
<!-- Generator: Adobe Illustrator 21.0.2, SVG Export Plug-In . SVG Version: 6.00 Build 0)  -->
<svg version="1.1"
	 id="Root" inkscape:export-filename="H:\Documents\Hobbies\W433\My Gauges\vbat-001.png" inkscape:export-xdpi="103.61" inkscape:export-ydpi="103.61" inkscape:version="0.47 r22583" sodipodi:docname="gps-status.svg" xmlns:cc="http://creativecommons.org/ns#" xmlns:dc="http://purl.org/dc/elements/1.1/" xmlns:inkscape="http://www.inkscape.org/namespaces/inkscape" xmlns:rdf="http://www.w3.org/1999/02/22-rdf-syntax-ns#" xmlns:sodipodi="http://sodipodi.sourceforge.net/DTD/sodipodi-0.dtd" xmlns:svg="http://www.w3.org/2000/svg"
	 xmlns="http://www.w3.org/2000/svg" xmlns:xlink="http://www.w3.org/1999/xlink" x="0px" y="0px" viewBox="0 0 229.3 80.8"
	 style="enable-background:new 0 0 229.3 80.8;" xml:space="preserve">
<style type="text/css">
	.st0{fill:#303030;}
	.st1{fill:#FFFFFF;}
	.st2{fill:none;}
	.st3{fill:#95A5A6;}
	.st4{}
	.st5{display:inline;fill:#C0392B;}
	.st6{display:inline;fill:#27AE60;}
	.st7{fill:#1F8749;}
	.st8{fill:#27AE60;}
	.st9{display:inline;fill:none;}
</style>
<g id="background">
	<rect class="st0" width="229.3" height="80.8"/>
	<g>
		<path class="st1" d="M59.2,40h5.7v10c-2.7,1.9-7,3.3-10.5,3.3c-7.7,0-13.5-5.6-13.5-13.1s5.9-13,13.9-13c3.8,0,7.8,1.5,10.4,3.8
			l-3.7,4.6c-1.8-1.7-4.4-2.8-6.7-2.8c-4.1,0-7.1,3.2-7.1,7.4c0,4.3,3.1,7.5,7.2,7.5c1.3,0,2.8-0.5,4.4-1.2L59.2,40L59.2,40z"/>
		<path class="st1" d="M90.4,36.5c0,5.9-3.7,9.4-10.2,9.4h-4.5v7h-6.6V27.6h11.1C86.7,27.6,90.4,30.9,90.4,36.5z M84.2,36.7
			c0-2.5-1.6-3.8-4.2-3.8h-4.2v7.7H80C82.6,40.6,84.2,39.3,84.2,36.7z"/>
		<path class="st1" d="M102.9,32.5c-1.6,0-2.6,0.6-2.6,1.8c0,4.3,13.3,1.9,13.3,11.1c0,5.2-4.5,7.9-10.2,7.9
			c-4.2,0-8.6-1.6-11.6-4.1l2.6-5.2c2.6,2.3,6.5,3.8,9.1,3.8c1.9,0,3.2-0.7,3.2-2.1c0-4.4-13.3-1.8-13.3-10.8c0-4.8,4-7.8,10.1-7.8
			c3.7,0,7.4,1.1,10.1,2.8l-2.5,5.3C108.4,33.7,105,32.5,102.9,32.5z"/>
	</g>
</g>
<rect id="bargraph" x="12" y="9.5" class="st2" width="206.5" height="61.5"/>
<g id="Symbols" inkscape:groupmode="layer" inkscape:label="Status-Symbol">
	<path id="symbol" class="st3" d="M181,21.1c-10.9,0-19.8,8.9-19.8,19.8s8.9,19.8,19.8,19.8c10.9,0,19.8-8.9,19.8-19.8
		C200.8,29.9,192,21.1,181,21.1z M181,53.6c-7.1,0-12.8-5.7-12.8-12.8S174,28.1,181,28.1s12.8,5.7,12.8,12.8S188.1,53.6,181,53.6z"
		/>
	<g id="symbol-Fix2D" class="st4">
		<polygon class="st5" points="173.4,53.7 188,39.1 191.5,42.6 195.1,27.6 179.6,30.7 183.1,34.2 168.3,49 168.3,53.7 		"/>
		<polygon class="st6" points="205.2,57.6 192.1,48.8 192.1,53.7 173.4,53.7 168.3,53.7 168.3,49 168.3,29.9 173.1,29.9 165.1,16.8 
			156.4,29.9 161.2,29.9 161.2,60.7 161.3,60.7 161.3,60.7 166.1,60.7 166.4,60.7 192.1,60.7 192.1,65.6 		"/>
	</g>
	<g id="symbol-Fix3D">
		<polygon class="st7" points="173.4,53.7 188,39.1 191.5,42.6 195.1,27.6 179.6,30.7 183.1,34.2 168.3,49 168.3,53.7 		"/>
		<polygon class="st8" points="205.2,57.6 192.1,48.8 192.1,53.7 173.4,53.7 168.3,53.7 168.3,49 168.3,29.9 173.1,29.9 165.1,16.8 
			156.4,29.9 161.2,29.9 161.2,60.7 161.3,60.7 161.3,60.7 166.1,60.7 166.4,60.7 192.1,60.7 192.1,65.6 		"/>
	</g>
	<g id="symbol-NoFix" class="st4">
		<path class="st9" d="M170,34.3c-3,5-2.1,11.2,1.7,15.2l12.5-21C178.8,27.1,173,29.3,170,34.3z"/>
		<path class="st9" d="M177.9,53.2c5.3,1.3,11.1-0.9,14-5.8c2.9-5,2.1-11.1-1.6-15.1L177.9,53.2z"/>
		<path class="st5" d="M191.1,23.8c-9.4-5.6-21.6-2.5-27.1,6.9s-2.5,21.5,6.9,27.1s21.6,2.5,27.1-6.9S200.5,29.4,191.1,23.8z
			 M170,34.3c3-5,8.8-7.2,14.2-5.8l-12.5,21C167.9,45.5,167,39.3,170,34.3z M191.9,47.4c-2.9,5-8.7,7.2-14,5.8l12.5-21
			C194,36.3,194.8,42.4,191.9,47.4z"/>
	</g>
</g>
</svg>
