<?xml version="1.0" encoding="utf-8"?>
<!-- Generator: Adobe Illustrator 21.0.2, SVG Export Plug-In . SVG Version: 6.00 Build 0)  -->
<svg version="1.1"
	 id="svg10068" inkscape:export-filename="H:\Documents\Hobbies\W433\My Gauges\vbat-001.png" inkscape:export-xdpi="103.61" inkscape:export-ydpi="103.61" inkscape:version="0.48.2 r9819" sodipodi:docname="gps-signal.svg" xmlns:cc="http://creativecommons.org/ns#" xmlns:dc="http://purl.org/dc/elements/1.1/" xmlns:inkscape="http://www.inkscape.org/namespaces/inkscape" xmlns:rdf="http://www.w3.org/1999/02/22-rdf-syntax-ns#" xmlns:sodipodi="http://sodipodi.sourceforge.net/DTD/sodipodi-0.dtd" xmlns:svg="http://www.w3.org/2000/svg"
	 xmlns="http://www.w3.org/2000/svg" xmlns:xlink="http://www.w3.org/1999/xlink" x="0px" y="0px" viewBox="0 0 229.3 80.8"
	 style="enable-background:new 0 0 229.3 80.8;" xml:space="preserve">
<style type="text/css">
	.st0{fill:#303030;}
	.st1{fill:none;}
	.st2{fill:#C0392B;}
	.st3{fill:#F39C12;}
	.st4{fill:#27AE60;}
	.st5{fill:#FFFFFF;}
	.st6{fill:#FF0606;}
</style>
<g id="g2932" transform="translate(-205.8687,-331.45166)" inkscape:groupmode="layer" inkscape:label="Dark background" sodipodi:insensitive="true">
	<g id="background" inkscape:label="#g8543">
		<rect x="205.9" y="331.5" class="st0" width="229.3" height="80.8"/>
		
			<path id="bargraph" inkscape:export-filename="H:\Documents\Hobbies\W433\g9905.png" inkscape:export-xdpi="88.809998" inkscape:export-ydpi="88.809998" inkscape:label="#rect4388" class="st1" d="
			M270.8,339.2h141.9c2.6,0,4.8,2.1,4.8,4.8v55.2c0,2.6-2.1,4.8-4.8,4.8H270.8c-2.6,0-4.8-2.1-4.8-4.8V344
			C266,341.3,268.1,339.2,270.8,339.2z"/>
		<rect x="293.9" y="383.5" class="st2" width="16" height="16"/>
		<rect x="313.9" y="380.1" class="st3" width="16" height="19.3"/>
		<rect x="333.9" y="373.5" class="st3" width="16" height="25.9"/>
		<rect x="353.9" y="367.1" class="st4" width="16" height="32.3"/>
		<rect x="373.9" y="358" class="st4" width="16" height="41.5"/>
		<rect x="393.9" y="347.6" class="st4" width="16" height="51.8"/>
	</g>
</g>
<g id="layer5" transform="translate(21.574609,34.282029)" inkscape:groupmode="layer" inkscape:label="Green Zone">
	
		<path id="green" inkscape:export-filename="H:\Documents\Hobbies\W433\g9905.png" inkscape:export-xdpi="88.809998" inkscape:export-ydpi="88.809998" inkscape:label="#rect5741" class="st4" d="
		M130.6-48.8h259.2c0.4,0,0.7,0.3,0.7,0.7v7.9c0,0.4-0.3,0.7-0.7,0.7H130.6c-0.4,0-0.7-0.3-0.7-0.7v-7.9
		C129.9-48.5,130.2-48.8,130.6-48.8z"/>
</g>
<g id="layer4" transform="translate(21.574609,34.282029)" inkscape:groupmode="layer" inkscape:label="Yellow Zone">
	<g id="g3793" transform="translate(-2.5253814,87.378195)">
		
			<path id="rect3773" inkscape:export-filename="H:\Documents\Hobbies\W433\g9905.png" inkscape:export-xdpi="88.809998" inkscape:export-ydpi="88.809998" inkscape:label="#rect5741" class="st3" d="
			M23.5,29.4h259.2c0.4,0,0.7,0.3,0.7,0.7V38c0,0.4-0.3,0.7-0.7,0.7H23.5c-0.4,0-0.7-0.3-0.7-0.7v-7.9
			C22.9,29.7,23.2,29.4,23.5,29.4z"/>
		<rect id="rect3786" x="0" y="0" class="st1" width="306.3" height="47.1"/>
	</g>
	
		<path id="yellow" inkscape:export-filename="H:\Documents\Hobbies\W433\g9905.png" inkscape:export-xdpi="88.809998" inkscape:export-ydpi="88.809998" inkscape:label="#rect5741" class="st3" d="
		M106.9,51.7h259.2c0.4,0,0.7,0.3,0.7,0.7v7.9c0,0.4-0.3,0.7-0.7,0.7H106.9c-0.4,0-0.7-0.3-0.7-0.7v-7.9
		C106.2,52,106.5,51.7,106.9,51.7z"/>
</g>
<g id="layer3" transform="translate(21.574609,34.282029)" inkscape:groupmode="layer" inkscape:label="Red zone">
	
		<path id="red" inkscape:export-filename="H:\Documents\Hobbies\W433\g9905.png" inkscape:export-xdpi="88.809998" inkscape:export-ydpi="88.809998" inkscape:label="#rect5741" class="st2" d="
		M45.8,92.6h259.2c0.4,0,0.7,0.3,0.7,0.7v7.9c0,0.4-0.3,0.7-0.7,0.7H45.8c-0.4,0-0.7-0.3-0.7-0.7v-7.9
		C45.1,92.9,45.4,92.6,45.8,92.6z"/>
</g>
<g id="foreground" inkscape:groupmode="layer" inkscape:label="Foreground" sodipodi:insensitive="true">
	<g id="Satellite">
		<rect class="st1" width="64.5" height="52"/>
		
			<rect x="26.3" y="19.2" transform="matrix(0.7071 -0.7071 0.7071 0.7071 -7.685 33.4467)" class="st5" width="20.4" height="13.5"/>
		<path class="st5" d="M53.2,22v-2.5c-2.6,0-5.2-1-7.2-3c-2-2-3-4.6-3-7.2h-2.5c0,3.3,1.2,6.5,3.7,9S50,22,53.2,22z"/>
		
			<rect x="38.5" y="30.6" transform="matrix(0.7071 -0.7071 0.7071 0.7071 -10.8279 41.0342)" class="st5" width="11.3" height="6"/>
		<rect x="23.3" y="15.4" transform="matrix(0.7071 -0.7071 0.7071 0.7071 -4.5421 25.8595)" class="st5" width="11.3" height="6"/>
		<rect x="18.4" y="10.5" transform="matrix(0.7071 -0.7071 0.7071 0.7071 -2.4972 20.9224)" class="st5" width="11.3" height="6"/>
		
			<rect x="43.4" y="35.5" transform="matrix(0.7071 -0.7071 0.7071 0.7071 -12.8728 45.9711)" class="st5" width="11.3" height="6"/>
	</g>
</g>
<g id="Needle">
	<rect id="needle" x="85.8" y="13.1" class="st0" width="120.5" height="56.9"/>
</g>
<rect id="value" x="21.3" y="51.5" inkscape:label="#rect4044" class="st6" width="47.8" height="18.5">
</rect>
</svg>
