M48
;Layer_Color=6321
;FILE_FORMAT=2:5
INCH,LZ
;TYPE=PLATED
T1F00S00C0.01299
T2F00S00C0.01575
T3F00S00C0.02800
T4F00S00C0.03937
T5F00S00C0.04000
T6F00S00C0.04016
T7F00S00C0.10827
%
T01
X0064961Y0074803
X0068898
Y0080709
X0064961
T02
X0040551Y00516
X00536Y0104633
X005748Y0118504
X005748Y0130571
X0049016Y0130473
X0044291
X004439Y0142284
X0049803
X0058268Y0142382
X0057874Y0155512
X0044488Y0117717
X01472Y01256
X0148607Y0141732
X0126827Y0149453
X0144882Y0105118
X01517Y00986
X0154331Y0111114
X0148031Y0082677
X0131853Y0071653
X0134843Y0067134
X0140157Y0062598
X0144685Y0052559
X0134843Y0052945
Y0042528
Y0028338
X0150484Y0035433
X0149606Y0041732
X0124016Y0052945
Y0067134
X0125591Y007559
X0166929Y0066929
X0176181Y0047528
X0184646Y0045276
X0170079Y0039173
X0176181Y0028339
X0220472Y0066929
X02164Y007126
X0230315Y00744
X0232284Y0081061
X0226378Y00839
X0225197Y0093701
X0229921
X0236221Y0091002
X0247244Y009252
X0248425Y0085433
X0243307Y0078346
X025748Y0074803
X0264173Y0066929
X0249606Y0066929
X0235441
X0227074Y0108624
X0212093Y010857
X0206693Y0106299
X0195Y01074
X01856Y01062
X0195669Y011811
X02042Y01247
X0195669Y0134646
X01984Y01375
X018937Y013584
X01912Y0144075
X0191827Y0150374
X0183465Y0150394
X0179626Y0153614
X0178Y01473
X0176386Y0140925
X0183Y01408
X01802Y01376
X01731Y01262
X0168898Y0117323
X016063Y0111114
X01638Y01405
Y01523
X0197244Y0147244
X0233071Y0148031
X0219685Y0129134
X0259055Y0100394
X0211024Y0163386
X02027Y01612
X0200098Y0177363
X0189763Y0179527
X0185531Y0174016
X018061Y0174409
X0173228Y0166535
X01663Y01684
X0166476Y016426
X0168594Y0198819
X0156701Y0199213
X0182283Y0190551
X0186221Y0187795
X02Y0198819
X02283Y0208067
X0142512Y0199213
X0126406Y017898
X0126827Y0164217
X0118504Y0165354
X0112205Y0205512
X009941Y020807
X0073622Y0205906
X0071653Y0196063
X0065945Y0186024
X0059055Y0212598
T03
X0026772Y0063386
X0037795Y0072835
X0045276Y0089764
X005689Y0062205
T04
X0052752Y0025943
Y0035943
Y0045943
X0062752
Y0035943
Y0025943
X0072752
Y0035943
Y0045943
X0082752
Y0035943
Y0025943
X0092752
X0102752
Y0035943
Y0045943
X0092752
Y0035943
X0086614Y0075787
X0107283Y0070866
X009252Y0133858
Y0156496
T05
X0027559Y0078661
Y0088661
X0256811Y0115157
X0266811
T06
X0162638Y0221378
X0172638
X0182638
Y0231378
X0192638
X0202638
Y0221378
X0212638
Y0231378
X0222638
X0232638
X0242638
Y0221378
X0232638
X0222638
X0192638
X0172638Y0231378
X0162638
X0152638
Y0221378
X0142638
X0132638
X0122638
Y0231378
X0132638
X0142638
X0112638
Y0221378
X0102638
X0092638
Y0231378
X0082638
X0072638
X0062638
X0052638
Y0221378
X0062638
X0072638
X0082638
X0102638Y0231378
X0047106Y0205866
Y0195866
Y0185866
Y0175866
X0037106Y0175866
Y0185866
Y0195866
Y0205866
X0027106
Y0195866
Y0185866
Y0175866
T07
X0033465Y0033465
X0261811
Y0226378
X0033465
M30
