<?xml version="1.0" encoding="utf-8"?>
<!-- Generator: Adobe Illustrator 21.0.2, SVG Export Plug-In . SVG Version: 6.00 Build 0)  -->
<svg version="1.1"
	 id="Root" inkscape:export-filename="H:\Documents\Hobbies\W433\My Gauges\vbat-001.png" inkscape:export-xdpi="103.61" inkscape:export-ydpi="103.61" inkscape:version="0.48.3.1 r9886" sodipodi:docname="textonly.svg" xmlns:cc="http://creativecommons.org/ns#" xmlns:dc="http://purl.org/dc/elements/1.1/" xmlns:inkscape="http://www.inkscape.org/namespaces/inkscape" xmlns:rdf="http://www.w3.org/1999/02/22-rdf-syntax-ns#" xmlns:sodipodi="http://sodipodi.sourceforge.net/DTD/sodipodi-0.dtd" xmlns:svg="http://www.w3.org/2000/svg"
	 xmlns="http://www.w3.org/2000/svg" xmlns:xlink="http://www.w3.org/1999/xlink" x="0px" y="0px" viewBox="0 0 229.3 80.8"
	 style="enable-background:new 0 0 229.3 80.8;" xml:space="preserve">
<style type="text/css">
	.st0{fill:none;}
	.st1{opacity:0.98;fill:#FFFFFF;stroke:#E31717;stroke-width:4.0786;stroke-miterlimit:10;enable-background:new    ;}
	.st2{opacity:0.98;fill:#FFFFFF;stroke:#E31717;stroke-width:3.4178;stroke-miterlimit:10;enable-background:new    ;}
</style>
<rect class="st0" width="229.3" height="80.8"/>
<g id="Text" inkscape:groupmode="layer" inkscape:label="Status-Symbol">
	<path id="value" inkscape:label="#rect2989" class="st1" d="M21.8,45.4h185c3.3,0,6,2.7,6,6v11.1c0,3.3-2.7,6-6,6h-185
		c-3.3,0-6-2.7-6-6V51.3C15.9,48,18.5,45.4,21.8,45.4z"/>
	<path id="field" inkscape:label="#rect2989" class="st2" d="M19.7,14.1H209c2.3,0,4.2,1.9,4.2,4.2V26c0,2.3-1.9,4.2-4.2,4.2H19.7
		c-2.3,0-4.2-1.9-4.2-4.2v-7.8C15.5,15.9,17.4,14.1,19.7,14.1z"/>
</g>
</svg>
