<?xml version="1.0" encoding="UTF-8" standalone="no"?>
<!-- Created with Inkscape (http://www.inkscape.org/) -->

<svg
   xmlns:dc="http://purl.org/dc/elements/1.1/"
   xmlns:cc="http://creativecommons.org/ns#"
   xmlns:rdf="http://www.w3.org/1999/02/22-rdf-syntax-ns#"
   xmlns:svg="http://www.w3.org/2000/svg"
   xmlns="http://www.w3.org/2000/svg"
   xmlns:xlink="http://www.w3.org/1999/xlink"
   xmlns:sodipodi="http://sodipodi.sourceforge.net/DTD/sodipodi-0.dtd"
   xmlns:inkscape="http://www.inkscape.org/namespaces/inkscape"
   width="480"
   height="196"
   id="svg2"
   version="1.1"
   inkscape:version="0.48.4 r9939"
   sodipodi:docname="dronin_logo_full.svg"
   inkscape:export-filename="D:\dronin\logo_final_full_lgFntBott_a.png"
   inkscape:export-xdpi="90"
   inkscape:export-ydpi="90">
  <defs
     id="defs4">
    <filter
       id="filter3000"
       inkscape:label="Cross-smooth"
       inkscape:menu="Blurs"
       inkscape:menu-tooltip="Blur inner borders and intersections"
       color-interpolation-filters="sRGB">
      <feGaussianBlur
         id="feGaussianBlur3002"
         stdDeviation="1" />
      <feColorMatrix
         id="feColorMatrix3004"
         result="fbSourceGraphic"
         values="1 0 0 0 0 0 1 0 0 0 0 0 1 0 0 0 0 0 6 -2.5 " />
    </filter>
    <filter
       id="filter3006"
       inkscape:label="Blur content"
       inkscape:menu="Blurs"
       inkscape:menu-tooltip="Blur the contents of objects, preserving the outline"
       color-interpolation-filters="sRGB">
      <feColorMatrix
         id="feColorMatrix3008"
         values="1 0 0 0 0 0 1 0 0 0 0 0 1 0 0 0 0 0 1 0 "
         result="result7" />
      <feGaussianBlur
         id="feGaussianBlur3010"
         result="result6"
         stdDeviation="1.7642105263157895" />
      <feComposite
         id="feComposite3012"
         in2="result7"
         operator="atop"
         in="result6"
         result="result91" />
      <feComposite
         id="feComposite3014"
         in2="result91"
         operator="in" />
    </filter>
    <filter
       id="filter3016"
       inkscape:label="Fancy blur"
       inkscape:menu="Blurs"
       inkscape:menu-tooltip="Smooth colorized contour which allows desaturation and hue rotation"
       color-interpolation-filters="sRGB">
      <feGaussianBlur
         id="feGaussianBlur3018"
         stdDeviation="5"
         result="result1" />
      <feComposite
         id="feComposite3020"
         in2="result1"
         operator="arithmetic"
         k2="2"
         in="result1"
         k1="0"
         k3="0"
         k4="0" />
    </filter>
    <filter
       id="filter3022"
       inkscape:label="Fancy blur"
       inkscape:menu="Blurs"
       inkscape:menu-tooltip="Smooth colorized contour which allows desaturation and hue rotation"
       color-interpolation-filters="sRGB">
      <feGaussianBlur
         id="feGaussianBlur3024"
         stdDeviation="5"
         result="result1" />
      <feComposite
         id="feComposite3026"
         in2="result1"
         operator="arithmetic"
         k2="2"
         in="result1"
         k1="0"
         k3="0"
         k4="0" />
    </filter>
    <filter
       id="filter3028"
       inkscape:label="Fancy blur"
       inkscape:menu="Blurs"
       inkscape:menu-tooltip="Smooth colorized contour which allows desaturation and hue rotation"
       color-interpolation-filters="sRGB">
      <feGaussianBlur
         id="feGaussianBlur3030"
         stdDeviation="5"
         result="result1" />
      <feComposite
         id="feComposite3032"
         in2="result1"
         operator="arithmetic"
         k2="2"
         in="result1"
         k1="0"
         k3="0"
         k4="0" />
      <feGaussianBlur
         stdDeviation="1"
         id="feGaussianBlur3040" />
    </filter>
    <filter
       id="filter3034"
       inkscape:label="Fancy blur"
       inkscape:menu="Blurs"
       inkscape:menu-tooltip="Smooth colorized contour which allows desaturation and hue rotation"
       color-interpolation-filters="sRGB">
      <feGaussianBlur
         id="feGaussianBlur3036"
         stdDeviation="5"
         result="result1" />
      <feComposite
         id="feComposite3038"
         in2="result1"
         operator="arithmetic"
         k2="2"
         in="result1"
         k1="0"
         k3="0"
         k4="0" />
    </filter>
    <filter
       id="filter3042"
       inkscape:label="Drop Shadow"
       color-interpolation-filters="sRGB">
      <feFlood
         id="feFlood3044"
         flood-opacity="0.377"
         flood-color="rgb(0,0,0)"
         result="flood" />
      <feComposite
         id="feComposite3046"
         in2="SourceGraphic"
         in="flood"
         operator="in"
         result="composite1" />
      <feGaussianBlur
         id="feGaussianBlur3048"
         stdDeviation="3.3"
         result="blur" />
      <feOffset
         id="feOffset3050"
         dx="3"
         dy="3"
         result="offset" />
      <feComposite
         id="feComposite3052"
         in2="offset"
         in="SourceGraphic"
         operator="over"
         result="composite2" />
    </filter>
    <filter
       id="filter3054"
       inkscape:label="Drop Shadow"
       color-interpolation-filters="sRGB">
      <feFlood
         id="feFlood3056"
         flood-opacity="0.377"
         flood-color="rgb(0,0,0)"
         result="flood" />
      <feComposite
         id="feComposite3058"
         in2="SourceGraphic"
         in="flood"
         operator="in"
         result="composite1" />
      <feGaussianBlur
         id="feGaussianBlur3060"
         stdDeviation="3.3"
         result="blur" />
      <feOffset
         id="feOffset3062"
         dx="3"
         dy="3"
         result="offset" />
      <feComposite
         id="feComposite3064"
         in2="offset"
         in="SourceGraphic"
         operator="over"
         result="composite2" />
    </filter>
    <filter
       id="filter3066"
       inkscape:label="Drop Shadow"
       color-interpolation-filters="sRGB">
      <feFlood
         id="feFlood3068"
         flood-opacity="0.377"
         flood-color="rgb(0,0,0)"
         result="flood" />
      <feComposite
         id="feComposite3070"
         in2="SourceGraphic"
         in="flood"
         operator="in"
         result="composite1" />
      <feGaussianBlur
         id="feGaussianBlur3072"
         stdDeviation="3.3"
         result="blur" />
      <feOffset
         id="feOffset3074"
         dx="3"
         dy="3"
         result="offset" />
      <feComposite
         id="feComposite3076"
         in2="offset"
         in="SourceGraphic"
         operator="over"
         result="composite2" />
    </filter>
    <filter
       id="filter3078"
       inkscape:label="Drop Shadow"
       color-interpolation-filters="sRGB">
      <feFlood
         id="feFlood3080"
         flood-opacity="0.377"
         flood-color="rgb(0,0,0)"
         result="flood" />
      <feComposite
         id="feComposite3082"
         in2="SourceGraphic"
         in="flood"
         operator="in"
         result="composite1" />
      <feGaussianBlur
         id="feGaussianBlur3084"
         stdDeviation="3.3"
         result="blur" />
      <feOffset
         id="feOffset3086"
         dx="3"
         dy="3"
         result="offset" />
      <feComposite
         id="feComposite3088"
         in2="offset"
         in="SourceGraphic"
         operator="over"
         result="composite2" />
    </filter>
    <filter
       id="filter3078-9"
       inkscape:label="Drop Shadow"
       color-interpolation-filters="sRGB">
      <feFlood
         id="feFlood3080-8"
         flood-opacity="0.377"
         flood-color="rgb(0,0,0)"
         result="flood" />
      <feComposite
         id="feComposite3082-4"
         in2="SourceGraphic"
         in="flood"
         operator="in"
         result="composite1" />
      <feGaussianBlur
         id="feGaussianBlur3084-1"
         stdDeviation="3.3"
         result="blur" />
      <feOffset
         id="feOffset3086-4"
         dx="3"
         dy="3"
         result="offset" />
      <feComposite
         id="feComposite3088-3"
         in2="offset"
         in="SourceGraphic"
         operator="over"
         result="composite2" />
    </filter>
    <filter
       id="filter3946"
       inkscape:label="filter12"
       color-interpolation-filters="sRGB" />
    <symbol
       id="AVE_GLOBAL" />
    <symbol
       id="AVE_RENDER" />
    <symbol
       id="sh_spot">
      <path
         id="path4584"
         d="M -354330708661417350000.000000,354330708661417350000.000000 -354330708661417350000.000000,354330708661417350000.000000"
         style="stroke:#000000;fill:none;stroke-linecap: round" />
      <path
         id="path4586"
         d="M -354330708661417350000.000000,354330708661417350000.000000 -354330708661417350000.000000,354330708661417350000.000000"
         style="stroke:#000000;fill:none;stroke-linecap: round" />
      <text
         id="text4588"
         sodipodi:linespacing="125%"
         style="font-size: 0.7px; fill: #FF0000; font-family: Arial"
         x="-354330708661417350000.000000"
         y="354330708661417350000.000000">
        <tspan
           id="tspan4590"
           sodipodi:role="line">Light NameSNAME</tspan>
      </text>
      <path
         id="path4592"
         d="M -354330708661417350000.000000,354330708661417350000.000000 -354330708661417350000.000000,354330708661417350000.000000"
         style="stroke:#000000;fill:none;stroke-linecap: round" />
      <path
         id="path4594"
         d="M -354330708661417350000.000000,354330708661417350000.000000 -354330708661417350000.000000,354330708661417350000.000000"
         style="stroke:#000000;fill:none;stroke-linecap: round" />
      <path
         id="path4596"
         d="M -354330708661417350000.000000,354330708661417350000.000000 -354330708661417350000.000000,354330708661417350000.000000"
         style="stroke:#000000;fill:none;stroke-linecap: round" />
      <path
         id="path4598"
         d="M -354330708661417350000.000000,354330708661417350000.000000 -354330708661417350000.000000,354330708661417350000.000000"
         style="stroke:#000000;fill:none;stroke-linecap: round" />
      <path
         id="path4600"
         d="M -354330708661417350000.000000,354330708661417350000.000000 -354330708661417350000.000000,354330708661417350000.000000"
         style="stroke:#000000;fill:none;stroke-linecap: round" />
      <path
         id="path4602"
         d="M -354330708661417350000.000000,354330708661417350000.000000 -354330708661417350000.000000,354330708661417350000.000000"
         style="stroke:#000000;fill:none;stroke-linecap: round" />
      <path
         id="path4604"
         d="M -354330708661417350000.000000,354330708661417350000.000000 -354330708661417350000.000000,354330708661417350000.000000"
         style="stroke:#000000;fill:none;stroke-linecap: round" />
      <path
         id="path4606"
         d="M -354330708661417350000.000000,354330708661417350000.000000 -354330708661417350000.000000,354330708661417350000.000000"
         style="stroke:#000000;fill:none;stroke-linecap: round" />
      <path
         id="path4608"
         d="M -354330708661417350000.000000,354330708661417350000.000000 -354330708661417350000.000000,354330708661417350000.000000"
         style="stroke:#000000;fill:none;stroke-linecap: round" />
      <path
         id="path4610"
         d="M -354330708661417350000.000000,354330708661417350000.000000 -354330708661417350000.000000,354330708661417350000.000000"
         style="stroke:#000000;fill:none;stroke-linecap: round" />
      <text
         id="text4612"
         sodipodi:linespacing="125%"
         style="font-size: 0.0px; fill: #000000; font-family: Arial"
         x="-354330708661417350000.000000"
         y="354330708661417350000.000000">
        <tspan
           id="tspan4614"
           sodipodi:role="line">Depth Map SizeZSIZE</tspan>
      </text>
      <text
         id="text4616"
         sodipodi:linespacing="125%"
         style="font-size: 0.0px; fill: #000000; font-family: Arial"
         x="-354330708661417350000.000000"
         y="354330708661417350000.000000">
        <tspan
           id="tspan4618"
           sodipodi:role="line">Look-from XYZLFXYZ</tspan>
      </text>
      <text
         id="text4620"
         sodipodi:linespacing="125%"
         style="font-size: 0.0px; fill: #000000; font-family: Arial"
         x="-354330708661417350000.000000"
         y="354330708661417350000.000000">
        <tspan
           id="tspan4622"
           sodipodi:role="line">Beam DistributionBEAMDI</tspan>
      </text>
      <text
         id="text4624"
         sodipodi:linespacing="125%"
         style="font-size: 0.0px; fill: #000000; font-family: Arial"
         x="-354330708661417350000.000000"
         y="354330708661417350000.000000">
        <tspan
           id="tspan4626"
           sodipodi:role="line">Cone DeltaCONEDE</tspan>
      </text>
      <text
         id="text4628"
         sodipodi:linespacing="125%"
         style="font-size: 0.0px; fill: #000000; font-family: Arial"
         x="-354330708661417350000.000000"
         y="354330708661417350000.000000">
        <tspan
           id="tspan4630"
           sodipodi:role="line">Cone AngleCONEAN</tspan>
      </text>
      <text
         id="text4632"
         sodipodi:linespacing="125%"
         style="font-size: 0.0px; fill: #000000; font-family: Arial"
         x="-354330708661417350000.000000"
         y="354330708661417350000.000000">
        <tspan
           id="tspan4634"
           sodipodi:role="line">*not used*BIASMAX</tspan>
      </text>
      <text
         id="text4636"
         sodipodi:linespacing="125%"
         style="font-size: 0.0px; fill: #000000; font-family: Arial"
         x="-354330708661417350000.000000"
         y="354330708661417350000.000000">
        <tspan
           id="tspan4638"
           sodipodi:role="line">*not used*BIASMIN</tspan>
      </text>
      <text
         id="text4640"
         sodipodi:linespacing="125%"
         style="font-size: 0.0px; fill: #000000; font-family: Arial"
         x="-354330708661417350000.000000"
         y="354330708661417350000.000000">
        <tspan
           id="tspan4642"
           sodipodi:role="line">Light Color (RGB)COLOR</tspan>
      </text>
      <text
         id="text4644"
         sodipodi:linespacing="125%"
         style="font-size: 0.0px; fill: #000000; font-family: Arial"
         x="-354330708661417350000.000000"
         y="354330708661417350000.000000">
        <tspan
           id="tspan4646"
           sodipodi:role="line">Light IntensityINTENSITY</tspan>
      </text>
      <text
         id="text4648"
         sodipodi:linespacing="125%"
         style="font-size: 0.0px; fill: #000000; font-family: Arial"
         x="-354330708661417350000.000000"
         y="354330708661417350000.000000">
        <tspan
           id="tspan4650"
           sodipodi:role="line">GNAME</tspan>
      </text>
      <text
         id="text4652"
         sodipodi:linespacing="125%"
         style="font-size: 0.0px; fill: #000000; font-family: Arial"
         x="-354330708661417350000.000000"
         y="354330708661417350000.000000">
        <tspan
           id="tspan4654"
           sodipodi:role="line">Look-at ZLAZ</tspan>
      </text>
      <text
         id="text4656"
         sodipodi:linespacing="125%"
         style="font-size: 0.0px; fill: #000000; font-family: Arial"
         x="-354330708661417350000.000000"
         y="354330708661417350000.000000">
        <tspan
           id="tspan4658"
           sodipodi:role="line">Look-at YLAY</tspan>
      </text>
      <text
         id="text4660"
         sodipodi:linespacing="125%"
         style="font-size: 0.0px; fill: #000000; font-family: Arial"
         x="-354330708661417350000.000000"
         y="354330708661417350000.000000">
        <tspan
           id="tspan4662"
           sodipodi:role="line">Look-at XLAX</tspan>
      </text>
      <path
         id="path4664"
         d="M -354330708661417350000.000000,354330708661417350000.000000 -354330708661417350000.000000,354330708661417350000.000000"
         style="stroke:#000000;fill:none;stroke-linecap: round" />
      <path
         id="path4666"
         d="M -354330708661417350000.000000,354330708661417350000.000000 -354330708661417350000.000000,354330708661417350000.000000"
         style="stroke:#000000;fill:none;stroke-linecap: round" />
      <path
         id="path4668"
         d="M -354330708661417350000.000000,354330708661417350000.000000 -354330708661417350000.000000,354330708661417350000.000000"
         style="stroke:#000000;fill:none;stroke-linecap: round" />
      <path
         id="path4670"
         d="M -354330708661417350000.000000,354330708661417350000.000000 -354330708661417350000.000000,354330708661417350000.000000"
         style="stroke:#000000;fill:none;stroke-linecap: round" />
      <path
         id="path4672"
         d="M -354330708661417350000.000000,354330708661417350000.000000 -354330708661417350000.000000,354330708661417350000.000000"
         style="stroke:#000000;fill:none;stroke-linecap: round" />
      <path
         id="path4674"
         d="M -354330708661417350000.000000,354330708661417350000.000000 -354330708661417350000.000000,354330708661417350000.000000"
         style="stroke:#000000;fill:none;stroke-linecap: round" />
      <path
         id="path4676"
         d="M -354330708661417350000.000000,354330708661417350000.000000 -354330708661417350000.000000,354330708661417350000.000000"
         style="stroke:#000000;fill:none;stroke-linecap: round" />
      <path
         id="path4678"
         d="M -354330708661417350000.000000,354330708661417350000.000000 -354330708661417350000.000000,354330708661417350000.000000"
         style="stroke:#000000;fill:none;stroke-linecap: round" />
      <path
         id="path4680"
         d="M -354330708661417350000.000000,354330708661417350000.000000 -354330708661417350000.000000,354330708661417350000.000000"
         style="stroke:#000000;fill:none;stroke-linecap: round" />
      <path
         id="path4682"
         d="M -354330708661417350000.000000,354330708661417350000.000000 -354330708661417350000.000000,354330708661417350000.000000"
         style="stroke:#000000;fill:none;stroke-linecap: round" />
      <path
         id="path4684"
         d="M -354330708661417350000.000000,354330708661417350000.000000 -354330708661417350000.000000,354330708661417350000.000000"
         style="stroke:#000000;fill:none;stroke-linecap: round" />
    </symbol>
    <symbol
       id="overhead">
      <text
         id="text4511"
         sodipodi:linespacing="125%"
         style="font-size: 0.7px; fill: #FF0000; font-family: Arial"
         x="-354330708661417350000.000000"
         y="354330708661417350000.000000">
        <tspan
           id="tspan4513"
           sodipodi:role="line">Light NameSNAME</tspan>
      </text>
      <path
         id="path4515"
         d="M -354330708661417350000.000000,354330708661417350000.000000 A 1.062992,1.062992 -0.000000 0 0 -354330708661417350000.000000,354330708661417350000.000000"
         style="stroke:#000000;fill:none;stroke-linecap: round" />
      <path
         id="path4517"
         d="M -354330708661417350000.000000,354330708661417350000.000000 -354330708661417350000.000000,354330708661417350000.000000"
         style="stroke:#000000;fill:none;stroke-linecap: round" />
      <path
         id="path4519"
         d="M -354330708661417350000.000000,354330708661417350000.000000 -354330708661417350000.000000,354330708661417350000.000000"
         style="stroke:#000000;fill:none;stroke-linecap: round" />
      <path
         id="path4521"
         d="M -354330708661417350000.000000,354330708661417350000.000000 -354330708661417350000.000000,354330708661417350000.000000"
         style="stroke:#000000;fill:none;stroke-linecap: round" />
      <path
         id="path4523"
         d="M -354330708661417350000.000000,354330708661417350000.000000 -354330708661417350000.000000,354330708661417350000.000000"
         style="stroke:#000000;fill:none;stroke-linecap: round" />
      <path
         id="path4525"
         d="M -354330708661417350000.000000,354330708661417350000.000000 -354330708661417350000.000000,354330708661417350000.000000"
         style="stroke:#000000;fill:none;stroke-linecap: round" />
      <path
         id="path4527"
         d="M -354330708661417350000.000000,354330708661417350000.000000 A 1.062992,1.062992 -0.000000 0 0 -354330708661417350000.000000,354330708661417350000.000000"
         style="stroke:#000000;fill:none;stroke-linecap: round" />
      <path
         id="path4529"
         d="M -354330708661417350000.000000,354330708661417350000.000000 -354330708661417350000.000000,354330708661417350000.000000"
         style="stroke:#000000;fill:none;stroke-linecap: round" />
      <path
         id="path4531"
         d="M -354330708661417350000.000000,354330708661417350000.000000 -354330708661417350000.000000,354330708661417350000.000000"
         style="stroke:#000000;fill:none;stroke-linecap: round" />
      <path
         id="path4533"
         d="M -354330708661417350000.000000,354330708661417350000.000000 -354330708661417350000.000000,354330708661417350000.000000"
         style="stroke:#000000;fill:none;stroke-linecap: round" />
      <path
         id="path4535"
         d="M -354330708661417350000.000000,354330708661417350000.000000 -354330708661417350000.000000,354330708661417350000.000000"
         style="stroke:#000000;fill:none;stroke-linecap: round" />
      <path
         id="path4537"
         d="M -354330708661417350000.000000,354330708661417350000.000000 -354330708661417350000.000000,354330708661417350000.000000"
         style="stroke:#000000;fill:none;stroke-linecap: round" />
      <path
         id="path4539"
         d="M -354330708661417350000.000000,354330708661417350000.000000 -354330708661417350000.000000,354330708661417350000.000000"
         style="stroke:#000000;fill:none;stroke-linecap: round" />
      <path
         id="path4541"
         d="M -354330708661417350000.000000,354330708661417350000.000000 -354330708661417350000.000000,354330708661417350000.000000"
         style="stroke:#000000;fill:none;stroke-linecap: round" />
      <text
         id="text4543"
         sodipodi:linespacing="125%"
         style="font-size: 0.0px; fill: #000000; font-family: Arial"
         x="-354330708661417350000.000000"
         y="354330708661417350000.000000">
        <tspan
           id="tspan4545"
           sodipodi:role="line">Light IntensityINTENSITY</tspan>
      </text>
      <text
         id="text4547"
         sodipodi:linespacing="125%"
         style="font-size: 0.0px; fill: #000000; font-family: Arial"
         x="-354330708661417350000.000000"
         y="354330708661417350000.000000">
        <tspan
           id="tspan4549"
           sodipodi:role="line">*not used*BEAMD</tspan>
      </text>
      <text
         id="text4551"
         sodipodi:linespacing="125%"
         style="font-size: 0.0px; fill: #000000; font-family: Arial"
         x="-354330708661417350000.000000"
         y="354330708661417350000.000000">
        <tspan
           id="tspan4553"
           sodipodi:role="line">*not used*CONED</tspan>
      </text>
      <text
         id="text4555"
         sodipodi:linespacing="125%"
         style="font-size: 0.0px; fill: #000000; font-family: Arial"
         x="-354330708661417350000.000000"
         y="354330708661417350000.000000">
        <tspan
           id="tspan4557"
           sodipodi:role="line">Depth Map SizeCONEA</tspan>
      </text>
      <text
         id="text4559"
         sodipodi:linespacing="125%"
         style="font-size: 0.0px; fill: #000000; font-family: Arial"
         x="-354330708661417350000.000000"
         y="354330708661417350000.000000">
        <tspan
           id="tspan4561"
           sodipodi:role="line">Light Color (RGB)COLOR</tspan>
      </text>
      <text
         id="text4563"
         sodipodi:linespacing="125%"
         style="font-size: 0.0px; fill: #000000; font-family: Arial"
         x="-354330708661417350000.000000"
         y="354330708661417350000.000000">
        <tspan
           id="tspan4565"
           sodipodi:role="line">Look-at ZLAZ</tspan>
      </text>
      <text
         id="text4567"
         sodipodi:linespacing="125%"
         style="font-size: 0.0px; fill: #000000; font-family: Arial"
         x="-354330708661417350000.000000"
         y="354330708661417350000.000000">
        <tspan
           id="tspan4569"
           sodipodi:role="line">Look-at YLAY</tspan>
      </text>
      <text
         id="text4571"
         sodipodi:linespacing="125%"
         style="font-size: 0.0px; fill: #000000; font-family: Arial"
         x="-354330708661417350000.000000"
         y="354330708661417350000.000000">
        <tspan
           id="tspan4573"
           sodipodi:role="line">Look-at XLAX</tspan>
      </text>
      <text
         id="text4575"
         sodipodi:linespacing="125%"
         style="font-size: 0.0px; fill: #000000; font-family: Arial"
         x="-354330708661417350000.000000"
         y="354330708661417350000.000000">
        <tspan
           id="tspan4577"
           sodipodi:role="line">GNAME</tspan>
      </text>
      <path
         id="path4579"
         d="M -354330708661417350000.000000,354330708661417350000.000000 -354330708661417350000.000000,354330708661417350000.000000"
         style="stroke:#000000;fill:none;stroke-linecap: round" />
      <path
         id="path4581"
         d="M -354330708661417350000.000000,354330708661417350000.000000 -354330708661417350000.000000,354330708661417350000.000000"
         style="stroke:#000000;fill:none;stroke-linecap: round" />
    </symbol>
    <symbol
       id="direct">
      <text
         id="text4456"
         sodipodi:linespacing="125%"
         style="font-size: 0.7px; fill: #FF0000; font-family: Arial"
         x="-354330708661417350000.000000"
         y="354330708661417350000.000000">
        <tspan
           id="tspan4458"
           sodipodi:role="line">Light NameSNAME</tspan>
      </text>
      <path
         id="path4460"
         d="M -354330708661417350000.000000,354330708661417350000.000000 A 1.062992,1.062992 -0.000000 0 0 -354330708661417350000.000000,354330708661417350000.000000"
         style="stroke:#000000;fill:none;stroke-linecap: round" />
      <path
         id="path4462"
         d="M -354330708661417350000.000000,354330708661417350000.000000 A 1.062992,1.062992 -0.000000 0 0 -354330708661417350000.000000,354330708661417350000.000000"
         style="stroke:#000000;fill:none;stroke-linecap: round" />
      <path
         id="path4464"
         d="M -354330708661417350000.000000,354330708661417350000.000000 -354330708661417350000.000000,354330708661417350000.000000"
         style="stroke:#000000;fill:none;stroke-linecap: round" />
      <path
         id="path4466"
         d="M -354330708661417350000.000000,354330708661417350000.000000 -354330708661417350000.000000,354330708661417350000.000000"
         style="stroke:#000000;fill:none;stroke-linecap: round" />
      <path
         id="path4468"
         d="M -354330708661417350000.000000,354330708661417350000.000000 -354330708661417350000.000000,354330708661417350000.000000"
         style="stroke:#000000;fill:none;stroke-linecap: round" />
      <text
         id="text4470"
         sodipodi:linespacing="125%"
         style="font-size: 0.0px; fill: #000000; font-family: Arial"
         x="-354330708661417350000.000000"
         y="354330708661417350000.000000">
        <tspan
           id="tspan4472"
           sodipodi:role="line">Look-at YLAY</tspan>
      </text>
      <text
         id="text4474"
         sodipodi:linespacing="125%"
         style="font-size: 0.0px; fill: #000000; font-family: Arial"
         x="-354330708661417350000.000000"
         y="354330708661417350000.000000">
        <tspan
           id="tspan4476"
           sodipodi:role="line">Light IntensityINTENSITY</tspan>
      </text>
      <text
         id="text4478"
         sodipodi:linespacing="125%"
         style="font-size: 0.0px; fill: #000000; font-family: Arial"
         x="-354330708661417350000.000000"
         y="354330708661417350000.000000">
        <tspan
           id="tspan4480"
           sodipodi:role="line">*not used*BEAMD</tspan>
      </text>
      <text
         id="text4482"
         sodipodi:linespacing="125%"
         style="font-size: 0.0px; fill: #000000; font-family: Arial"
         x="-354330708661417350000.000000"
         y="354330708661417350000.000000">
        <tspan
           id="tspan4484"
           sodipodi:role="line">*not used*CONED</tspan>
      </text>
      <text
         id="text4486"
         sodipodi:linespacing="125%"
         style="font-size: 0.0px; fill: #000000; font-family: Arial"
         x="-354330708661417350000.000000"
         y="354330708661417350000.000000">
        <tspan
           id="tspan4488"
           sodipodi:role="line">Depth Map SizeCONEA</tspan>
      </text>
      <text
         id="text4490"
         sodipodi:linespacing="125%"
         style="font-size: 0.0px; fill: #000000; font-family: Arial"
         x="-354330708661417350000.000000"
         y="354330708661417350000.000000">
        <tspan
           id="tspan4492"
           sodipodi:role="line">Light Color (RGB)COLOR</tspan>
      </text>
      <text
         id="text4494"
         sodipodi:linespacing="125%"
         style="font-size: 0.0px; fill: #000000; font-family: Arial"
         x="-354330708661417350000.000000"
         y="354330708661417350000.000000">
        <tspan
           id="tspan4496"
           sodipodi:role="line">Look-at ZLAZ</tspan>
      </text>
      <path
         id="path4498"
         d="M -354330708661417350000.000000,354330708661417350000.000000 -354330708661417350000.000000,354330708661417350000.000000"
         style="stroke:#000000;fill:none;stroke-linecap: round" />
      <path
         id="path4500"
         d="M -354330708661417350000.000000,354330708661417350000.000000 -354330708661417350000.000000,354330708661417350000.000000"
         style="stroke:#000000;fill:none;stroke-linecap: round" />
      <text
         id="text4502"
         sodipodi:linespacing="125%"
         style="font-size: 0.0px; fill: #000000; font-family: Arial"
         x="-354330708661417350000.000000"
         y="354330708661417350000.000000">
        <tspan
           id="tspan4504"
           sodipodi:role="line">Look-at XLAX</tspan>
      </text>
      <text
         id="text4506"
         sodipodi:linespacing="125%"
         style="font-size: 0.0px; fill: #000000; font-family: Arial"
         x="-354330708661417350000.000000"
         y="354330708661417350000.000000">
        <tspan
           id="tspan4508"
           sodipodi:role="line">GNAME</tspan>
      </text>
    </symbol>
    <symbol
       id="*Paper_Space0" />
    <symbol
       id="*Paper_Space" />
    <symbol
       id="*Model_Space" />
    <pattern
       id="Hatch"
       x="0"
       y="0"
       patternUnits="userSpaceOnUse"
       width="8"
       height="8">
      <path
         id="path4446"
         d="M8 4 l-4,4"
         stroke-width="0.25"
         stroke="#000000"
         linecap="square" />
      <path
         id="path4448"
         d="M6 2 l-4,4"
         stroke-width="0.25"
         stroke="#000000"
         linecap="square" />
      <path
         id="path4450"
         d="M4 0 l-4,4"
         stroke-width="0.25"
         stroke="#000000"
         linecap="square" />
    </pattern>
    <marker
       orient="auto"
       id="DistanceX"
       style="overflow:visible"
       refX="0.0"
       refY="0.0">
      <path
         id="path4443"
         d="M 3,-3 L -3,3 M 0,-5 L  0,5"
         style="stroke:#000000; stroke-width:0.5" />
    </marker>
  </defs>
  <sodipodi:namedview
     id="base"
     pagecolor="#ffffff"
     bordercolor="#666666"
     borderopacity="1.0"
     inkscape:pageopacity="0.0"
     inkscape:pageshadow="2"
     inkscape:zoom="1.8101934"
     inkscape:cx="293.90204"
     inkscape:cy="98.856755"
     inkscape:document-units="px"
     inkscape:current-layer="g4423"
     showgrid="false"
     borderlayer="true"
     showborder="true"
     inkscape:window-width="1831"
     inkscape:window-height="948"
     inkscape:window-x="27"
     inkscape:window-y="49"
     inkscape:window-maximized="0"
     inkscape:snap-center="false"
     inkscape:snap-object-midpoints="true"
     inkscape:snap-midpoints="false"
     units="px"
     height="180mm"
     inkscape:snap-nodes="true" />
  <metadata
     id="metadata7">
    <rdf:RDF>
      <cc:Work
         rdf:about="">
        <dc:format>image/svg+xml</dc:format>
        <dc:type
           rdf:resource="http://purl.org/dc/dcmitype/StillImage" />
        <dc:title></dc:title>
      </cc:Work>
    </rdf:RDF>
  </metadata>
  <g
     inkscape:label="Layer 1"
     inkscape:groupmode="layer"
     id="layer1"
     transform="translate(0,-856.36233)">
    <g
       id="g4559-4-5"
       transform="matrix(0.83524861,0.11481544,-0.09653786,0.99338684,-715.07906,-312.28806)"
       inkscape:export-filename="D:\dronin\logo_25b.png"
       inkscape:export-xdpi="90"
       inkscape:export-ydpi="90">
      <g
         id="g4368"
         transform="translate(2.119362,3.1250041)"
         inkscape:export-filename="D:\dronin\logo_25mod.png"
         inkscape:export-xdpi="90"
         inkscape:export-ydpi="90">
        <g
           id="g4423"
           transform="matrix(1.1762707,0,0,1.1762707,-184.24762,-190.89707)">
          <g
             id="g4978"
             transform="matrix(1.0125196,-0.00119978,-0.00119978,1.0022777,-11.123555,-1.5922275)">
            <g
               id="g3773"
               transform="matrix(0.38111361,-0.04404903,0.03703682,0.32044377,715.16761,1046.4342)">
              <path
                 style="fill:#000000;fill-opacity:1;stroke:none"
                 d="m 1035.914,530.245 c 66.1905,33.45971 132.3796,66.92212 198.57,100.382 -57.3738,-72.36105 -114.4862,-145.32681 -172.022,-217.311 -5.6261,0.67019 -11.3469,-1.06152 -16.312,-3.626 -3.4121,40.18499 -6.8233,80.37006 -10.236,120.555 z"
                 id="path6"
                 inkscape:connector-curvature="0" />
              <path
                 style="fill:#d97600;fill-opacity:1;stroke:none"
                 d="m 941.879,260.392 c -28.9015,-36.57073 -57.80399,-73.14067 -86.706,-109.711 26.5086,64.76656 53.01588,129.53365 79.525,194.3 2.39335,-28.19636 4.78922,-56.39251 7.181,-84.589 z"
                 id="path8"
                 inkscape:connector-curvature="0" />
              <path
                 style="fill:#000000;fill-opacity:1;stroke:none"
                 d="m 931.148,386.79 c -19.26395,-47.06702 -38.52851,-94.13379 -57.792,-141.201 -8.8979,101.43849 -16.66682,203.02542 -26.26886,304.37123 -3.70129,23.23045 -36.16737,32.91956 -52.01405,15.55886 -18.33783,-15.99106 -7.9724,-49.79417 16.10456,-52.9321 6.5685,-3.16206 16.8795,3.05494 20.49928,1.60874 2.23034,-26.26755 4.46016,-52.53514 6.69007,-78.80273 -22.92099,-5.24606 -46.9129,-0.71655 -68.27498,8.23483 -20.83467,10.52603 -38.69367,26.84118 -49.79902,47.52817 -12.84358,24.22702 -16.77645,53.42305 -9.75933,80.10626 6.33934,23.9392 21.24561,45.14331 40.85833,60.14074 54.58737,-18.73791 109.17362,-37.4791 163.761,-56.217 5.33154,-62.79868 10.66435,-125.59725 15.995,-188.396 z"
                 id="path10"
                 inkscape:connector-curvature="0" />
              <path
                 style="fill:#000000;fill-opacity:1;stroke:none"
                 d="m 913.687,592.455 c -71.529,24.55532 -143.05798,49.11073 -214.587,73.666 69.444,10e-4 138.888,0.003 208.332,0.004 2.0851,-24.55666 4.16974,-49.11335 6.255,-73.67 z"
                 id="path12"
                 inkscape:connector-curvature="0" />
              <path
                 style="fill:#d97600;fill-opacity:1;stroke:none"
                 d="m 1024.378,666.127 c 79.3887,0.002 158.7773,0.004 238.166,0.005 -76.1219,-38.48128 -152.2434,-76.96327 -228.365,-115.445 -3.2669,38.48001 -6.5347,76.95994 -9.801,115.44 z"
                 id="path14"
                 inkscape:connector-curvature="0" />
              <path
                 style="fill:#000000;fill-opacity:1;stroke:none"
                 d="m 1082.293,404.809 c 16.5399,20.92811 33.0798,41.85614 49.62,62.784 29.7968,-24.88543 45.2582,-65.899 37.253,-104.135 -4.1719,-23.56045 -16.5121,-45.68322 -34.4612,-61.6074 -14.9839,-13.78119 -34.2949,-23.31472 -54.3884,-26.62954 -39.8687,-4.59198 -79.9467,-7.09278 -119.9074,-10.76506 -11.36868,133.88958 -22.73416,267.77943 -34.103,401.669 26.399,0.002 52.798,10e-4 79.197,0.002 8.9911,-105.8933 17.9814,-211.78666 26.972,-317.68 18.5535,2.97932 42.9757,-1.95621 54.5114,16.74277 8.408,12.14337 6.2622,29.70579 -4.6934,39.61923 z"
                 id="path16"
                 inkscape:connector-curvature="0" />
            </g>
            <g
               transform="translate(-6.0264981,0.69654135)"
               id="g4892">
              <path
                 d="m 1246.1027,1134.3514 c 5.2592,-0.6079 10.3581,-0.4812 15.2967,0.38 4.9384,0.8612 9.1604,2.4365 12.6659,4.7256 3.5053,2.2894 6.1566,5.1296 7.9538,8.5206 1.7972,3.3912 2.8147,7.1457 3.0529,11.2633 0.2315,4.0055 -0.2586,7.8965 -1.4706,11.6731 -1.212,3.7766 -3.423,7.4425 -6.6331,10.9978 -3.2102,3.5554 -7.3889,6.4219 -12.5359,8.5995 -5.1472,2.1776 -10.6472,3.6047 -16.5002,4.2812 -5.3864,0.6226 -10.6009,0.5281 -15.6433,-0.2834 -5.0424,-0.8115 -9.3052,-2.3538 -12.7882,-4.6268 -3.4831,-2.273 -6.1695,-5.1656 -8.0591,-8.678 -1.8896,-3.5123 -2.9523,-7.3086 -3.1883,-11.3889 -0.2359,-4.0803 0.3555,-8.0678 1.7741,-11.9625 1.4186,-3.8947 3.8132,-7.5253 7.1837,-10.8919 3.3705,-3.3666 7.6181,-6.1468 12.743,-8.3408 5.1248,-2.1938 10.5076,-3.6168 16.1486,-4.2688 z m 0.5092,16.5599 c -2.7145,0.3137 -5.0964,1.2108 -7.1455,2.6911 -2.0493,1.4805 -3.5459,3.4718 -4.49,5.9738 -0.9441,2.5021 -1.335,5.1569 -1.1726,7.9644 0.238,4.1178 1.5867,7.1368 4.0461,9.057 2.4593,1.9203 5.4491,2.677 8.9694,2.2701 2.672,-0.3088 5.0321,-1.2128 7.0803,-2.712 2.0481,-1.4991 3.542,-3.5371 4.4818,-6.114 0.9398,-2.577 1.3285,-5.2692 1.1662,-8.0767 -0.1343,-2.321 -0.6796,-4.3682 -1.636,-6.1419 -0.9565,-1.7736 -2.4322,-3.1104 -4.4269,-4.0105 -1.9947,-0.8999 -4.2857,-1.2004 -6.8728,-0.9013 z"
                 style="font-size:125.41491699px;font-style:normal;font-variant:normal;font-weight:normal;font-stretch:normal;line-height:125%;letter-spacing:-5.45282221px;word-spacing:0px;fill:#000000;fill-opacity:1;stroke:none;font-family:Eras Bold ITC;-inkscape-font-specification:Eras Bold ITC"
                 id="path3837-5-0-8"
                 inkscape:connector-curvature="0" />
              <path
                 d="m 1289.834,1188.4798 c 0.7387,-8.6396 1.1397,-18.1353 1.2028,-28.4868 0.063,-10.3516 -0.1065,-20.1204 -0.5096,-29.3065 5.094,-0.513 9.4859,-0.9833 13.1758,-1.4098 4.2837,-0.4951 8.3955,-1.0082 12.3357,-1.5388 l -0.1947,7.71 c 1.3195,-1.5467 2.465,-2.7814 3.4365,-3.7039 0.9712,-0.9224 2.1876,-1.8544 3.6489,-2.7959 1.4613,-0.9414 3.0261,-1.7534 4.6946,-2.4362 1.6683,-0.6826 3.5017,-1.2808 5.5002,-1.7945 1.9982,-0.5136 4.1002,-0.8978 6.3057,-1.1527 3.0537,-0.353 6.0499,-0.4072 8.9889,-0.1628 2.9388,0.2445 5.4145,0.7874 7.4272,1.6287 2.0127,0.8414 3.7224,1.9816 5.1293,3.4205 1.4068,1.439 2.3752,3.0512 2.9055,4.8364 0.5301,1.7852 0.8515,3.6511 0.9641,5.5977 0.082,1.4225 0.09,4.5116 0.024,9.2675 l 0.094,20.4516 c 0.019,4.03 0.1278,7.7482 0.3247,11.1547 -4.2881,0.4199 -8.2982,0.846 -12.0305,1.2774 -5.0472,0.5834 -9.6469,1.1528 -13.799,1.708 0.1847,-3.4506 0.2949,-8.5601 0.3305,-15.3285 0.036,-6.7684 -0.025,-11.519 -0.1835,-14.2517 -0.2446,-4.23 -1.3376,-7.0713 -3.2788,-8.5239 -1.9414,-1.4526 -4.3117,-2.017 -7.1109,-1.6936 -2.46,0.2844 -4.7409,1.264 -6.8429,2.939 -2.102,1.675 -3.6684,3.938 -4.699,6.7892 -1.0307,2.8513 -1.6102,7.4121 -1.7387,13.6824 -0.1284,6.2704 -0.091,12.6348 0.1113,19.093 -4.2457,0.4151 -8.3831,0.8559 -12.4123,1.3216 -4.2414,0.4902 -8.841,1.0596 -13.799,1.7079 z"
                 style="font-size:125.41491699px;font-style:normal;font-variant:normal;font-weight:normal;font-stretch:normal;line-height:125%;letter-spacing:-5.45282221px;word-spacing:0px;fill:#000000;fill-opacity:1;stroke:none;font-family:Eras Bold ITC;-inkscape-font-specification:Eras Bold ITC"
                 id="path3839-7-7-1"
                 inkscape:connector-curvature="0" />
              <path
                 inkscape:connector-curvature="0"
                 style="font-size:125.41491699px;font-style:normal;font-variant:normal;font-weight:normal;font-stretch:normal;line-height:125%;letter-spacing:-5.45282221px;word-spacing:0px;fill:#d97600;fill-opacity:1;stroke:none;font-family:Eras Bold ITC;-inkscape-font-specification:Eras Bold ITC"
                 d="m 1373.2629,1113.9451 c 0,-4.484 -0.079,-8.0175 -0.2286,-10.6005 -0.043,-0.7486 -0.1225,-1.7569 -0.2387,-3.0248 5.1362,-0.518 9.4434,-0.9783 12.9213,-1.3804 4.7926,-0.5539 8.9893,-1.0769 12.5901,-1.5683 -0.06,1.1753 -0.089,2.1583 -0.086,2.9493 l 0.021,7.0069 c -0.025,1.058 0,2.2982 0.087,3.7207 -4.2033,0.4101 -8.2346,0.8387 -12.0943,1.2847 -3.9868,0.4609 -8.3107,0.9984 -12.9719,1.6124 z"
                 id="path3956-8" />
              <path
                 inkscape:connector-curvature="0"
                 style="font-size:125.41491699px;font-style:normal;font-variant:normal;font-weight:normal;font-stretch:normal;line-height:125%;letter-spacing:-5.45282221px;word-spacing:0px;fill:#000000;fill-opacity:1;stroke:none;font-family:Eras Bold ITC;-inkscape-font-specification:Eras Bold ITC"
                 d="m 1372.982,1178.8696 c 0.3298,-4.6356 0.5576,-8.4492 0.6835,-11.4408 0.1259,-2.9916 0.1936,-6.8055 0.203,-11.4417 0.01,-4.6362 -0.041,-9.7554 -0.1514,-15.3576 -0.1105,-5.6022 -0.3152,-12.0978 -0.6144,-19.487 5.518,-0.5621 9.9312,-1.0348 13.2393,-1.4172 3.0114,-0.348 7.3354,-0.8857 12.9719,-1.6123 -0.3119,7.1584 -0.4721,13.4324 -0.4807,18.8222 -0.01,5.3898 0.1178,11.0843 0.3794,17.0835 0.4449,10.651 0.7779,17.8855 0.9987,21.7037 -5.0516,0.5082 -9.4011,0.9735 -13.0485,1.3951 -3.6052,0.4167 -8.3321,1.0009 -14.1808,1.7521 z"
                 id="path3841-5-1-2" />
              <path
                 d="m 1407.7792,1174.8477 c 0.7387,-8.6396 1.1396,-18.1352 1.2029,-28.4868 0.063,-10.3516 -0.1066,-20.1204 -0.5097,-29.3065 5.0939,-0.513 9.4858,-0.9832 13.1758,-1.4098 4.2836,-0.495 8.3956,-1.0082 12.3358,-1.5388 l -0.1947,7.7101 c 1.3195,-1.5468 2.4649,-2.7815 3.4363,-3.704 0.9714,-0.9224 2.1877,-1.8543 3.6491,-2.7959 1.4612,-0.9414 3.0261,-1.7534 4.6944,-2.4362 1.6684,-0.6826 3.5018,-1.2808 5.5002,-1.7944 1.9984,-0.5136 4.1003,-0.8979 6.3058,-1.1528 3.0537,-0.353 6.05,-0.4072 8.9889,-0.1628 2.9387,0.2445 5.4146,0.7874 7.4273,1.6287 2.0126,0.8414 3.7224,1.9816 5.1292,3.4205 1.4067,1.439 2.3752,3.0512 2.9055,4.8364 0.5301,1.7852 0.8515,3.6511 0.9641,5.5977 0.082,1.4225 0.09,4.5117 0.024,9.2676 l 0.094,20.4515 c 0.019,4.03 0.1277,7.7482 0.3248,11.1547 -4.2882,0.4199 -8.2984,0.8461 -12.0306,1.2774 -5.0473,0.5834 -9.6469,1.1529 -13.799,1.708 0.1848,-3.4506 0.2949,-8.5601 0.3306,-15.3285 0.036,-6.7684 -0.026,-11.519 -0.1836,-14.2516 -0.2447,-4.2301 -1.3375,-7.0714 -3.2788,-8.524 -1.9413,-1.4525 -4.3116,-2.017 -7.1108,-1.6936 -2.46,0.2845 -4.741,1.264 -6.843,2.939 -2.1021,1.675 -3.6684,3.938 -4.699,6.7892 -1.0307,2.8513 -1.6103,7.4121 -1.7386,13.6824 -0.1285,6.2705 -0.091,12.6348 0.1112,19.093 -4.2456,0.4151 -8.3831,0.8559 -12.4123,1.3216 -4.2413,0.4902 -8.8409,1.0597 -13.799,1.7079 z"
                 style="font-size:125.41491699px;font-style:normal;font-variant:normal;font-weight:normal;font-stretch:normal;line-height:125%;letter-spacing:-5.45282221px;word-spacing:0px;fill:#000000;fill-opacity:1;stroke:none;font-family:Eras Bold ITC;-inkscape-font-specification:Eras Bold ITC"
                 id="path3843-4-7-6"
                 inkscape:connector-curvature="0" />
            </g>
          </g>
          <g
             id="g4842"
             transform="matrix(1.0044163,-0.11609023,0.09760971,0.8445223,987.14404,1063.571)">
            <g
               id="g4688"
               inkscape:label="0" />
            <g
               id="g4690"
               inkscape:label="ASHADE">
              <use
                 id="use4692"
                 xlink:href="#AVE_RENDER"
                 x="0"
                 y="-1052.3622"
                 width="1"
                 height="1" />
              <use
                 id="use4694"
                 xlink:href="#AVE_RENDER"
                 x="0"
                 y="-1052.3622"
                 width="1"
                 height="1" />
              <use
                 id="use4696"
                 xlink:href="#AVE_RENDER"
                 x="0"
                 y="-1052.3622"
                 width="1"
                 height="1" />
              <use
                 id="use4698"
                 xlink:href="#AVE_RENDER"
                 x="0"
                 y="-1052.3622"
                 width="1"
                 height="1" />
              <use
                 id="use4700"
                 xlink:href="#AVE_RENDER"
                 x="0"
                 y="-1052.3622"
                 width="1"
                 height="1" />
              <use
                 id="use4702"
                 xlink:href="#AVE_RENDER"
                 x="0"
                 y="-1052.3622"
                 width="1"
                 height="1" />
              <use
                 id="use4704"
                 xlink:href="#AVE_RENDER"
                 x="0"
                 y="-1052.3622"
                 width="1"
                 height="1" />
              <use
                 id="use4706"
                 xlink:href="#AVE_RENDER"
                 x="0"
                 y="-1052.3622"
                 width="1"
                 height="1" />
              <use
                 id="use4708"
                 xlink:href="#AVE_GLOBAL"
                 x="0"
                 y="-1052.3622"
                 width="1"
                 height="1" />
            </g>
          </g>
        </g>
      </g>
    </g>
  </g>
</svg>
