<?xml version="1.0" encoding="UTF-8" standalone="no"?>
<!-- Created with Inkscape (http://www.inkscape.org/) -->

<svg
   xmlns:dc="http://purl.org/dc/elements/1.1/"
   xmlns:cc="http://creativecommons.org/ns#"
   xmlns:rdf="http://www.w3.org/1999/02/22-rdf-syntax-ns#"
   xmlns:svg="http://www.w3.org/2000/svg"
   xmlns="http://www.w3.org/2000/svg"
   xmlns:xlink="http://www.w3.org/1999/xlink"
   xmlns:sodipodi="http://sodipodi.sourceforge.net/DTD/sodipodi-0.dtd"
   xmlns:inkscape="http://www.inkscape.org/namespaces/inkscape"
   width="480"
   height="196"
   id="svg2"
   version="1.1"
   inkscape:version="0.48.5 r10040"
   sodipodi:docname="dronin_silk.svg"
   inkscape:export-filename="D:\dronin\logo_final_full_lgFntBott_a.png"
   inkscape:export-xdpi="500.18707"
   inkscape:export-ydpi="500.18707">
  <defs
     id="defs4">
    <filter
       id="filter3000"
       inkscape:label="Cross-smooth"
       inkscape:menu="Blurs"
       inkscape:menu-tooltip="Blur inner borders and intersections"
       color-interpolation-filters="sRGB">
      <feGaussianBlur
         id="feGaussianBlur3002"
         stdDeviation="1" />
      <feColorMatrix
         id="feColorMatrix3004"
         result="fbSourceGraphic"
         values="1 0 0 0 0 0 1 0 0 0 0 0 1 0 0 0 0 0 6 -2.5 " />
    </filter>
    <filter
       id="filter3006"
       inkscape:label="Blur content"
       inkscape:menu="Blurs"
       inkscape:menu-tooltip="Blur the contents of objects, preserving the outline"
       color-interpolation-filters="sRGB">
      <feColorMatrix
         id="feColorMatrix3008"
         values="1 0 0 0 0 0 1 0 0 0 0 0 1 0 0 0 0 0 1 0 "
         result="result7" />
      <feGaussianBlur
         id="feGaussianBlur3010"
         result="result6"
         stdDeviation="1.7642105263157895" />
      <feComposite
         id="feComposite3012"
         in2="result7"
         operator="atop"
         in="result6"
         result="result91" />
      <feComposite
         id="feComposite3014"
         in2="result91"
         operator="in" />
    </filter>
    <filter
       id="filter3016"
       inkscape:label="Fancy blur"
       inkscape:menu="Blurs"
       inkscape:menu-tooltip="Smooth colorized contour which allows desaturation and hue rotation"
       color-interpolation-filters="sRGB">
      <feGaussianBlur
         id="feGaussianBlur3018"
         stdDeviation="5"
         result="result1" />
      <feComposite
         id="feComposite3020"
         in2="result1"
         operator="arithmetic"
         k2="2"
         in="result1"
         k1="0"
         k3="0"
         k4="0" />
    </filter>
    <filter
       id="filter3022"
       inkscape:label="Fancy blur"
       inkscape:menu="Blurs"
       inkscape:menu-tooltip="Smooth colorized contour which allows desaturation and hue rotation"
       color-interpolation-filters="sRGB">
      <feGaussianBlur
         id="feGaussianBlur3024"
         stdDeviation="5"
         result="result1" />
      <feComposite
         id="feComposite3026"
         in2="result1"
         operator="arithmetic"
         k2="2"
         in="result1"
         k1="0"
         k3="0"
         k4="0" />
    </filter>
    <filter
       id="filter3028"
       inkscape:label="Fancy blur"
       inkscape:menu="Blurs"
       inkscape:menu-tooltip="Smooth colorized contour which allows desaturation and hue rotation"
       color-interpolation-filters="sRGB">
      <feGaussianBlur
         id="feGaussianBlur3030"
         stdDeviation="5"
         result="result1" />
      <feComposite
         id="feComposite3032"
         in2="result1"
         operator="arithmetic"
         k2="2"
         in="result1"
         k1="0"
         k3="0"
         k4="0" />
      <feGaussianBlur
         stdDeviation="1"
         id="feGaussianBlur3040" />
    </filter>
    <filter
       id="filter3034"
       inkscape:label="Fancy blur"
       inkscape:menu="Blurs"
       inkscape:menu-tooltip="Smooth colorized contour which allows desaturation and hue rotation"
       color-interpolation-filters="sRGB">
      <feGaussianBlur
         id="feGaussianBlur3036"
         stdDeviation="5"
         result="result1" />
      <feComposite
         id="feComposite3038"
         in2="result1"
         operator="arithmetic"
         k2="2"
         in="result1"
         k1="0"
         k3="0"
         k4="0" />
    </filter>
    <filter
       id="filter3042"
       inkscape:label="Drop Shadow"
       color-interpolation-filters="sRGB">
      <feFlood
         id="feFlood3044"
         flood-opacity="0.377"
         flood-color="rgb(0,0,0)"
         result="flood" />
      <feComposite
         id="feComposite3046"
         in2="SourceGraphic"
         in="flood"
         operator="in"
         result="composite1" />
      <feGaussianBlur
         id="feGaussianBlur3048"
         stdDeviation="3.3"
         result="blur" />
      <feOffset
         id="feOffset3050"
         dx="3"
         dy="3"
         result="offset" />
      <feComposite
         id="feComposite3052"
         in2="offset"
         in="SourceGraphic"
         operator="over"
         result="composite2" />
    </filter>
    <filter
       id="filter3054"
       inkscape:label="Drop Shadow"
       color-interpolation-filters="sRGB">
      <feFlood
         id="feFlood3056"
         flood-opacity="0.377"
         flood-color="rgb(0,0,0)"
         result="flood" />
      <feComposite
         id="feComposite3058"
         in2="SourceGraphic"
         in="flood"
         operator="in"
         result="composite1" />
      <feGaussianBlur
         id="feGaussianBlur3060"
         stdDeviation="3.3"
         result="blur" />
      <feOffset
         id="feOffset3062"
         dx="3"
         dy="3"
         result="offset" />
      <feComposite
         id="feComposite3064"
         in2="offset"
         in="SourceGraphic"
         operator="over"
         result="composite2" />
    </filter>
    <filter
       id="filter3066"
       inkscape:label="Drop Shadow"
       color-interpolation-filters="sRGB">
      <feFlood
         id="feFlood3068"
         flood-opacity="0.377"
         flood-color="rgb(0,0,0)"
         result="flood" />
      <feComposite
         id="feComposite3070"
         in2="SourceGraphic"
         in="flood"
         operator="in"
         result="composite1" />
      <feGaussianBlur
         id="feGaussianBlur3072"
         stdDeviation="3.3"
         result="blur" />
      <feOffset
         id="feOffset3074"
         dx="3"
         dy="3"
         result="offset" />
      <feComposite
         id="feComposite3076"
         in2="offset"
         in="SourceGraphic"
         operator="over"
         result="composite2" />
    </filter>
    <filter
       id="filter3078"
       inkscape:label="Drop Shadow"
       color-interpolation-filters="sRGB">
      <feFlood
         id="feFlood3080"
         flood-opacity="0.377"
         flood-color="rgb(0,0,0)"
         result="flood" />
      <feComposite
         id="feComposite3082"
         in2="SourceGraphic"
         in="flood"
         operator="in"
         result="composite1" />
      <feGaussianBlur
         id="feGaussianBlur3084"
         stdDeviation="3.3"
         result="blur" />
      <feOffset
         id="feOffset3086"
         dx="3"
         dy="3"
         result="offset" />
      <feComposite
         id="feComposite3088"
         in2="offset"
         in="SourceGraphic"
         operator="over"
         result="composite2" />
    </filter>
    <filter
       id="filter3078-9"
       inkscape:label="Drop Shadow"
       color-interpolation-filters="sRGB">
      <feFlood
         id="feFlood3080-8"
         flood-opacity="0.377"
         flood-color="rgb(0,0,0)"
         result="flood" />
      <feComposite
         id="feComposite3082-4"
         in2="SourceGraphic"
         in="flood"
         operator="in"
         result="composite1" />
      <feGaussianBlur
         id="feGaussianBlur3084-1"
         stdDeviation="3.3"
         result="blur" />
      <feOffset
         id="feOffset3086-4"
         dx="3"
         dy="3"
         result="offset" />
      <feComposite
         id="feComposite3088-3"
         in2="offset"
         in="SourceGraphic"
         operator="over"
         result="composite2" />
    </filter>
    <filter
       id="filter3946"
       inkscape:label="filter12"
       color-interpolation-filters="sRGB" />
    <symbol
       id="AVE_GLOBAL" />
    <symbol
       id="AVE_RENDER" />
    <symbol
       id="sh_spot">
      <path
         id="path4584"
         d="M -354330708661417350000.000000,354330708661417350000.000000 -354330708661417350000.000000,354330708661417350000.000000"
         style="stroke:#000000;fill:none;stroke-linecap: round" />
      <path
         id="path4586"
         d="M -354330708661417350000.000000,354330708661417350000.000000 -354330708661417350000.000000,354330708661417350000.000000"
         style="stroke:#000000;fill:none;stroke-linecap: round" />
      <text
         id="text4588"
         sodipodi:linespacing="125%"
         style="font-size: 0.7px; fill: #FF0000; font-family: Arial"
         x="-354330708661417350000.000000"
         y="354330708661417350000.000000">
        <tspan
           id="tspan4590"
           sodipodi:role="line">Light NameSNAME</tspan>
      </text>
      <path
         id="path4592"
         d="M -354330708661417350000.000000,354330708661417350000.000000 -354330708661417350000.000000,354330708661417350000.000000"
         style="stroke:#000000;fill:none;stroke-linecap: round" />
      <path
         id="path4594"
         d="M -354330708661417350000.000000,354330708661417350000.000000 -354330708661417350000.000000,354330708661417350000.000000"
         style="stroke:#000000;fill:none;stroke-linecap: round" />
      <path
         id="path4596"
         d="M -354330708661417350000.000000,354330708661417350000.000000 -354330708661417350000.000000,354330708661417350000.000000"
         style="stroke:#000000;fill:none;stroke-linecap: round" />
      <path
         id="path4598"
         d="M -354330708661417350000.000000,354330708661417350000.000000 -354330708661417350000.000000,354330708661417350000.000000"
         style="stroke:#000000;fill:none;stroke-linecap: round" />
      <path
         id="path4600"
         d="M -354330708661417350000.000000,354330708661417350000.000000 -354330708661417350000.000000,354330708661417350000.000000"
         style="stroke:#000000;fill:none;stroke-linecap: round" />
      <path
         id="path4602"
         d="M -354330708661417350000.000000,354330708661417350000.000000 -354330708661417350000.000000,354330708661417350000.000000"
         style="stroke:#000000;fill:none;stroke-linecap: round" />
      <path
         id="path4604"
         d="M -354330708661417350000.000000,354330708661417350000.000000 -354330708661417350000.000000,354330708661417350000.000000"
         style="stroke:#000000;fill:none;stroke-linecap: round" />
      <path
         id="path4606"
         d="M -354330708661417350000.000000,354330708661417350000.000000 -354330708661417350000.000000,354330708661417350000.000000"
         style="stroke:#000000;fill:none;stroke-linecap: round" />
      <path
         id="path4608"
         d="M -354330708661417350000.000000,354330708661417350000.000000 -354330708661417350000.000000,354330708661417350000.000000"
         style="stroke:#000000;fill:none;stroke-linecap: round" />
      <path
         id="path4610"
         d="M -354330708661417350000.000000,354330708661417350000.000000 -354330708661417350000.000000,354330708661417350000.000000"
         style="stroke:#000000;fill:none;stroke-linecap: round" />
      <text
         id="text4612"
         sodipodi:linespacing="125%"
         style="font-size: 0.0px; fill: #000000; font-family: Arial"
         x="-354330708661417350000.000000"
         y="354330708661417350000.000000">
        <tspan
           id="tspan4614"
           sodipodi:role="line">Depth Map SizeZSIZE</tspan>
      </text>
      <text
         id="text4616"
         sodipodi:linespacing="125%"
         style="font-size: 0.0px; fill: #000000; font-family: Arial"
         x="-354330708661417350000.000000"
         y="354330708661417350000.000000">
        <tspan
           id="tspan4618"
           sodipodi:role="line">Look-from XYZLFXYZ</tspan>
      </text>
      <text
         id="text4620"
         sodipodi:linespacing="125%"
         style="font-size: 0.0px; fill: #000000; font-family: Arial"
         x="-354330708661417350000.000000"
         y="354330708661417350000.000000">
        <tspan
           id="tspan4622"
           sodipodi:role="line">Beam DistributionBEAMDI</tspan>
      </text>
      <text
         id="text4624"
         sodipodi:linespacing="125%"
         style="font-size: 0.0px; fill: #000000; font-family: Arial"
         x="-354330708661417350000.000000"
         y="354330708661417350000.000000">
        <tspan
           id="tspan4626"
           sodipodi:role="line">Cone DeltaCONEDE</tspan>
      </text>
      <text
         id="text4628"
         sodipodi:linespacing="125%"
         style="font-size: 0.0px; fill: #000000; font-family: Arial"
         x="-354330708661417350000.000000"
         y="354330708661417350000.000000">
        <tspan
           id="tspan4630"
           sodipodi:role="line">Cone AngleCONEAN</tspan>
      </text>
      <text
         id="text4632"
         sodipodi:linespacing="125%"
         style="font-size: 0.0px; fill: #000000; font-family: Arial"
         x="-354330708661417350000.000000"
         y="354330708661417350000.000000">
        <tspan
           id="tspan4634"
           sodipodi:role="line">*not used*BIASMAX</tspan>
      </text>
      <text
         id="text4636"
         sodipodi:linespacing="125%"
         style="font-size: 0.0px; fill: #000000; font-family: Arial"
         x="-354330708661417350000.000000"
         y="354330708661417350000.000000">
        <tspan
           id="tspan4638"
           sodipodi:role="line">*not used*BIASMIN</tspan>
      </text>
      <text
         id="text4640"
         sodipodi:linespacing="125%"
         style="font-size: 0.0px; fill: #000000; font-family: Arial"
         x="-354330708661417350000.000000"
         y="354330708661417350000.000000">
        <tspan
           id="tspan4642"
           sodipodi:role="line">Light Color (RGB)COLOR</tspan>
      </text>
      <text
         id="text4644"
         sodipodi:linespacing="125%"
         style="font-size: 0.0px; fill: #000000; font-family: Arial"
         x="-354330708661417350000.000000"
         y="354330708661417350000.000000">
        <tspan
           id="tspan4646"
           sodipodi:role="line">Light IntensityINTENSITY</tspan>
      </text>
      <text
         id="text4648"
         sodipodi:linespacing="125%"
         style="font-size: 0.0px; fill: #000000; font-family: Arial"
         x="-354330708661417350000.000000"
         y="354330708661417350000.000000">
        <tspan
           id="tspan4650"
           sodipodi:role="line">GNAME</tspan>
      </text>
      <text
         id="text4652"
         sodipodi:linespacing="125%"
         style="font-size: 0.0px; fill: #000000; font-family: Arial"
         x="-354330708661417350000.000000"
         y="354330708661417350000.000000">
        <tspan
           id="tspan4654"
           sodipodi:role="line">Look-at ZLAZ</tspan>
      </text>
      <text
         id="text4656"
         sodipodi:linespacing="125%"
         style="font-size: 0.0px; fill: #000000; font-family: Arial"
         x="-354330708661417350000.000000"
         y="354330708661417350000.000000">
        <tspan
           id="tspan4658"
           sodipodi:role="line">Look-at YLAY</tspan>
      </text>
      <text
         id="text4660"
         sodipodi:linespacing="125%"
         style="font-size: 0.0px; fill: #000000; font-family: Arial"
         x="-354330708661417350000.000000"
         y="354330708661417350000.000000">
        <tspan
           id="tspan4662"
           sodipodi:role="line">Look-at XLAX</tspan>
      </text>
      <path
         id="path4664"
         d="M -354330708661417350000.000000,354330708661417350000.000000 -354330708661417350000.000000,354330708661417350000.000000"
         style="stroke:#000000;fill:none;stroke-linecap: round" />
      <path
         id="path4666"
         d="M -354330708661417350000.000000,354330708661417350000.000000 -354330708661417350000.000000,354330708661417350000.000000"
         style="stroke:#000000;fill:none;stroke-linecap: round" />
      <path
         id="path4668"
         d="M -354330708661417350000.000000,354330708661417350000.000000 -354330708661417350000.000000,354330708661417350000.000000"
         style="stroke:#000000;fill:none;stroke-linecap: round" />
      <path
         id="path4670"
         d="M -354330708661417350000.000000,354330708661417350000.000000 -354330708661417350000.000000,354330708661417350000.000000"
         style="stroke:#000000;fill:none;stroke-linecap: round" />
      <path
         id="path4672"
         d="M -354330708661417350000.000000,354330708661417350000.000000 -354330708661417350000.000000,354330708661417350000.000000"
         style="stroke:#000000;fill:none;stroke-linecap: round" />
      <path
         id="path4674"
         d="M -354330708661417350000.000000,354330708661417350000.000000 -354330708661417350000.000000,354330708661417350000.000000"
         style="stroke:#000000;fill:none;stroke-linecap: round" />
      <path
         id="path4676"
         d="M -354330708661417350000.000000,354330708661417350000.000000 -354330708661417350000.000000,354330708661417350000.000000"
         style="stroke:#000000;fill:none;stroke-linecap: round" />
      <path
         id="path4678"
         d="M -354330708661417350000.000000,354330708661417350000.000000 -354330708661417350000.000000,354330708661417350000.000000"
         style="stroke:#000000;fill:none;stroke-linecap: round" />
      <path
         id="path4680"
         d="M -354330708661417350000.000000,354330708661417350000.000000 -354330708661417350000.000000,354330708661417350000.000000"
         style="stroke:#000000;fill:none;stroke-linecap: round" />
      <path
         id="path4682"
         d="M -354330708661417350000.000000,354330708661417350000.000000 -354330708661417350000.000000,354330708661417350000.000000"
         style="stroke:#000000;fill:none;stroke-linecap: round" />
      <path
         id="path4684"
         d="M -354330708661417350000.000000,354330708661417350000.000000 -354330708661417350000.000000,354330708661417350000.000000"
         style="stroke:#000000;fill:none;stroke-linecap: round" />
    </symbol>
    <symbol
       id="overhead">
      <text
         id="text4511"
         sodipodi:linespacing="125%"
         style="font-size: 0.7px; fill: #FF0000; font-family: Arial"
         x="-354330708661417350000.000000"
         y="354330708661417350000.000000">
        <tspan
           id="tspan4513"
           sodipodi:role="line">Light NameSNAME</tspan>
      </text>
      <path
         id="path4515"
         d="M -354330708661417350000.000000,354330708661417350000.000000 A 1.062992,1.062992 -0.000000 0 0 -354330708661417350000.000000,354330708661417350000.000000"
         style="stroke:#000000;fill:none;stroke-linecap: round" />
      <path
         id="path4517"
         d="M -354330708661417350000.000000,354330708661417350000.000000 -354330708661417350000.000000,354330708661417350000.000000"
         style="stroke:#000000;fill:none;stroke-linecap: round" />
      <path
         id="path4519"
         d="M -354330708661417350000.000000,354330708661417350000.000000 -354330708661417350000.000000,354330708661417350000.000000"
         style="stroke:#000000;fill:none;stroke-linecap: round" />
      <path
         id="path4521"
         d="M -354330708661417350000.000000,354330708661417350000.000000 -354330708661417350000.000000,354330708661417350000.000000"
         style="stroke:#000000;fill:none;stroke-linecap: round" />
      <path
         id="path4523"
         d="M -354330708661417350000.000000,354330708661417350000.000000 -354330708661417350000.000000,354330708661417350000.000000"
         style="stroke:#000000;fill:none;stroke-linecap: round" />
      <path
         id="path4525"
         d="M -354330708661417350000.000000,354330708661417350000.000000 -354330708661417350000.000000,354330708661417350000.000000"
         style="stroke:#000000;fill:none;stroke-linecap: round" />
      <path
         id="path4527"
         d="M -354330708661417350000.000000,354330708661417350000.000000 A 1.062992,1.062992 -0.000000 0 0 -354330708661417350000.000000,354330708661417350000.000000"
         style="stroke:#000000;fill:none;stroke-linecap: round" />
      <path
         id="path4529"
         d="M -354330708661417350000.000000,354330708661417350000.000000 -354330708661417350000.000000,354330708661417350000.000000"
         style="stroke:#000000;fill:none;stroke-linecap: round" />
      <path
         id="path4531"
         d="M -354330708661417350000.000000,354330708661417350000.000000 -354330708661417350000.000000,354330708661417350000.000000"
         style="stroke:#000000;fill:none;stroke-linecap: round" />
      <path
         id="path4533"
         d="M -354330708661417350000.000000,354330708661417350000.000000 -354330708661417350000.000000,354330708661417350000.000000"
         style="stroke:#000000;fill:none;stroke-linecap: round" />
      <path
         id="path4535"
         d="M -354330708661417350000.000000,354330708661417350000.000000 -354330708661417350000.000000,354330708661417350000.000000"
         style="stroke:#000000;fill:none;stroke-linecap: round" />
      <path
         id="path4537"
         d="M -354330708661417350000.000000,354330708661417350000.000000 -354330708661417350000.000000,354330708661417350000.000000"
         style="stroke:#000000;fill:none;stroke-linecap: round" />
      <path
         id="path4539"
         d="M -354330708661417350000.000000,354330708661417350000.000000 -354330708661417350000.000000,354330708661417350000.000000"
         style="stroke:#000000;fill:none;stroke-linecap: round" />
      <path
         id="path4541"
         d="M -354330708661417350000.000000,354330708661417350000.000000 -354330708661417350000.000000,354330708661417350000.000000"
         style="stroke:#000000;fill:none;stroke-linecap: round" />
      <text
         id="text4543"
         sodipodi:linespacing="125%"
         style="font-size: 0.0px; fill: #000000; font-family: Arial"
         x="-354330708661417350000.000000"
         y="354330708661417350000.000000">
        <tspan
           id="tspan4545"
           sodipodi:role="line">Light IntensityINTENSITY</tspan>
      </text>
      <text
         id="text4547"
         sodipodi:linespacing="125%"
         style="font-size: 0.0px; fill: #000000; font-family: Arial"
         x="-354330708661417350000.000000"
         y="354330708661417350000.000000">
        <tspan
           id="tspan4549"
           sodipodi:role="line">*not used*BEAMD</tspan>
      </text>
      <text
         id="text4551"
         sodipodi:linespacing="125%"
         style="font-size: 0.0px; fill: #000000; font-family: Arial"
         x="-354330708661417350000.000000"
         y="354330708661417350000.000000">
        <tspan
           id="tspan4553"
           sodipodi:role="line">*not used*CONED</tspan>
      </text>
      <text
         id="text4555"
         sodipodi:linespacing="125%"
         style="font-size: 0.0px; fill: #000000; font-family: Arial"
         x="-354330708661417350000.000000"
         y="354330708661417350000.000000">
        <tspan
           id="tspan4557"
           sodipodi:role="line">Depth Map SizeCONEA</tspan>
      </text>
      <text
         id="text4559"
         sodipodi:linespacing="125%"
         style="font-size: 0.0px; fill: #000000; font-family: Arial"
         x="-354330708661417350000.000000"
         y="354330708661417350000.000000">
        <tspan
           id="tspan4561"
           sodipodi:role="line">Light Color (RGB)COLOR</tspan>
      </text>
      <text
         id="text4563"
         sodipodi:linespacing="125%"
         style="font-size: 0.0px; fill: #000000; font-family: Arial"
         x="-354330708661417350000.000000"
         y="354330708661417350000.000000">
        <tspan
           id="tspan4565"
           sodipodi:role="line">Look-at ZLAZ</tspan>
      </text>
      <text
         id="text4567"
         sodipodi:linespacing="125%"
         style="font-size: 0.0px; fill: #000000; font-family: Arial"
         x="-354330708661417350000.000000"
         y="354330708661417350000.000000">
        <tspan
           id="tspan4569"
           sodipodi:role="line">Look-at YLAY</tspan>
      </text>
      <text
         id="text4571"
         sodipodi:linespacing="125%"
         style="font-size: 0.0px; fill: #000000; font-family: Arial"
         x="-354330708661417350000.000000"
         y="354330708661417350000.000000">
        <tspan
           id="tspan4573"
           sodipodi:role="line">Look-at XLAX</tspan>
      </text>
      <text
         id="text4575"
         sodipodi:linespacing="125%"
         style="font-size: 0.0px; fill: #000000; font-family: Arial"
         x="-354330708661417350000.000000"
         y="354330708661417350000.000000">
        <tspan
           id="tspan4577"
           sodipodi:role="line">GNAME</tspan>
      </text>
      <path
         id="path4579"
         d="M -354330708661417350000.000000,354330708661417350000.000000 -354330708661417350000.000000,354330708661417350000.000000"
         style="stroke:#000000;fill:none;stroke-linecap: round" />
      <path
         id="path4581"
         d="M -354330708661417350000.000000,354330708661417350000.000000 -354330708661417350000.000000,354330708661417350000.000000"
         style="stroke:#000000;fill:none;stroke-linecap: round" />
    </symbol>
    <symbol
       id="direct">
      <text
         id="text4456"
         sodipodi:linespacing="125%"
         style="font-size: 0.7px; fill: #FF0000; font-family: Arial"
         x="-354330708661417350000.000000"
         y="354330708661417350000.000000">
        <tspan
           id="tspan4458"
           sodipodi:role="line">Light NameSNAME</tspan>
      </text>
      <path
         id="path4460"
         d="M -354330708661417350000.000000,354330708661417350000.000000 A 1.062992,1.062992 -0.000000 0 0 -354330708661417350000.000000,354330708661417350000.000000"
         style="stroke:#000000;fill:none;stroke-linecap: round" />
      <path
         id="path4462"
         d="M -354330708661417350000.000000,354330708661417350000.000000 A 1.062992,1.062992 -0.000000 0 0 -354330708661417350000.000000,354330708661417350000.000000"
         style="stroke:#000000;fill:none;stroke-linecap: round" />
      <path
         id="path4464"
         d="M -354330708661417350000.000000,354330708661417350000.000000 -354330708661417350000.000000,354330708661417350000.000000"
         style="stroke:#000000;fill:none;stroke-linecap: round" />
      <path
         id="path4466"
         d="M -354330708661417350000.000000,354330708661417350000.000000 -354330708661417350000.000000,354330708661417350000.000000"
         style="stroke:#000000;fill:none;stroke-linecap: round" />
      <path
         id="path4468"
         d="M -354330708661417350000.000000,354330708661417350000.000000 -354330708661417350000.000000,354330708661417350000.000000"
         style="stroke:#000000;fill:none;stroke-linecap: round" />
      <text
         id="text4470"
         sodipodi:linespacing="125%"
         style="font-size: 0.0px; fill: #000000; font-family: Arial"
         x="-354330708661417350000.000000"
         y="354330708661417350000.000000">
        <tspan
           id="tspan4472"
           sodipodi:role="line">Look-at YLAY</tspan>
      </text>
      <text
         id="text4474"
         sodipodi:linespacing="125%"
         style="font-size: 0.0px; fill: #000000; font-family: Arial"
         x="-354330708661417350000.000000"
         y="354330708661417350000.000000">
        <tspan
           id="tspan4476"
           sodipodi:role="line">Light IntensityINTENSITY</tspan>
      </text>
      <text
         id="text4478"
         sodipodi:linespacing="125%"
         style="font-size: 0.0px; fill: #000000; font-family: Arial"
         x="-354330708661417350000.000000"
         y="354330708661417350000.000000">
        <tspan
           id="tspan4480"
           sodipodi:role="line">*not used*BEAMD</tspan>
      </text>
      <text
         id="text4482"
         sodipodi:linespacing="125%"
         style="font-size: 0.0px; fill: #000000; font-family: Arial"
         x="-354330708661417350000.000000"
         y="354330708661417350000.000000">
        <tspan
           id="tspan4484"
           sodipodi:role="line">*not used*CONED</tspan>
      </text>
      <text
         id="text4486"
         sodipodi:linespacing="125%"
         style="font-size: 0.0px; fill: #000000; font-family: Arial"
         x="-354330708661417350000.000000"
         y="354330708661417350000.000000">
        <tspan
           id="tspan4488"
           sodipodi:role="line">Depth Map SizeCONEA</tspan>
      </text>
      <text
         id="text4490"
         sodipodi:linespacing="125%"
         style="font-size: 0.0px; fill: #000000; font-family: Arial"
         x="-354330708661417350000.000000"
         y="354330708661417350000.000000">
        <tspan
           id="tspan4492"
           sodipodi:role="line">Light Color (RGB)COLOR</tspan>
      </text>
      <text
         id="text4494"
         sodipodi:linespacing="125%"
         style="font-size: 0.0px; fill: #000000; font-family: Arial"
         x="-354330708661417350000.000000"
         y="354330708661417350000.000000">
        <tspan
           id="tspan4496"
           sodipodi:role="line">Look-at ZLAZ</tspan>
      </text>
      <path
         id="path4498"
         d="M -354330708661417350000.000000,354330708661417350000.000000 -354330708661417350000.000000,354330708661417350000.000000"
         style="stroke:#000000;fill:none;stroke-linecap: round" />
      <path
         id="path4500"
         d="M -354330708661417350000.000000,354330708661417350000.000000 -354330708661417350000.000000,354330708661417350000.000000"
         style="stroke:#000000;fill:none;stroke-linecap: round" />
      <text
         id="text4502"
         sodipodi:linespacing="125%"
         style="font-size: 0.0px; fill: #000000; font-family: Arial"
         x="-354330708661417350000.000000"
         y="354330708661417350000.000000">
        <tspan
           id="tspan4504"
           sodipodi:role="line">Look-at XLAX</tspan>
      </text>
      <text
         id="text4506"
         sodipodi:linespacing="125%"
         style="font-size: 0.0px; fill: #000000; font-family: Arial"
         x="-354330708661417350000.000000"
         y="354330708661417350000.000000">
        <tspan
           id="tspan4508"
           sodipodi:role="line">GNAME</tspan>
      </text>
    </symbol>
    <symbol
       id="*Paper_Space0" />
    <symbol
       id="*Paper_Space" />
    <symbol
       id="*Model_Space" />
    <pattern
       id="Hatch"
       x="0"
       y="0"
       patternUnits="userSpaceOnUse"
       width="8"
       height="8">
      <path
         id="path4446"
         d="M8 4 l-4,4"
         stroke-width="0.25"
         stroke="#000000"
         linecap="square" />
      <path
         id="path4448"
         d="M6 2 l-4,4"
         stroke-width="0.25"
         stroke="#000000"
         linecap="square" />
      <path
         id="path4450"
         d="M4 0 l-4,4"
         stroke-width="0.25"
         stroke="#000000"
         linecap="square" />
    </pattern>
    <marker
       orient="auto"
       id="DistanceX"
       style="overflow:visible"
       refX="0.0"
       refY="0.0">
      <path
         id="path4443"
         d="M 3,-3 L -3,3 M 0,-5 L  0,5"
         style="stroke:#000000; stroke-width:0.5" />
    </marker>
  </defs>
  <sodipodi:namedview
     id="base"
     pagecolor="#ffffff"
     bordercolor="#666666"
     borderopacity="1.0"
     inkscape:pageopacity="0.0"
     inkscape:pageshadow="2"
     inkscape:zoom="1.8101934"
     inkscape:cx="196.12243"
     inkscape:cy="98.856755"
     inkscape:document-units="px"
     inkscape:current-layer="g4423"
     showgrid="false"
     borderlayer="true"
     showborder="true"
     inkscape:window-width="1680"
     inkscape:window-height="948"
     inkscape:window-x="297"
     inkscape:window-y="695"
     inkscape:window-maximized="0"
     inkscape:snap-center="false"
     inkscape:snap-object-midpoints="true"
     inkscape:snap-midpoints="false"
     units="px"
     height="180mm"
     inkscape:snap-nodes="true" />
  <metadata
     id="metadata7">
    <rdf:RDF>
      <cc:Work
         rdf:about="">
        <dc:format>image/svg+xml</dc:format>
        <dc:type
           rdf:resource="http://purl.org/dc/dcmitype/StillImage" />
        <dc:title></dc:title>
      </cc:Work>
    </rdf:RDF>
  </metadata>
  <g
     inkscape:label="Layer 1"
     inkscape:groupmode="layer"
     id="layer1"
     transform="translate(0,-856.36233)">
    <g
       id="g4559-4-5"
       transform="matrix(0.83524861,0.11481544,-0.09653786,0.99338684,-715.07906,-312.28806)"
       inkscape:export-filename="D:\dronin\logo_25b.png"
       inkscape:export-xdpi="90"
       inkscape:export-ydpi="90">
      <g
         id="g4368"
         transform="translate(2.119362,3.1250041)"
         inkscape:export-filename="D:\dronin\logo_25mod.png"
         inkscape:export-xdpi="90"
         inkscape:export-ydpi="90">
        <g
           id="g4423"
           transform="matrix(1.1762707,0,0,1.1762707,-184.24762,-190.89707)">
          <path
             style="fill:#000000;fill-opacity:1;stroke:none"
             d="m 1131.8438,1169.9375 c 25.6666,7.4583 51.3333,14.9167 77,22.375 -23.5101,-19.4776 -46.7572,-39.2709 -70.3438,-58.6563 -0.6373,-0.7614 -1.5596,-1.5542 -2.6186,-1.1487 -1.5327,0.096 -3.0785,-0.041 -4.5689,-0.4137 0.1771,12.6145 0.3542,25.2291 0.5313,37.8437 z"
             id="path6"
             inkscape:connector-curvature="0" />
          <path
             style="fill:#000000;fill-opacity:1;stroke:none"
             d="m 1058.6875,1098.625 c 0.341,28.5891 0.9795,57.1767 0.9889,85.7685 0.1434,3.2936 -1.93,6.257 -4.5802,8.0259 -2.382,1.5476 -4.9477,2.4811 -7.8022,2.6863 -3.6008,0.2961 -7.1732,-1.0588 -9.8565,-3.3869 -3.1247,-2.8265 -3.9067,-7.9715 -1.6459,-11.5687 1.575,-2.9861 4.5089,-5.0788 7.7041,-5.9842 2.3043,-0.9182 4.8906,-0.3715 7.3168,-0.2597 0.694,-0.184 0.1317,-1.2961 0.3125,-1.8437 -0.027,-7.5527 -0.2334,-15.1036 -0.2812,-22.6563 -7.9806,-0.5399 -15.914,1.6928 -23.1876,4.625 -4.9077,2.345 -9.3107,5.7707 -13.0781,9.5646 -3.9884,4.3266 -7.2312,9.4954 -8.4383,15.3186 -1.7088,7.0073 -0.8744,14.6918 2.6064,21.0376 2.2743,3.8452 5.1009,7.3021 8.5797,9.988 2.4357,1.9437 5.0531,3.652 7.8303,5.06 20.1667,-8.375 40.3334,-16.75 60.5,-25.125 -0.2708,-20.2396 -0.5416,-40.4792 -0.8124,-60.7188 -8.7709,-13.5833 -17.5417,-27.1666 -26.3126,-40.75 0.052,3.4063 0.1042,6.8126 0.1563,10.2188 z"
             id="path10"
             inkscape:connector-curvature="0" />
          <path
             style="fill:#000000;fill-opacity:1;stroke:none"
             d="m 1010.4062,1227.9688 c 25.2188,-2.9271 50.4375,-5.8542 75.6563,-8.7813 -0.1146,-7.4792 -0.2292,-14.9583 -0.3437,-22.4375 -25.1042,10.4063 -50.2084,20.8125 -75.3126,31.2188 z"
             id="path12"
             inkscape:connector-curvature="0" />
          <path
             style="fill:#000000;fill-opacity:1;stroke:none"
             d="m 1132.2812,1087.3438 c -13.1502,0.4683 -26.2918,1.1407 -39.4374,1.7187 0.5833,43.0521 1.1666,86.1042 1.75,129.1563 9.7708,-1.1355 19.5416,-2.2709 29.3124,-3.4063 -0.4576,-34.4063 -0.9208,-68.8125 -1.375,-103.2187 6.2188,0.1328 12.6182,-1.5752 18.6876,0.4374 3.591,1.4841 6.6709,4.8452 6.875,8.875 0.067,2.6031 -0.8984,5.2413 -2.75,7.0626 6.8645,5.7291 13.7291,11.4583 20.5937,17.1874 3.1308,-2.6085 5.6762,-6.1472 7.7629,-9.7104 1.8839,-3.4081 3.056,-7.1602 3.6054,-11.0486 0.8361,-5.509 -0.3102,-11.2058 -2.5604,-16.1876 -1.8348,-3.9631 -4.6918,-7.5468 -7.8392,-10.4284 -4.1631,-3.6284 -9.0368,-6.5012 -14.2527,-8.16 -5.8293,-2.0082 -12.0479,-2.6764 -18.1901,-2.3412 -0.7274,0.021 -1.4548,0.043 -2.1822,0.064 z"
             id="path16"
             inkscape:connector-curvature="0" />
          <path
             style="font-size:125.41491699px;font-style:normal;font-variant:normal;font-weight:normal;font-stretch:normal;line-height:125%;letter-spacing:-5.45282221px;word-spacing:0px;fill:#000000;fill-opacity:1;stroke:none;font-family:Eras Bold ITC;-inkscape-font-specification:Eras Bold ITC"
             d="m 1248.0625,1134.8125 c -7.88,0.2809 -15.706,2.1405 -22.8437,5.3437 -3.8054,1.7546 -7.2681,4.1618 -10.375,6.9688 -2.6915,2.5216 -5.1143,5.6512 -6.8102,9.0124 -2.8501,6.3535 -3.629,13.899 -1.438,20.6419 1.2186,4.065 3.593,7.765 6.7094,10.5377 3.2324,2.9233 7.1683,4.9096 11.3512,5.933 9.3125,2.4997 19.241,2.0033 28.5388,-0.3 5.2933,-1.4474 10.5439,-3.1397 15.0541,-6.378 4.0244,-2.7663 7.3317,-6.2801 9.8626,-10.4541 1.9727,-3.1646 2.988,-6.7506 3.5379,-10.4394 0.9079,-6.3132 -0.1313,-13.0322 -3.4376,-18.5241 -2.944,-4.485 -7.4489,-7.8203 -12.4308,-9.7169 -5.5916,-1.9494 -11.7363,-2.8109 -17.7187,-2.625 z m -1.625,15.625 c 4.0064,0.2025 8.093,2.4649 9.5937,6.3125 1.8151,4.115 1.6341,8.9694 0.2813,13.1562 -1.2783,3.7006 -3.8945,7.008 -7.5937,8.4688 -4.5223,2.2686 -10.5574,2.1413 -14.5626,-1.1562 -2.1731,-1.8485 -3.5962,-4.5015 -3.9158,-7.3534 -0.6327,-3.8507 -0.1734,-7.9931 1.55,-11.3837 1.5173,-3.2661 4.4095,-5.7518 7.8034,-6.9817 2.1123,-0.8659 4.5393,-1.1635 6.8437,-1.0625 z"
             id="path3837-5-0-8"
             inkscape:connector-curvature="0" />
          <path
             style="font-size:125.41491699px;font-style:normal;font-variant:normal;font-weight:normal;font-stretch:normal;line-height:125%;letter-spacing:-5.45282221px;word-spacing:0px;fill:#000000;fill-opacity:1;stroke:none;font-family:Eras Bold ITC;-inkscape-font-specification:Eras Bold ITC"
             d="m 1341.0938,1123.9688 c -6.8419,0.4765 -13.7888,1.8544 -19.6579,5.4541 -2.6577,1.7151 -5.0169,3.8177 -6.9795,6.2457 -0.3371,0.7167 -1.5895,0.6136 -1.3733,-0.3116 0.1494,-2.2515 0.1244,-4.5098 0.2294,-6.7632 -8.1957,0.9475 -16.3735,2.0613 -24.5937,2.7812 0.7116,17.48 0.7552,35.007 -0.4063,52.4688 -0.093,1.3871 -0.2044,2.7728 -0.3437,4.1562 8.4301,-0.9421 16.8372,-2.0903 25.2812,-2.9062 -0.1151,-9.6024 -0.6015,-19.2715 0.75,-28.8126 0.7965,-3.9815 2.5082,-7.9949 5.7804,-10.5414 3.445,-2.9219 8.3867,-4.2995 12.7508,-2.7398 2.7318,1.0039 4.8177,3.5306 5.2815,6.4279 1.0969,4.8801 0.5892,9.9156 0.7498,14.8721 -0.01,5.9637 -0.062,11.9295 -0.3437,17.8875 8.2948,-0.9997 16.5817,-2.0844 24.9062,-2.8125 -0.5746,-10.0603 -0.2328,-20.1422 -0.4062,-30.2125 -0.011,-5.4427 0.5135,-11.1491 -1.1563,-16.35 -1.7817,-4.4221 -6.197,-7.2644 -10.7707,-8.1095 -3.1758,-0.7144 -6.4554,-0.811 -9.698,-0.7342 z"
             id="path3839-7-7-1"
             inkscape:connector-curvature="0" />
          <path
             style="font-size:125.41491698999999471px;font-style:normal;font-variant:normal;font-weight:normal;font-stretch:normal;line-height:125%;letter-spacing:-5.45282220999999989px;word-spacing:0px;fill:#000000;fill-opacity:1;stroke:none;font-family:Eras Bold ITC;-inkscape-font-specification:Eras Bold ITC"
             d="m 1396.3125,1098.0625 c -8.0593,1.1025 -16.1482,2.0113 -24.25,2.75 0.4928,4.1052 0.3807,8.2489 0.4687,12.375 8.0406,-0.9174 16.0639,-1.9915 24.125,-2.7187 -0.1664,-4.0991 -0.1087,-8.2242 0.031,-12.3126 0.1684,-0.1826 -0.2808,-0.1416 -0.375,-0.094 z"
             id="path3956-8"
             inkscape:connector-curvature="0" />
          <path
             style="font-size:125.41491699px;font-style:normal;font-variant:normal;font-weight:normal;font-stretch:normal;line-height:125%;letter-spacing:-5.45282221px;word-spacing:0px;fill:#000000;fill-opacity:1;stroke:none;font-family:Eras Bold ITC;-inkscape-font-specification:Eras Bold ITC"
             d="m 1397.4688,1118.7812 c -8.3463,1.1978 -16.7273,2.1256 -25.125,2.875 0.6562,17.5788 1.2116,35.1985 0.1505,52.7725 -0.094,1.2848 -0.2007,2.5687 -0.3068,3.8525 8.7537,-1.0579 17.5009,-2.1815 26.2813,-3 -0.8415,-17.9758 -1.9261,-35.9876 -0.9504,-53.9808 -0.021,-0.7892 0.1774,-1.9038 0.044,-2.5192 0,-0.035 -0.1253,-0.058 -0.094,0 z"
             id="path3841-5-1-2"
             inkscape:connector-curvature="0" />
          <path
             style="font-size:125.41491699px;font-style:normal;font-variant:normal;font-weight:normal;font-stretch:normal;line-height:125%;letter-spacing:-5.45282221px;word-spacing:0px;fill:#000000;fill-opacity:1;stroke:none;font-family:Eras Bold ITC;-inkscape-font-specification:Eras Bold ITC"
             d="m 1461.7812,1110.1562 c -6.5845,0.1312 -13.1919,1.5608 -19.0937,4.375 -3.4631,1.9753 -6.6007,4.4543 -9,7.5938 -0.6165,0.6174 -1.4857,-0.1553 -1.2038,-0.9305 0.2575,-2.1222 0.094,-4.2798 0.2663,-6.4133 -8.1957,0.9476 -16.3735,2.0614 -24.5938,2.7813 0.6989,17.8246 0.8047,35.6983 -0.4687,53.5 -0.094,1.0417 -0.1875,2.0833 -0.2813,3.125 8.4302,-0.9421 16.8373,-2.0903 25.2813,-2.9063 -0.1428,-9.3645 -0.5641,-18.7879 0.6622,-28.101 0.6549,-4.2593 2.4275,-8.5412 5.8583,-11.2773 3.404,-2.86 8.2154,-4.162 12.542,-2.8091 2.4017,0.8668 4.4639,2.8083 5.1736,5.3019 1.5182,4.6842 0.8369,9.6796 1.0693,14.5167 0.059,6.4892 -0.073,12.9787 -0.3367,19.4626 8.2911,-1.0229 16.5846,-2.0393 24.9063,-2.7812 -0.5615,-10.341 -0.243,-20.7003 -0.4063,-31.0501 -0.01,-5.1114 0.4934,-10.3906 -1.125,-15.3249 -0.9403,-2.9409 -3.4536,-5.2624 -6.1543,-6.7415 -3.9818,-1.9427 -8.656,-2.4008 -13.0957,-2.3211 z"
             id="path3843-4-7-6"
             inkscape:connector-curvature="0" />
          <g
             id="g4842"
             transform="matrix(1.0044163,-0.11609023,0.09760971,0.8445223,987.14404,1063.571)">
            <g
               id="g4688"
               inkscape:label="0" />
            <g
               id="g4690"
               inkscape:label="ASHADE">
              <use
                 id="use4692"
                 xlink:href="#AVE_RENDER"
                 x="0"
                 y="-1052.3622"
                 width="1"
                 height="1" />
              <use
                 id="use4694"
                 xlink:href="#AVE_RENDER"
                 x="0"
                 y="-1052.3622"
                 width="1"
                 height="1" />
              <use
                 id="use4696"
                 xlink:href="#AVE_RENDER"
                 x="0"
                 y="-1052.3622"
                 width="1"
                 height="1" />
              <use
                 id="use4698"
                 xlink:href="#AVE_RENDER"
                 x="0"
                 y="-1052.3622"
                 width="1"
                 height="1" />
              <use
                 id="use4700"
                 xlink:href="#AVE_RENDER"
                 x="0"
                 y="-1052.3622"
                 width="1"
                 height="1" />
              <use
                 id="use4702"
                 xlink:href="#AVE_RENDER"
                 x="0"
                 y="-1052.3622"
                 width="1"
                 height="1" />
              <use
                 id="use4704"
                 xlink:href="#AVE_RENDER"
                 x="0"
                 y="-1052.3622"
                 width="1"
                 height="1" />
              <use
                 id="use4706"
                 xlink:href="#AVE_RENDER"
                 x="0"
                 y="-1052.3622"
                 width="1"
                 height="1" />
              <use
                 id="use4708"
                 xlink:href="#AVE_GLOBAL"
                 x="0"
                 y="-1052.3622"
                 width="1"
                 height="1" />
            </g>
          </g>
          <path
             id="path4148"
             style="fill:#000000;fill-opacity:1;stroke:none;fill-rule:evenodd"
             d="m 1070.625,1082.8438 c 3.1042,4.8332 6.2079,9.6669 9.3125,14.5 -0.074,-2.4499 -0.053,-4.9688 -0.25,-7.375 -3.0499,-2.4735 -5.9996,-5.1004 -9.1121,-7.478 -0.2771,-0.2222 0.075,0.2888 0.05,0.353 z m 14.0312,30.5 c -0.1249,-8.375 -0.25,-16.7501 -0.375,-25.125 -11.3854,-9.5001 -22.7708,-19 -34.1562,-28.5 11.5104,17.8749 23.0208,35.75 34.5312,53.625 z" />
          <path
             id="path4150"
             style="fill:#000000;fill-opacity:1;stroke:none;fill-rule:evenodd"
             d="m 1136.4688,1184.5 c 0.1655,7.9583 0.3399,15.9166 0.5,23.875 19.7692,-2.0989 39.5392,-4.2497 59.3033,-6.4044 0.6134,-0.2611 -1.4101,-0.5717 -1.8751,-0.7871 -19.3111,-5.6163 -38.6088,-11.2913 -57.9282,-16.871 l 0,0.15 0,0.037 z m -4.0313,29.3438 c 29.3437,-3.3751 58.6875,-6.75 88.0313,-10.125 -29.5105,-8.5938 -59.0209,-17.1875 -88.5313,-25.7813 0.1667,11.9688 0.3333,23.9375 0.5,35.9063 z" />
        </g>
      </g>
    </g>
  </g>
</svg>
