<?xml version="1.0" encoding="utf-8"?>
<!-- Generator: Adobe Illustrator 21.0.2, SVG Export Plug-In . SVG Version: 6.00 Build 0)  -->
<svg version="1.1" id="Syshealth-Linear" xmlns="http://www.w3.org/2000/svg" xmlns:xlink="http://www.w3.org/1999/xlink" x="0px"
	 y="0px" viewBox="0 0 1024 28" style="enable-background:new 0 0 1024 28;" xml:space="preserve">
<style type="text/css">
	.st0{fill:#303030;}
	.st1{fill:#505050;}
	.st2{display:none;}
	.st3{display:inline;fill:#585858;}
	.st4{display:inline;fill:#27AE60;}
	.st5{display:inline;fill:#F39C12;}
	.st6{display:inline;fill:#C0392B;}
	.st7{display:inline;}
	.st8{fill:#C0392B;}
	.st9{fill:none;}
	.st10{fill:#FFFFFF;}
	.st11{opacity:0.8;}
	.st12{fill:#F2F2F2;}
	.st13{fill:#606060;}
</style>
<g id="background">
	<g id="Rect">
		<rect class="st0" width="1024" height="28"/>
	</g>
	<rect id="BootFault" x="13" y="4" class="st1" width="48" height="20"/>
	<rect id="CPUOverload" x="63" y="4" class="st1" width="48" height="20"/>
	<rect id="StackOverflow" x="113" y="4" class="st1" width="48" height="20"/>
	<rect id="OutOfMemory" x="163" y="4" class="st1" width="48" height="20"/>
	<rect id="SystemConfiguration" x="213" y="4" class="st1" width="48" height="20"/>
	<rect id="Sensors" x="263" y="4" class="st1" width="48" height="20"/>
	<rect id="ManualControl" x="313" y="4" class="st1" width="48" height="20"/>
	<rect id="Actuator" x="363" y="4" class="st1" width="48" height="20"/>
	<rect id="Stabilization" x="413" y="4" class="st1" width="48" height="20"/>
	<rect id="Attitude" x="463" y="4" class="st1" width="48" height="20"/>
	<rect id="FlightTime" x="513" y="4" class="st1" width="48" height="20"/>
	<rect id="Battery" x="563" y="4" class="st1" width="48" height="20"/>
	<rect id="GPS" x="613" y="4" class="st1" width="48" height="20"/>
	<rect id="EventSystem" x="663" y="4" class="st1" width="48" height="20"/>
	<rect id="I2C" x="713" y="4" class="st1" width="48" height="20"/>
	<rect id="ADC" x="763" y="4" class="st1" width="48" height="20"/>
	<rect id="Telemetry" x="813" y="4" class="st1" width="48" height="20"/>
	<rect id="AltitudeHold" x="863" y="4" class="st1" width="48" height="20"/>
	<rect id="PathPlanner" x="913" y="4" class="st1" width="48" height="20"/>
	<rect id="PathFollower" x="963" y="4" class="st1" width="48" height="20"/>
</g>
<g id="Uninitialised" class="st2">
	<rect id="BootFault-Uninitialised" x="13" y="4" class="st3" width="48" height="20"/>
	<rect id="CPUOverload-Uninitialised" x="63" y="4" class="st3" width="48" height="20"/>
	<rect id="StackOverflow-Uninitialised" x="113" y="4" class="st3" width="48" height="20"/>
	<rect id="OutOfMemory-Uninitialised" x="163" y="4" class="st3" width="48" height="20"/>
	<rect id="SystemConfiguration-Uninitialised" x="213" y="4" class="st3" width="48" height="20"/>
	<rect id="Sensors-Uninitialised" x="263" y="4" class="st3" width="48" height="20"/>
	<rect id="ManualControl-Uninitialised" x="313" y="4" class="st3" width="48" height="20"/>
	<rect id="Actuator-Uninitialised" x="363" y="4" class="st3" width="48" height="20"/>
	<rect id="Stabilization-Uninitialised" x="413" y="4" class="st3" width="48" height="20"/>
	<rect id="Attitude-Uninitialised" x="463" y="4" class="st3" width="48" height="20"/>
	<rect id="FlightTime-Uninitialised" x="513" y="4" class="st3" width="48" height="20"/>
	<rect id="Battery-Uninitialized" x="563" y="4" class="st3" width="48" height="20"/>
	<rect id="GPS-Uninitialised" x="613" y="4" class="st3" width="48" height="20"/>
	<rect id="EventSystem-Uninitialised" x="663" y="4" class="st3" width="48" height="20"/>
	<rect id="I2C-Uninitialised" x="713" y="4" class="st3" width="48" height="20"/>
	<rect id="ADC-Uninitialised" x="763" y="4" class="st3" width="48" height="20"/>
	<rect id="Telemetry-Uninitialised" x="813" y="4" class="st3" width="48" height="20"/>
	<rect id="AltitudeHold-Uninitialised" x="863" y="4" class="st3" width="48" height="20"/>
	<rect id="PathPlanner-Uninitialised" x="913" y="4" class="st3" width="48" height="20"/>
	<rect id="PathFollower-Uninitialised" x="963" y="4" class="st3" width="48" height="20"/>
</g>
<g id="OK" class="st2">
	<rect id="BootFault-OK" x="13" y="4" class="st4" width="48" height="20"/>
	<rect id="CPUOverload-OK" x="63" y="4" class="st4" width="48" height="20"/>
	<rect id="StackOverflow-OK" x="113" y="4" class="st4" width="48" height="20"/>
	<rect id="OutOfMemory-OK" x="163" y="4" class="st4" width="48" height="20"/>
	<rect id="SystemConfiguration-OK" x="213" y="4" class="st4" width="48" height="20"/>
	<rect id="Sensors-OK" x="263" y="4" class="st4" width="48" height="20"/>
	<rect id="ManualControl-OK" x="313" y="4" class="st4" width="48" height="20"/>
	<rect id="Actuator-OK" x="363" y="4" class="st4" width="48" height="20"/>
	<rect id="Stabilization-OK" x="413" y="4" class="st4" width="48" height="20"/>
	<rect id="Attitude-OK" x="463" y="4" class="st4" width="48" height="20"/>
	<rect id="FlightTime-OK" x="513" y="4" class="st4" width="48" height="20"/>
	<rect id="Battery-OK" x="563" y="4" class="st4" width="48" height="20"/>
	<rect id="GPS-OK" x="613" y="4" class="st4" width="48" height="20"/>
	<rect id="EventSystem-OK" x="663" y="4" class="st4" width="48" height="20"/>
	<rect id="I2C-OK" x="713" y="4" class="st4" width="48" height="20"/>
	<rect id="ADC-OK" x="763" y="4" class="st4" width="48" height="20"/>
	<rect id="Telemetry-OK" x="813" y="4" class="st4" width="48" height="20"/>
	<rect id="AltitudeHold-OK" x="863" y="4" class="st4" width="48" height="20"/>
	<rect id="PathPlanner-OK" x="913" y="4" class="st4" width="48" height="20"/>
	<rect id="PathFollower-OK" x="963" y="4" class="st4" width="48" height="20"/>
</g>
<g id="Warning" class="st2">
	<rect id="BootFault-Warning" x="13" y="4" class="st5" width="48" height="20"/>
	<rect id="CPUOverload-Warning" x="63" y="4" class="st5" width="48" height="20"/>
	<rect id="StackOverflow-Warning" x="113" y="4" class="st5" width="48" height="20"/>
	<rect id="OutOfMemory-Warning" x="163" y="4" class="st5" width="48" height="20"/>
	<rect id="SystemConfiguration-Warning" x="213" y="4" class="st5" width="48" height="20"/>
	<rect id="Sensors-Warning" x="263" y="4" class="st5" width="48" height="20"/>
	<rect id="ManualControl-Warning" x="313" y="4" class="st5" width="48" height="20"/>
	<rect id="Actuator-Warning" x="363" y="4" class="st5" width="48" height="20"/>
	<rect id="Stabilization-Warning" x="413" y="4" class="st5" width="48" height="20"/>
	<rect id="Attitude-Warning" x="463" y="4" class="st5" width="48" height="20"/>
	<rect id="FlightTime-Warning" x="513" y="4" class="st5" width="48" height="20"/>
	<rect id="Battery-Warning" x="563" y="4" class="st5" width="48" height="20"/>
	<rect id="GPS-Warning" x="613" y="4" class="st5" width="48" height="20"/>
	<rect id="EventSystem-Warning" x="663" y="4" class="st5" width="48" height="20"/>
	<rect id="I2C-Warning" x="713" y="4" class="st5" width="48" height="20"/>
	<rect id="ADC-Warning" x="763" y="4" class="st5" width="48" height="20"/>
	<rect id="Telemetry-Warning" x="813" y="4" class="st5" width="48" height="20"/>
	<rect id="AltitudeHold-Warning" x="863" y="4" class="st5" width="48" height="20"/>
	<rect id="PathPlanner-Warning" x="913" y="4" class="st5" width="48" height="20"/>
	<rect id="PathFollower-Warning" x="963" y="4" class="st5" width="48" height="20"/>
</g>
<g id="Critical_1_" class="st2">
	<rect id="BootFault-Critical" x="13" y="4" class="st6" width="48" height="20"/>
	<rect id="CPUOverload-Critical" x="63" y="4" class="st6" width="48" height="20"/>
	<rect id="StackOverflow-Critical" x="113" y="4" class="st6" width="48" height="20"/>
	<rect id="OutOfMemory-Critical" x="163" y="4" class="st6" width="48" height="20"/>
	<rect id="SystemConfiguration-Critical" x="213" y="4" class="st6" width="48" height="20"/>
	<rect id="Sensors-Critical" x="263" y="4" class="st6" width="48" height="20"/>
	<rect id="ManualControl-Critical" x="313" y="4" class="st6" width="48" height="20"/>
	<rect id="Actuator-Critical" x="363" y="4" class="st6" width="48" height="20"/>
	<rect id="Stabilization-Critical" x="413" y="4" class="st6" width="48" height="20"/>
	<rect id="Attitude-Critical" x="463" y="4" class="st6" width="48" height="20"/>
	<rect id="FlightTime-Critical" x="513" y="4" class="st6" width="48" height="20"/>
	<rect id="Battery-Critical" x="563" y="4" class="st6" width="48" height="20"/>
	<rect id="GPS-Critical" x="613" y="4" class="st6" width="48" height="20"/>
	<rect id="EventSystem-Critical" x="663" y="4" class="st6" width="48" height="20"/>
	<rect id="I2C-Critical" x="713" y="4" class="st6" width="48" height="20"/>
	<rect id="ADC-Critical" x="763" y="4" class="st6" width="48" height="20"/>
	<rect id="Telemetry-Critical" x="813" y="4" class="st6" width="48" height="20"/>
	<rect id="AltitudeHold-Critical" x="863" y="4" class="st6" width="48" height="20"/>
	<rect id="PathPlanner-Critical" x="913" y="4" class="st6" width="48" height="20"/>
	<rect id="PathFollower-Critical" x="963" y="4" class="st6" width="48" height="20"/>
</g>
<g id="Error" class="st2">
	<g id="BootFault-Error" class="st7">
		<polygon class="st8" points="59,14.9 49.9,24 56.9,24 60.8,20.2 60.8,20.2 61,20 61,12.9 59,14.9 		"/>
		<polygon class="st8" points="46,14.9 46,14.9 36.9,24 43.9,24 47.8,20.2 47.8,20.2 61,7 61,4 56.9,4 		"/>
		<polygon class="st8" points="33,14.9 33,14.9 23.9,24 30.9,24 34.8,20.2 34.8,20.2 51,4 43.9,4 		"/>
		<polygon class="st8" points="20,14.9 20,14.9 13,21.9 13,24 17.9,24 21.8,20.2 21.8,20.2 38,4 30.9,4 		"/>
		<polygon class="st8" points="13,8.9 13,16 25,4 17.9,4 		"/>
	</g>
	<g id="CPUOverload-Error" class="st7">
		<polygon class="st8" points="101.9,24 108.9,24 111,21.9 111,14.9 111,14.9 		"/>
		<polygon class="st8" points="98,14.9 88.9,24 95.9,24 99.8,20.2 99.8,20.2 111,9 111,4 108.9,4 98,14.9 		"/>
		<polygon class="st8" points="85,14.9 85,14.9 75.9,24 82.9,24 86.8,20.2 86.8,20.2 103,4 95.9,4 		"/>
		<polygon class="st8" points="72,14.9 72,14.9 63,23.9 63,24 69.9,24 73.8,20.2 73.8,20.2 90,4 82.9,4 		"/>
		<polygon class="st8" points="63,10.9 63,18 77,4 69.9,4 		"/>
		<polygon class="st8" points="63,5 64,4 63,4 		"/>
	</g>
	<g id="StackOverflow-Error" class="st7">
		<polygon class="st8" points="160.9,24 161,23.9 161,16.9 153.9,24 		"/>
		<polygon class="st8" points="150,14.9 140.9,24 147.9,24 151.8,20.2 151.8,20.2 161,11 161,4 160.9,4 150,14.9 		"/>
		<polygon class="st8" points="137,14.9 137,14.9 127.9,24 134.9,24 138.8,20.2 138.8,20.2 155,4 147.9,4 		"/>
		<polygon class="st8" points="124,14.9 124,14.9 114.9,24 121.9,24 125.8,20.2 125.8,20.2 142,4 134.9,4 		"/>
		<polygon class="st8" points="113,12.9 113,20 129,4 121.9,4 		"/>
		<polygon class="st8" points="113,7 116,4 113,4 		"/>
	</g>
	<g id="OutOfMemory-Error" class="st7">
		<polygon class="st8" points="211,24 211,18.9 205.9,24 		"/>
		<polygon class="st8" points="202,14.9 202,14.9 192.9,24 199.9,24 203.8,20.2 203.8,20.2 211,13 211,5.9 		"/>
		<polygon class="st8" points="189,14.9 189,14.9 179.9,24 186.9,24 190.8,20.2 190.8,20.2 207,4 199.9,4 		"/>
		<polygon class="st8" points="176,14.9 176,14.9 166.9,24 173.9,24 177.8,20.2 177.8,20.2 194,4 186.9,4 		"/>
		<polygon class="st8" points="163,14.9 163,14.9 163,21.9 164.8,20.2 164.8,20.2 181,4 173.9,4 		"/>
		<polygon class="st8" points="163,9 168,4 163,4 		"/>
	</g>
	<g id="SystemConfiguration-Error" class="st7">
		<polygon class="st8" points="261,24 261,20.9 257.9,24 		"/>
		<polygon class="st8" points="254,14.9 254,14.9 244.9,24 251.9,24 255.8,20.2 255.8,20.2 261,15 261,7.9 		"/>
		<polygon class="st8" points="241,14.9 241,14.9 231.9,24 238.9,24 242.8,20.2 242.8,20.2 259,4 251.9,4 		"/>
		<polygon class="st8" points="228,14.9 228,14.9 218.9,24 225.9,24 229.8,20.2 229.8,20.2 246,4 238.9,4 		"/>
		<polygon class="st8" points="215,14.9 215,14.9 213,16.9 213,23.9 216.8,20.2 216.8,20.2 233,4 225.9,4 		"/>
		<polygon class="st8" points="213,11 220,4 213,4 		"/>
	</g>
	<g id="Sensors-Error" class="st7">
		<polygon class="st8" points="311,24 311,22.9 309.9,24 		"/>
		<polygon class="st8" points="306,14.9 306,14.9 296.9,24 303.9,24 307.8,20.2 307.8,20.2 311,17 311,9.9 		"/>
		<polygon class="st8" points="293,14.9 293,14.9 283.9,24 290.9,24 294.8,20.2 294.8,20.2 311,4 303.9,4 		"/>
		<polygon class="st8" points="280,14.9 280,14.9 270.9,24 277.9,24 281.8,20.2 281.8,20.2 298,4 290.9,4 		"/>
		<polygon class="st8" points="267,14.9 267,14.9 263,18.9 263,24 264.9,24 268.8,20.2 268.8,20.2 285,4 277.9,4 		"/>
		<polygon class="st8" points="272,4 264.9,4 263,5.9 263,13 		"/>
	</g>
	<g id="ManualControl-Error" class="st7">
		<polygon class="st8" points="358,14.9 348.9,24 355.9,24 359.8,20.2 359.8,20.2 361,19 361,11.9 358,14.9 		"/>
		<polygon class="st8" points="345,14.9 345,14.9 335.9,24 342.9,24 346.8,20.2 346.8,20.2 361,6 361,4 355.9,4 		"/>
		<polygon class="st8" points="332,14.9 332,14.9 322.9,24 329.9,24 333.8,20.2 333.8,20.2 350,4 342.9,4 		"/>
		<polygon class="st8" points="319,14.9 319,14.9 313,20.9 313,24 316.9,24 320.8,20.2 320.8,20.2 337,4 329.9,4 		"/>
		<polygon class="st8" points="313,7.9 313,15 324,4 316.9,4 		"/>
	</g>
	<g id="Actuator-Error" class="st7">
		<polygon class="st8" points="410,14.9 400.9,24 407.9,24 411,20.9 411,13.9 410,14.9 		"/>
		<polygon class="st8" points="397,14.9 387.9,24 394.9,24 398.8,20.2 398.8,20.2 411,8 411,4 407.9,4 397,14.9 		"/>
		<polygon class="st8" points="384,14.9 384,14.9 374.9,24 381.9,24 385.8,20.2 385.8,20.2 402,4 394.9,4 		"/>
		<polygon class="st8" points="371,14.9 371,14.9 363,22.9 363,24 368.9,24 372.8,20.2 372.8,20.2 389,4 381.9,4 		"/>
		<polygon class="st8" points="363,9.9 363,17 376,4 368.9,4 		"/>
	</g>
	<g id="Stabilization-Error" class="st7">
		<polygon class="st8" points="461,15.9 452.9,24 459.9,24 461,22.9 		"/>
		<polygon class="st8" points="449,14.9 439.9,24 446.9,24 450.8,20.2 450.8,20.2 461,10 461,4 459.9,4 449,14.9 		"/>
		<polygon class="st8" points="436,14.9 436,14.9 426.9,24 433.9,24 437.8,20.2 437.8,20.2 454,4 446.9,4 		"/>
		<polygon class="st8" points="423,14.9 423,14.9 413.9,24 420.9,24 424.8,20.2 424.8,20.2 441,4 433.9,4 		"/>
		<polygon class="st8" points="413,11.9 413,19 428,4 420.9,4 		"/>
		<polygon class="st8" points="413,6 415,4 413,4 		"/>
	</g>
	<g id="Attitude-Error" class="st7">
		<polygon class="st8" points="511,24 511,17.9 504.9,24 		"/>
		<polygon class="st8" points="501,14.9 501,14.9 491.9,24 498.9,24 502.8,20.2 502.8,20.2 511,12 511,4.9 		"/>
		<polygon class="st8" points="488,14.9 488,14.9 478.9,24 485.9,24 489.8,20.2 489.8,20.2 506,4 498.9,4 		"/>
		<polygon class="st8" points="475,14.9 475,14.9 465.9,24 472.9,24 476.8,20.2 476.8,20.2 493,4 485.9,4 		"/>
		<polygon class="st8" points="463,13.9 463,20.9 463.8,20.2 463.8,20.2 480,4 472.9,4 		"/>
		<polygon class="st8" points="463,8 467,4 463,4 		"/>
	</g>
	<g id="FlightTime-Error" class="st7">
		<polygon class="st8" points="561,24 561,19.9 556.9,24 		"/>
		<polygon class="st8" points="553,14.9 553,14.9 543.9,24 550.9,24 554.8,20.2 554.8,20.2 561,14 561,6.9 		"/>
		<polygon class="st8" points="540,14.9 540,14.9 530.9,24 537.9,24 541.8,20.2 541.8,20.2 558,4 550.9,4 		"/>
		<polygon class="st8" points="527,14.9 527,14.9 517.9,24 524.9,24 528.8,20.2 528.8,20.2 545,4 537.9,4 		"/>
		<polygon class="st8" points="514,14.9 514,14.9 513,15.9 513,22.9 515.8,20.2 515.8,20.2 532,4 524.9,4 		"/>
		<polygon class="st8" points="513,10 519,4 513,4 		"/>
	</g>
	<g id="Battery-Error" class="st7">
		<polygon class="st8" points="611,24 611,21.9 608.9,24 		"/>
		<polygon class="st8" points="605,14.9 605,14.9 595.9,24 602.9,24 606.8,20.2 606.8,20.2 611,16 611,8.9 		"/>
		<polygon class="st8" points="592,14.9 592,14.9 582.9,24 589.9,24 593.8,20.2 593.8,20.2 610,4 602.9,4 		"/>
		<polygon class="st8" points="579,14.9 579,14.9 569.9,24 576.9,24 580.8,20.2 580.8,20.2 597,4 589.9,4 		"/>
		<polygon class="st8" points="566,14.9 566,14.9 563,17.9 563,24 563.9,24 567.8,20.2 567.8,20.2 584,4 576.9,4 		"/>
		<polygon class="st8" points="571,4 563.9,4 563,4.9 563,12 		"/>
	</g>
	<g id="GPS-Error" class="st7">
		<polygon class="st8" points="661,24 661,23.9 660.9,24 		"/>
		<polygon class="st8" points="657,14.9 657,14.9 647.9,24 655,24 658.8,20.2 658.8,20.2 661,18 661,10.9 		"/>
		<polygon class="st8" points="644,14.9 644,14.9 634.9,24 642,24 645.8,20.2 645.8,20.2 661,5 661,4 654.9,4 		"/>
		<polygon class="st8" points="631,14.9 631,14.9 621.9,24 629,24 632.8,20.2 632.8,20.2 649,4 641.9,4 		"/>
		<polygon class="st8" points="618,14.9 618,14.9 613,19.9 613,24 616,24 619.8,20.2 619.8,20.2 636,4 628.9,4 		"/>
		<polygon class="st8" points="613,6.9 613,14 623,4 615.9,4 		"/>
	</g>
	<g id="EventSystem-Error" class="st7">
		<polygon class="st8" points="709,14.9 699.9,24 707,24 710.8,20.2 710.8,20.2 711,20 711,12.9 709,14.9 		"/>
		<polygon class="st8" points="696,14.9 696,14.9 686.9,24 694,24 697.8,20.2 697.8,20.2 711,7 711,4 706.9,4 		"/>
		<polygon class="st8" points="683,14.9 683,14.9 673.9,24 681,24 684.8,20.2 684.8,20.2 701,4 693.9,4 		"/>
		<polygon class="st8" points="670,14.9 670,14.9 663,21.9 663,24 668,24 671.8,20.2 671.8,20.2 688,4 680.9,4 		"/>
		<polygon class="st8" points="663,8.9 663,16 675,4 667.9,4 		"/>
	</g>
	<g id="I2C-Error" class="st7">
		<polygon class="st8" points="761,14.9 751.9,24 759,24 761,22 		"/>
		<polygon class="st8" points="748,14.9 738.9,24 746,24 749.8,20.2 749.8,20.2 761,9 761,4 758.9,4 748,14.9 		"/>
		<polygon class="st8" points="735,14.9 735,14.9 725.9,24 733,24 736.8,20.2 736.8,20.2 753,4 745.9,4 		"/>
		<polygon class="st8" points="722,14.9 722,14.9 713,23.9 713,24 720,24 723.8,20.2 723.8,20.2 740,4 732.9,4 		"/>
		<polygon class="st8" points="713,10.9 713,18 727,4 719.9,4 		"/>
		<polygon class="st8" points="713,5 714,4 713,4 		"/>
	</g>
	<g id="ADC-Error" class="st7">
		<polygon class="st8" points="811,24 811,24 811,16.9 803.9,24 		"/>
		<polygon class="st8" points="800,14.9 790.9,24 798,24 801.8,20.2 801.8,20.2 811,11 811,4 810.9,4 800,14.9 		"/>
		<polygon class="st8" points="787,14.9 787,14.9 777.9,24 785,24 788.8,20.2 788.8,20.2 805,4 797.9,4 		"/>
		<polygon class="st8" points="774,14.9 774,14.9 764.9,24 772,24 775.8,20.2 775.8,20.2 792,4 784.9,4 		"/>
		<polygon class="st8" points="763,12.9 763,20 779,4 771.9,4 		"/>
		<polygon class="st8" points="763,7 766,4 763,4 		"/>
	</g>
	<g id="Telemetry-Error" class="st7">
		<polygon class="st8" points="861,24 861,18.9 855.9,24 		"/>
		<polygon class="st8" points="852,14.9 852,14.9 842.9,24 850,24 853.8,20.2 853.8,20.2 861,13 861,5.9 		"/>
		<polygon class="st8" points="839,14.9 839,14.9 829.9,24 837,24 840.8,20.2 840.8,20.2 857,4 849.9,4 		"/>
		<polygon class="st8" points="826,14.9 826,14.9 816.9,24 824,24 827.8,20.2 827.8,20.2 844,4 836.9,4 		"/>
		<polygon class="st8" points="813,14.9 813,14.9 813,14.9 813,22 814.8,20.2 814.8,20.2 831,4 823.9,4 		"/>
		<polygon class="st8" points="813,9 818,4 813,4 		"/>
	</g>
	<g id="AltitudeHold-Error" class="st7">
		<polygon class="st8" points="911,24 911,20.9 907.9,24 		"/>
		<polygon class="st8" points="878,14.9 878,14.9 868.9,24 876,24 879.8,20.2 879.8,20.2 896,4 888.9,4 		"/>
		<polygon class="st8" points="865,14.9 865,14.9 863,16.9 863,24 866.8,20.2 866.8,20.2 883,4 875.9,4 		"/>
		<polygon class="st8" points="904,14.9 904,14.9 894.9,24 902,24 905.8,20.2 905.8,20.2 911,15 911,7.9 		"/>
		<polygon class="st8" points="891,14.9 891,14.9 881.9,24 889,24 892.8,20.2 892.8,20.2 909,4 901.9,4 		"/>
		<polygon class="st8" points="863,11 870,4 863,4 		"/>
	</g>
	<g id="PathPlanner-Error" class="st7">
		<polygon class="st8" points="961,24 961,22.9 959.9,24 		"/>
		<polygon class="st8" points="953.9,4 943,14.9 943,14.9 933.9,24 941,24 944.8,20.2 944.8,20.2 961,4 		"/>
		<polygon class="st8" points="940.9,4 930,14.9 930,14.9 920.9,24 928,24 931.8,20.2 931.8,20.2 948,4 		"/>
		<polygon class="st8" points="956,14.9 956,14.9 946.9,24 954,24 957.8,20.2 957.8,20.2 961,17 961,9.9 		"/>
		<polygon class="st8" points="927.9,4 917,14.9 917,14.9 913,18.9 913,24 915,24 918.8,20.2 918.8,20.2 935,4 		"/>
		<polygon class="st8" points="914.9,4 913,5.9 913,13 922,4 		"/>
	</g>
	<g id="PathFollower-Error" class="st7">
		<polygon class="st8" points="1008,14.9 998.9,24 1006,24 1009.8,20.2 1009.8,20.2 1011,19 1011,11.9 1008,14.9 		"/>
		<polygon class="st8" points="995,14.9 995,14.9 985.9,24 993,24 996.8,20.2 996.8,20.2 1011,6 1011,4 1005.9,4 		"/>
		<polygon class="st8" points="982,14.9 982,14.9 972.9,24 980,24 983.8,20.2 983.8,20.2 1000,4 992.9,4 		"/>
		<polygon class="st8" points="969,14.9 969,14.9 963,20.9 963,24 967,24 970.8,20.2 970.8,20.2 987,4 979.9,4 		"/>
		<polygon class="st8" points="963,7.9 963,15 974,4 966.9,4 		"/>
	</g>
</g>
<g id="foreground">
	<g>
		<rect class="st9" width="1024" height="28"/>
	</g>
	<g>
		<path class="st10" d="M181.9,17.5l-0.8-1.6h0H180v1.6h-1.5v-5.6h2.5c1.5,0,2.3,0.7,2.3,2c0,0.8-0.4,1.5-1,1.8l1.2,1.8H181.9z
			 M180,14.8h1.1c0.6,0,0.9-0.3,0.9-0.9c0-0.6-0.3-0.8-0.9-0.8H180V14.8z"/>
		<path class="st10" d="M188.1,16.5h-2.4l-0.4,1h-1.5l2.4-5.6h1.5l2.4,5.6h-1.6L188.1,16.5z M187.6,15.4l-0.8-2l-0.8,2H187.6z"/>
		<path class="st10" d="M192.1,11.9l1.6,3.3l1.6-3.3h1.6v5.6h-1.3l0-3.5l-1.4,3h-0.9l-1.4-3v3.5h-1.3v-5.6H192.1z"/>
	</g>
	<g>
		<path class="st10" d="M225.2,13.1c-0.9,0-1.5,0.7-1.5,1.6c0,0.9,0.7,1.6,1.5,1.6c0.5,0,1-0.3,1.4-0.7l0.9,0.9
			c-0.6,0.6-1.5,1-2.3,1c-1.7,0-2.9-1.3-2.9-2.9c0-1.6,1.3-2.9,3-2.9c0.8,0,1.7,0.4,2.3,1l-0.8,1C226.2,13.3,225.7,13.1,225.2,13.1z
			"/>
		<path class="st10" d="M233.7,14.7c0,1.7-1.3,2.9-3,2.9c-1.7,0-3-1.2-3-2.9c0-1.7,1.3-2.9,3-2.9C232.4,11.8,233.7,13,233.7,14.7z
			 M229.1,14.7c0,0.9,0.7,1.7,1.5,1.7c0.8,0,1.5-0.7,1.5-1.7c0-0.9-0.7-1.6-1.5-1.6C229.8,13.1,229.1,13.8,229.1,14.7z"/>
		<path class="st10" d="M239.6,11.9v5.6h-1.3l-2.5-3.4v3.4h-1.4v-5.6h1.3l2.6,3.4l0-3.4H239.6z"/>
		<path class="st10" d="M244.9,11.9l0,1.2h-2.7v1.2h2.5v1.2h-2.5v2h-1.5v-5.6H244.9z"/>
		<path class="st10" d="M247,11.9v5.6h-1.5v-5.6H247z"/>
		<path class="st10" d="M251.8,14.6h1.3v2.2c-0.6,0.4-1.6,0.7-2.3,0.7c-1.7,0-3-1.2-3-2.9c0-1.7,1.3-2.9,3.1-2.9
			c0.8,0,1.7,0.3,2.3,0.8l-0.8,1c-0.4-0.4-1-0.6-1.5-0.6c-0.9,0-1.6,0.7-1.6,1.6c0,1,0.7,1.7,1.6,1.7c0.3,0,0.6-0.1,1-0.3V14.6z"/>
	</g>
	<g>
		<path class="st10" d="M273.6,13c-0.4,0-0.6,0.1-0.6,0.4c0,1,3,0.4,3,2.5c0,1.2-1,1.8-2.3,1.8c-0.9,0-1.9-0.4-2.6-0.9l0.6-1.1
			c0.6,0.5,1.4,0.9,2,0.9c0.4,0,0.7-0.2,0.7-0.5c0-1-3-0.4-3-2.4c0-1.1,0.9-1.7,2.2-1.7c0.8,0,1.7,0.3,2.2,0.6l-0.6,1.2
			C274.8,13.2,274.1,13,273.6,13z"/>
		<path class="st10" d="M281.1,11.9v1.2h-3v1h2.7v1.2l-2.7,0v1.1h3v1.2h-4.5v-5.6H281.1z"/>
		<path class="st10" d="M287.3,11.9v5.6H286l-2.5-3.4v3.4h-1.4v-5.6h1.3l2.6,3.4l0-3.4H287.3z"/>
		<path class="st10" d="M290.5,13c-0.4,0-0.6,0.1-0.6,0.4c0,1,3,0.4,3,2.5c0,1.2-1,1.8-2.3,1.8c-0.9,0-1.9-0.4-2.6-0.9l0.6-1.1
			c0.6,0.5,1.4,0.9,2,0.9c0.4,0,0.7-0.2,0.7-0.5c0-1-3-0.4-3-2.4c0-1.1,0.9-1.7,2.2-1.7c0.8,0,1.7,0.3,2.2,0.6l-0.6,1.2
			C291.7,13.2,290.9,13,290.5,13z"/>
		<path class="st10" d="M299.3,14.7c0,1.7-1.3,2.9-3,2.9c-1.7,0-3-1.2-3-2.9c0-1.7,1.3-2.9,3-2.9C298,11.8,299.3,13,299.3,14.7z
			 M294.7,14.7c0,0.9,0.7,1.7,1.5,1.7c0.8,0,1.5-0.7,1.5-1.7c0-0.9-0.7-1.6-1.5-1.6C295.4,13.1,294.7,13.8,294.7,14.7z"/>
		<path class="st10" d="M303.4,17.5l-0.8-1.6h0h-1.1v1.6H300v-5.6h2.5c1.5,0,2.3,0.7,2.3,2c0,0.8-0.4,1.5-1,1.8l1.2,1.8H303.4z
			 M301.5,14.8h1.1c0.6,0,0.9-0.3,0.9-0.9c0-0.6-0.3-0.8-0.9-0.8h-1.1V14.8z"/>
	</g>
	<g>
		<path class="st10" d="M327,11.9v5.6h-1.5v-5.6H327z"/>
		<path class="st10" d="M333.3,11.9v5.6H332l-2.5-3.4v3.4h-1.4v-5.6h1.3l2.6,3.4l0-3.4H333.3z"/>
		<path class="st10" d="M339.1,13.9c0,1.3-0.8,2.1-2.3,2.1h-1v1.6h-1.5v-5.6h2.5C338.3,11.9,339.1,12.6,339.1,13.9z M337.7,13.9
			c0-0.6-0.3-0.8-0.9-0.8h-0.9v1.7h0.9C337.4,14.8,337.7,14.5,337.7,13.9z"/>
		<path class="st10" d="M342.3,16.4c0.6,0,1.1-0.4,1.1-1.2v-3.3h1.5v3.3c0,1.5-1,2.4-2.5,2.4s-2.6-0.9-2.6-2.4v-3.3h1.5v3.3
			C341.2,15.9,341.7,16.4,342.3,16.4z"/>
		<path class="st10" d="M350.1,11.9v1.2h-1.7v4.4H347v-4.4h-1.7v-1.2H350.1z"/>
	</g>
	<g>
		<path class="st10" d="M369.3,16.5h-2.4l-0.4,1H365l2.4-5.6h1.5l2.4,5.6h-1.6L369.3,16.5z M368.8,15.4l-0.8-2l-0.8,2H368.8z"/>
		<path class="st10" d="M374.2,13.1c-0.9,0-1.5,0.7-1.5,1.6c0,0.9,0.7,1.6,1.5,1.6c0.5,0,1-0.3,1.4-0.7l0.9,0.9
			c-0.6,0.6-1.5,1-2.3,1c-1.7,0-2.9-1.3-2.9-2.9c0-1.6,1.3-2.9,3-2.9c0.8,0,1.7,0.4,2.3,1l-0.8,1C375.3,13.3,374.7,13.1,374.2,13.1z
			"/>
		<path class="st10" d="M381.4,11.9v1.2h-1.7v4.4h-1.5v-4.4h-1.7v-1.2H381.4z"/>
		<path class="st10" d="M384.5,16.4c0.6,0,1.1-0.4,1.1-1.2v-3.3h1.5v3.3c0,1.5-1,2.4-2.5,2.4s-2.6-0.9-2.6-2.4v-3.3h1.5v3.3
			C383.4,15.9,383.9,16.4,384.5,16.4z"/>
		<path class="st10" d="M391.6,16.5h-2.4l-0.4,1h-1.5l2.4-5.6h1.5l2.4,5.6H392L391.6,16.5z M391.2,15.4l-0.8-2l-0.8,2H391.2z"/>
		<path class="st10" d="M397.8,11.9v1.2h-1.7v4.4h-1.5v-4.4H393v-1.2H397.8z"/>
		<path class="st10" d="M403.8,14.7c0,1.7-1.3,2.9-3,2.9c-1.7,0-3-1.2-3-2.9c0-1.7,1.3-2.9,3-2.9C402.5,11.8,403.8,13,403.8,14.7z
			 M399.2,14.7c0,0.9,0.7,1.7,1.5,1.7c0.8,0,1.5-0.7,1.5-1.7c0-0.9-0.7-1.6-1.5-1.6C399.9,13.1,399.2,13.8,399.2,14.7z"/>
		<path class="st10" d="M407.9,17.5l-0.8-1.6h0H406v1.6h-1.5v-5.6h2.5c1.5,0,2.3,0.7,2.3,2c0,0.8-0.4,1.5-1,1.8l1.2,1.8H407.9z
			 M406,14.8h1.1c0.6,0,0.9-0.3,0.9-0.9c0-0.6-0.3-0.8-0.9-0.8H406V14.8z"/>
	</g>
	<g>
		<path class="st10" d="M429.6,13c-0.4,0-0.6,0.1-0.6,0.4c0,1,3,0.4,3,2.5c0,1.2-1,1.8-2.3,1.8c-0.9,0-1.9-0.4-2.6-0.9l0.6-1.1
			c0.6,0.5,1.4,0.9,2,0.9c0.4,0,0.7-0.2,0.7-0.5c0-1-3-0.4-3-2.4c0-1.1,0.9-1.7,2.2-1.7c0.8,0,1.7,0.3,2.2,0.6l-0.6,1.2
			C430.8,13.2,430.1,13,429.6,13z"/>
		<path class="st10" d="M437,11.9v1.2h-1.7v4.4h-1.5v-4.4h-1.7v-1.2H437z"/>
		<path class="st10" d="M440.8,16.5h-2.4l-0.4,1h-1.5l2.4-5.6h1.5l2.4,5.6h-1.6L440.8,16.5z M440.3,15.4l-0.8-2l-0.8,2H440.3z"/>
		<path class="st10" d="M447.9,13.3c0,0.6-0.4,1.1-1,1.2c0.7,0.1,1.2,0.7,1.2,1.4c0,1-0.8,1.6-2.2,1.6h-2.8v-5.6h2.7
			C447.1,11.9,447.9,12.5,447.9,13.3z M446.4,13.6c0-0.3-0.2-0.5-0.7-0.5h-1.1v1.1h1.1C446.2,14.1,446.4,13.9,446.4,13.6z
			 M446.6,15.8c0-0.4-0.3-0.6-0.8-0.6h-1.1v1.2h1.1C446.3,16.4,446.6,16.2,446.6,15.8z"/>
	</g>
	<g>
		<path class="st10" d="M482.3,16.5h-2.4l-0.4,1H478l2.4-5.6h1.5l2.4,5.6h-1.6L482.3,16.5z M481.8,15.4l-0.8-2l-0.8,2H481.8z"/>
		<path class="st10" d="M488.4,11.9v1.2h-1.7v4.4h-1.5v-4.4h-1.7v-1.2H488.4z"/>
		<path class="st10" d="M493.4,11.9v1.2h-1.7v4.4h-1.5v-4.4h-1.7v-1.2H493.4z"/>
		<path class="st10" d="M495.4,11.9v5.6H494v-5.6H495.4z"/>
	</g>
	<g>
		<path class="st10" d="M532.9,11.9v1.2h-1.7v4.4h-1.5v-4.4h-1.7v-1.2H532.9z"/>
		<path class="st10" d="M534.9,11.9v5.6h-1.5v-5.6H534.9z"/>
		<path class="st10" d="M537.6,11.9l1.6,3.3l1.6-3.3h1.6v5.6h-1.3l0-3.5l-1.4,3h-0.9l-1.4-3v3.5H536v-5.6H537.6z"/>
		<path class="st10" d="M547.9,11.9v1.2h-3v1h2.7v1.2l-2.7,0v1.1h3v1.2h-4.5v-5.6H547.9z"/>
	</g>
	<g>
		<path class="st10" d="M574.3,13.3c0,0.6-0.4,1.1-1,1.2c0.7,0.1,1.2,0.7,1.2,1.4c0,1-0.8,1.6-2.2,1.6h-2.8v-5.6h2.7
			C573.5,11.9,574.3,12.5,574.3,13.3z M572.8,13.6c0-0.3-0.2-0.5-0.7-0.5H571v1.1h1.1C572.5,14.1,572.8,13.9,572.8,13.6z M573,15.8
			c0-0.4-0.3-0.6-0.8-0.6H571v1.2h1.1C572.6,16.4,573,16.2,573,15.8z"/>
		<path class="st10" d="M579,16.5h-2.4l-0.4,1h-1.5l2.4-5.6h1.5l2.4,5.6h-1.6L579,16.5z M578.6,15.4l-0.8-2l-0.8,2H578.6z"/>
		<path class="st10" d="M585.2,11.9v1.2h-1.7v4.4H582v-4.4h-1.7v-1.2H585.2z"/>
		<path class="st10" d="M590.1,11.9v1.2h-1.7v4.4h-1.5v-4.4h-1.7v-1.2H590.1z"/>
		<path class="st10" d="M595.1,11.9v1.2h-3v1h2.7v1.2l-2.7,0v1.1h3v1.2h-4.5v-5.6H595.1z"/>
		<path class="st10" d="M599.4,17.5l-0.8-1.6h0h-1.1v1.6h-1.5v-5.6h2.5c1.5,0,2.3,0.7,2.3,2c0,0.8-0.4,1.5-1,1.8l1.2,1.8H599.4z
			 M597.5,14.8h1.1c0.6,0,0.9-0.3,0.9-0.9c0-0.6-0.3-0.8-0.9-0.8h-1.1V14.8z"/>
		<path class="st10" d="M604.8,15.7v1.8h-1.5v-1.8l-2.1-3.9h1.5l1.3,2.4l1.3-2.4h1.5L604.8,15.7z"/>
	</g>
	<g>
		<path class="st10" d="M633.3,14.6h1.3v2.2c-0.6,0.4-1.6,0.7-2.3,0.7c-1.7,0-3-1.2-3-2.9c0-1.7,1.3-2.9,3.1-2.9
			c0.8,0,1.7,0.3,2.3,0.8l-0.8,1c-0.4-0.4-1-0.6-1.5-0.6c-0.9,0-1.6,0.7-1.6,1.6c0,1,0.7,1.7,1.6,1.7c0.3,0,0.6-0.1,1-0.3V14.6z"/>
		<path class="st10" d="M640.2,13.9c0,1.3-0.8,2.1-2.3,2.1h-1v1.6h-1.5v-5.6h2.5C639.4,11.9,640.2,12.6,640.2,13.9z M638.8,13.9
			c0-0.6-0.3-0.8-0.9-0.8H637v1.7h0.9C638.5,14.8,638.8,14.5,638.8,13.9z"/>
		<path class="st10" d="M643,13c-0.4,0-0.6,0.1-0.6,0.4c0,1,3,0.4,3,2.5c0,1.2-1,1.8-2.3,1.8c-0.9,0-1.9-0.4-2.6-0.9l0.6-1.1
			c0.6,0.5,1.4,0.9,2,0.9c0.4,0,0.7-0.2,0.7-0.5c0-1-3-0.4-3-2.4c0-1.1,0.9-1.7,2.2-1.7c0.8,0,1.7,0.3,2.2,0.6l-0.6,1.2
			C644.2,13.2,643.4,13,643,13z"/>
	</g>
	<g>
		<path class="st10" d="M679,11.9v1.2h-3v1h2.7v1.2l-2.7,0v1.1h3v1.2h-4.5v-5.6H679z"/>
		<path class="st10" d="M681,11.9l1.4,4.1l1.4-4.1h1.5l-2.2,5.6h-1.5l-2.2-5.6H681z"/>
		<path class="st10" d="M690.2,11.9v1.2h-3v1h2.7v1.2l-2.7,0v1.1h3v1.2h-4.5v-5.6H690.2z"/>
		<path class="st10" d="M696.4,11.9v5.6h-1.3l-2.5-3.4v3.4h-1.4v-5.6h1.3l2.6,3.4l0-3.4H696.4z"/>
		<path class="st10" d="M701.8,11.9v1.2h-1.7v4.4h-1.5v-4.4H697v-1.2H701.8z"/>
	</g>
	<g>
		<path class="st10" d="M732,11.9v5.6h-1.5v-5.6H732z"/>
		<path class="st10" d="M737.1,16.3v1.2h-4.3l0-1l2-2.1c0.3-0.3,0.5-0.7,0.5-0.9c0-0.3-0.2-0.5-0.6-0.5c-0.5,0-1,0.3-1.5,0.7
			l-0.6-1.1c0.7-0.5,1.5-0.8,2.3-0.8c1.1,0,2,0.6,2,1.5c0,0.6-0.5,1.2-1.1,1.9l-1.1,1.2H737.1z"/>
		<path class="st10" d="M740.6,13.1c-0.9,0-1.5,0.7-1.5,1.6c0,0.9,0.7,1.6,1.5,1.6c0.5,0,1-0.3,1.4-0.7l0.9,0.9
			c-0.6,0.6-1.5,1-2.3,1c-1.7,0-2.9-1.3-2.9-2.9c0-1.6,1.3-2.9,3-2.9c0.8,0,1.7,0.4,2.3,1l-0.8,1C741.6,13.3,741.1,13.1,740.6,13.1z
			"/>
	</g>
	<g>
		<path class="st10" d="M782.3,16.5h-2.4l-0.4,1H778l2.4-5.6h1.5l2.4,5.6h-1.6L782.3,16.5z M781.8,15.4l-0.8-2l-0.8,2H781.8z"/>
		<path class="st10" d="M790.1,14.7c0,1.7-1.2,2.8-3,2.8h-2.4v-5.6h2.4C788.9,11.9,790.1,13,790.1,14.7z M788.6,14.7
			c0-1-0.6-1.6-1.5-1.6h-0.9v3.2h1C788,16.3,788.6,15.7,788.6,14.7z"/>
		<path class="st10" d="M793.4,13.1c-0.9,0-1.5,0.7-1.5,1.6c0,0.9,0.7,1.6,1.5,1.6c0.5,0,1-0.3,1.4-0.7l0.9,0.9
			c-0.6,0.6-1.5,1-2.3,1c-1.7,0-2.9-1.3-2.9-2.9c0-1.6,1.3-2.9,3-2.9c0.8,0,1.7,0.4,2.3,1l-0.8,1C794.4,13.3,793.9,13.1,793.4,13.1z
			"/>
	</g>
	<g>
		<path class="st10" d="M828.9,11.9v1.2h-1.7v4.4h-1.5v-4.4h-1.7v-1.2H828.9z"/>
		<path class="st10" d="M833.9,11.9v1.2h-3v1h2.7v1.2l-2.7,0v1.1h3v1.2h-4.5v-5.6H833.9z"/>
		<path class="st10" d="M836.3,11.9v4.4h2.4v1.2h-3.8v-5.6H836.3z"/>
		<path class="st10" d="M843.8,11.9v1.2h-3v1h2.7v1.2l-2.7,0v1.1h3v1.2h-4.5v-5.6H843.8z"/>
		<path class="st10" d="M846.4,11.9l1.6,3.3l1.6-3.3h1.6v5.6h-1.3l0-3.5l-1.4,3h-0.9l-1.4-3v3.5h-1.3v-5.6H846.4z"/>
	</g>
	<g>
		<path class="st10" d="M880.3,16.5h-2.4l-0.4,1H876l2.4-5.6h1.5l2.4,5.6h-1.6L880.3,16.5z M879.8,15.4l-0.8-2l-0.8,2H879.8z"/>
		<path class="st10" d="M884.2,11.9v4.4h2.4v1.2h-3.8v-5.6H884.2z"/>
		<path class="st10" d="M891.5,11.9v1.2h-1.7v4.4h-1.5v-4.4h-1.7v-1.2H891.5z"/>
		<path class="st10" d="M892.8,16.9c0,0.4-0.3,0.7-0.7,0.7s-0.7-0.3-0.7-0.7c0-0.4,0.3-0.7,0.7-0.7S892.8,16.5,892.8,16.9z"/>
		<path class="st10" d="M895.1,11.9v2.3h2.3v-2.3h1.5v5.6h-1.5v-2.2h-2.3v2.2h-1.5v-5.6H895.1z"/>
	</g>
	<g>
		<path class="st10" d="M928.3,13.9c0,1.3-0.8,2.1-2.3,2.1h-1v1.6h-1.5v-5.6h2.5C927.4,11.9,928.3,12.6,928.3,13.9z M926.9,13.9
			c0-0.6-0.3-0.8-0.9-0.8H925v1.7h0.9C926.5,14.8,926.9,14.5,926.9,13.9z"/>
		<path class="st10" d="M929.8,16.9c0,0.4-0.3,0.7-0.7,0.7s-0.7-0.3-0.7-0.7c0-0.4,0.3-0.7,0.7-0.7S929.8,16.5,929.8,16.9z"/>
		<path class="st10" d="M935.3,13.9c0,1.3-0.8,2.1-2.3,2.1h-1v1.6h-1.5v-5.6h2.5C934.5,11.9,935.3,12.6,935.3,13.9z M933.9,13.9
			c0-0.6-0.3-0.8-0.9-0.8h-0.9v1.7h0.9C933.6,14.8,933.9,14.5,933.9,13.9z"/>
		<path class="st10" d="M937.5,11.9v4.4h2.4v1.2H936v-5.6H937.5z"/>
		<path class="st10" d="M944.3,16.5h-2.4l-0.4,1H940l2.4-5.6h1.5l2.4,5.6h-1.6L944.3,16.5z M943.9,15.4l-0.8-2l-0.8,2H943.9z"/>
		<path class="st10" d="M951.9,11.9v5.6h-1.3l-2.5-3.4v3.4h-1.4v-5.6h1.3l2.5,3.4l0-3.4H951.9z"/>
	</g>
	<g>
		<path class="st10" d="M977.3,13.9c0,1.3-0.8,2.1-2.3,2.1h-1v1.6h-1.5v-5.6h2.5C976.4,11.9,977.3,12.6,977.3,13.9z M975.9,13.9
			c0-0.6-0.3-0.8-0.9-0.8H974v1.7h0.9C975.5,14.8,975.9,14.5,975.9,13.9z"/>
		<path class="st10" d="M978.8,16.9c0,0.4-0.3,0.7-0.7,0.7s-0.7-0.3-0.7-0.7c0-0.4,0.3-0.7,0.7-0.7S978.8,16.5,978.8,16.9z"/>
		<path class="st10" d="M983.8,11.9l0,1.2h-2.7v1.2h2.5v1.2h-2.5v2h-1.5v-5.6H983.8z"/>
		<path class="st10" d="M990.1,14.7c0,1.7-1.3,2.9-3,2.9s-3-1.2-3-2.9c0-1.7,1.3-2.9,3-2.9S990.1,13,990.1,14.7z M985.6,14.7
			c0,0.9,0.7,1.7,1.5,1.7c0.8,0,1.5-0.7,1.5-1.7c0-0.9-0.7-1.6-1.5-1.6C986.3,13.1,985.6,13.8,985.6,14.7z"/>
		<path class="st10" d="M992.3,11.9v4.4h2.4v1.2h-3.8v-5.6H992.3z"/>
		<path class="st10" d="M1003.8,11.9l-1.9,5.6h-1.5l-1.1-3.8l-1.1,3.8h-1.5l-1.9-5.6h1.6l1.1,4.1l1.1-4.1h1.4l1.1,4.1l1.1-4.1
			H1003.8z"/>
	</g>
	<g>
		<path class="st10" d="M31.1,13.5c0,0.6-0.4,1.1-1,1.2c0.7,0.1,1.2,0.7,1.2,1.4c0,1-0.8,1.6-2.2,1.6h-2.8v-5.6H29
			C30.3,12.1,31.1,12.6,31.1,13.5z M29.6,13.7c0-0.3-0.2-0.5-0.7-0.5h-1.1v1.1H29C29.4,14.3,29.6,14.1,29.6,13.7z M29.8,15.9
			c0-0.4-0.3-0.6-0.8-0.6h-1.1v1.2H29C29.5,16.5,29.8,16.3,29.8,15.9z"/>
		<path class="st10" d="M37.8,14.9c0,1.7-1.3,2.9-3,2.9c-1.7,0-3-1.2-3-2.9c0-1.7,1.3-2.9,3-2.9C36.5,12,37.8,13.2,37.8,14.9z
			 M33.2,14.9c0,0.9,0.7,1.7,1.5,1.7c0.8,0,1.5-0.7,1.5-1.7c0-0.9-0.7-1.6-1.5-1.6C34,13.2,33.2,13.9,33.2,14.9z"/>
		<path class="st10" d="M44.1,14.9c0,1.7-1.3,2.9-3,2.9c-1.7,0-3-1.2-3-2.9c0-1.7,1.3-2.9,3-2.9C42.8,12,44.1,13.2,44.1,14.9z
			 M39.6,14.9c0,0.9,0.7,1.7,1.5,1.7c0.8,0,1.5-0.7,1.5-1.7c0-0.9-0.7-1.6-1.5-1.6C40.3,13.2,39.6,13.9,39.6,14.9z"/>
		<path class="st10" d="M49,12.1v1.2h-1.7v4.4h-1.5v-4.4h-1.7v-1.2H49z"/>
	</g>
	<g>
		<path class="st10" d="M82,13.2c-0.9,0-1.5,0.7-1.5,1.6c0,0.9,0.7,1.6,1.5,1.6c0.5,0,1-0.3,1.4-0.7l0.9,0.9c-0.6,0.6-1.5,1-2.3,1
			c-1.7,0-2.9-1.3-2.9-2.9c0-1.6,1.3-2.9,3-2.9c0.8,0,1.7,0.4,2.3,1l-0.8,1C83.1,13.5,82.5,13.2,82,13.2z"/>
		<path class="st10" d="M89.6,14c0,1.3-0.8,2.1-2.3,2.1h-1v1.6h-1.5v-5.6h2.5C88.8,12.1,89.6,12.8,89.6,14z M88.2,14.1
			c0-0.6-0.3-0.8-0.9-0.8h-0.9V15h0.9C87.9,15,88.2,14.7,88.2,14.1z"/>
		<path class="st10" d="M92.8,16.5c0.6,0,1.1-0.4,1.1-1.2v-3.3h1.5v3.3c0,1.5-1,2.4-2.5,2.4s-2.6-0.9-2.6-2.4v-3.3h1.5v3.3
			C91.7,16.1,92.2,16.5,92.8,16.5z"/>
	</g>
	<g>
		<path class="st10" d="M127.8,13c-0.4,0-0.6,0.1-0.6,0.4c0,1,3,0.4,3,2.5c0,1.2-1,1.8-2.3,1.8c-0.9,0-1.9-0.4-2.6-0.9l0.6-1.1
			c0.6,0.5,1.4,0.9,2,0.9c0.4,0,0.7-0.2,0.7-0.5c0-1-3-0.4-3-2.4c0-1.1,0.9-1.7,2.2-1.7c0.8,0,1.7,0.3,2.2,0.6l-0.6,1.2
			C129,13.2,128.2,13,127.8,13z"/>
		<path class="st10" d="M135.2,11.9v1.2h-1.7v4.4h-1.5v-4.4h-1.7v-1.2H135.2z"/>
		<path class="st10" d="M138.9,16.5h-2.4l-0.4,1h-1.5l2.4-5.6h1.5l2.4,5.6h-1.6L138.9,16.5z M138.5,15.4l-0.8-2l-0.8,2H138.5z"/>
		<path class="st10" d="M143.9,13.1c-0.9,0-1.5,0.7-1.5,1.6c0,0.9,0.7,1.6,1.5,1.6c0.5,0,1-0.3,1.4-0.7l0.9,0.9
			c-0.6,0.6-1.5,1-2.3,1c-1.7,0-2.9-1.3-2.9-2.9c0-1.6,1.3-2.9,3-2.9c0.8,0,1.7,0.4,2.3,1l-0.8,1C144.9,13.3,144.4,13.1,143.9,13.1z
			"/>
		<path class="st10" d="M150.4,17.5l-1.5-2.2l-0.7,0.8v1.4h-1.5v-5.6h1.5v2.4l2.1-2.4h1.7l-2.1,2.3l2.2,3.3H150.4z"/>
	</g>
</g>
<g id="nolink">
	<g class="st11">
		<rect class="st0" width="1024.5" height="28.5"/>
	</g>
	<g>
		<path class="st12" d="M489.5,8.8V20h-2.6l-5.1-6.7V20h-2.7V8.8h2.6l5.1,6.8l0-6.8H489.5z"/>
		<path class="st12" d="M503.1,14.4c0,3.3-2.6,5.8-6.1,5.8c-3.5,0-6.1-2.5-6.1-5.8c0-3.3,2.6-5.8,6.1-5.8
			C500.5,8.6,503.1,11.1,503.1,14.4z M494,14.4c0,1.9,1.4,3.3,3.1,3.3c1.7,0,3-1.4,3-3.3c0-1.9-1.3-3.3-3-3.3S494,12.5,494,14.4z"/>
		<path class="st12" d="M511,8.8v8.7h4.8V20h-7.7V8.8H511z"/>
		<path class="st12" d="M520,8.8V20h-2.9V8.8H520z"/>
		<path class="st12" d="M532.6,8.8V20H530l-5.1-6.7V20h-2.7V8.8h2.6l5.1,6.8l0-6.8H532.6z"/>
		<path class="st12" d="M542.1,20l-2.9-4.4l-1.4,1.6V20h-2.9V8.8h2.9v4.9l4.2-4.9h3.4l-4.2,4.6l4.4,6.6H542.1z"/>
	</g>
	<g>
		<polygon class="st13" points="416.9,28 420,24.9 420,17.9 409.9,28 		"/>
		<polygon class="st13" points="410,14.9 410,14.9 396.9,28 403.9,28 411.8,20.2 411.8,20.2 420,12 420,4.9 		"/>
		<polygon class="st13" points="397,14.9 397,14.9 383.9,28 390.9,28 398.8,20.2 398.8,20.2 419,0 411.9,0 		"/>
		<polygon class="st13" points="384,14.9 384,14.9 370.9,28 377.9,28 385.8,20.2 385.8,20.2 406,0 398.9,0 		"/>
		<polygon class="st13" points="371,14.9 371,14.9 357.9,28 364.9,28 372.8,20.2 372.8,20.2 393,0 385.9,0 		"/>
		<polygon class="st13" points="358,14.9 358,14.9 344.9,28 351.9,28 359.8,20.2 359.8,20.2 380,0 372.9,0 		"/>
		<polygon class="st13" points="345,14.9 345,14.9 331.9,28 338.9,28 346.8,20.2 346.8,20.2 367,0 359.9,0 		"/>
		<polygon class="st13" points="332,14.9 332,14.9 318.9,28 325.9,28 333.8,20.2 333.8,20.2 354,0 346.9,0 		"/>
		<polygon class="st13" points="319,14.9 319,14.9 305.9,28 312.9,28 320.8,20.2 320.8,20.2 341,0 333.9,0 		"/>
		<polygon class="st13" points="306,14.9 306,14.9 292.9,28 299.9,28 307.8,20.2 307.8,20.2 328,0 320.9,0 		"/>
		<polygon class="st13" points="293,14.9 293,14.9 279.9,28 286.9,28 294.8,20.2 294.8,20.2 315,0 307.9,0 		"/>
		<polygon class="st13" points="280,14.9 280,14.9 266.9,28 273.9,28 281.8,20.2 281.8,20.2 302,0 294.9,0 		"/>
		<polygon class="st13" points="267,14.9 267,14.9 253.9,28 260.9,28 268.8,20.2 268.8,20.2 289,0 281.9,0 		"/>
		<polygon class="st13" points="254,14.9 254,14.9 240.9,28 247.9,28 255.8,20.2 255.8,20.2 276,0 268.9,0 		"/>
		<polygon class="st13" points="241,14.9 241,14.9 227.9,28 234.9,28 242.8,20.2 242.8,20.2 263,0 255.9,0 		"/>
		<polygon class="st13" points="228,14.9 228,14.9 214.9,28 221.9,28 229.8,20.2 229.8,20.2 250,0 242.9,0 		"/>
		<polygon class="st13" points="215,14.9 215,14.9 201.9,28 208.9,28 216.8,20.2 216.8,20.2 237,0 229.9,0 		"/>
		<polygon class="st13" points="202,14.9 202,14.9 188.9,28 195.9,28 203.8,20.2 203.8,20.2 224,0 216.9,0 		"/>
		<polygon class="st13" points="189,14.9 189,14.9 175.9,28 182.9,28 190.8,20.2 190.8,20.2 211,0 203.9,0 		"/>
		<polygon class="st13" points="176,14.9 176,14.9 162.9,28 169.9,28 177.8,20.2 177.8,20.2 198,0 190.9,0 		"/>
		<polygon class="st13" points="163,14.9 163,14.9 149.9,28 156.9,28 164.8,20.2 164.8,20.2 185,0 177.9,0 		"/>
		<polygon class="st13" points="150,14.9 150,14.9 136.9,28 143.9,28 151.8,20.2 151.8,20.2 172,0 164.9,0 		"/>
		<polygon class="st13" points="137,14.9 137,14.9 123.9,28 130.9,28 138.8,20.2 138.8,20.2 159,0 151.9,0 		"/>
		<polygon class="st13" points="124,14.9 124,14.9 110.9,28 117.9,28 125.8,20.2 125.8,20.2 146,0 138.9,0 		"/>
		<polygon class="st13" points="111,14.9 111,14.9 97.9,28 104.9,28 112.8,20.2 112.8,20.2 133,0 125.9,0 		"/>
		<polygon class="st13" points="98,14.9 98,14.9 84.9,28 91.9,28 99.8,20.2 99.8,20.2 120,0 112.9,0 		"/>
		<polygon class="st13" points="85,14.9 85,14.9 71.9,28 78.9,28 86.8,20.2 86.8,20.2 107,0 99.9,0 		"/>
		<polygon class="st13" points="72,14.9 72,14.9 58.9,28 65.9,28 73.8,20.2 73.8,20.2 94,0 86.9,0 		"/>
		<polygon class="st13" points="59,14.9 59,14.9 45.9,28 52.9,28 60.8,20.2 60.8,20.2 81,0 73.9,0 		"/>
		<polygon class="st13" points="46,14.9 46,14.9 32.9,28 39.9,28 47.8,20.2 47.8,20.2 68,0 60.9,0 		"/>
		<polygon class="st13" points="33,14.9 33,14.9 19.9,28 26.9,28 34.8,20.2 34.8,20.2 55,0 47.9,0 		"/>
		<polygon class="st13" points="20,14.9 20,14.9 6.9,28 13.9,28 21.8,20.2 21.8,20.2 42,0 34.9,0 		"/>
		<polygon class="st13" points="7,14.9 7,14.9 0,21.9 0,28 0.9,28 8.8,20.2 8.8,20.2 29,0 21.9,0 		"/>
		<polygon class="st13" points="0,8.9 0,16 16,0 8.9,0 		"/>
		<polygon class="st13" points="0,3 3,0 0,0 		"/>
	</g>
	<g>
		<polygon class="st13" points="1024,28 1024,24.9 1020.9,28 		"/>
		<polygon class="st13" points="1021,14.9 1007.9,28 1015,28 1022.8,20.2 1022.8,20.2 1024,19 1024,11.9 1021,14.9 		"/>
		<polygon class="st13" points="1008,14.9 994.9,28 1002,28 1009.8,20.2 1009.8,20.2 1024,6 1024,0 1022.9,0 1008,14.9 		"/>
		<polygon class="st13" points="995,14.9 995,14.9 981.9,28 989,28 996.8,20.2 996.8,20.2 1017,0 1009.9,0 		"/>
		<polygon class="st13" points="982,14.9 982,14.9 968.9,28 976,28 983.8,20.2 983.8,20.2 1004,0 996.9,0 		"/>
		<polygon class="st13" points="969,14.9 969,14.9 955.9,28 963,28 970.8,20.2 970.8,20.2 991,0 983.9,0 		"/>
		<polygon class="st13" points="956,14.9 956,14.9 942.9,28 950,28 957.8,20.2 957.8,20.2 978,0 970.9,0 		"/>
		<polygon class="st13" points="943,14.9 943,14.9 929.9,28 937,28 944.8,20.2 944.8,20.2 965,0 957.9,0 		"/>
		<polygon class="st13" points="930,14.9 930,14.9 916.9,28 924,28 931.8,20.2 931.8,20.2 952,0 944.9,0 		"/>
		<polygon class="st13" points="917,14.9 917,14.9 903.9,28 911,28 918.8,20.2 918.8,20.2 939,0 931.9,0 		"/>
		<polygon class="st13" points="904,14.9 904,14.9 890.9,28 898,28 905.8,20.2 905.8,20.2 926,0 918.9,0 		"/>
		<polygon class="st13" points="891,14.9 891,14.9 877.9,28 885,28 892.8,20.2 892.8,20.2 913,0 905.9,0 		"/>
		<polygon class="st13" points="878,14.9 878,14.9 864.9,28 872,28 879.8,20.2 879.8,20.2 900,0 892.9,0 		"/>
		<polygon class="st13" points="865,14.9 865,14.9 851.9,28 859,28 866.8,20.2 866.8,20.2 887,0 879.9,0 		"/>
		<polygon class="st13" points="852,14.9 852,14.9 838.9,28 846,28 853.8,20.2 853.8,20.2 874,0 866.9,0 		"/>
		<polygon class="st13" points="839,14.9 839,14.9 825.9,28 833,28 840.8,20.2 840.8,20.2 861,0 853.9,0 		"/>
		<polygon class="st13" points="826,14.9 826,14.9 812.9,28 820,28 827.8,20.2 827.8,20.2 848,0 840.9,0 		"/>
		<polygon class="st13" points="813,14.9 813,14.9 799.9,28 807,28 814.8,20.2 814.8,20.2 835,0 827.9,0 		"/>
		<polygon class="st13" points="800,14.9 800,14.9 786.9,28 794,28 801.8,20.2 801.8,20.2 822,0 814.9,0 		"/>
		<polygon class="st13" points="787,14.9 787,14.9 773.9,28 781,28 788.8,20.2 788.8,20.2 809,0 801.9,0 		"/>
		<polygon class="st13" points="774,14.9 774,14.9 760.9,28 768,28 775.8,20.2 775.8,20.2 796,0 788.9,0 		"/>
		<polygon class="st13" points="761,14.9 761,14.9 747.9,28 755,28 762.8,20.2 762.8,20.2 783,0 775.9,0 		"/>
		<polygon class="st13" points="748,14.9 748,14.9 734.9,28 742,28 749.8,20.2 749.8,20.2 770,0 762.9,0 		"/>
		<polygon class="st13" points="735,14.9 735,14.9 721.9,28 729,28 736.8,20.2 736.8,20.2 757,0 749.9,0 		"/>
		<polygon class="st13" points="722,14.9 722,14.9 708.9,28 716,28 723.8,20.2 723.8,20.2 744,0 736.9,0 		"/>
		<polygon class="st13" points="709,14.9 709,14.9 695.9,28 703,28 710.8,20.2 710.8,20.2 731,0 723.9,0 		"/>
		<polygon class="st13" points="696,14.9 696,14.9 682.9,28 690,28 697.8,20.2 697.8,20.2 718,0 710.9,0 		"/>
		<polygon class="st13" points="683,14.9 683,14.9 669.9,28 677,28 684.8,20.2 684.8,20.2 705,0 697.9,0 		"/>
		<polygon class="st13" points="670,14.9 670,14.9 656.9,28 664,28 671.8,20.2 671.8,20.2 692,0 684.9,0 		"/>
		<polygon class="st13" points="657,14.9 657,14.9 643.9,28 651,28 658.8,20.2 658.8,20.2 679,0 671.9,0 		"/>
		<polygon class="st13" points="644,14.9 644,14.9 630.9,28 638,28 645.8,20.2 645.8,20.2 666,0 658.9,0 		"/>
		<polygon class="st13" points="631,14.9 631,14.9 617.9,28 625,28 632.8,20.2 632.8,20.2 653,0 645.9,0 		"/>
		<polygon class="st13" points="618,14.9 618,14.9 604.9,28 612,28 619.8,20.2 619.8,20.2 640,0 632.9,0 		"/>
		<polygon class="st13" points="605,14.9 605,14.9 604,15.9 604,22.9 606.8,20.2 606.8,20.2 627,0 619.9,0 		"/>
		<polygon class="st13" points="604,2.9 604,10 614,0 606.9,0 		"/>
	</g>
</g>
</svg>
