<?xml version="1.0" encoding="utf-8"?>
<!-- Generator: Adobe Illustrator 21.0.2, SVG Export Plug-In . SVG Version: 6.00 Build 0)  -->
<svg version="1.1" xmlns="http://www.w3.org/2000/svg" xmlns:xlink="http://www.w3.org/1999/xlink" x="0px" y="0px"
	 viewBox="0 0 216 148" style="enable-background:new 0 0 216 148;" xml:space="preserve">
<style type="text/css">
	.st0{fill:#303030;}
	.st1{fill:#505050;}
	.st2{display:none;}
	.st3{display:inline;fill:#585858;}
	.st4{display:inline;fill:#27AE60;}
	.st5{display:inline;fill:#F39C12;}
	.st6{display:inline;fill:#C0392B;}
	.st7{display:inline;}
	.st8{fill:#C0392B;}
	.st9{fill:none;}
	.st10{fill:#F2F2F2;}
	.st11{opacity:0.8;}
	.st12{fill:#FFFFFF;}
</style>
<g id="background">
	<rect class="st0" width="216" height="148"/>
	<rect id="BootFault" x="9" y="9" class="st1" width="48" height="20"/>
	<rect id="StackOverflow" x="159" y="9" class="st1" width="48" height="20"/>
	<rect id="SystemConfiguration" x="9" y="31" class="st1" width="48" height="20"/>
	<rect id="EventSystem" x="59" y="31" class="st1" width="48" height="20"/>
	<rect id="Stabilization" x="9" y="97" class="st1" width="48" height="20"/>
	<rect id="Gimbal" x="159" y="97" class="st1" width="48" height="20"/>
	<rect id="FlightTime" x="159" y="75" class="st1" width="48" height="20"/>
	<rect id="PathPlanner" x="9" y="119" class="st1" width="48" height="20"/>
	<rect id="Battery" x="109" y="75" class="st1" width="48" height="20"/>
	<rect id="PathFollower" x="59" y="119" class="st1" width="48" height="20"/>
	<rect id="Telemetry" x="109" y="31" class="st1" width="48" height="20"/>
	<rect id="Attitude" x="59" y="97" class="st1" width="48" height="20"/>
	<rect id="AltitudeHold" x="109" y="97" class="st1" width="48" height="20"/>
	<rect id="Geofence" x="109" y="119" class="st1" width="48" height="20"/>
	<rect id="CPUOverload" x="59" y="9" class="st1" width="48" height="20"/>
	<rect id="OutOfMemory" x="109" y="9" class="st1" width="48" height="20"/>
	<rect id="Sensors" x="9" y="53" class="st1" width="48" height="20"/>
	<rect id="ManualControl" x="9" y="75" class="st1" width="48" height="20"/>
	<rect id="Actuator" x="59" y="75" class="st1" width="48" height="20"/>
	<rect id="TempBaro" x="59" y="53" class="st1" width="48" height="20"/>
	<rect id="GPS" x="109" y="53" class="st1" width="48" height="20"/>
	<rect id="ADC" x="159" y="53" class="st1" width="48" height="20"/>
	<rect id="I2C" x="159" y="31" class="st1" width="48" height="20"/>
</g>
<g id="Uninitialised" class="st2">
	<rect id="BootFault-Uninitialised" x="9" y="9" class="st3" width="48" height="20"/>
	<rect id="StackOverflow-Uninitialised" x="159" y="9" class="st3" width="48" height="20"/>
	<rect id="SystemConfiguration-Uninitialised" x="9" y="31" class="st3" width="48" height="20"/>
	<rect id="EventSystem-Uninitialised" x="59" y="31" class="st3" width="48" height="20"/>
	<rect id="Stabilization-Uninitialised" x="9" y="97" class="st3" width="48" height="20"/>
	<rect id="Gimbal-Uninitialised" x="159" y="97" class="st3" width="48" height="20"/>
	<rect id="FlightTime-Uninitialised" x="159" y="75" class="st3" width="48" height="20"/>
	<rect id="PathPlanner-Uninitialised" x="9" y="119" class="st3" width="48" height="20"/>
	<rect id="Battery-Uninitialised" x="109" y="75" class="st3" width="48" height="20"/>
	<rect id="PathFollower-Uninitialised" x="59" y="119" class="st3" width="48" height="20"/>
	<rect id="Telemetry-Uninitialised" x="109" y="31" class="st3" width="48" height="20"/>
	<rect id="Attitude-Uninitialised" x="59" y="97" class="st3" width="48" height="20"/>
	<rect id="AltitudeHold-Uninitialised" x="109" y="97" class="st3" width="48" height="20"/>
	<rect id="Geofence-Uninitialised" x="109" y="119" class="st3" width="48" height="20"/>
	<rect id="CPUOverload-Uninitialised" x="59" y="9" class="st3" width="48" height="20"/>
	<rect id="OutOfMemory-Uninitialised" x="109" y="9" class="st3" width="48" height="20"/>
	<rect id="Sensors-Uninitialised" x="9" y="53" class="st3" width="48" height="20"/>
	<rect id="ManualControl-Uninitialised" x="9" y="75" class="st3" width="48" height="20"/>
	<rect id="Actuator-Uninitialised" x="59" y="75" class="st3" width="48" height="20"/>
	<rect id="TempBaro-Uninitialised" x="59" y="53" class="st3" width="48" height="20"/>
	<rect id="GPS-Uninitialised" x="109" y="53" class="st3" width="48" height="20"/>
	<rect id="ADC-Uninitialised" x="159" y="53" class="st3" width="48" height="20"/>
	<rect id="I2C-Uninitialised" x="159" y="31" class="st3" width="48" height="20"/>
</g>
<g id="OK" class="st2">
	<rect id="BootFault-OK" x="9" y="9" class="st4" width="48" height="20"/>
	<rect id="StackOverflow-OK" x="159" y="9" class="st4" width="48" height="20"/>
	<rect id="SystemConfiguration-OK" x="9" y="31" class="st4" width="48" height="20"/>
	<rect id="EventSystem-OK" x="59" y="31" class="st4" width="48" height="20"/>
	<rect id="Stabilization-OK" x="9" y="97" class="st4" width="48" height="20"/>
	<rect id="Gimbal-OK" x="159" y="97" class="st4" width="48" height="20"/>
	<rect id="FlightTime-OK" x="159" y="75" class="st4" width="48" height="20"/>
	<rect id="PathPlanner-OK" x="9" y="119" class="st4" width="48" height="20"/>
	<rect id="Battery-OK" x="109" y="75" class="st4" width="48" height="20"/>
	<rect id="PathFollower-OK" x="59" y="119" class="st4" width="48" height="20"/>
	<rect id="Telemetry-OK" x="109" y="31" class="st4" width="48" height="20"/>
	<rect id="Attitude-OK" x="59" y="97" class="st4" width="48" height="20"/>
	<rect id="AltitudeHold-OK" x="109" y="97" class="st4" width="48" height="20"/>
	<rect id="Geofence-OK" x="109" y="119" class="st4" width="48" height="20"/>
	<rect id="CPUOverload-OK" x="59" y="9" class="st4" width="48" height="20"/>
	<rect id="OutOfMemory-OK" x="109" y="9" class="st4" width="48" height="20"/>
	<rect id="Sensors-OK" x="9" y="53" class="st4" width="48" height="20"/>
	<rect id="ManualControl-OK" x="9" y="75" class="st4" width="48" height="20"/>
	<rect id="Actuator-OK" x="59" y="75" class="st4" width="48" height="20"/>
	<rect id="TempBaro-OK" x="59" y="53" class="st4" width="48" height="20"/>
	<rect id="GPS-OK" x="109" y="53" class="st4" width="48" height="20"/>
	<rect id="ADC-OK" x="159" y="53" class="st4" width="48" height="20"/>
	<rect id="I2C-OK" x="159" y="31" class="st4" width="48" height="20"/>
</g>
<g id="Warning" class="st2">
	<rect id="BootFault-Warning" x="9" y="9" class="st5" width="48" height="20"/>
	<rect id="StackOverflow-Warning" x="159" y="9" class="st5" width="48" height="20"/>
	<rect id="SystemConfiguration-Warning" x="9" y="31" class="st5" width="48" height="20"/>
	<rect id="EventSystem-Warning" x="59" y="31" class="st5" width="48" height="20"/>
	<rect id="Stabilization-Warning" x="9" y="97" class="st5" width="48" height="20"/>
	<rect id="Gimbal-Warning" x="159" y="97" class="st5" width="48" height="20"/>
	<rect id="FlightTime-Warning" x="159" y="75" class="st5" width="48" height="20"/>
	<rect id="PathPlanner-Warning" x="9" y="119" class="st5" width="48" height="20"/>
	<rect id="Battery-Warning" x="109" y="75" class="st5" width="48" height="20"/>
	<rect id="PathFollower-Warning" x="59" y="119" class="st5" width="48" height="20"/>
	<rect id="Telemetry-Warning" x="109" y="31" class="st5" width="48" height="20"/>
	<rect id="Attitude-Warning" x="59" y="97" class="st5" width="48" height="20"/>
	<rect id="AltitudeHold-Warning" x="109" y="97" class="st5" width="48" height="20"/>
	<rect id="Geofence-Warning" x="109" y="119" class="st5" width="48" height="20"/>
	<rect id="CPUOverload-Warning" x="59" y="9" class="st5" width="48" height="20"/>
	<rect id="OutOfMemory-Warning" x="109" y="9" class="st5" width="48" height="20"/>
	<rect id="Sensors-Warning" x="9" y="53" class="st5" width="48" height="20"/>
	<rect id="ManualControl-Warning" x="9" y="75" class="st5" width="48" height="20"/>
	<rect id="Actuator-Warning" x="59" y="75" class="st5" width="48" height="20"/>
	<rect id="TempBaro-Warning" x="59" y="53" class="st5" width="48" height="20"/>
	<rect id="GPS-Warning" x="109" y="53" class="st5" width="48" height="20"/>
	<rect id="ADC-Warning" x="159" y="53" class="st5" width="48" height="20"/>
	<rect id="I2C-Warning" x="159" y="31" class="st5" width="48" height="20"/>
</g>
<g id="Critical" class="st2">
	<rect id="BootFault-Critical" x="9" y="9" class="st6" width="48" height="20"/>
	<rect id="StackOverflow-Critical" x="159" y="9" class="st6" width="48" height="20"/>
	<rect id="SystemConfiguration-Critical" x="9" y="31" class="st6" width="48" height="20"/>
	<rect id="EventSystem-Critical" x="59" y="31" class="st6" width="48" height="20"/>
	<rect id="Stabilization-Critical" x="9" y="97" class="st6" width="48" height="20"/>
	<rect id="Gimbal-Critical" x="159" y="97" class="st6" width="48" height="20"/>
	<rect id="FlightTime-Critical" x="159" y="75" class="st6" width="48" height="20"/>
	<rect id="PathPlanner-Critical" x="9" y="119" class="st6" width="48" height="20"/>
	<rect id="Battery-Critical" x="109" y="75" class="st6" width="48" height="20"/>
	<rect id="PathFollower-Critical" x="59" y="119" class="st6" width="48" height="20"/>
	<rect id="Telemetry-Critical" x="109" y="31" class="st6" width="48" height="20"/>
	<rect id="Attitude-Critical" x="59" y="97" class="st6" width="48" height="20"/>
	<rect id="AltitudeHold-Critical" x="109" y="97" class="st6" width="48" height="20"/>
	<rect id="Geofence-Critical" x="109" y="119" class="st6" width="48" height="20"/>
	<rect id="CPUOverload-Critical" x="59" y="9" class="st6" width="48" height="20"/>
	<rect id="OutOfMemory-Critical" x="109" y="9" class="st6" width="48" height="20"/>
	<rect id="Sensors-Critical" x="9" y="53" class="st6" width="48" height="20"/>
	<rect id="ManualControl-Critical" x="9" y="75" class="st6" width="48" height="20"/>
	<rect id="Actuator-Critical" x="59" y="75" class="st6" width="48" height="20"/>
	<rect id="TempBaro-Critical" x="59" y="53" class="st6" width="48" height="20"/>
	<rect id="GPS-Critical" x="109" y="53" class="st6" width="48" height="20"/>
	<rect id="ADC-Critical" x="159" y="53" class="st6" width="48" height="20"/>
	<rect id="I2C-Critical" x="159" y="31" class="st6" width="48" height="20"/>
</g>
<g id="Error" class="st2">
	<g id="BootFault-Error" class="st7">
		<polygon class="st8" points="57,29 57,26.87 54.87,29 		"/>
		<polygon class="st8" points="50.26,20.61 41.87,29 48.94,29 52.03,25.91 52.04,25.91 57,20.95 57,13.88 50.26,20.62 		"/>
		<polygon class="st8" points="37.26,20.61 28.87,29 35.94,29 39.03,25.91 39.04,25.91 55.95,9 48.88,9 37.26,20.62 		"/>
		<polygon class="st8" points="24.26,20.61 15.87,29 22.94,29 26.03,25.91 26.04,25.91 42.95,9 35.88,9 24.26,20.62 		"/>
		<polygon class="st8" points="11.26,20.61 9,22.87 9,29 9.94,29 13.03,25.91 13.04,25.91 29.95,9 22.88,9 11.26,20.62 		"/>
		<polygon class="st8" points="9,16.95 16.95,9 9.88,9 9,9.88 		"/>
	</g>
	<g id="StackOverflow-Error" class="st7">
		<polygon class="st8" points="206.26,20.61 197.87,29 204.94,29 207,26.94 207,19.88 206.26,20.62 		"/>
		<polygon class="st8" points="193.26,20.61 184.87,29 191.94,29 195.03,25.91 195.04,25.91 207,13.95 207,9 204.88,9 193.26,20.62 
					"/>
		<polygon class="st8" points="180.26,20.61 171.87,29 178.94,29 182.03,25.91 182.04,25.91 198.95,9 191.88,9 180.26,20.62 		"/>
		<polygon class="st8" points="167.26,20.61 159,28.87 159,29 165.94,29 169.03,25.91 169.04,25.91 185.95,9 178.88,9 167.26,20.62 
					"/>
		<polygon class="st8" points="159,22.95 172.95,9 165.88,9 159,15.88 		"/>
		<polygon class="st8" points="159,9.95 159.95,9 159,9 		"/>
	</g>
	<g id="SystemConfiguration-Error" class="st7">
		<polygon class="st8" points="52.94,51 57,46.94 57,39.87 45.87,51 		"/>
		<polygon class="st8" points="39.94,51 57,33.94 57,31 52.87,31 32.87,51 		"/>
		<polygon class="st8" points="26.94,51 46.94,31 39.87,31 19.87,51 		"/>
		<polygon class="st8" points="9,51 13.94,51 33.94,31 26.87,31 9,48.87 		"/>
		<polygon class="st8" points="9,42.94 20.94,31 13.87,31 9,35.87 		"/>
	</g>
	<g id="EventSystem-Error" class="st7">
		<polygon class="st8" points="104.94,51 107,48.94 107,41.87 97.87,51 		"/>
		<polygon class="st8" points="91.94,51 107,35.94 107,31 104.87,31 84.87,51 		"/>
		<polygon class="st8" points="78.94,51 98.94,31 91.87,31 71.87,51 		"/>
		<polygon class="st8" points="59,51 65.94,51 85.94,31 78.87,31 59,50.87 		"/>
		<polygon class="st8" points="59,44.94 72.94,31 65.87,31 59,37.87 		"/>
		<polygon class="st8" points="59,31.94 59.94,31 59,31 		"/>
	</g>
	<g id="Stabilization-Error" class="st7">
		<polygon class="st8" points="51.94,117 57,111.94 57,104.87 44.87,117 		"/>
		<polygon class="st8" points="38.94,117 57,98.94 57,97 51.87,97 31.87,117 		"/>
		<polygon class="st8" points="45.94,97 38.87,97 18.87,117 25.94,117 		"/>
		<polygon class="st8" points="25.87,97 9,113.87 9,117 12.94,117 32.94,97 		"/>
		<polygon class="st8" points="12.87,97 9,100.87 9,107.94 19.94,97 		"/>
	</g>
	<g id="Gimbal-Error" class="st7">
		<polygon class="st8" points="207,117 207,110.87 200.87,117 		"/>
		<polygon class="st8" points="194.94,117 207,104.94 207,97.87 187.87,117 		"/>
		<polygon class="st8" points="181.94,117 201.94,97 194.87,97 174.87,117 		"/>
		<polygon class="st8" points="168.94,117 188.94,97 181.87,97 161.87,117 		"/>
		<polygon class="st8" points="159,113.94 175.94,97 168.87,97 159,106.87 		"/>
		<polygon class="st8" points="159,100.94 162.94,97 159,97 		"/>
	</g>
	<g id="FlightTime-Error" class="st7">
		<polygon class="st8" points="203.94,95 207,91.94 207,84.87 196.87,95 		"/>
		<polygon class="st8" points="190.94,95 207,78.94 207,75 203.87,75 183.87,95 		"/>
		<polygon class="st8" points="177.94,95 197.94,75 190.87,75 170.87,95 		"/>
		<polygon class="st8" points="159,95 164.94,95 184.94,75 177.87,75 159,93.87 		"/>
		<polygon class="st8" points="159,87.94 171.94,75 164.87,75 159,80.87 		"/>
	</g>
	<g id="PathPlanner-Error" class="st7">
		<polygon class="st8" points="57,130.83 48.83,139 55.9,139 57,137.9 		"/>
		<polygon class="st8" points="57,119 55.83,119 35.83,139 42.9,139 57,124.9 		"/>
		<polygon class="st8" points="16.9,139 32.53,123.36 32.55,123.39 36.94,119 29.83,119 9.83,139 		"/>
		<polygon class="st8" points="19.53,123.36 19.55,123.39 23.94,119 16.83,119 9,126.83 9,133.9 		"/>
		<polygon class="st8" points="42.83,119 22.83,139 29.9,139 45.53,123.36 45.55,123.39 49.94,119 		"/>
		<polygon class="st8" points="9,119 9,120.94 10.94,119 		"/>
	</g>
	<g id="Battery-Error" class="st7">
		<polygon class="st8" points="151.94,95 157,89.94 157,82.87 144.87,95 		"/>
		<polygon class="st8" points="138.94,95 157,76.94 157,75 151.87,75 131.87,95 		"/>
		<polygon class="st8" points="125.94,95 145.94,75 138.87,75 118.87,95 		"/>
		<polygon class="st8" points="109,95 112.94,95 132.94,75 125.87,75 109,91.87 		"/>
		<polygon class="st8" points="119.94,75 112.87,75 109,78.87 109,85.94 		"/>
	</g>
	<g id="PathFollower-Error" class="st7">
		<polygon class="st8" points="107,139 107,132.83 100.83,139 		"/>
		<polygon class="st8" points="94.9,139 107,126.9 107,119.83 87.83,139 		"/>
		<polygon class="st8" points="94.83,119 74.83,139 81.9,139 97.53,123.36 97.55,123.39 101.94,119 		"/>
		<polygon class="st8" points="81.83,119 61.83,139 68.9,139 84.53,123.36 84.55,123.39 88.94,119 		"/>
		<polygon class="st8" points="68.83,119 59,128.83 59,135.9 71.53,123.36 71.55,123.39 75.94,119 		"/>
		<polygon class="st8" points="59,122.94 62.94,119 59,119 		"/>
	</g>
	<g id="Telemetry-Error" class="st7">
		<polygon class="st8" points="156.94,51 157,50.94 157,43.87 149.87,51 		"/>
		<polygon class="st8" points="143.94,51 157,37.94 157,31 156.87,31 136.87,51 		"/>
		<polygon class="st8" points="130.94,51 150.94,31 143.87,31 123.87,51 		"/>
		<polygon class="st8" points="117.94,51 137.94,31 130.87,31 110.87,51 		"/>
		<polygon class="st8" points="109,46.94 124.94,31 117.87,31 109,39.87 		"/>
		<polygon class="st8" points="109,33.94 111.94,31 109,31 		"/>
	</g>
	<g id="Attitude-Error" class="st7">
		<polygon class="st8" points="103.94,117 107,113.94 107,106.87 96.87,117 		"/>
		<polygon class="st8" points="90.94,117 107,100.94 107,97 103.87,97 83.87,117 		"/>
		<polygon class="st8" points="77.94,117 97.94,97 90.87,97 70.87,117 		"/>
		<polygon class="st8" points="59,117 64.94,117 84.94,97 77.87,97 59,115.87 		"/>
		<polygon class="st8" points="59,109.94 71.94,97 64.87,97 59,102.87 		"/>
	</g>
	<g id="AltitudeHold-Error" class="st7">
		<polygon class="st8" points="155.94,117 157,115.94 157,108.87 148.87,117 		"/>
		<polygon class="st8" points="142.94,117 157,102.94 157,97 155.87,97 135.87,117 		"/>
		<polygon class="st8" points="129.94,117 149.94,97 142.87,97 122.87,117 		"/>
		<polygon class="st8" points="116.94,117 136.94,97 129.87,97 109.87,117 		"/>
		<polygon class="st8" points="109,111.94 123.94,97 116.87,97 109,104.87 		"/>
		<polygon class="st8" points="109,98.94 110.94,97 109,97 		"/>
	</g>
	<g id="Geofence-Error" class="st7">
		<polygon class="st8" points="157,139 157,134.83 152.83,139 		"/>
		<polygon class="st8" points="146.9,139 157,128.9 157,121.83 139.83,139 		"/>
		<polygon class="st8" points="146.83,119 126.83,139 133.9,139 149.53,123.36 149.55,123.39 153.94,119 		"/>
		<polygon class="st8" points="133.83,119 113.83,139 120.9,139 136.53,123.36 136.55,123.39 140.94,119 		"/>
		<polygon class="st8" points="120.83,119 109,130.83 109,137.9 123.53,123.36 123.55,123.39 127.94,119 		"/>
		<polygon class="st8" points="109,119 109,124.9 110.53,123.36 110.55,123.39 114.94,119 		"/>
	</g>
	<g id="CPUOverload-Error" class="st7">
		<polygon class="st8" points="107,29 107,28.87 106.87,29 		"/>
		<polygon class="st8" points="102.26,20.61 93.87,29 100.94,29 104.03,25.91 104.04,25.91 107,22.95 107,15.88 102.26,20.62 		"/>
		<polygon class="st8" points="89.26,20.61 80.87,29 87.94,29 91.03,25.91 91.04,25.91 107,9.95 107,9 100.88,9 89.26,20.62 		"/>
		<polygon class="st8" points="76.26,20.61 67.87,29 74.94,29 78.03,25.91 78.04,25.91 94.95,9 87.88,9 76.26,20.62 		"/>
		<polygon class="st8" points="63.26,20.61 59,24.87 59,29 61.94,29 65.03,25.91 65.04,25.91 81.95,9 74.88,9 63.26,20.62 		"/>
		<polygon class="st8" points="59,18.95 68.95,9 61.88,9 59,11.88 		"/>
	</g>
	<g id="OutOfMemory-Error" class="st7">
		<polygon class="st8" points="154.26,20.61 145.87,29 152.94,29 156.03,25.91 156.04,25.91 157,24.95 157,17.88 154.26,20.62 		"/>
		<polygon class="st8" points="141.26,20.61 132.87,29 139.94,29 143.03,25.91 143.04,25.91 157,11.95 157,9 152.88,9 141.26,20.62 
					"/>
		<polygon class="st8" points="128.26,20.61 119.87,29 126.94,29 130.03,25.91 130.04,25.91 146.95,9 139.88,9 128.26,20.62 		"/>
		<polygon class="st8" points="115.26,20.61 109,26.87 109,29 113.94,29 117.03,25.91 117.04,25.91 133.95,9 126.88,9 115.26,20.62 
					"/>
		<polygon class="st8" points="109,20.95 120.95,9 113.88,9 109,13.88 		"/>
	</g>
	<g id="Sensors-Error" class="st7">
		<polygon class="st8" points="53.52,69.35 49.87,73 56.94,73 57,72.94 57,65.87 53.52,69.35 		"/>
		<polygon class="st8" points="40.52,69.35 36.87,73 43.94,73 57,59.94 57,53 56.87,53 40.52,69.35 		"/>
		<polygon class="st8" points="27.52,69.35 23.87,73 30.94,73 50.94,53 43.87,53 27.52,69.35 		"/>
		<polygon class="st8" points="14.52,69.35 10.87,73 17.94,73 37.94,53 30.87,53 14.52,69.35 		"/>
		<polygon class="st8" points="9,68.94 24.94,53 17.87,53 9,61.87 		"/>
		<polygon class="st8" points="9,55.94 11.94,53 9,53 		"/>
	</g>
	<g id="ManualControl-Error" class="st7">
		<polygon class="st8" points="57,95 57,91.87 53.87,95 		"/>
		<polygon class="st8" points="57,85.94 57,78.87 40.87,95 47.94,95 		"/>
		<polygon class="st8" points="47.87,75 27.87,95 34.94,95 54.94,75 		"/>
		<polygon class="st8" points="34.87,75 14.87,95 21.94,95 41.94,75 		"/>
		<polygon class="st8" points="21.87,75 9,87.87 9,94.94 28.94,75 		"/>
		<polygon class="st8" points="9,75 9,81.94 15.94,75 		"/>
	</g>
	<g id="Actuator-Error" class="st7">
		<polygon class="st8" points="107,95 107,93.87 105.87,95 		"/>
		<polygon class="st8" points="99.94,95 107,87.94 107,80.87 92.87,95 		"/>
		<polygon class="st8" points="86.94,95 106.94,75 99.87,75 79.87,95 		"/>
		<polygon class="st8" points="73.94,95 93.94,75 86.87,75 66.87,95 		"/>
		<polygon class="st8" points="59,95 60.94,95 80.94,75 73.87,75 59,89.87 		"/>
		<polygon class="st8" points="67.94,75 60.87,75 59,76.87 59,83.94 		"/>
	</g>
	<g id="TempBaro-Error" class="st7">
		<polygon class="st8" points="105.52,69.35 101.87,73 107,73 107,67.87 105.52,69.35 		"/>
		<polygon class="st8" points="92.52,69.35 88.87,73 95.94,73 107,61.94 107,54.87 92.52,69.35 		"/>
		<polygon class="st8" points="79.52,69.35 75.87,73 82.94,73 102.94,53 95.87,53 79.52,69.35 		"/>
		<polygon class="st8" points="66.52,69.35 62.87,73 69.94,73 89.94,53 82.87,53 66.52,69.35 		"/>
		<polygon class="st8" points="59,70.94 76.94,53 69.87,53 59,63.87 		"/>
		<polygon class="st8" points="59,57.94 63.94,53 59,53 		"/>
	</g>
	<g id="GPS-Error" class="st7">
		<polygon class="st8" points="157,69.87 153.87,73 157,73 		"/>
		<polygon class="st8" points="144.52,69.35 140.87,73 147.94,73 157,63.94 157,56.87 144.52,69.35 		"/>
		<polygon class="st8" points="131.52,69.35 127.87,73 134.94,73 154.94,53 147.87,53 131.52,69.35 		"/>
		<polygon class="st8" points="118.52,69.35 114.87,73 121.94,73 141.94,53 134.87,53 118.52,69.35 		"/>
		<polygon class="st8" points="109,72.94 128.94,53 121.87,53 109,65.87 		"/>
		<polygon class="st8" points="109,59.94 115.94,53 109,53 		"/>
	</g>
	<g id="ADC-Error" class="st7">
		<polygon class="st8" points="207,73 207,71.87 205.87,73 		"/>
		<polygon class="st8" points="196.52,69.35 192.87,73 199.94,73 207,65.94 207,58.87 196.52,69.35 		"/>
		<polygon class="st8" points="183.52,69.35 179.87,73 186.94,73 206.94,53 199.87,53 183.52,69.35 		"/>
		<polygon class="st8" points="170.52,69.35 166.87,73 173.94,73 193.94,53 186.87,53 170.52,69.35 		"/>
		<polygon class="st8" points="159,73 160.94,73 180.94,53 173.87,53 159,67.87 		"/>
		<polygon class="st8" points="159,61.94 167.94,53 160.87,53 159,54.87 		"/>
	</g>
	<g id="I2C-Error" class="st7">
		<polygon class="st8" points="207,51 207,45.87 201.87,51 		"/>
		<polygon class="st8" points="195.94,51 207,39.94 207,32.87 188.87,51 		"/>
		<polygon class="st8" points="182.94,51 202.94,31 195.87,31 175.87,51 		"/>
		<polygon class="st8" points="169.94,51 189.94,31 182.87,31 162.87,51 		"/>
		<polygon class="st8" points="159,48.94 176.94,31 169.87,31 159,41.87 		"/>
		<polygon class="st8" points="159,35.94 163.94,31 159,31 		"/>
	</g>
</g>
<g id="foreground">
	<rect class="st9" width="216" height="148"/>
	<g>
		<path class="st10" d="M25.54,17.81c0,0.58-0.38,1.06-0.97,1.21c0.71,0.14,1.15,0.7,1.15,1.42c0,0.96-0.84,1.56-2.16,1.56h-2.77
			v-5.6h2.66C24.73,16.4,25.54,16.95,25.54,17.81z M24.03,18.07c0-0.34-0.25-0.54-0.66-0.53h-1.12v1.09h1.12
			C23.78,18.63,24.03,18.42,24.03,18.07z M24.21,20.26c0-0.35-0.32-0.58-0.83-0.57h-1.12v1.18h1.12
			C23.89,20.86,24.21,20.64,24.21,20.26z"/>
		<path class="st10" d="M32.22,19.19c0,1.66-1.3,2.92-3.03,2.92c-1.74,0-3.03-1.25-3.03-2.92c0-1.66,1.29-2.88,3.03-2.88
			C30.93,16.31,32.22,17.54,32.22,19.19z M27.67,19.19c0,0.94,0.71,1.66,1.54,1.66c0.84,0,1.51-0.72,1.51-1.66
			c0-0.94-0.67-1.65-1.51-1.65C28.37,17.55,27.67,18.26,27.67,19.19z"/>
		<path class="st10" d="M38.56,19.19c0,1.66-1.3,2.92-3.03,2.92c-1.74,0-3.03-1.25-3.03-2.92c0-1.66,1.29-2.88,3.03-2.88
			C37.26,16.31,38.56,17.54,38.56,19.19z M34,19.19c0,0.94,0.71,1.66,1.54,1.66c0.84,0,1.51-0.72,1.51-1.66
			c0-0.94-0.67-1.65-1.51-1.65C34.71,17.55,34,18.26,34,19.19z"/>
		<path class="st10" d="M43.42,16.4v1.21h-1.68V22h-1.46v-4.4h-1.66V16.4H43.42z"/>
	</g>
	<g>
		<path class="st10" d="M172.85,17.48c-0.35,0-0.58,0.13-0.58,0.39c0,0.96,2.95,0.42,2.95,2.46c0,1.15-1.01,1.75-2.25,1.75
			c-0.94,0-1.91-0.35-2.58-0.91l0.57-1.14c0.58,0.51,1.45,0.86,2.03,0.86c0.43,0,0.7-0.16,0.7-0.47c0-0.98-2.95-0.39-2.95-2.41
			c0-1.06,0.89-1.73,2.24-1.73c0.82,0,1.65,0.26,2.24,0.63l-0.55,1.17C174.06,17.74,173.31,17.48,172.85,17.48z"/>
		<path class="st10" d="M180.28,16.4v1.21h-1.68V22h-1.46v-4.4h-1.66V16.4H180.28z"/>
		<path class="st10" d="M184.01,21.01h-2.42L181.19,22h-1.5l2.41-5.6h1.5l2.35,5.6h-1.56L184.01,21.01z M183.58,19.89l-0.77-2
			l-0.78,2H183.58z"/>
		<path class="st10" d="M188.97,17.55c-0.86,0-1.52,0.7-1.52,1.62c0,0.92,0.66,1.62,1.52,1.62c0.46,0,1-0.26,1.39-0.66l0.86,0.92
			c-0.6,0.63-1.5,1.05-2.33,1.05c-1.69,0-2.94-1.26-2.94-2.92c0-1.65,1.29-2.88,3-2.88c0.83,0,1.7,0.38,2.26,0.97l-0.85,1.02
			C189.99,17.83,189.46,17.55,188.97,17.55z"/>
		<path class="st10" d="M195.48,22l-1.47-2.17l-0.7,0.78V22h-1.46v-5.6h1.46v2.43l2.1-2.43h1.69l-2.08,2.31l2.21,3.29H195.48z"/>
	</g>
	<g>
		<path class="st10" d="M20.46,39.55c-0.86,0-1.52,0.7-1.52,1.62c0,0.92,0.66,1.62,1.52,1.62c0.46,0,1-0.26,1.39-0.66l0.86,0.92
			c-0.6,0.63-1.5,1.05-2.33,1.05c-1.69,0-2.94-1.26-2.94-2.92c0-1.65,1.29-2.88,3-2.88c0.83,0,1.7,0.38,2.26,0.97l-0.85,1.02
			C21.48,39.83,20.94,39.55,20.46,39.55z"/>
		<path class="st10" d="M28.94,41.19c0,1.66-1.3,2.92-3.03,2.92c-1.74,0-3.03-1.25-3.03-2.92c0-1.66,1.29-2.88,3.03-2.88
			C27.64,38.31,28.94,39.54,28.94,41.19z M24.38,41.19c0,0.94,0.71,1.66,1.54,1.66c0.84,0,1.51-0.72,1.51-1.66
			c0-0.94-0.67-1.65-1.51-1.65C25.08,39.55,24.38,40.26,24.38,41.19z"/>
		<path class="st10" d="M34.85,38.4V44h-1.28l-2.54-3.35V44h-1.37v-5.6h1.29l2.55,3.37L33.5,38.4H34.85z"/>
		<path class="st10" d="M40.14,38.4l-0.01,1.17h-2.72v1.25h2.51v1.17h-2.51V44h-1.46v-5.6H40.14z"/>
		<path class="st10" d="M42.27,38.4V44h-1.46v-5.6H42.27z"/>
		<path class="st10" d="M47.07,41.14h1.26v2.23c-0.6,0.43-1.55,0.74-2.33,0.74c-1.71,0-3-1.25-3-2.91c0-1.65,1.32-2.89,3.09-2.89
			c0.84,0,1.73,0.33,2.3,0.84l-0.83,1.02c-0.4-0.38-0.97-0.62-1.48-0.62c-0.9,0-1.58,0.71-1.58,1.65c0,0.95,0.69,1.66,1.6,1.66
			c0.28,0,0.63-0.1,0.97-0.27V41.14z"/>
	</g>
	<g>
		<path class="st10" d="M74.22,38.4v1.17h-2.96v1.05h2.67v1.16l-2.67,0.01v1.06h3.04V44h-4.5v-5.6H74.22z"/>
		<path class="st10" d="M76.21,38.4l1.4,4.05l1.41-4.05h1.5L78.33,44h-1.52l-2.17-5.6H76.21z"/>
		<path class="st10" d="M85.47,38.4v1.17h-2.96v1.05h2.67v1.16l-2.67,0.01v1.06h3.04V44h-4.5v-5.6H85.47z"/>
		<path class="st10" d="M91.64,38.4V44h-1.28l-2.54-3.35V44h-1.37v-5.6h1.29l2.55,3.37l-0.01-3.37H91.64z"/>
		<path class="st10" d="M97.06,38.4v1.21h-1.68V44h-1.46v-4.4h-1.66V38.4H97.06z"/>
	</g>
	<g>
		<path class="st10" d="M24.85,105.48c-0.35,0-0.58,0.13-0.58,0.39c0,0.96,2.95,0.42,2.95,2.46c0,1.15-1.01,1.75-2.25,1.75
			c-0.94,0-1.91-0.35-2.58-0.91l0.57-1.14c0.58,0.51,1.45,0.86,2.03,0.86c0.43,0,0.7-0.16,0.7-0.47c0-0.98-2.95-0.39-2.95-2.41
			c0-1.06,0.89-1.73,2.24-1.73c0.82,0,1.65,0.26,2.24,0.63l-0.55,1.17C26.06,105.74,25.31,105.48,24.85,105.48z"/>
		<path class="st10" d="M32.28,104.4v1.21H30.6v4.4h-1.46v-4.4h-1.66v-1.21H32.28z"/>
		<path class="st10" d="M36.01,109.01h-2.42L33.19,110h-1.5l2.41-5.6h1.5l2.35,5.6h-1.56L36.01,109.01z M35.58,107.89l-0.77-2
			l-0.78,2H35.58z"/>
		<path class="st10" d="M43.2,105.81c0,0.58-0.38,1.06-0.97,1.21c0.71,0.14,1.15,0.7,1.15,1.42c0,0.96-0.84,1.56-2.16,1.56h-2.77
			v-5.6h2.66C42.39,104.4,43.2,104.95,43.2,105.81z M41.7,106.07c0-0.34-0.25-0.54-0.66-0.53h-1.12v1.09h1.12
			C41.45,106.63,41.7,106.42,41.7,106.07z M41.87,108.26c0-0.35-0.32-0.58-0.83-0.57h-1.12v1.18h1.12
			C41.55,108.86,41.87,108.64,41.87,108.26z"/>
	</g>
	<g>
		<path class="st10" d="M78.53,109.01H76.1L75.71,110h-1.5l2.41-5.6h1.5l2.35,5.6h-1.56L78.53,109.01z M78.1,107.89l-0.77-2l-0.78,2
			H78.1z"/>
		<path class="st10" d="M84.7,104.4v1.21h-1.68v4.4h-1.46v-4.4h-1.66v-1.21H84.7z"/>
		<path class="st10" d="M89.61,104.4v1.21h-1.68v4.4h-1.46v-4.4H84.8v-1.21H89.61z"/>
		<path class="st10" d="M91.67,104.4v5.6H90.2v-5.6H91.67z"/>
	</g>
	<g>
		<path class="st10" d="M125.53,109.01h-2.42l-0.39,0.99h-1.5l2.41-5.6h1.5l2.35,5.6h-1.56L125.53,109.01z M125.1,107.89l-0.77-2
			l-0.78,2H125.1z"/>
		<path class="st10" d="M129.44,104.4v4.36h2.37V110h-3.84v-5.6H129.44z"/>
		<path class="st10" d="M136.8,104.4v1.21h-1.68v4.4h-1.46v-4.4h-1.66v-1.21H136.8z"/>
		<path class="st10" d="M138.07,109.37c0,0.41-0.29,0.7-0.69,0.7c-0.4,0-0.68-0.29-0.68-0.7c0-0.41,0.28-0.69,0.68-0.69
			C137.79,108.68,138.07,108.96,138.07,109.37z"/>
		<path class="st10" d="M140.38,104.4v2.29h2.26v-2.29h1.46v5.6h-1.46v-2.15h-2.26V110h-1.46v-5.6H140.38z"/>
	</g>
	<g>
		<path class="st10" d="M124.98,126.4l-0.01,1.17h-2.72v1.25h2.51v1.17h-2.51V132h-1.46v-5.6H124.98z"/>
		<path class="st10" d="M130.07,126.4v1.17h-2.96v1.05h2.67v1.16l-2.67,0.01v1.06h3.04V132h-4.5v-5.6H130.07z"/>
		<path class="st10" d="M136.24,126.4v5.6h-1.28l-2.54-3.35V132h-1.37v-5.6h1.29l2.55,3.37l-0.01-3.37H136.24z"/>
		<path class="st10" d="M140,127.55c-0.86,0-1.52,0.7-1.52,1.62c0,0.92,0.66,1.62,1.52,1.62c0.46,0,1-0.26,1.39-0.66l0.86,0.92
			c-0.6,0.63-1.5,1.05-2.33,1.05c-1.69,0-2.94-1.26-2.94-2.92c0-1.65,1.29-2.88,3-2.88c0.83,0,1.7,0.38,2.26,0.97l-0.85,1.02
			C141.02,127.83,140.49,127.55,140,127.55z"/>
		<path class="st10" d="M147.3,126.4v1.17h-2.96v1.05h2.67v1.16l-2.67,0.01v1.06h3.04V132h-4.5v-5.6H147.3z"/>
	</g>
	<g>
		<path class="st10" d="M171.5,107.14h1.26v2.23c-0.6,0.43-1.55,0.74-2.33,0.74c-1.71,0-3-1.25-3-2.91c0-1.65,1.32-2.89,3.09-2.89
			c0.84,0,1.73,0.33,2.3,0.84l-0.83,1.02c-0.4-0.38-0.97-0.62-1.48-0.62c-0.9,0-1.58,0.71-1.58,1.65c0,0.95,0.69,1.66,1.6,1.66
			c0.28,0,0.63-0.1,0.97-0.27V107.14z"/>
		<path class="st10" d="M175.2,104.4v5.6h-1.46v-5.6H175.2z"/>
		<path class="st10" d="M177.88,104.4l1.62,3.28l1.62-3.28h1.59v5.6h-1.3l-0.01-3.55l-1.43,2.99h-0.94l-1.44-2.99V110h-1.3v-5.6
			H177.88z"/>
		<path class="st10" d="M188.54,105.81c0,0.58-0.38,1.06-0.97,1.21c0.71,0.14,1.15,0.7,1.15,1.42c0,0.96-0.84,1.56-2.16,1.56h-2.77
			v-5.6h2.66C187.74,104.4,188.54,104.95,188.54,105.81z M187.04,106.07c0-0.34-0.25-0.54-0.66-0.53h-1.12v1.09h1.12
			C186.79,106.63,187.04,106.42,187.04,106.07z M187.22,108.26c0-0.35-0.32-0.58-0.83-0.57h-1.12v1.18h1.12
			C186.9,108.86,187.22,108.64,187.22,108.26z"/>
		<path class="st10" d="M193.26,109.01h-2.42l-0.39,0.99h-1.5l2.41-5.6h1.5l2.35,5.6h-1.56L193.26,109.01z M192.83,107.89l-0.77-2
			l-0.78,2H192.83z"/>
		<path class="st10" d="M197.18,104.4v4.36h2.38V110h-3.84v-5.6H197.18z"/>
	</g>
	<g>
		<path class="st10" d="M178.11,82.4v1.21h-1.68V88h-1.46v-4.4h-1.66V82.4H178.11z"/>
		<path class="st10" d="M180.17,82.4V88h-1.46v-5.6H180.17z"/>
		<path class="st10" d="M182.85,82.4l1.62,3.28l1.62-3.28h1.59V88h-1.3l-0.01-3.55l-1.43,2.99H184l-1.44-2.99V88h-1.3v-5.6H182.85z"
			/>
		<path class="st10" d="M193.19,82.4v1.17h-2.96v1.05h2.67v1.16l-2.67,0.01v1.06h3.04V88h-4.5v-5.6H193.19z"/>
	</g>
	<g>
		<path class="st10" d="M24.51,128.36c0,1.32-0.82,2.09-2.25,2.09h-1V132h-1.46v-5.6h2.46C23.69,126.4,24.51,127.11,24.51,128.36z
			 M23.12,128.41c0-0.55-0.34-0.85-0.94-0.85h-0.93v1.72h0.93C22.78,129.28,23.12,128.98,23.12,128.41z"/>
		<path class="st10" d="M26,131.37c0,0.41-0.29,0.7-0.69,0.7c-0.4,0-0.68-0.29-0.68-0.7c0-0.41,0.28-0.69,0.68-0.69
			C25.71,130.68,26,130.96,26,131.37z"/>
		<path class="st10" d="M31.56,128.36c0,1.32-0.82,2.09-2.25,2.09h-1V132h-1.46v-5.6h2.46C30.74,126.4,31.56,127.11,31.56,128.36z
			 M30.17,128.41c0-0.55-0.34-0.85-0.94-0.85H28.3v1.72h0.93C29.82,129.28,30.17,128.98,30.17,128.41z"/>
		<path class="st10" d="M33.74,126.4v4.36h2.37V132h-3.84v-5.6H33.74z"/>
		<path class="st10" d="M40.54,131.01h-2.42L37.73,132h-1.5l2.41-5.6h1.5l2.35,5.6h-1.56L40.54,131.01z M40.11,129.89l-0.77-2
			l-0.78,2H40.11z"/>
		<path class="st10" d="M48.18,126.4v5.6H46.9l-2.54-3.35V132h-1.37v-5.6h1.29l2.55,3.37l-0.01-3.37H48.18z"/>
	</g>
	<g>
		<path class="st10" d="M127.54,83.81c0,0.58-0.38,1.06-0.97,1.21c0.71,0.14,1.15,0.7,1.15,1.42c0,0.96-0.84,1.56-2.16,1.56h-2.77
			v-5.6h2.66C126.73,82.4,127.54,82.95,127.54,83.81z M126.03,84.07c0-0.34-0.25-0.54-0.66-0.53h-1.12v1.09h1.12
			C125.78,84.63,126.03,84.42,126.03,84.07z M126.21,86.26c0-0.35-0.32-0.58-0.83-0.57h-1.12v1.18h1.12
			C125.89,86.86,126.21,86.64,126.21,86.26z"/>
		<path class="st10" d="M132.26,87.01h-2.42L129.44,88h-1.5l2.41-5.6h1.5l2.35,5.6h-1.56L132.26,87.01z M131.82,85.89l-0.77-2
			l-0.78,2H131.82z"/>
		<path class="st10" d="M138.42,82.4v1.21h-1.68V88h-1.46v-4.4h-1.66V82.4H138.42z"/>
		<path class="st10" d="M143.34,82.4v1.21h-1.68V88h-1.46v-4.4h-1.66V82.4H143.34z"/>
	</g>
	<g>
		<path class="st10" d="M73.51,128.36c0,1.32-0.82,2.09-2.25,2.09h-1V132h-1.46v-5.6h2.46C72.69,126.4,73.51,127.11,73.51,128.36z
			 M72.12,128.41c0-0.55-0.34-0.85-0.94-0.85h-0.93v1.72h0.93C71.78,129.28,72.12,128.98,72.12,128.41z"/>
		<path class="st10" d="M75,131.37c0,0.41-0.29,0.7-0.69,0.7c-0.4,0-0.68-0.29-0.68-0.7c0-0.41,0.28-0.69,0.68-0.69
			C74.71,130.68,75,130.96,75,131.37z"/>
		<path class="st10" d="M80.03,126.4l-0.01,1.17H77.3v1.25h2.51v1.17H77.3V132h-1.46v-5.6H80.03z"/>
		<path class="st10" d="M86.4,129.19c0,1.66-1.3,2.92-3.03,2.92c-1.74,0-3.03-1.25-3.03-2.92c0-1.66,1.29-2.88,3.03-2.88
			C85.1,126.31,86.4,127.54,86.4,129.19z M81.84,129.19c0,0.94,0.71,1.66,1.54,1.66c0.84,0,1.51-0.72,1.51-1.66
			c0-0.94-0.67-1.65-1.51-1.65C82.54,127.55,81.84,128.26,81.84,129.19z"/>
		<path class="st10" d="M88.59,126.4v4.36h2.37V132h-3.84v-5.6H88.59z"/>
		<path class="st10" d="M100,126.4l-1.9,5.6h-1.5l-1.06-3.81L94.46,132h-1.5l-1.89-5.6h1.58l1.1,4.09l1.1-4.09h1.43l1.12,4.09
			l1.1-4.09H100z"/>
	</g>
	<g>
		<path class="st10" d="M124.11,38.4v1.21h-1.68V44h-1.46v-4.4h-1.66V38.4H124.11z"/>
		<path class="st10" d="M129.13,38.4v1.17h-2.96v1.05h2.67v1.16l-2.67,0.01v1.06h3.04V44h-4.5v-5.6H129.13z"/>
		<path class="st10" d="M131.57,38.4v4.36h2.37V44h-3.84v-5.6H131.57z"/>
		<path class="st10" d="M139.03,38.4v1.17h-2.96v1.05h2.67v1.16l-2.67,0.01v1.06h3.04V44h-4.5v-5.6H139.03z"/>
		<path class="st10" d="M141.6,38.4l1.62,3.28l1.62-3.28h1.59V44h-1.3l-0.01-3.55l-1.43,2.99h-0.94l-1.44-2.99V44h-1.3v-5.6H141.6z"
			/>
	</g>
	<g>
		<path class="st10" d="M78.46,17.55c-0.86,0-1.52,0.7-1.52,1.62c0,0.92,0.66,1.62,1.52,1.62c0.46,0,1-0.26,1.39-0.66l0.86,0.92
			c-0.6,0.63-1.5,1.05-2.33,1.05c-1.69,0-2.94-1.26-2.94-2.92c0-1.65,1.29-2.88,3-2.88c0.83,0,1.7,0.38,2.26,0.97l-0.85,1.02
			C79.48,17.83,78.94,17.55,78.46,17.55z"/>
		<path class="st10" d="M86.05,18.36c0,1.32-0.82,2.09-2.25,2.09h-1V22h-1.46v-5.6h2.46C85.22,16.4,86.05,17.11,86.05,18.36z
			 M84.66,18.41c0-0.55-0.34-0.85-0.94-0.85h-0.93v1.72h0.93C84.31,19.28,84.66,18.98,84.66,18.41z"/>
		<path class="st10" d="M89.24,20.86c0.62,0,1.06-0.44,1.06-1.17V16.4h1.46v3.29c0,1.47-0.98,2.41-2.53,2.41s-2.56-0.94-2.56-2.41
			V16.4h1.46v3.29C88.14,20.41,88.61,20.86,89.24,20.86z"/>
	</g>
	<g>
		<path class="st10" d="M128.16,22l-0.82-1.55h-0.03h-1.06V22h-1.46v-5.6h2.52c1.49,0,2.33,0.72,2.33,1.97c0,0.85-0.35,1.47-1,1.81
			l1.17,1.83H128.16z M126.26,19.28h1.06c0.59,0,0.94-0.3,0.94-0.87c0-0.55-0.34-0.85-0.94-0.85h-1.06V19.28z"/>
		<path class="st10" d="M134.32,21.01h-2.42L131.51,22H130l2.41-5.6h1.5l2.35,5.6h-1.56L134.32,21.01z M133.89,19.89l-0.77-2
			l-0.78,2H133.89z"/>
		<path class="st10" d="M138.36,16.4l1.62,3.28l1.62-3.28h1.59V22h-1.3l-0.01-3.55l-1.43,2.99h-0.94l-1.44-2.99V22h-1.3v-5.6H138.36
			z"/>
	</g>
	<g>
		<path class="st10" d="M18.85,61.48c-0.35,0-0.58,0.13-0.58,0.39c0,0.96,2.95,0.42,2.95,2.46c0,1.15-1.01,1.75-2.25,1.75
			c-0.94,0-1.91-0.35-2.58-0.91l0.57-1.14c0.58,0.51,1.45,0.86,2.03,0.86c0.43,0,0.7-0.16,0.7-0.47c0-0.98-2.95-0.39-2.95-2.41
			c0-1.06,0.89-1.73,2.24-1.73c0.82,0,1.65,0.26,2.24,0.63l-0.55,1.17C20.06,61.74,19.31,61.48,18.85,61.48z"/>
		<path class="st10" d="M26.38,60.4v1.17h-2.96v1.05h2.67v1.16l-2.67,0.01v1.06h3.04V66h-4.5v-5.6H26.38z"/>
		<path class="st10" d="M32.55,60.4V66h-1.28l-2.54-3.35V66h-1.37v-5.6h1.29l2.55,3.37l-0.01-3.37H32.55z"/>
		<path class="st10" d="M35.7,61.48c-0.35,0-0.58,0.13-0.58,0.39c0,0.96,2.95,0.42,2.95,2.46c0,1.15-1.01,1.75-2.25,1.75
			c-0.94,0-1.91-0.35-2.58-0.91l0.57-1.14c0.58,0.51,1.45,0.86,2.03,0.86c0.43,0,0.7-0.16,0.7-0.47c0-0.98-2.95-0.39-2.95-2.41
			c0-1.06,0.89-1.73,2.24-1.73c0.82,0,1.66,0.26,2.24,0.63l-0.55,1.17C36.92,61.74,36.17,61.48,35.7,61.48z"/>
		<path class="st10" d="M44.52,63.19c0,1.66-1.3,2.92-3.03,2.92c-1.74,0-3.03-1.25-3.03-2.92c0-1.66,1.29-2.88,3.03-2.88
			C43.22,60.31,44.52,61.54,44.52,63.19z M39.96,63.19c0,0.94,0.71,1.66,1.54,1.66c0.84,0,1.51-0.72,1.51-1.66
			c0-0.94-0.67-1.65-1.51-1.65C40.66,61.55,39.96,62.26,39.96,63.19z"/>
		<path class="st10" d="M48.62,66l-0.82-1.55h-0.03h-1.06V66h-1.46v-5.6h2.52c1.49,0,2.33,0.72,2.33,1.97c0,0.85-0.35,1.47-1,1.81
			L50.27,66H48.62z M46.71,63.28h1.06c0.59,0,0.94-0.3,0.94-0.87c0-0.55-0.34-0.85-0.94-0.85h-1.06V63.28z"/>
	</g>
	<g>
		<path class="st10" d="M22.26,82.4V88h-1.46v-5.6H22.26z"/>
		<path class="st10" d="M28.53,82.4V88h-1.28l-2.54-3.35V88h-1.37v-5.6h1.29l2.55,3.37l-0.01-3.37H28.53z"/>
		<path class="st10" d="M34.35,84.36c0,1.32-0.82,2.09-2.25,2.09h-1V88h-1.46v-5.6h2.46C33.53,82.4,34.35,83.11,34.35,84.36z
			 M32.96,84.41c0-0.55-0.34-0.85-0.94-0.85H31.1v1.72h0.93C32.62,85.28,32.96,84.98,32.96,84.41z"/>
		<path class="st10" d="M37.54,86.86c0.62,0,1.06-0.44,1.06-1.17V82.4h1.46v3.29c0,1.47-0.98,2.41-2.53,2.41s-2.56-0.94-2.56-2.41
			V82.4h1.46v3.29C36.44,86.41,36.91,86.86,37.54,86.86z"/>
		<path class="st10" d="M45.38,82.4v1.21H43.7V88h-1.46v-4.4h-1.66V82.4H45.38z"/>
	</g>
	<g>
		<path class="st10" d="M64.92,87.01H62.5L62.11,88h-1.5l2.41-5.6h1.5l2.35,5.6h-1.56L64.92,87.01z M64.49,85.89l-0.77-2l-0.78,2
			H64.49z"/>
		<path class="st10" d="M69.88,83.55c-0.86,0-1.52,0.7-1.52,1.62c0,0.92,0.66,1.62,1.52,1.62c0.46,0,1-0.26,1.39-0.66l0.86,0.92
			c-0.6,0.63-1.5,1.05-2.33,1.05c-1.69,0-2.94-1.26-2.94-2.92c0-1.65,1.29-2.88,3-2.88c0.83,0,1.7,0.38,2.26,0.97l-0.85,1.02
			C70.91,83.83,70.37,83.55,69.88,83.55z"/>
		<path class="st10" d="M77.07,82.4v1.21h-1.68V88h-1.46v-4.4h-1.66V82.4H77.07z"/>
		<path class="st10" d="M80.14,86.86c0.62,0,1.06-0.44,1.06-1.17V82.4h1.46v3.29c0,1.47-0.98,2.41-2.53,2.41s-2.56-0.94-2.56-2.41
			V82.4h1.46v3.29C79.04,86.41,79.51,86.86,80.14,86.86z"/>
		<path class="st10" d="M87.23,87.01h-2.42L84.42,88h-1.5l2.41-5.6h1.5l2.35,5.6h-1.56L87.23,87.01z M86.8,85.89l-0.77-2l-0.78,2
			H86.8z"/>
		<path class="st10" d="M93.4,82.4v1.21h-1.68V88h-1.46v-4.4H88.6V82.4H93.4z"/>
		<path class="st10" d="M99.42,85.19c0,1.66-1.3,2.92-3.03,2.92c-1.74,0-3.03-1.25-3.03-2.92c0-1.66,1.29-2.88,3.03-2.88
			C98.12,82.31,99.42,83.54,99.42,85.19z M94.86,85.19c0,0.94,0.71,1.66,1.54,1.66c0.84,0,1.51-0.72,1.51-1.66
			c0-0.94-0.67-1.65-1.51-1.65C95.56,83.55,94.86,84.26,94.86,85.19z"/>
		<path class="st10" d="M103.51,88l-0.82-1.55h-0.03h-1.06V88h-1.46v-5.6h2.52c1.49,0,2.33,0.72,2.33,1.97c0,0.85-0.35,1.47-1,1.81
			l1.17,1.83H103.51z M101.61,85.28h1.06c0.59,0,0.94-0.3,0.94-0.87c0-0.55-0.34-0.85-0.94-0.85h-1.06V85.28z"/>
	</g>
	<g>
		<path class="st10" d="M76.54,61.81c0,0.58-0.38,1.06-0.97,1.21c0.71,0.14,1.15,0.7,1.15,1.42c0,0.96-0.84,1.56-2.16,1.56h-2.77
			v-5.6h2.66C75.73,60.4,76.54,60.95,76.54,61.81z M75.03,62.07c0-0.34-0.25-0.54-0.66-0.53h-1.12v1.09h1.12
			C74.78,62.63,75.03,62.42,75.03,62.07z M75.21,64.26c0-0.35-0.32-0.58-0.83-0.57h-1.12v1.18h1.12
			C74.89,64.86,75.21,64.64,75.21,64.26z"/>
		<path class="st10" d="M81.26,65.01h-2.42L78.44,66h-1.5l2.41-5.6h1.5L83.2,66h-1.56L81.26,65.01z M80.82,63.89l-0.77-2l-0.78,2
			H80.82z"/>
		<path class="st10" d="M87.07,66l-0.82-1.55h-0.03h-1.06V66h-1.46v-5.6h2.52c1.49,0,2.33,0.72,2.33,1.97c0,0.85-0.35,1.47-1,1.81
			L88.73,66H87.07z M85.17,63.28h1.06c0.59,0,0.94-0.3,0.94-0.87c0-0.55-0.34-0.85-0.94-0.85h-1.06V63.28z"/>
		<path class="st10" d="M95.2,63.19c0,1.66-1.3,2.92-3.03,2.92c-1.74,0-3.03-1.25-3.03-2.92c0-1.66,1.29-2.88,3.03-2.88
			C93.9,60.31,95.2,61.54,95.2,63.19z M90.64,63.19c0,0.94,0.71,1.66,1.54,1.66c0.84,0,1.51-0.72,1.51-1.66
			c0-0.94-0.67-1.65-1.51-1.65C91.34,61.55,90.64,62.26,90.64,63.19z"/>
	</g>
	<g>
		<path class="st10" d="M128.5,63.14h1.26v2.23c-0.6,0.43-1.55,0.74-2.33,0.74c-1.71,0-3-1.25-3-2.91c0-1.65,1.32-2.89,3.09-2.89
			c0.84,0,1.73,0.33,2.3,0.84L129,62.17c-0.4-0.38-0.97-0.62-1.48-0.62c-0.9,0-1.58,0.71-1.58,1.65c0,0.95,0.69,1.66,1.6,1.66
			c0.28,0,0.63-0.1,0.97-0.27V63.14z"/>
		<path class="st10" d="M135.46,62.36c0,1.32-0.82,2.09-2.25,2.09h-1V66h-1.46v-5.6h2.46C134.63,60.4,135.46,61.11,135.46,62.36z
			 M134.06,62.41c0-0.55-0.34-0.85-0.94-0.85h-0.93v1.72h0.93C133.72,63.28,134.06,62.98,134.06,62.41z"/>
		<path class="st10" d="M138.23,61.48c-0.35,0-0.58,0.13-0.58,0.39c0,0.96,2.95,0.42,2.95,2.46c0,1.15-1.01,1.75-2.25,1.75
			c-0.94,0-1.91-0.35-2.58-0.91l0.57-1.14c0.58,0.51,1.45,0.86,2.03,0.86c0.43,0,0.7-0.16,0.7-0.47c0-0.98-2.95-0.39-2.95-2.41
			c0-1.06,0.89-1.73,2.24-1.73c0.82,0,1.65,0.26,2.24,0.63l-0.55,1.17C139.45,61.74,138.7,61.48,138.23,61.48z"/>
	</g>
	<g>
		<path class="st10" d="M178.53,65.01h-2.42L175.71,66h-1.5l2.41-5.6h1.5l2.35,5.6h-1.56L178.53,65.01z M178.1,63.89l-0.77-2
			l-0.78,2H178.1z"/>
		<path class="st10" d="M186.38,63.19c0,1.67-1.22,2.81-3.04,2.81h-2.36v-5.6h2.42C185.17,60.4,186.38,61.53,186.38,63.19z
			 M184.88,63.21c0-0.97-0.63-1.62-1.52-1.62h-0.92v3.23h0.99C184.28,64.82,184.88,64.17,184.88,63.21z"/>
		<path class="st10" d="M189.67,61.55c-0.86,0-1.52,0.7-1.52,1.62c0,0.92,0.66,1.62,1.52,1.62c0.46,0,1-0.26,1.39-0.66l0.86,0.92
			c-0.6,0.63-1.5,1.05-2.33,1.05c-1.69,0-2.94-1.26-2.94-2.92c0-1.65,1.29-2.88,3-2.88c0.83,0,1.7,0.38,2.26,0.97l-0.85,1.02
			C190.7,61.83,190.16,61.55,189.67,61.55z"/>
	</g>
	<g>
		<path class="st10" d="M179.26,38.4V44h-1.46v-5.6H179.26z"/>
		<path class="st10" d="M184.38,42.82V44h-4.27l-0.01-0.97l2.04-2.1c0.31-0.32,0.54-0.68,0.54-0.92c0-0.3-0.23-0.48-0.64-0.48
			c-0.46,0-1.03,0.27-1.54,0.71l-0.56-1.08c0.72-0.52,1.5-0.84,2.33-0.84c1.13,0,1.95,0.59,1.95,1.47c0,0.61-0.46,1.24-1.09,1.87
			l-1.14,1.15H184.38z"/>
		<path class="st10" d="M187.85,39.55c-0.86,0-1.52,0.7-1.52,1.62c0,0.92,0.66,1.62,1.52,1.62c0.46,0,1-0.26,1.39-0.66l0.86,0.92
			c-0.6,0.63-1.5,1.05-2.33,1.05c-1.69,0-2.94-1.26-2.94-2.92c0-1.65,1.29-2.88,3-2.88c0.83,0,1.7,0.38,2.26,0.97l-0.85,1.02
			C188.87,39.83,188.34,39.55,187.85,39.55z"/>
	</g>
</g>
<g id="nolink">
	<g class="st11">
		<rect class="st0" width="216" height="148"/>
	</g>
	<g>
		<path class="st12" d="M86.73,67.28V78.5h-2.56l-5.09-6.71v6.71h-2.74V67.28h2.58l5.11,6.75l-0.02-6.75H86.73z"/>
		<path class="st12" d="M100.33,72.87c0,3.33-2.59,5.84-6.07,5.84c-3.47,0-6.07-2.5-6.07-5.84c0-3.31,2.59-5.76,6.07-5.76
			C97.73,67.1,100.33,69.57,100.33,72.87z M91.2,72.88c0,1.89,1.42,3.33,3.09,3.33c1.68,0,3.02-1.44,3.02-3.33
			c0-1.87-1.34-3.3-3.02-3.3S91.2,71.01,91.2,72.88z"/>
		<path class="st12" d="M108.26,67.28V76h4.75v2.5h-7.68V67.28H108.26z"/>
		<path class="st12" d="M117.27,67.28V78.5h-2.93V67.28H117.27z"/>
		<path class="st12" d="M129.83,67.28V78.5h-2.56l-5.09-6.71v6.71h-2.74V67.28h2.58l5.11,6.75l-0.02-6.75H129.83z"/>
		<path class="st12" d="M139.3,78.5l-2.95-4.35l-1.41,1.57v2.79h-2.93V67.28h2.93v4.87l4.21-4.87h3.39l-4.16,4.63l4.42,6.59H139.3z"
			/>
	</g>
	<g>
		<polygon class="st8" points="214.95,48 216,46.95 216,39.88 207.88,48 		"/>
		<polygon class="st8" points="201.95,48 216,33.95 216,26.88 194.88,48 		"/>
		<polygon class="st8" points="215,14.88 181.88,48 188.95,48 216,20.95 216,13.88 215,14.88 		"/>
		<polygon class="st8" points="202,14.88 202,14.88 168.88,48 175.95,48 203.77,20.18 203.78,20.18 216,7.95 216,0.88 		"/>
		<polygon class="st8" points="189,14.88 189,14.88 155.88,48 162.95,48 190.77,20.18 190.78,20.18 210.95,0 203.88,0 		"/>
		<polygon class="st8" points="176,14.88 176,14.88 142.88,48 149.95,48 177.77,20.18 177.78,20.18 197.95,0 190.88,0 		"/>
		<polygon class="st8" points="163,14.88 163,14.88 129.88,48 136.95,48 164.77,20.18 164.78,20.18 184.95,0 177.88,0 		"/>
		<polygon class="st8" points="150,14.88 150,14.88 116.88,48 123.95,48 151.77,20.18 151.78,20.18 171.95,0 164.88,0 		"/>
		<polygon class="st8" points="137,14.88 137,14.88 103.88,48 110.95,48 138.77,20.18 138.78,20.18 158.95,0 151.88,0 		"/>
		<polygon class="st8" points="124,14.88 124,14.88 90.88,48 97.95,48 125.77,20.18 125.78,20.18 145.95,0 138.88,0 		"/>
		<polygon class="st8" points="111,14.88 111,14.88 77.88,48 84.95,48 112.77,20.18 112.78,20.18 132.95,0 125.88,0 		"/>
		<polygon class="st8" points="98,14.88 98,14.88 64.88,48 71.95,48 99.77,20.18 99.78,20.18 119.95,0 112.88,0 		"/>
		<polygon class="st8" points="85,14.88 85,14.88 51.88,48 58.95,48 86.77,20.18 86.78,20.18 106.95,0 99.88,0 		"/>
		<polygon class="st8" points="72,14.88 72,14.88 38.88,48 45.95,48 73.77,20.18 73.78,20.18 93.95,0 86.88,0 		"/>
		<polygon class="st8" points="59,14.88 59,14.88 25.88,48 32.95,48 60.77,20.18 60.78,20.18 80.95,0 73.88,0 		"/>
		<polygon class="st8" points="46,14.88 46,14.88 12.88,48 19.95,48 47.77,20.18 47.78,20.18 67.95,0 60.88,0 		"/>
		<polygon class="st8" points="33,14.88 33,14.88 0,47.88 0,48 6.95,48 34.77,20.18 34.78,20.18 54.95,0 47.88,0 		"/>
		<polygon class="st8" points="20,14.88 20,14.88 0,34.88 0,41.95 21.77,20.18 21.78,20.18 41.95,0 34.88,0 		"/>
		<polygon class="st8" points="7,14.88 7,14.88 0,21.88 0,28.95 8.77,20.18 8.78,20.18 28.95,0 21.88,0 		"/>
		<polygon class="st8" points="0,8.88 0,15.96 15.96,0 8.88,0 		"/>
		<polygon class="st8" points="0,2.96 2.96,0 0,0 		"/>
	</g>
	<g>
		<polygon class="st8" points="216,148 216,143.87 211.87,148 		"/>
		<polygon class="st8" points="205.94,148 216,137.94 216,130.87 198.87,148 		"/>
		<polygon class="st8" points="192.94,148 216,124.94 216,117.87 185.87,148 		"/>
		<polygon class="st8" points="208.52,112.35 172.87,148 179.94,148 210.29,117.65 210.29,117.65 216,111.94 216,104.87 
			208.52,112.35 		"/>
		<polygon class="st8" points="195.52,112.35 159.87,148 166.94,148 197.29,117.65 197.29,117.65 214.94,100 207.87,100 
			195.52,112.35 		"/>
		<polygon class="st8" points="182.52,112.35 146.87,148 153.94,148 184.29,117.65 184.29,117.65 201.94,100 194.87,100 
			182.52,112.35 		"/>
		<polygon class="st8" points="169.52,112.35 133.87,148 140.94,148 171.29,117.65 171.29,117.65 188.94,100 181.87,100 
			169.52,112.35 		"/>
		<polygon class="st8" points="156.52,112.35 120.87,148 127.94,148 158.29,117.65 158.29,117.65 175.94,100 168.87,100 
			156.52,112.35 		"/>
		<polygon class="st8" points="143.52,112.35 107.87,148 114.94,148 145.29,117.65 145.29,117.65 162.94,100 155.87,100 
			143.52,112.35 		"/>
		<polygon class="st8" points="130.52,112.35 94.87,148 101.94,148 132.29,117.65 132.29,117.65 149.94,100 142.87,100 
			130.52,112.35 		"/>
		<polygon class="st8" points="117.52,112.35 81.87,148 88.94,148 119.29,117.65 119.29,117.65 136.94,100 129.87,100 
			117.52,112.35 		"/>
		<polygon class="st8" points="104.52,112.35 68.87,148 75.94,148 106.29,117.65 106.29,117.65 123.94,100 116.87,100 
			104.52,112.35 		"/>
		<polygon class="st8" points="91.52,112.35 55.87,148 62.94,148 93.29,117.65 93.29,117.65 110.94,100 103.87,100 91.52,112.35 		
			"/>
		<polygon class="st8" points="78.48,112.35 42.83,148 49.9,148 80.27,117.63 80.29,117.65 97.94,100 90.87,100 78.5,112.37 		"/>
		<polygon class="st8" points="65.48,112.35 29.83,148 36.9,148 67.27,117.63 67.29,117.65 84.94,100 77.87,100 65.5,112.37 		"/>
		<polygon class="st8" points="52.48,112.35 16.83,148 23.9,148 54.27,117.63 54.29,117.65 71.94,100 64.87,100 52.5,112.37 		"/>
		<polygon class="st8" points="13.48,112.35 0,125.83 0,132.9 15.27,117.63 15.29,117.65 32.94,100 25.87,100 13.5,112.37 		"/>
		<polygon class="st8" points="41.29,117.65 58.94,100 51.87,100 39.5,112.37 39.48,112.35 3.83,148 10.9,148 41.27,117.63 		"/>
		<polygon class="st8" points="28.29,117.65 45.94,100 38.87,100 26.5,112.37 26.48,112.35 0,138.83 0,145.9 28.27,117.63 		"/>
		<polygon class="st8" points="0,119.9 2.27,117.63 2.29,117.65 19.94,100 12.87,100 0.5,112.37 0.48,112.35 0,112.83 		"/>
		<polygon class="st8" points="0,100 0,106.94 6.94,100 		"/>
	</g>
	<g>
	</g>
	<g>
	</g>
	<g>
	</g>
	<g>
	</g>
	<g>
	</g>
	<g>
	</g>
	<g>
	</g>
	<g>
	</g>
	<g>
	</g>
	<g>
	</g>
	<g>
	</g>
	<g>
	</g>
	<g>
	</g>
	<g>
	</g>
	<g>
	</g>
</g>
</svg>
