G04 Layer_Color=8150272*
%FSLAX25Y25*%
%MOIN*%
G70*
G01*
G75*
%ADD87C,0.25843*%
%ADD88C,0.06646*%
%ADD90C,0.06748*%
%ADD91R,0.06748X0.06748*%
%ADD92C,0.07535*%
G04:AMPARAMS|DCode=93|XSize=75.35mil|YSize=75.35mil|CornerRadius=10.12mil|HoleSize=0mil|Usage=FLASHONLY|Rotation=90.000|XOffset=0mil|YOffset=0mil|HoleType=Round|Shape=RoundedRectangle|*
%AMROUNDEDRECTD93*
21,1,0.07535,0.05512,0,0,90.0*
21,1,0.05512,0.07535,0,0,90.0*
1,1,0.02024,0.02756,0.02756*
1,1,0.02024,0.02756,-0.02756*
1,1,0.02024,-0.02756,-0.02756*
1,1,0.02024,-0.02756,0.02756*
%
%ADD93ROUNDEDRECTD93*%
%ADD94C,0.04331*%
%ADD95C,0.03937*%
%ADD96C,0.01457*%
D87*
X261811Y226378D02*
D03*
Y33465D02*
D03*
D88*
X33465Y226378D02*
D03*
Y33465D02*
D03*
X256811Y115157D02*
D03*
X266811D02*
D03*
X27559Y78661D02*
D03*
Y88661D02*
D03*
D90*
X37106Y205866D02*
D03*
Y195866D02*
D03*
Y185866D02*
D03*
X27106Y205866D02*
D03*
Y195866D02*
D03*
Y185866D02*
D03*
X47106Y205866D02*
D03*
Y195866D02*
D03*
Y185866D02*
D03*
X162638Y231378D02*
D03*
Y221378D02*
D03*
X172638D02*
D03*
Y231378D02*
D03*
X192638D02*
D03*
Y221378D02*
D03*
X182638D02*
D03*
Y231378D02*
D03*
X222638D02*
D03*
Y221378D02*
D03*
X232638D02*
D03*
Y231378D02*
D03*
X212638D02*
D03*
Y221378D02*
D03*
X202638D02*
D03*
Y231378D02*
D03*
X242638Y221378D02*
D03*
Y231378D02*
D03*
X142638D02*
D03*
Y221378D02*
D03*
X152638D02*
D03*
Y231378D02*
D03*
X102638D02*
D03*
Y221378D02*
D03*
X112638D02*
D03*
Y231378D02*
D03*
X132638D02*
D03*
Y221378D02*
D03*
X122638D02*
D03*
Y231378D02*
D03*
X82638D02*
D03*
Y221378D02*
D03*
X92638D02*
D03*
Y231378D02*
D03*
X72638D02*
D03*
Y221378D02*
D03*
X62638D02*
D03*
Y231378D02*
D03*
X52638D02*
D03*
D91*
X37106Y175866D02*
D03*
X27106D02*
D03*
X47106Y175866D02*
D03*
X52638Y221378D02*
D03*
D92*
X102752Y45943D02*
D03*
Y35943D02*
D03*
X92752Y45943D02*
D03*
Y35943D02*
D03*
X82752Y45943D02*
D03*
Y35943D02*
D03*
X72752Y45943D02*
D03*
Y35943D02*
D03*
X62752Y45943D02*
D03*
Y35943D02*
D03*
X52752Y45943D02*
D03*
Y35943D02*
D03*
D93*
X102752Y25943D02*
D03*
X92752D02*
D03*
X82752D02*
D03*
X72752D02*
D03*
X62752D02*
D03*
X52752D02*
D03*
D94*
X86614Y75787D02*
D03*
X92520Y156496D02*
D03*
D95*
Y133858D02*
D03*
D96*
X56890Y62205D02*
D03*
M02*
