G04 Layer_Color=15132400*
%FSLAX25Y25*%
%MOIN*%
G70*
G01*
G75*
%ADD36C,0.01000*%
%ADD57C,0.00500*%
%ADD58C,0.00984*%
%ADD59C,0.02362*%
%ADD60C,0.00800*%
%ADD61C,0.00787*%
%ADD62C,0.00600*%
G36*
X231832Y210745D02*
X231945Y210689D01*
X232115Y210519D01*
X232171Y210463D01*
X245110Y190066D01*
X245166Y189897D01*
Y189840D01*
X245223Y189727D01*
Y189671D01*
X245166Y189388D01*
X245110Y189219D01*
X245053Y189106D01*
X244997Y189049D01*
X244827Y188936D01*
X244658Y188880D01*
X244488D01*
X244206Y188936D01*
X244093D01*
X243923Y189106D01*
X243867Y189219D01*
X230928Y209615D01*
X230872Y209728D01*
X230815Y209785D01*
Y209954D01*
Y210011D01*
X230872Y210237D01*
X230928Y210406D01*
X230985Y210519D01*
Y210576D01*
X231154Y210689D01*
X231380Y210802D01*
X231606D01*
X231832Y210745D01*
D02*
G37*
G36*
X232510Y202722D02*
X232680Y202609D01*
X232736Y202553D01*
X240872Y189614D01*
X240929Y189558D01*
Y189501D01*
X240985Y189445D01*
Y189388D01*
Y189219D01*
X240929Y189106D01*
X240872Y188993D01*
X240816D01*
X240646Y188880D01*
X240533D01*
X240364Y188936D01*
X240307D01*
X240138Y189049D01*
X240081Y189106D01*
X231945Y201988D01*
X231889Y202044D01*
X231832Y202101D01*
Y202214D01*
Y202270D01*
X231889Y202553D01*
X231945Y202609D01*
X232058Y202722D01*
X232171Y202779D01*
X232454D01*
X232510Y202722D01*
D02*
G37*
G36*
X244488Y203400D02*
X244601Y203344D01*
X244884Y203231D01*
X244940Y203174D01*
Y203118D01*
X253359Y189897D01*
X253415Y189784D01*
Y189727D01*
X253472Y189558D01*
Y189501D01*
X253415Y189219D01*
X253359Y189049D01*
X253246Y188936D01*
X253189Y188880D01*
X253020Y188767D01*
X252850Y188710D01*
X252681D01*
X252398Y188767D01*
X252229D01*
X252059Y188936D01*
X252003Y189049D01*
X243641Y202270D01*
X243584Y202383D01*
X243528Y202440D01*
Y202666D01*
Y202722D01*
X243584Y202948D01*
X243641Y203061D01*
X243697Y203174D01*
Y203231D01*
X243867Y203344D01*
X244036Y203457D01*
X244262D01*
X244488Y203400D01*
D02*
G37*
G36*
X219930Y49171D02*
X219896Y48948D01*
X219879Y48777D01*
X219862Y48605D01*
Y48485D01*
X219844Y48417D01*
Y48382D01*
X219810Y47937D01*
X219793Y47732D01*
X219776Y47543D01*
X219759Y47389D01*
Y47252D01*
X219742Y47183D01*
Y47149D01*
X212650D01*
X212992Y47269D01*
X213335Y47372D01*
X213643Y47492D01*
X213917Y47577D01*
X214140Y47663D01*
X214329Y47732D01*
X214397Y47749D01*
X214448Y47766D01*
X214466Y47783D01*
X214483D01*
X214825Y47903D01*
X215151Y48006D01*
X215459Y48108D01*
X215733Y48194D01*
X215956Y48280D01*
X216144Y48331D01*
X216213Y48348D01*
X216264Y48365D01*
X216281Y48382D01*
X216299D01*
X216641Y48502D01*
X216984Y48605D01*
X217292Y48708D01*
X217566Y48811D01*
X217789Y48879D01*
X217977Y48948D01*
X218046Y48965D01*
X218097Y48982D01*
X218114Y48999D01*
X218131D01*
X218474Y49119D01*
X218799Y49222D01*
X219108Y49325D01*
X219382Y49427D01*
X219622Y49496D01*
X219810Y49564D01*
X219879Y49582D01*
X219930Y49599D01*
X219947Y49616D01*
X219964D01*
X219930Y49171D01*
D02*
G37*
G36*
X240703Y203965D02*
X240816Y203852D01*
X240872Y203796D01*
X249065Y190914D01*
X249121Y190857D01*
Y190801D01*
Y190688D01*
Y190631D01*
Y190462D01*
X249065Y190349D01*
X249008Y190292D01*
X248952Y190236D01*
X248726Y190123D01*
X248613D01*
X248443Y190179D01*
X248387D01*
X248330Y190292D01*
X248274Y190349D01*
X240025Y203287D01*
Y203344D01*
X239968D01*
Y203513D01*
Y203570D01*
X240025Y203796D01*
X240081Y203852D01*
X240194Y203965D01*
X240307Y204022D01*
X240646D01*
X240703Y203965D01*
D02*
G37*
G36*
X224318Y209107D02*
X224431Y208994D01*
X224487Y208937D01*
Y208881D01*
X236522Y190010D01*
Y189897D01*
Y189840D01*
X236578Y189727D01*
Y189671D01*
Y189501D01*
X236522Y189388D01*
X236465Y189332D01*
X236409Y189275D01*
X236296Y189162D01*
X236183Y189106D01*
X236070D01*
X235844Y189162D01*
X235731D01*
X235674Y189219D01*
X235561Y189332D01*
X235505Y189388D01*
Y189445D01*
X223527Y208316D01*
X223470Y208372D01*
Y208429D01*
Y208542D01*
Y208598D01*
X223527Y208881D01*
X223583Y208994D01*
X223696Y209107D01*
X223866Y209163D01*
X224261D01*
X224318Y209107D01*
D02*
G37*
G36*
X242850Y211028D02*
X242963Y210971D01*
X243019Y210915D01*
X257427Y188202D01*
Y188145D01*
Y188089D01*
Y188032D01*
X257370Y187863D01*
X257314Y187806D01*
X257201Y187693D01*
X257088D01*
X256975Y187750D01*
X256918D01*
X256862Y187806D01*
X256805Y187863D01*
X242454Y210576D01*
X242398Y210632D01*
Y210689D01*
Y210745D01*
X242454Y210915D01*
Y210971D01*
X242624Y211084D01*
X242793D01*
X242850Y211028D01*
D02*
G37*
G36*
X237595Y187524D02*
X238386Y187411D01*
X238669Y187354D01*
X238895Y187241D01*
X239064Y187185D01*
X239121D01*
X240025Y186902D01*
X240420Y186789D01*
X240816Y186733D01*
X241098Y186676D01*
X241324Y186620D01*
X242285D01*
X242511Y186676D01*
X242624D01*
X243019Y186789D01*
X243415Y186846D01*
X243641Y186959D01*
X243754D01*
X244149Y187072D01*
X244545Y187185D01*
X244771Y187298D01*
X244884D01*
X245336Y187411D01*
X246070D01*
X246409Y187298D01*
X246692Y187185D01*
X246918Y187128D01*
X246974Y187072D01*
X247257Y186959D01*
X247483Y186846D01*
X247652Y186789D01*
X247709Y186733D01*
X247991Y186620D01*
X248217Y186507D01*
X248330Y186450D01*
X248387D01*
X248669Y186394D01*
X248895Y186337D01*
X249065Y186281D01*
X249799D01*
X250082Y186394D01*
X250308Y186450D01*
X250477Y186507D01*
X250534D01*
X250816Y186620D01*
X251099Y186733D01*
X251325Y186789D01*
X251381D01*
X251833Y186846D01*
X252229D01*
X252511Y186789D01*
X252624D01*
X253472Y186563D01*
X253867Y186450D01*
X254206Y186394D01*
X254432Y186281D01*
X254658Y186168D01*
X254771Y186111D01*
X254828D01*
X255562Y185829D01*
X256240Y185716D01*
X256466Y185659D01*
X256692Y185603D01*
X256862D01*
X257088Y185659D01*
X257201D01*
X257483Y185716D01*
X257596Y185772D01*
X257653D01*
X258048Y185885D01*
X258726D01*
X258952Y185829D01*
X259009D01*
X259178Y185772D01*
X259348Y185659D01*
X259404Y185603D01*
X259461Y185546D01*
X259743Y185320D01*
X259856Y185264D01*
Y185207D01*
X259913Y184868D01*
X259969Y184755D01*
Y184699D01*
X260026Y184416D01*
X260082Y184303D01*
Y184247D01*
Y183908D01*
Y183625D01*
Y183399D01*
Y183343D01*
Y183060D01*
Y182891D01*
Y182778D01*
Y182721D01*
X260139Y182552D01*
Y182382D01*
X260195Y182213D01*
Y182156D01*
X260252Y181874D01*
Y181591D01*
Y181422D01*
Y181309D01*
X260195Y181026D01*
X260139Y180970D01*
Y180913D01*
X260082Y180631D01*
X260026Y180687D01*
X259969Y180744D01*
X259800D01*
X259743Y180800D01*
X259517D01*
X259404Y180744D01*
X259291Y180631D01*
X259235Y180518D01*
X259178Y180292D01*
Y180235D01*
X259235Y180066D01*
X259291Y180009D01*
X259319Y179981D01*
X259235Y179953D01*
X258387D01*
X258161Y180009D01*
X258048D01*
X257709Y180122D01*
X257427Y180235D01*
X257201Y180348D01*
X257144D01*
X256862Y180518D01*
X256579Y180631D01*
X256353Y180687D01*
X256297D01*
X256014Y180800D01*
X255788Y180857D01*
X255054D01*
X254941Y180800D01*
X254884D01*
X254602Y180744D01*
X254489Y180687D01*
X254432D01*
X254150Y180574D01*
X253924Y180518D01*
X253754Y180461D01*
X253698D01*
X253415Y180405D01*
X252737D01*
X252285Y180461D01*
X251890Y180574D01*
X251607Y180631D01*
X251494Y180687D01*
X251099Y180857D01*
X250760Y180970D01*
X250534Y181083D01*
X250477D01*
X250082Y181252D01*
X249743Y181309D01*
X249517Y181365D01*
X249460D01*
X249178Y181422D01*
X248613D01*
X247878Y181252D01*
X247200Y181026D01*
X246918Y180913D01*
X246692Y180857D01*
X246579Y180800D01*
X246522D01*
X245731Y180574D01*
X244997Y180461D01*
X244714Y180405D01*
X240307D01*
X239516Y180461D01*
X238838Y180518D01*
X238273Y180574D01*
X237765Y180631D01*
X237426Y180687D01*
X237143Y180744D01*
X237087D01*
X236578Y180800D01*
X236126D01*
X235844Y180857D01*
X235731D01*
X235222Y180970D01*
X234601Y181139D01*
X234375Y181196D01*
X234149Y181309D01*
X234036Y181365D01*
X234019D01*
X233923Y181535D01*
X233810Y181648D01*
Y181704D01*
X233640Y182100D01*
X233471Y182382D01*
X233301Y182891D01*
X233245Y183004D01*
X233075Y183117D01*
X232849Y183286D01*
X232567Y183512D01*
X232510Y183569D01*
X232341Y183738D01*
X232115Y183964D01*
X231832Y184247D01*
X231776Y184303D01*
X231550Y184473D01*
X231324Y184699D01*
X231098Y184868D01*
X231041Y184925D01*
X230985Y185038D01*
X230646Y185320D01*
X230872D01*
X230928Y185377D01*
X231211D01*
X231315Y185403D01*
X231154Y185546D01*
X230702Y185885D01*
X230307Y186055D01*
X229968Y186111D01*
X230307Y186224D01*
X230646Y186281D01*
X230872Y186337D01*
X230985D01*
X231437Y186394D01*
X231776D01*
X232058Y186450D01*
X232171D01*
X232623Y186507D01*
X233584D01*
X233810Y186563D01*
X233979Y186620D01*
X234036D01*
X234318Y186733D01*
X234544Y186846D01*
X234770Y186959D01*
X234827D01*
X235109Y187128D01*
X235392Y187298D01*
X235618Y187354D01*
X235674Y187411D01*
X236070Y187524D01*
X236409Y187580D01*
X236748D01*
X237595Y187524D01*
D02*
G37*
G36*
X214091Y195942D02*
X214204Y195886D01*
Y195829D01*
X228612Y173173D01*
Y173060D01*
Y173003D01*
X228668Y172947D01*
Y172890D01*
X228612Y172721D01*
X228555Y172664D01*
X228442Y172551D01*
X228329D01*
X228160Y172608D01*
X228103D01*
X228047Y172664D01*
X227990Y172721D01*
X213583Y195434D01*
Y195490D01*
X213526Y195547D01*
Y195603D01*
X213583Y195829D01*
X213639Y195886D01*
X213809Y195999D01*
X214035D01*
X214091Y195942D01*
D02*
G37*
G36*
X229629Y186055D02*
X229572D01*
X229459Y185998D01*
X229290Y185885D01*
X229233Y185829D01*
X229177Y185603D01*
Y185546D01*
Y185377D01*
X229233Y185320D01*
X229346Y185264D01*
X229403Y185207D01*
X229572Y185038D01*
X229911Y184699D01*
X230024Y184586D01*
X230307Y184360D01*
X230702Y183964D01*
X231211Y183512D01*
X231267Y183456D01*
X231437Y183286D01*
X231663Y183060D01*
X231945Y182834D01*
X232002Y182778D01*
X232171Y182608D01*
X232454Y182439D01*
X232736Y182213D01*
X232793Y182156D01*
X232962Y182043D01*
X233358Y181704D01*
X233414Y181648D01*
X233584Y181591D01*
X233979Y181365D01*
X234019D01*
X234149Y181139D01*
X234431Y180687D01*
X234657Y180518D01*
X234827Y180348D01*
X234883D01*
X234940Y180292D01*
X235166Y180179D01*
X235505Y179953D01*
X236013Y179670D01*
X236352Y179501D01*
X236748Y179275D01*
X237200Y179049D01*
X237708Y178710D01*
X238273Y178427D01*
X238895Y178032D01*
X238951D01*
X239064Y177919D01*
X239234Y177862D01*
X239516Y177693D01*
X239855Y177523D01*
X240194Y177354D01*
X241098Y176902D01*
X242059Y176393D01*
X243132Y175828D01*
X244206Y175320D01*
X245279Y174868D01*
X245336D01*
X245449Y174811D01*
X245675Y174755D01*
X245901Y174698D01*
X246522Y174585D01*
X247200Y174472D01*
X247370D01*
X247539Y174416D01*
X247822Y174359D01*
X248161Y174246D01*
X248500Y174133D01*
X248952Y173907D01*
X249404Y173681D01*
X249460D01*
X249630Y173568D01*
X249912Y173399D01*
X250251Y173173D01*
X250760Y172890D01*
X251268Y172551D01*
X251946Y172099D01*
X252624Y171591D01*
X252737Y171534D01*
X252963Y171365D01*
X253359Y171082D01*
X253924Y170743D01*
X254545Y170404D01*
X255223Y170009D01*
X256749Y169218D01*
X256862Y169161D01*
X257144Y169048D01*
X257540Y168879D01*
X258161Y168653D01*
X258896Y168370D01*
X259687Y168031D01*
X260647Y167692D01*
X261664Y167353D01*
X261721D01*
X261777Y167297D01*
X262116Y167184D01*
X262681Y167014D01*
X263303Y166788D01*
X263981Y166506D01*
X264715Y166223D01*
X265393Y165941D01*
X266015Y165658D01*
X266071Y165602D01*
X266297Y165545D01*
X266693Y165319D01*
X267201Y165093D01*
X267823Y164754D01*
X268614Y164302D01*
X269518Y163794D01*
X270535Y163172D01*
X270591D01*
X270648Y163116D01*
X270987Y162890D01*
X271439Y162664D01*
X272004Y162325D01*
X272199Y162227D01*
X272173Y162268D01*
X272060Y162494D01*
X271947Y162720D01*
X271891Y162833D01*
X271834Y162890D01*
X271326Y163850D01*
X271043Y164359D01*
X270817Y164754D01*
X270591Y165150D01*
X270422Y165432D01*
X270309Y165658D01*
X270252Y165715D01*
X269913Y166336D01*
X269631Y166845D01*
X269461Y167071D01*
X269405Y167240D01*
X269292Y167297D01*
Y167353D01*
X268953Y167975D01*
X268670Y168427D01*
X268444Y168766D01*
X268331Y168822D01*
Y168879D01*
X268049Y169331D01*
X267766Y169726D01*
X267597Y169952D01*
X267540Y170009D01*
X267314Y170348D01*
X267145Y170517D01*
X267032Y170630D01*
X266636Y171026D01*
X266297Y171421D01*
X266071Y171760D01*
X265958Y171817D01*
Y171873D01*
X265619Y172438D01*
X265280Y173003D01*
X265167Y173229D01*
X265054Y173342D01*
X264998Y173455D01*
Y173512D01*
X264659Y174133D01*
X264376Y174642D01*
X264150Y174981D01*
X264094Y175037D01*
Y175094D01*
X263811Y175546D01*
X263585Y175885D01*
X263472Y176054D01*
X263416Y176111D01*
X263133Y176393D01*
X262738Y176789D01*
X262003Y177523D01*
X261608Y177862D01*
X261325Y178145D01*
X261099Y178314D01*
X261043Y178371D01*
X260478Y178879D01*
X260082Y179275D01*
X259743Y179557D01*
X259574Y179783D01*
X259461Y179896D01*
X259404Y179953D01*
X259348D01*
X259319Y179981D01*
X259574Y180066D01*
X259630Y180122D01*
X259743Y180179D01*
X260026Y180461D01*
Y180518D01*
X260082Y180631D01*
X260308Y180461D01*
X260534Y180179D01*
X260873Y179896D01*
X261156Y179614D01*
X261438Y179331D01*
X261608Y179162D01*
X261664Y179105D01*
X262229Y178540D01*
X262738Y178088D01*
X263190Y177693D01*
X263529Y177354D01*
X263755Y177071D01*
X263981Y176902D01*
X264037Y176789D01*
X264094Y176732D01*
X264433Y176393D01*
X264715Y175998D01*
X264885Y175659D01*
X264941Y175602D01*
Y175546D01*
X265280Y174981D01*
X265563Y174416D01*
X265619Y174246D01*
X265732Y174077D01*
X265789Y173964D01*
Y173907D01*
X266128Y173342D01*
X266410Y172890D01*
X266636Y172495D01*
X266693Y172438D01*
Y172382D01*
X267032Y171930D01*
X267371Y171591D01*
X267597Y171421D01*
X267653Y171365D01*
X267879Y171139D01*
X268105Y170913D01*
X268275Y170743D01*
X268331Y170630D01*
X268614Y170235D01*
X268896Y169839D01*
X269122Y169500D01*
X269179Y169444D01*
Y169387D01*
X269518Y168879D01*
X269800Y168370D01*
X270026Y168031D01*
X270083Y167918D01*
Y167862D01*
X270478Y167240D01*
X270761Y166675D01*
X270930Y166506D01*
X270987Y166336D01*
X271100Y166223D01*
Y166167D01*
X271778Y165037D01*
X272060Y164528D01*
X272286Y164076D01*
X272456Y163681D01*
X272625Y163398D01*
X272682Y163229D01*
X272738Y163172D01*
X272964Y162720D01*
X273190Y162381D01*
X273303Y162155D01*
X273360Y161986D01*
X273416Y161873D01*
X273473Y161816D01*
Y161760D01*
X273529Y161703D01*
Y161647D01*
Y161590D01*
Y161534D01*
Y161477D01*
X270083Y151138D01*
X269970Y150968D01*
X269913Y150912D01*
X269744Y150799D01*
X269631D01*
X269461Y150855D01*
X269405Y150912D01*
X269292Y150968D01*
X269179Y151138D01*
Y151185D01*
X269122Y151194D01*
X268670Y151307D01*
X267992Y151477D01*
X267201Y151759D01*
X267088Y151816D01*
X266806Y151929D01*
X266297Y152098D01*
X265619Y152324D01*
X264772Y152607D01*
X263811Y153002D01*
X262681Y153398D01*
X261495Y153850D01*
X261438D01*
X261325Y153906D01*
X261156Y153963D01*
X260930Y154076D01*
X260591Y154189D01*
X260252Y154302D01*
X259404Y154697D01*
X258331Y155093D01*
X257144Y155545D01*
X255901Y156110D01*
X254545Y156675D01*
X254489D01*
X254376Y156731D01*
X254206Y156844D01*
X253924Y156957D01*
X253641Y157070D01*
X253246Y157240D01*
X252398Y157635D01*
X251438Y158087D01*
X250364Y158539D01*
X249291Y159048D01*
X248274Y159556D01*
X248217D01*
X248161Y159613D01*
X247822Y159782D01*
X247257Y160065D01*
X246579Y160404D01*
X245788Y160799D01*
X244940Y161251D01*
X243019Y162212D01*
X242906Y162268D01*
X242567Y162438D01*
X242115Y162720D01*
X241494Y163059D01*
X240759Y163455D01*
X239968Y163907D01*
X238330Y164754D01*
X238217Y164811D01*
X237991Y164924D01*
X237595Y165150D01*
X237087Y165432D01*
X236522Y165715D01*
X235957Y166054D01*
X235335Y166393D01*
X234770Y166675D01*
X234714Y166732D01*
X234544Y166788D01*
X234262Y166958D01*
X233979Y167127D01*
X233358Y167466D01*
X233075Y167579D01*
X232906Y167692D01*
X232849D01*
X232736Y167749D01*
X232567Y167805D01*
X232341Y167918D01*
X231719Y168201D01*
X230872Y168596D01*
X230815Y168653D01*
X230702Y168709D01*
X230307Y169048D01*
X229855Y169500D01*
X229742Y169783D01*
X229629Y170065D01*
Y170122D01*
Y170235D01*
Y170461D01*
X229572Y170800D01*
Y171195D01*
X229629Y171647D01*
Y172212D01*
X229685Y172890D01*
Y173003D01*
X229742Y173229D01*
Y173625D01*
X229798Y174077D01*
X229855Y174698D01*
X229911Y175320D01*
X230024Y176789D01*
Y176902D01*
X230081Y177128D01*
Y177523D01*
X230137Y177975D01*
X230194Y178540D01*
X230307Y179162D01*
X230420Y180348D01*
Y180405D01*
Y180574D01*
X230476Y180857D01*
Y181139D01*
Y181478D01*
X230420Y181761D01*
Y181930D01*
X230307Y182043D01*
X230250Y182100D01*
X230137Y182213D01*
X230024Y182439D01*
X229855Y182665D01*
X229629Y183004D01*
X229403Y183456D01*
X229064Y183964D01*
X229007Y184021D01*
X228951Y184247D01*
X228838Y184473D01*
X228781Y184812D01*
X228725Y185151D01*
X228781Y185490D01*
X228951Y185772D01*
X229233Y185998D01*
X229290D01*
X229403Y186055D01*
X229629Y186111D01*
X229798D01*
X229629Y186055D01*
D02*
G37*
G36*
X222001Y202666D02*
X222058Y202609D01*
X222114Y202553D01*
X231154Y188315D01*
X231211Y188202D01*
Y188145D01*
X231267Y188089D01*
Y188032D01*
X231211Y187806D01*
X231154Y187750D01*
X230985Y187637D01*
X230872D01*
X230759Y187693D01*
X230702D01*
X230646Y187806D01*
X230589Y187863D01*
X221493Y202101D01*
X221436Y202157D01*
X221380Y202214D01*
Y202270D01*
Y202327D01*
Y202496D01*
X221436Y202553D01*
X221493Y202609D01*
X221719Y202722D01*
X221945D01*
X222001Y202666D01*
D02*
G37*
G36*
X220758Y199332D02*
X220815Y199276D01*
X220871Y199219D01*
X221097Y199050D01*
X221154Y198993D01*
Y198937D01*
X227595Y188823D01*
X227651Y188654D01*
Y188597D01*
X227708Y188428D01*
Y188371D01*
X227651Y188089D01*
X227595Y187863D01*
X227482Y187750D01*
X227425Y187693D01*
X227256Y187580D01*
X227030Y187524D01*
X226860Y187467D01*
X226804D01*
X226521Y187524D01*
X226408Y187580D01*
X226352D01*
X226126Y187750D01*
X226069Y187863D01*
X219685Y197976D01*
X219628Y198089D01*
X219572Y198202D01*
X219515Y198428D01*
Y198485D01*
X219572Y198711D01*
X219628Y198937D01*
X219685Y199050D01*
X219741Y199106D01*
X219967Y199276D01*
X220137Y199332D01*
X220306Y199389D01*
X220589D01*
X220758Y199332D01*
D02*
G37*
G36*
X217651Y196225D02*
X217764Y196168D01*
X217820Y196112D01*
X226860Y181817D01*
X226917Y181704D01*
Y181648D01*
Y181591D01*
X226860Y181365D01*
X226804Y181309D01*
X226634Y181196D01*
X226578D01*
X226408Y181252D01*
X226352D01*
X226295Y181309D01*
X226239Y181365D01*
X217142Y195660D01*
Y195716D01*
X217086D01*
Y195773D01*
Y195829D01*
X217142Y196112D01*
X217199Y196168D01*
X217425Y196281D01*
X217594D01*
X217651Y196225D01*
D02*
G37*
G36*
X249719Y54241D02*
Y54155D01*
X249702Y54121D01*
Y54104D01*
X249685Y54018D01*
Y53984D01*
Y53967D01*
X249599Y53419D01*
X249565Y53179D01*
X249548Y52939D01*
X249531Y52751D01*
X249514Y52614D01*
X249497Y52511D01*
Y52494D01*
Y52477D01*
X249445Y51928D01*
X249428Y51689D01*
X249411Y51449D01*
X249394Y51260D01*
Y51123D01*
X249377Y51020D01*
Y51003D01*
Y50986D01*
X249342Y50438D01*
X249325Y50198D01*
X249308Y49959D01*
X249291Y49770D01*
Y49633D01*
X249274Y49530D01*
Y49513D01*
Y49496D01*
X249257Y49222D01*
X249239Y48948D01*
X249222Y48691D01*
X249205Y48485D01*
Y48297D01*
X249188Y48143D01*
Y48057D01*
Y48023D01*
X248743Y48040D01*
X247955D01*
X247509Y48023D01*
X246721D01*
X246739Y48091D01*
Y48160D01*
X246756Y48211D01*
Y48228D01*
X246773Y48297D01*
Y48365D01*
X246790Y48400D01*
Y48417D01*
X246858Y48948D01*
X246893Y49188D01*
X246927Y49410D01*
X246944Y49599D01*
X246961Y49753D01*
X246978Y49839D01*
Y49873D01*
X247013Y50147D01*
X247030Y50404D01*
X247064Y50661D01*
X247081Y50884D01*
X247098Y51055D01*
Y51209D01*
X247115Y51295D01*
Y51329D01*
X247167Y51860D01*
X247184Y52100D01*
X247201Y52322D01*
X247218Y52511D01*
X247235Y52665D01*
Y52751D01*
Y52785D01*
X247252Y53059D01*
X247287Y53333D01*
X247304Y53573D01*
X247321Y53796D01*
X247338Y53984D01*
X247355Y54138D01*
Y54224D01*
Y54258D01*
X247783Y54241D01*
X248160D01*
X248297Y54224D01*
X249154D01*
X249342Y54241D01*
X249702D01*
Y54258D01*
X249719D01*
Y54241D01*
D02*
G37*
G36*
X244597Y54361D02*
X244734Y54344D01*
X244837Y54327D01*
X244854Y54309D01*
X244871D01*
X245043Y54275D01*
X245180Y54241D01*
X245283Y54207D01*
X245300Y54190D01*
X245317D01*
X245539Y54070D01*
X245728Y53950D01*
X245796Y53881D01*
X245848Y53847D01*
X245865Y53813D01*
X245882Y53796D01*
X246036Y53590D01*
X246156Y53367D01*
X246190Y53282D01*
X246207Y53213D01*
X246225Y53162D01*
Y53145D01*
X246259Y52819D01*
X246276Y52665D01*
X246259Y52528D01*
Y52408D01*
Y52322D01*
X246242Y52254D01*
Y52237D01*
X246207Y51894D01*
X246190Y51740D01*
X246173Y51603D01*
Y51500D01*
X246156Y51415D01*
Y51346D01*
Y51329D01*
X246122Y51020D01*
X246105Y50712D01*
X246070Y50421D01*
X246053Y50181D01*
X246019Y49959D01*
X246002Y49787D01*
Y49736D01*
X245985Y49684D01*
Y49667D01*
Y49650D01*
X245951Y49342D01*
X245933Y49051D01*
X245916Y48777D01*
X245899Y48537D01*
X245882Y48314D01*
X245865Y48160D01*
Y48057D01*
Y48040D01*
Y48023D01*
X245437Y48040D01*
X244700D01*
X244272Y48023D01*
X243535D01*
X243569Y48365D01*
X243587Y48537D01*
X243604Y48674D01*
X243621Y48794D01*
X243638Y48896D01*
Y48965D01*
Y48982D01*
X243689Y49342D01*
X243706Y49513D01*
X243724Y49667D01*
X243741Y49787D01*
X243758Y49890D01*
Y49959D01*
Y49976D01*
X243792Y50284D01*
Y50421D01*
X243809Y50541D01*
Y50644D01*
X243826Y50729D01*
Y50781D01*
Y50798D01*
X243844Y51106D01*
X243861Y51243D01*
Y51363D01*
Y51466D01*
X243844Y51552D01*
Y51603D01*
Y51620D01*
X243826Y51809D01*
X243792Y51946D01*
X243741Y52048D01*
X243724Y52065D01*
Y52083D01*
X243621Y52220D01*
X243535Y52322D01*
X243467Y52374D01*
X243432Y52391D01*
X243330Y52442D01*
X243210Y52494D01*
X243004Y52528D01*
X242918D01*
X242850Y52511D01*
X242799D01*
X242576Y52460D01*
X242388Y52374D01*
X242319Y52340D01*
X242268Y52305D01*
X242233Y52288D01*
X242216Y52271D01*
X242045Y52117D01*
X241908Y51946D01*
X241874Y51877D01*
X241839Y51826D01*
X241805Y51791D01*
Y51774D01*
X241702Y51552D01*
X241634Y51363D01*
X241599Y51278D01*
X241582Y51209D01*
X241565Y51175D01*
Y51158D01*
X241462Y50592D01*
X241411Y50318D01*
X241377Y50078D01*
X241360Y49873D01*
X241343Y49719D01*
X241325Y49616D01*
Y49599D01*
Y49582D01*
X241308Y49290D01*
X241274Y48999D01*
X241257Y48742D01*
X241240Y48502D01*
X241223Y48314D01*
X241206Y48160D01*
X241188Y48057D01*
Y48040D01*
Y48023D01*
X240743Y48040D01*
X239989D01*
X239561Y48023D01*
X238807D01*
X238825Y48091D01*
Y48160D01*
X238842Y48211D01*
Y48228D01*
X238859Y48314D01*
X238876Y48382D01*
X238893Y48434D01*
Y48451D01*
X238979Y48982D01*
X239013Y49222D01*
X239047Y49445D01*
X239064Y49633D01*
X239081Y49770D01*
X239099Y49856D01*
Y49890D01*
X239133Y50164D01*
X239167Y50421D01*
X239184Y50678D01*
X239201Y50901D01*
X239236Y51072D01*
Y51226D01*
X239253Y51312D01*
Y51346D01*
X239304Y51877D01*
X239321Y52117D01*
X239338Y52340D01*
X239355Y52528D01*
X239373Y52665D01*
Y52751D01*
Y52785D01*
X239390Y53059D01*
X239424Y53316D01*
X239441Y53573D01*
X239458Y53796D01*
X239475Y53967D01*
X239493Y54121D01*
Y54207D01*
Y54241D01*
X239921Y54224D01*
X240640D01*
X241069Y54241D01*
X241805D01*
X241788Y54104D01*
X241771Y53984D01*
X241754Y53898D01*
Y53881D01*
Y53864D01*
X241737Y53727D01*
X241719Y53607D01*
X241702Y53522D01*
Y53504D01*
Y53487D01*
Y53453D01*
X241719Y53419D01*
X241737Y53402D01*
X241788D01*
X241805Y53419D01*
X241822Y53436D01*
X241942Y53573D01*
X242062Y53676D01*
X242130Y53744D01*
X242165Y53778D01*
X242302Y53881D01*
X242422Y53967D01*
X242507Y54018D01*
X242542Y54035D01*
X242867Y54190D01*
X243021Y54241D01*
X243158Y54275D01*
X243278Y54309D01*
X243364Y54327D01*
X243432Y54344D01*
X243450D01*
X243809Y54378D01*
X243964Y54395D01*
X244426D01*
X244597Y54361D01*
D02*
G37*
G36*
X255680Y54378D02*
X255766D01*
X255989Y54344D01*
X256194Y54292D01*
X256263Y54275D01*
X256331Y54258D01*
X256366Y54241D01*
X256383D01*
X256605Y54155D01*
X256777Y54053D01*
X256845Y54018D01*
X256897Y53984D01*
X256931Y53967D01*
X256948Y53950D01*
X257068Y53830D01*
X257171Y53710D01*
X257239Y53624D01*
X257256Y53607D01*
Y53590D01*
X257359Y53436D01*
X257411Y53282D01*
X257445Y53179D01*
Y53145D01*
Y53127D01*
X257479Y52819D01*
X257496Y52665D01*
Y52545D01*
Y52425D01*
X257479Y52340D01*
Y52288D01*
Y52271D01*
X257445Y51963D01*
X257428Y51826D01*
X257411Y51689D01*
Y51586D01*
X257393Y51483D01*
Y51432D01*
Y51415D01*
X257359Y51106D01*
X257342Y50798D01*
X257308Y50507D01*
X257291Y50250D01*
X257256Y50027D01*
X257239Y49856D01*
Y49787D01*
X257222Y49736D01*
Y49719D01*
Y49701D01*
X257188Y49376D01*
X257171Y49085D01*
X257136Y48794D01*
X257119Y48537D01*
X257102Y48331D01*
Y48160D01*
X257085Y48057D01*
Y48040D01*
Y48023D01*
X256657Y48040D01*
X255115D01*
X254978Y48023D01*
X254755D01*
X254807Y48400D01*
X254824Y48588D01*
X254858Y48742D01*
X254875Y48879D01*
Y48982D01*
X254892Y49051D01*
Y49068D01*
X254944Y49462D01*
X254961Y49650D01*
X254978Y49821D01*
Y49959D01*
X254995Y50061D01*
Y50130D01*
Y50147D01*
X255012Y50455D01*
X255029Y50575D01*
Y50712D01*
X255047Y50798D01*
X255064Y50884D01*
Y50935D01*
Y50952D01*
X255081Y51260D01*
Y51380D01*
Y51517D01*
X255064Y51603D01*
Y51689D01*
X255047Y51740D01*
Y51757D01*
X255012Y51911D01*
X254978Y52031D01*
X254927Y52117D01*
X254909Y52151D01*
X254824Y52271D01*
X254721Y52340D01*
X254670Y52391D01*
X254635Y52408D01*
X254533Y52460D01*
X254413Y52494D01*
X254224Y52528D01*
X254070D01*
X254036Y52511D01*
X254019D01*
X253796Y52460D01*
X253608Y52374D01*
X253539Y52340D01*
X253488Y52305D01*
X253453Y52288D01*
X253436Y52271D01*
X253248Y52100D01*
X253128Y51928D01*
X253077Y51860D01*
X253042Y51791D01*
X253008Y51757D01*
Y51740D01*
X252905Y51517D01*
X252837Y51295D01*
X252802Y51209D01*
X252785Y51140D01*
X252768Y51106D01*
Y51089D01*
X252665Y50524D01*
X252631Y50267D01*
X252597Y50044D01*
X252580Y49839D01*
X252563Y49684D01*
X252546Y49582D01*
Y49564D01*
Y49547D01*
X252529Y49256D01*
X252494Y48982D01*
X252477Y48725D01*
X252460Y48502D01*
X252443Y48297D01*
X252426Y48160D01*
X252409Y48057D01*
Y48040D01*
Y48023D01*
X251963Y48040D01*
X251209D01*
X250781Y48023D01*
X250045D01*
X250062Y48143D01*
Y48177D01*
Y48194D01*
X250079Y48297D01*
X250096Y48331D01*
Y48348D01*
X250165Y48879D01*
X250199Y49119D01*
X250233Y49342D01*
X250267Y49530D01*
X250284Y49684D01*
X250302Y49770D01*
Y49804D01*
X250336Y50078D01*
X250370Y50353D01*
X250404Y50609D01*
X250422Y50832D01*
X250439Y51003D01*
X250456Y51158D01*
X250473Y51243D01*
Y51278D01*
X250490Y51552D01*
X250524Y51826D01*
X250541Y52065D01*
X250558Y52288D01*
X250576Y52477D01*
X250593Y52631D01*
Y52716D01*
Y52751D01*
X250644Y53299D01*
X250661Y53539D01*
X250678Y53778D01*
X250696Y53967D01*
X250713Y54104D01*
Y54207D01*
Y54241D01*
X251141Y54224D01*
X251860D01*
X252289Y54241D01*
X253025D01*
X253008Y54104D01*
X252991Y53984D01*
X252974Y53916D01*
Y53881D01*
Y53761D01*
X252957Y53641D01*
X252940Y53573D01*
Y53539D01*
X252922Y53487D01*
Y53453D01*
X252940Y53436D01*
Y53419D01*
X252974Y53402D01*
X253008Y53385D01*
X253025Y53402D01*
X253179Y53573D01*
X253316Y53710D01*
X253419Y53796D01*
X253436Y53830D01*
X253453D01*
X253625Y53950D01*
X253796Y54035D01*
X253865Y54070D01*
X253899Y54104D01*
X253933Y54121D01*
X253950D01*
X254276Y54241D01*
X254413Y54275D01*
X254550Y54309D01*
X254670Y54344D01*
X254755D01*
X254824Y54361D01*
X254841D01*
X255184Y54395D01*
X255595D01*
X255680Y54378D01*
D02*
G37*
G36*
X218388Y64862D02*
X218645Y64536D01*
X218885Y64228D01*
X219108Y63971D01*
X219296Y63731D01*
X219433Y63560D01*
X219485Y63491D01*
X219519Y63440D01*
X219553Y63423D01*
Y63406D01*
X219827Y63080D01*
X220084Y62755D01*
X220324Y62446D01*
X220547Y62172D01*
X220735Y61949D01*
X220872Y61761D01*
X220924Y61693D01*
X220958Y61641D01*
X220992Y61624D01*
Y61607D01*
X220958Y61110D01*
X220924Y60870D01*
X220906Y60665D01*
X220889Y60476D01*
Y60339D01*
X220872Y60254D01*
Y60219D01*
X220821Y59723D01*
X220804Y59483D01*
X220787Y59277D01*
X220769Y59089D01*
Y58952D01*
X220752Y58866D01*
Y58832D01*
X220632Y59123D01*
X220513Y59414D01*
X220393Y59671D01*
X220290Y59911D01*
X220204Y60117D01*
X220136Y60271D01*
X220101Y60374D01*
X220084Y60408D01*
X219964Y60716D01*
X219844Y60990D01*
X219742Y61264D01*
X219639Y61504D01*
X219553Y61710D01*
X219485Y61864D01*
X219450Y61967D01*
X219433Y62001D01*
X219313Y62309D01*
X219194Y62583D01*
X219091Y62857D01*
X218988Y63097D01*
X218902Y63303D01*
X218834Y63457D01*
X218799Y63560D01*
X218782Y63594D01*
X218662Y63885D01*
X218543Y64176D01*
X218440Y64451D01*
X218337Y64690D01*
X218251Y64896D01*
X218183Y65050D01*
X218148Y65153D01*
X218131Y65170D01*
Y65187D01*
X218388Y64862D01*
D02*
G37*
G36*
X249856Y56536D02*
X249822Y56279D01*
X249788Y56074D01*
Y55971D01*
X249770Y55903D01*
Y55868D01*
Y55851D01*
X249753Y55611D01*
X249736Y55389D01*
X249719Y55303D01*
Y55234D01*
Y55200D01*
Y55183D01*
X247458D01*
X247475Y55440D01*
X247492Y55663D01*
Y55748D01*
X247509Y55817D01*
Y55851D01*
Y55868D01*
X247527Y56125D01*
X247544Y56348D01*
Y56434D01*
Y56502D01*
Y56536D01*
Y56554D01*
X247955Y56536D01*
X249291D01*
X249462Y56554D01*
X249856D01*
Y56536D01*
D02*
G37*
G36*
X222106Y61367D02*
X222448Y61350D01*
X222757Y61316D01*
X223031Y61299D01*
X223270Y61281D01*
X223459Y61264D01*
X223527Y61247D01*
X223613D01*
X223956Y61213D01*
X224298Y61196D01*
X224607Y61162D01*
X224881Y61144D01*
X225103Y61110D01*
X225292Y61093D01*
X225360D01*
X225412Y61076D01*
X225617D01*
X225652Y61059D01*
X225960Y61024D01*
X226114Y61007D01*
X226234Y60990D01*
X226354Y60956D01*
X226439Y60939D01*
X226491Y60922D01*
X226508D01*
X226816Y60819D01*
X226953Y60768D01*
X227073Y60699D01*
X227176Y60665D01*
X227245Y60613D01*
X227296Y60596D01*
X227313Y60579D01*
X227553Y60425D01*
X227776Y60271D01*
X227844Y60219D01*
X227913Y60168D01*
X227947Y60134D01*
X227964Y60117D01*
X228187Y59911D01*
X228375Y59705D01*
X228444Y59620D01*
X228495Y59551D01*
X228529Y59517D01*
X228547Y59500D01*
X228683Y59294D01*
X228786Y59106D01*
X228838Y59020D01*
X228855Y58952D01*
X228889Y58917D01*
Y58900D01*
X229009Y58678D01*
X229095Y58455D01*
X229129Y58369D01*
X229146Y58301D01*
X229163Y58267D01*
Y58249D01*
X229232Y57924D01*
X229266Y57770D01*
X229283Y57633D01*
Y57513D01*
X229300Y57427D01*
Y57359D01*
Y57341D01*
Y56999D01*
Y56845D01*
X229283Y56708D01*
X229266Y56588D01*
X229249Y56502D01*
X229232Y56434D01*
Y56416D01*
X229180Y56194D01*
X229112Y56005D01*
X229078Y55920D01*
X229060Y55868D01*
X229043Y55834D01*
Y55817D01*
X228958Y55611D01*
X228872Y55440D01*
X228838Y55372D01*
X228820Y55320D01*
X228786Y55286D01*
Y55269D01*
X228649Y55063D01*
X228512Y54892D01*
X228461Y54823D01*
X228427Y54772D01*
X228409Y54738D01*
X228392Y54721D01*
X228238Y54549D01*
X228101Y54412D01*
X227998Y54327D01*
X227964Y54292D01*
X227947D01*
X227639Y54686D01*
X227484Y54875D01*
X227364Y55046D01*
X227245Y55183D01*
X227159Y55286D01*
X227108Y55354D01*
X227090Y55372D01*
X226782Y55765D01*
X226628Y55937D01*
X226508Y56108D01*
X226388Y56245D01*
X226302Y56348D01*
X226251Y56416D01*
X226234Y56434D01*
X226320Y56554D01*
X226405Y56656D01*
X226439Y56742D01*
X226457Y56776D01*
X226508Y56913D01*
X226542Y57050D01*
X226559Y57153D01*
Y57170D01*
Y57187D01*
Y57307D01*
X226542Y57427D01*
X226491Y57633D01*
X226457Y57701D01*
X226439Y57753D01*
X226405Y57787D01*
Y57804D01*
X226285Y57992D01*
X226148Y58130D01*
X226045Y58215D01*
X226028Y58249D01*
X226011D01*
X225857Y58335D01*
X225720Y58386D01*
X225566Y58421D01*
X225429Y58455D01*
X225326Y58472D01*
X225155D01*
X224829Y58489D01*
X224675D01*
X224555Y58506D01*
X224435Y58523D01*
X224350D01*
X224298Y58541D01*
X224281D01*
X224247Y58010D01*
X224195Y57496D01*
X224161Y56999D01*
X224127Y56571D01*
X224110Y56382D01*
X224093Y56211D01*
X224076Y56057D01*
X224058Y55920D01*
Y55817D01*
X224041Y55748D01*
Y55697D01*
Y55680D01*
X223990Y55149D01*
X223956Y54652D01*
X223921Y54155D01*
X223870Y53727D01*
X223853Y53539D01*
Y53367D01*
X223836Y53213D01*
X223819Y53076D01*
Y52973D01*
X223801Y52905D01*
Y52853D01*
Y52836D01*
X223750Y52305D01*
X223716Y51791D01*
X223664Y51312D01*
X223630Y50884D01*
X223613Y50695D01*
X223596Y50524D01*
X223579Y50370D01*
X223562Y50233D01*
Y50130D01*
X223545Y50061D01*
Y50010D01*
Y49993D01*
X223493Y49462D01*
X223459Y48948D01*
X223425Y48468D01*
X223373Y48040D01*
X223356Y47851D01*
Y47680D01*
X223339Y47526D01*
X223322Y47389D01*
Y47286D01*
X223305Y47218D01*
Y47166D01*
Y47149D01*
X220564D01*
X220615Y47817D01*
X220667Y48451D01*
X220718Y49051D01*
X220735Y49325D01*
X220769Y49599D01*
X220787Y49821D01*
X220804Y50044D01*
X220821Y50233D01*
X220838Y50387D01*
Y50524D01*
X220855Y50609D01*
Y50678D01*
Y50695D01*
X220906Y51363D01*
X220975Y51997D01*
X221026Y52614D01*
X221043Y52888D01*
X221061Y53145D01*
X221095Y53385D01*
X221112Y53607D01*
X221129Y53796D01*
Y53950D01*
X221146Y54087D01*
X221163Y54172D01*
Y54241D01*
Y54258D01*
X221215Y54926D01*
X221283Y55577D01*
X221335Y56177D01*
X221352Y56468D01*
X221369Y56725D01*
X221403Y56965D01*
X221420Y57187D01*
X221438Y57376D01*
Y57530D01*
X221455Y57667D01*
X221472Y57753D01*
Y57821D01*
Y57838D01*
X221523Y58506D01*
X221574Y59140D01*
X221626Y59757D01*
X221660Y60031D01*
X221677Y60288D01*
X221694Y60528D01*
X221712Y60750D01*
X221729Y60939D01*
X221746Y61093D01*
Y61230D01*
X221763Y61316D01*
Y61384D01*
Y61401D01*
X222106Y61367D01*
D02*
G37*
G36*
X224812Y50918D02*
X225172Y50747D01*
X225497Y50575D01*
X225806Y50421D01*
X226063Y50301D01*
X226165Y50250D01*
X226251Y50198D01*
X226320Y50164D01*
X226371Y50130D01*
X226405Y50113D01*
X226422D01*
X226799Y49924D01*
X227159Y49753D01*
X227484Y49582D01*
X227793Y49427D01*
X228050Y49308D01*
X228152Y49256D01*
X228238Y49205D01*
X228307Y49171D01*
X228358Y49136D01*
X228392Y49119D01*
X228409D01*
X228786Y48931D01*
X229146Y48759D01*
X229471Y48588D01*
X229780Y48451D01*
X230037Y48314D01*
X230140Y48263D01*
X230225Y48228D01*
X230294Y48194D01*
X230345Y48160D01*
X230379Y48143D01*
X230397D01*
X230773Y47954D01*
X231116Y47783D01*
X231459Y47612D01*
X231750Y47458D01*
X232007Y47338D01*
X232109Y47286D01*
X232195Y47235D01*
X232264Y47201D01*
X232315Y47166D01*
X232349Y47149D01*
X224110D01*
X224144Y47526D01*
X224178Y47869D01*
X224195Y48211D01*
X224230Y48502D01*
X224247Y48759D01*
X224264Y48862D01*
Y48948D01*
X224281Y49016D01*
Y49068D01*
Y49102D01*
Y49119D01*
X224315Y49496D01*
X224350Y49856D01*
X224367Y50181D01*
X224384Y50489D01*
X224418Y50747D01*
Y50849D01*
Y50935D01*
X224435Y51003D01*
Y51055D01*
Y51089D01*
Y51106D01*
X224812Y50918D01*
D02*
G37*
G36*
X235587Y54378D02*
X235672D01*
X235981Y54344D01*
X236135Y54309D01*
X236255Y54275D01*
X236358Y54258D01*
X236443Y54224D01*
X236495Y54207D01*
X236512D01*
X236803Y54104D01*
X236940Y54035D01*
X237060Y53984D01*
X237146Y53933D01*
X237214Y53898D01*
X237266Y53881D01*
X237283Y53864D01*
X237523Y53693D01*
X237728Y53522D01*
X237797Y53453D01*
X237848Y53385D01*
X237882Y53350D01*
X237899Y53333D01*
X238088Y53093D01*
X238225Y52871D01*
X238259Y52768D01*
X238293Y52699D01*
X238328Y52648D01*
Y52631D01*
X238396Y52442D01*
X238448Y52254D01*
X238482Y52083D01*
X238516Y51928D01*
X238533Y51791D01*
X238550Y51671D01*
Y51603D01*
Y51586D01*
Y51209D01*
X238533Y51020D01*
X238516Y50866D01*
X238499Y50747D01*
X238482Y50644D01*
X238465Y50575D01*
Y50558D01*
X238413Y50335D01*
X238362Y50147D01*
X238328Y50061D01*
X238311Y50010D01*
X238293Y49976D01*
Y49959D01*
X238208Y49770D01*
X238122Y49599D01*
X238088Y49530D01*
X238071Y49479D01*
X238036Y49462D01*
Y49445D01*
X237865Y49222D01*
X237711Y49033D01*
X237643Y48965D01*
X237608Y48913D01*
X237574Y48879D01*
X237557Y48862D01*
X237368Y48691D01*
X237180Y48537D01*
X237111Y48485D01*
X237043Y48451D01*
X237009Y48434D01*
X236992Y48417D01*
X236735Y48280D01*
X236512Y48177D01*
X236409Y48143D01*
X236341Y48108D01*
X236289Y48091D01*
X236272D01*
X235998Y48023D01*
X235775Y47971D01*
X235672Y47954D01*
X235604Y47937D01*
X235553Y47920D01*
X235536D01*
X235039Y47869D01*
X234439D01*
X234302Y47886D01*
X234182D01*
X233942Y47920D01*
X233703Y47971D01*
X233480Y48023D01*
X233274Y48091D01*
X233120Y48143D01*
X232983Y48194D01*
X232915Y48228D01*
X232880Y48245D01*
X232675Y48348D01*
X232521Y48451D01*
X232452Y48485D01*
X232401Y48520D01*
X232366Y48554D01*
X232349D01*
X232178Y48708D01*
X232024Y48879D01*
X231973Y48931D01*
X231921Y48982D01*
X231904Y49016D01*
X231887Y49033D01*
X231750Y49239D01*
X231647Y49427D01*
X231613Y49496D01*
X231578Y49564D01*
X231561Y49599D01*
Y49616D01*
X231476Y49856D01*
X231424Y50078D01*
X231407Y50164D01*
X231390Y50233D01*
X231373Y50267D01*
Y50284D01*
X231356Y50489D01*
X231339Y50695D01*
Y50901D01*
X231356Y51072D01*
Y51226D01*
X231373Y51329D01*
X231390Y51415D01*
Y51432D01*
X231441Y51654D01*
X231493Y51860D01*
X231544Y52048D01*
X231613Y52220D01*
X231664Y52357D01*
X231715Y52460D01*
X231733Y52528D01*
X231750Y52545D01*
X231853Y52733D01*
X231973Y52888D01*
X232041Y52991D01*
X232075Y53008D01*
Y53025D01*
X232212Y53196D01*
X232349Y53316D01*
X232435Y53402D01*
X232452Y53436D01*
X232469D01*
X232641Y53573D01*
X232795Y53693D01*
X232863Y53744D01*
X232897Y53761D01*
X232932Y53796D01*
X232949D01*
X233154Y53916D01*
X233343Y54001D01*
X233411Y54035D01*
X233463Y54053D01*
X233497Y54070D01*
X233514D01*
X233891Y54207D01*
X234062Y54241D01*
X234234Y54292D01*
X234371Y54309D01*
X234473Y54327D01*
X234559Y54344D01*
X234576D01*
X234987Y54378D01*
X235176Y54395D01*
X235467D01*
X235587Y54378D01*
D02*
G37*
G36*
X224949Y56142D02*
X225018Y56108D01*
X225069Y56091D01*
X225086D01*
X225172Y56074D01*
X225240D01*
X225292Y56057D01*
X225309D01*
X225360Y56074D01*
X225395Y56057D01*
X225429Y56040D01*
Y56023D01*
X225514Y55937D01*
X225532Y55920D01*
Y55903D01*
X225806Y55560D01*
X226080Y55234D01*
X226320Y54926D01*
X226542Y54652D01*
X226731Y54412D01*
X226885Y54224D01*
X226936Y54155D01*
X226971Y54104D01*
X227005Y54087D01*
Y54070D01*
X227279Y53727D01*
X227553Y53385D01*
X227793Y53076D01*
X228015Y52802D01*
X228204Y52562D01*
X228358Y52374D01*
X228409Y52305D01*
X228444Y52254D01*
X228478Y52237D01*
Y52220D01*
X228752Y51877D01*
X229026Y51552D01*
X229266Y51243D01*
X229489Y50952D01*
X229677Y50712D01*
X229831Y50524D01*
X229883Y50455D01*
X229917Y50404D01*
X229951Y50387D01*
Y50370D01*
X230225Y50027D01*
X230499Y49701D01*
X230739Y49376D01*
X230979Y49102D01*
X231167Y48879D01*
X231304Y48691D01*
X231373Y48622D01*
X231407Y48571D01*
X231441Y48554D01*
Y48537D01*
X231116Y48691D01*
X230808Y48845D01*
X230499Y48999D01*
X230242Y49119D01*
X230020Y49239D01*
X229848Y49325D01*
X229780Y49359D01*
X229728Y49376D01*
X229711Y49393D01*
X229694D01*
X229369Y49547D01*
X229060Y49701D01*
X228769Y49856D01*
X228512Y49976D01*
X228290Y50095D01*
X228135Y50181D01*
X228067Y50215D01*
X228015Y50233D01*
X227998Y50250D01*
X227981D01*
X227656Y50421D01*
X227347Y50575D01*
X227056Y50729D01*
X226799Y50849D01*
X226576Y50969D01*
X226405Y51055D01*
X226337Y51089D01*
X226285Y51106D01*
X226268Y51123D01*
X226251D01*
X225926Y51295D01*
X225617Y51449D01*
X225326Y51603D01*
X225069Y51723D01*
X224846Y51843D01*
X224675Y51928D01*
X224624Y51963D01*
X224572Y51980D01*
X224555Y51997D01*
X224538D01*
X224572Y52374D01*
X224607Y52751D01*
X224624Y53110D01*
X224641Y53419D01*
X224675Y53693D01*
Y53796D01*
Y53898D01*
X224692Y53967D01*
Y54018D01*
Y54053D01*
Y54070D01*
X224727Y54464D01*
X224761Y54840D01*
X224795Y55200D01*
X224812Y55509D01*
X224846Y55783D01*
Y55903D01*
X224864Y55988D01*
Y56074D01*
X224881Y56125D01*
Y56160D01*
Y56177D01*
X224949Y56142D01*
D02*
G37*
G36*
X218799Y61470D02*
X218971Y61024D01*
X219125Y60613D01*
X219279Y60254D01*
X219348Y60082D01*
X219399Y59945D01*
X219450Y59808D01*
X219502Y59705D01*
X219536Y59620D01*
X219570Y59551D01*
X219587Y59517D01*
Y59500D01*
X219776Y59054D01*
X219964Y58609D01*
X220136Y58215D01*
X220290Y57838D01*
X220358Y57684D01*
X220427Y57530D01*
X220478Y57410D01*
X220530Y57290D01*
X220564Y57205D01*
X220598Y57136D01*
X220615Y57102D01*
Y57085D01*
X220581Y56776D01*
X220564Y56468D01*
X220530Y56177D01*
X220513Y55937D01*
X220495Y55714D01*
X220478Y55543D01*
Y55492D01*
X220461Y55440D01*
Y55423D01*
Y55406D01*
X220444Y55098D01*
X220410Y54789D01*
X220393Y54498D01*
X220375Y54258D01*
X220358Y54035D01*
X220341Y53864D01*
X220324Y53813D01*
Y53761D01*
Y53744D01*
Y53727D01*
X220290Y53419D01*
X220273Y53127D01*
X220238Y52836D01*
X220221Y52596D01*
X220204Y52374D01*
X220187Y52202D01*
Y52151D01*
X220170Y52100D01*
Y52083D01*
Y52065D01*
X220153Y51757D01*
X220118Y51449D01*
X220101Y51158D01*
X220084Y50901D01*
X220067Y50678D01*
X220050Y50524D01*
X220033Y50455D01*
Y50404D01*
Y50387D01*
Y50370D01*
X219759Y50284D01*
X219485Y50198D01*
X219245Y50113D01*
X219022Y50027D01*
X218834Y49976D01*
X218680Y49924D01*
X218594Y49890D01*
X218577Y49873D01*
X218560D01*
X218286Y49787D01*
X218011Y49701D01*
X217772Y49616D01*
X217549Y49530D01*
X217361Y49479D01*
X217206Y49427D01*
X217121Y49393D01*
X217104Y49376D01*
X217087D01*
X216812Y49273D01*
X216538Y49188D01*
X216299Y49102D01*
X216076Y49033D01*
X215887Y48965D01*
X215733Y48913D01*
X215648Y48896D01*
X215630Y48879D01*
X215613D01*
X215339Y48794D01*
X215065Y48708D01*
X214825Y48622D01*
X214603Y48537D01*
X214414Y48485D01*
X214260Y48434D01*
X214174Y48400D01*
X214157Y48382D01*
X214140D01*
X214020Y48485D01*
X213900Y48588D01*
X213832Y48657D01*
X213797Y48674D01*
X213678Y48811D01*
X213575Y48913D01*
X213506Y48999D01*
X213472Y49033D01*
X213335Y49239D01*
X213215Y49410D01*
X213164Y49496D01*
X213129Y49547D01*
X213095Y49582D01*
Y49599D01*
X212975Y49839D01*
X212873Y50044D01*
X212838Y50130D01*
X212804Y50198D01*
X212787Y50233D01*
Y50250D01*
X212718Y50455D01*
X212684Y50661D01*
X212650Y50866D01*
X212616Y51038D01*
Y51192D01*
X212598Y51312D01*
Y51380D01*
Y51415D01*
X212633Y51860D01*
X212650Y52065D01*
X212684Y52237D01*
X212718Y52391D01*
X212736Y52494D01*
X212770Y52579D01*
Y52596D01*
X212873Y52922D01*
X212941Y53076D01*
X213010Y53196D01*
X213061Y53299D01*
X213112Y53385D01*
X213129Y53436D01*
X213147Y53453D01*
X213352Y53744D01*
X213438Y53864D01*
X213524Y53984D01*
X213609Y54070D01*
X213661Y54138D01*
X213695Y54172D01*
X213712Y54190D01*
X213935Y54378D01*
X214140Y54532D01*
X214226Y54601D01*
X214294Y54652D01*
X214329Y54669D01*
X214346Y54686D01*
X214585Y54840D01*
X214808Y54960D01*
X214894Y55012D01*
X214962Y55046D01*
X215014Y55063D01*
X215031D01*
X215442Y55183D01*
X215613Y55234D01*
X215785Y55269D01*
X215922Y55286D01*
X216042Y55303D01*
X216110Y55320D01*
X216127D01*
X216333Y55337D01*
X216538Y55354D01*
X216727D01*
X216898Y55337D01*
X217035Y55320D01*
X217155Y55303D01*
X217224Y55286D01*
X217241D01*
X217189Y54823D01*
X217172Y54601D01*
X217155Y54412D01*
X217138Y54258D01*
Y54121D01*
X217121Y54053D01*
Y54018D01*
X217087Y53573D01*
X217069Y53350D01*
X217052Y53179D01*
X217035Y53008D01*
Y52888D01*
X217018Y52819D01*
Y52785D01*
X217001Y52699D01*
Y52682D01*
Y52665D01*
Y52631D01*
X216984Y52614D01*
X216967Y52596D01*
X216847Y52614D01*
X216727Y52631D01*
X216658Y52648D01*
X216624D01*
X216504Y52665D01*
X216401D01*
X216333Y52648D01*
X216299D01*
X216127Y52596D01*
X215990Y52545D01*
X215887Y52477D01*
X215870Y52460D01*
X215853D01*
X215716Y52340D01*
X215613Y52220D01*
X215528Y52117D01*
X215511Y52100D01*
Y52083D01*
X215442Y51980D01*
X215408Y51860D01*
X215339Y51654D01*
Y51569D01*
X215322Y51500D01*
Y51449D01*
Y51432D01*
X215356Y51175D01*
X215391Y51055D01*
X215425Y50969D01*
X215459Y50884D01*
X215493Y50832D01*
X215528Y50798D01*
Y50781D01*
X215665Y50644D01*
X215785Y50541D01*
X215887Y50455D01*
X215904Y50438D01*
X215922D01*
X216093Y50353D01*
X216264Y50318D01*
X216333Y50301D01*
X216573D01*
X216692Y50318D01*
X216761Y50335D01*
X216795D01*
X216932Y50387D01*
X217052Y50421D01*
X217121Y50455D01*
X217155Y50472D01*
X217292Y50592D01*
X217412Y50695D01*
X217480Y50781D01*
X217515Y50815D01*
X217600Y50986D01*
X217652Y51140D01*
X217669Y51209D01*
X217686Y51260D01*
Y51295D01*
Y51312D01*
X217720Y51757D01*
X217755Y52185D01*
X217789Y52579D01*
X217823Y52939D01*
X217840Y53093D01*
X217857Y53247D01*
Y53367D01*
X217875Y53470D01*
Y53556D01*
X217892Y53624D01*
Y53659D01*
Y53676D01*
X217943Y54121D01*
X217977Y54549D01*
X218011Y54960D01*
X218046Y55320D01*
X218063Y55474D01*
X218080Y55629D01*
Y55748D01*
X218097Y55851D01*
Y55937D01*
X218114Y56005D01*
Y56040D01*
Y56057D01*
X218148Y56502D01*
X218183Y56930D01*
X218217Y57324D01*
X218251Y57684D01*
Y57838D01*
X218268Y57992D01*
X218286Y58112D01*
Y58215D01*
X218303Y58301D01*
Y58369D01*
Y58404D01*
Y58421D01*
X218337Y58866D01*
X218371Y59294D01*
X218406Y59688D01*
X218440Y60048D01*
Y60219D01*
X218457Y60356D01*
X218474Y60493D01*
Y60596D01*
X218491Y60682D01*
Y60750D01*
Y60785D01*
Y60802D01*
X218525Y60990D01*
X218543Y61162D01*
X218560Y61230D01*
Y61281D01*
Y61316D01*
Y61333D01*
X218577Y61555D01*
X218594Y61727D01*
Y61812D01*
X218611Y61864D01*
Y61898D01*
Y61915D01*
X218799Y61470D01*
D02*
G37*
%LPC*%
G36*
X237087Y186676D02*
X236465D01*
X236183Y186620D01*
X236013Y186563D01*
X235957Y186507D01*
X235674Y186394D01*
X235448Y186281D01*
X235279Y186224D01*
X235222Y186168D01*
X234940Y185998D01*
X234601Y185885D01*
X234431Y185829D01*
X234318Y185772D01*
X233979Y185659D01*
X233640Y185603D01*
X232623D01*
X232397Y185546D01*
X232284D01*
X231832Y185490D01*
X231437Y185433D01*
X231315Y185403D01*
X231663Y185094D01*
X231719Y185038D01*
X231889Y184868D01*
X232115Y184586D01*
X232341Y184303D01*
X232849Y183682D01*
X233019Y183399D01*
X233132Y183230D01*
X233188Y183117D01*
X233245Y183004D01*
X233301Y182947D01*
X233584Y182778D01*
X233753Y182608D01*
X233866Y182495D01*
X233923Y182439D01*
X234092Y182326D01*
X234205Y182269D01*
X234318D01*
X234996Y181987D01*
X235505Y181874D01*
X235787Y181761D01*
X236296D01*
X236748Y181704D01*
X237087Y181648D01*
X237143Y181591D01*
X237200D01*
X238499Y181478D01*
X239177Y181422D01*
X239799D01*
X240307Y181365D01*
X244319D01*
X244997Y181422D01*
X245675Y181535D01*
X245901Y181591D01*
X246127Y181648D01*
X246240Y181704D01*
X246296D01*
X247087Y181987D01*
X247765Y182156D01*
X248048Y182213D01*
X248274Y182269D01*
X248387Y182326D01*
X248443D01*
X248895Y182382D01*
X249291D01*
X249517Y182326D01*
X249630D01*
X250082Y182213D01*
X250421Y182100D01*
X250647Y182043D01*
X250760Y181987D01*
X251155Y181817D01*
X251494Y181704D01*
X251720Y181591D01*
X251833Y181535D01*
X252172Y181422D01*
X252511Y181365D01*
X253585D01*
X253924Y181478D01*
X254037Y181535D01*
X254093D01*
X254489Y181648D01*
X254658Y181704D01*
X254715D01*
X254997Y181761D01*
X255280Y181817D01*
X255562D01*
X255958Y181761D01*
X256240Y181704D01*
X256466Y181648D01*
X256579Y181591D01*
X256918Y181478D01*
X257201Y181365D01*
X257427Y181309D01*
X257483Y181252D01*
X257822Y181139D01*
X258105Y181026D01*
X258274Y180970D01*
X258331D01*
X258613Y180913D01*
X258839Y180857D01*
X259122D01*
X259178Y180913D01*
Y180970D01*
X259235Y181026D01*
Y181083D01*
X259291Y181252D01*
Y181365D01*
Y181761D01*
X259235Y181930D01*
Y181987D01*
X259178Y182269D01*
Y182495D01*
Y182608D01*
Y182665D01*
X259122Y182891D01*
Y183117D01*
Y183286D01*
Y183343D01*
Y183625D01*
Y183908D01*
Y184077D01*
Y184134D01*
Y184360D01*
X259065Y184473D01*
X259009Y184699D01*
Y184755D01*
X258952Y184812D01*
X258896Y184868D01*
X258839Y184925D01*
X258783D01*
X258613Y184981D01*
X258331D01*
X258048Y184925D01*
X257992Y184868D01*
X257935D01*
X257596Y184755D01*
X257427Y184699D01*
X256749D01*
X255901Y184812D01*
X255223Y184981D01*
X254941Y185038D01*
X254715Y185151D01*
X254602Y185207D01*
X254545D01*
X253811Y185490D01*
X253133Y185716D01*
X252850Y185772D01*
X252624D01*
X252511Y185829D01*
X252455D01*
X252059Y185885D01*
X251777D01*
X251607Y185829D01*
X251551D01*
X251268Y185772D01*
X251042Y185716D01*
X250873Y185659D01*
X250816D01*
X250534Y185546D01*
X250308Y185490D01*
X250082Y185433D01*
X250025Y185377D01*
X249686Y185320D01*
X249008D01*
X248613Y185433D01*
X248330Y185490D01*
X248104Y185603D01*
X248048D01*
X247765Y185716D01*
X247539Y185829D01*
X247370Y185942D01*
X247313D01*
X247087Y186111D01*
X246861Y186224D01*
X246692Y186281D01*
X246635D01*
X246409Y186337D01*
X246183Y186394D01*
X246014Y186450D01*
X245392D01*
X245166Y186394D01*
X245110D01*
X244771Y186281D01*
X244432Y186168D01*
X244149Y186111D01*
X244093Y186055D01*
X244036D01*
X243584Y185942D01*
X243189Y185829D01*
X242906Y185772D01*
X242850Y185716D01*
X242793D01*
X242285Y185659D01*
X241437D01*
X240477Y185829D01*
X240025Y185942D01*
X239629Y185998D01*
X239290Y186111D01*
X239064Y186168D01*
X238895Y186224D01*
X238838D01*
X237991Y186507D01*
X237369Y186620D01*
X237087Y186676D01*
D02*
G37*
G36*
X272199Y162227D02*
X272456Y161816D01*
X272512Y161703D01*
X272569Y161590D01*
X272120Y160251D01*
X272230Y160178D01*
X272343Y160121D01*
X273473Y161477D01*
X273416D01*
X273360Y161534D01*
X273021Y161760D01*
X272569Y162042D01*
X272199Y162227D01*
D02*
G37*
G36*
X224812Y50353D02*
Y50318D01*
X224761Y49839D01*
X224744Y49616D01*
X224727Y49410D01*
X224709Y49239D01*
Y49119D01*
X224692Y49033D01*
Y48999D01*
X224658Y48520D01*
X224641Y48297D01*
X224624Y48108D01*
X224607Y47937D01*
Y47817D01*
X224589Y47732D01*
Y47697D01*
X225103D01*
X225617Y47680D01*
X227878D01*
X228392Y47663D01*
X230174D01*
X230157Y47680D01*
X230122Y47697D01*
X230105D01*
X230054Y47732D01*
X230020Y47749D01*
X229985Y47766D01*
X229506Y48006D01*
X229283Y48108D01*
X229095Y48211D01*
X228923Y48280D01*
X228803Y48348D01*
X228718Y48382D01*
X228683Y48400D01*
X228204Y48640D01*
X227981Y48742D01*
X227793Y48845D01*
X227621Y48931D01*
X227502Y48999D01*
X227416Y49033D01*
X227382Y49051D01*
X226919Y49290D01*
X226696Y49393D01*
X226508Y49496D01*
X226337Y49582D01*
X226217Y49650D01*
X226131Y49684D01*
X226097Y49701D01*
X225617Y49941D01*
X225412Y50044D01*
X225206Y50147D01*
X225052Y50233D01*
X224915Y50301D01*
X224846Y50335D01*
X224812Y50353D01*
D02*
G37*
G36*
X219759Y62429D02*
Y62412D01*
X219776Y62378D01*
Y62361D01*
X219913Y62052D01*
X219982Y61915D01*
X220033Y61778D01*
X220067Y61675D01*
X220101Y61573D01*
X220136Y61521D01*
Y61504D01*
X220255Y61196D01*
X220324Y61042D01*
X220375Y60922D01*
X220410Y60802D01*
X220444Y60716D01*
X220478Y60665D01*
Y60648D01*
X220495Y60802D01*
X220513Y60939D01*
X220530Y61024D01*
Y61059D01*
X220547Y61213D01*
Y61350D01*
Y61453D01*
Y61470D01*
Y61487D01*
X220410Y61641D01*
X220290Y61795D01*
X220204Y61898D01*
X220187Y61915D01*
X220170Y61932D01*
X220033Y62121D01*
X219896Y62275D01*
X219810Y62378D01*
X219793Y62395D01*
X219776Y62412D01*
X219759Y62429D01*
D02*
G37*
G36*
X235244Y52699D02*
X234919D01*
X234816Y52682D01*
X234748Y52665D01*
X234730Y52648D01*
X234542Y52579D01*
X234405Y52511D01*
X234302Y52442D01*
X234285Y52408D01*
X234268D01*
X234131Y52271D01*
X234011Y52134D01*
X233942Y52031D01*
X233908Y51997D01*
Y51980D01*
X233822Y51774D01*
X233754Y51586D01*
X233737Y51500D01*
X233720Y51432D01*
X233703Y51397D01*
Y51380D01*
X233668Y51158D01*
X233651Y50952D01*
Y50866D01*
Y50798D01*
Y50764D01*
Y50747D01*
X233668Y50558D01*
X233685Y50404D01*
X233703Y50301D01*
X233720Y50284D01*
Y50267D01*
X233788Y50130D01*
X233857Y50010D01*
X233908Y49924D01*
X233925Y49890D01*
X234028Y49787D01*
X234131Y49701D01*
X234234Y49633D01*
X234336Y49582D01*
X234422Y49547D01*
X234491Y49513D01*
X234542Y49496D01*
X234559D01*
X234696Y49479D01*
X234833D01*
X234953Y49496D01*
X235056Y49513D01*
X235159Y49530D01*
X235227Y49564D01*
X235261Y49582D01*
X235279D01*
X235467Y49650D01*
X235604Y49753D01*
X235707Y49839D01*
X235724Y49856D01*
X235741Y49873D01*
X235878Y50061D01*
X235998Y50233D01*
X236032Y50301D01*
X236067Y50353D01*
X236084Y50387D01*
Y50404D01*
X236152Y50644D01*
X236204Y50884D01*
X236221Y50969D01*
X236238Y51038D01*
Y51089D01*
Y51106D01*
Y51397D01*
Y51517D01*
X236221Y51637D01*
Y51723D01*
X236204Y51791D01*
X236186Y51843D01*
Y51860D01*
X236118Y52083D01*
X236015Y52271D01*
X235964Y52322D01*
X235912Y52374D01*
X235895Y52391D01*
X235878Y52408D01*
X235690Y52545D01*
X235518Y52631D01*
X235450Y52648D01*
X235399Y52665D01*
X235364Y52682D01*
X235347D01*
X235244Y52699D01*
D02*
G37*
G36*
X234714Y177580D02*
X234601D01*
X234488Y177523D01*
X234375Y177354D01*
X234205Y177071D01*
X233923Y176619D01*
X233753Y176337D01*
X233584Y175941D01*
X233414Y175546D01*
X233188Y175094D01*
X232962Y174529D01*
X232736Y173907D01*
Y173851D01*
X232680Y173738D01*
X232623Y173568D01*
X232510Y173342D01*
X232341Y172777D01*
X232115Y172099D01*
X231945Y171365D01*
X231832Y170743D01*
X231776Y170178D01*
X231832Y169952D01*
X231889Y169839D01*
X232002Y169726D01*
X232228Y169613D01*
X232567Y169387D01*
X232849Y169218D01*
X233188Y169048D01*
X233584Y168822D01*
X234036Y168540D01*
X234601Y168257D01*
X235222Y167918D01*
X235957Y167523D01*
X236804Y167127D01*
X236861D01*
X237030Y167014D01*
X237256Y166901D01*
X237652Y166732D01*
X238047Y166506D01*
X238612Y166223D01*
X239177Y165941D01*
X239855Y165602D01*
X240590Y165263D01*
X241381Y164867D01*
X243132Y164020D01*
X245053Y163059D01*
X247087Y162042D01*
X247144Y161986D01*
X247313Y161929D01*
X247652Y161760D01*
X248048Y161590D01*
X248556Y161364D01*
X249121Y161082D01*
X249799Y160743D01*
X250534Y160404D01*
X252116Y159613D01*
X253867Y158822D01*
X255675Y157918D01*
X257483Y157070D01*
X257540D01*
X257709Y156957D01*
X257935Y156844D01*
X258218Y156731D01*
X258613Y156562D01*
X259009Y156336D01*
X259969Y155940D01*
X260873Y155488D01*
X261721Y155093D01*
X262060Y154923D01*
X262399Y154810D01*
X262625Y154697D01*
X262738Y154641D01*
X262794D01*
X262907Y154584D01*
X263190Y154471D01*
X263529Y154358D01*
X264037Y154189D01*
X264715Y154019D01*
X265506Y153737D01*
X266467Y153454D01*
X266523D01*
X266580Y153398D01*
X266919Y153341D01*
X267371Y153172D01*
X267879Y153059D01*
X268388Y152889D01*
X268840Y152720D01*
X269179Y152663D01*
X269235Y152607D01*
X269292D01*
X269348Y152550D01*
X269491Y152408D01*
X272120Y160251D01*
X272060Y160291D01*
X271834Y160347D01*
X271608Y160460D01*
X271326Y160630D01*
X270930Y160799D01*
X270478Y161025D01*
X269913Y161251D01*
X269235Y161590D01*
X268444Y161929D01*
X267540Y162381D01*
X266523Y162833D01*
X266467Y162890D01*
X266241Y162946D01*
X265958Y163116D01*
X265506Y163342D01*
X264941Y163568D01*
X264320Y163907D01*
X263585Y164246D01*
X262738Y164641D01*
X261834Y165037D01*
X260817Y165545D01*
X259800Y166054D01*
X258670Y166562D01*
X256240Y167692D01*
X253698Y168879D01*
X253641Y168935D01*
X253415Y169048D01*
X253020Y169218D01*
X252511Y169444D01*
X251890Y169726D01*
X251212Y170065D01*
X250364Y170461D01*
X249460Y170913D01*
X248500Y171365D01*
X247483Y171817D01*
X245336Y172834D01*
X243076Y173907D01*
X240816Y174924D01*
X240759Y174981D01*
X240590Y175037D01*
X240251Y175150D01*
X239912Y175376D01*
X239460Y175546D01*
X238951Y175772D01*
X237821Y176280D01*
X236691Y176789D01*
X236183Y177015D01*
X235674Y177184D01*
X235279Y177354D01*
X234940Y177467D01*
X234714Y177580D01*
D02*
G37*
G36*
X269491Y152408D02*
X269179Y151477D01*
Y151420D01*
Y151364D01*
Y151251D01*
Y151185D01*
X269461Y151138D01*
X269857D01*
X269970Y151307D01*
X270026Y151477D01*
Y151759D01*
X269857Y151985D01*
X269800Y152098D01*
X269518Y152381D01*
X269491Y152408D01*
D02*
G37*
%LPD*%
G36*
X245392Y186281D02*
X245675Y186111D01*
X245788Y186055D01*
X245957Y185942D01*
X246296Y185716D01*
X246579Y185433D01*
X246635Y185377D01*
X246805Y185207D01*
X247031Y184925D01*
X247144Y184642D01*
Y184586D01*
X247200Y184416D01*
Y184303D01*
X247087Y184190D01*
X246918D01*
X246748Y184247D01*
X246409Y184360D01*
X246353Y184416D01*
X246127Y184586D01*
X245844Y184812D01*
X245505Y185094D01*
X245449Y185151D01*
X245279Y185320D01*
X245053Y185546D01*
X244884Y185829D01*
Y185885D01*
Y186055D01*
Y186224D01*
X244997Y186337D01*
X245166D01*
X245392Y186281D01*
D02*
G37*
G36*
X236522Y186111D02*
X236635Y186055D01*
X236861Y185942D01*
X237143Y185772D01*
X237482Y185490D01*
X237595Y185433D01*
X237765Y185264D01*
X238047Y184981D01*
X238217Y184699D01*
X238273Y184642D01*
X238330Y184473D01*
Y184303D01*
X238273Y184190D01*
X238217D01*
X238104Y184134D01*
X237934D01*
X237595Y184190D01*
X237539Y184247D01*
X237313Y184360D01*
X236974Y184529D01*
X236578Y184812D01*
X236522Y184868D01*
X236352Y185094D01*
X236126Y185320D01*
X235900Y185603D01*
X235844Y185659D01*
Y185829D01*
X235787Y185998D01*
X235900Y186168D01*
X235957D01*
X236070Y186224D01*
X236239D01*
X236522Y186111D01*
D02*
G37*
G36*
X251890Y185716D02*
X252172Y185603D01*
X252229Y185546D01*
X252455Y185433D01*
X252737Y185207D01*
X253020Y184925D01*
X253076Y184868D01*
X253246Y184699D01*
X253472Y184473D01*
X253585Y184190D01*
Y184134D01*
X253641Y184021D01*
X253585Y183908D01*
X253528Y183851D01*
X253359D01*
X253133Y183908D01*
X252850Y184021D01*
X252794Y184077D01*
X252568Y184190D01*
X252285Y184416D01*
X251946Y184699D01*
X251890Y184755D01*
X251720Y184981D01*
X251551Y185207D01*
X251381Y185433D01*
Y185490D01*
Y185603D01*
Y185716D01*
X251494Y185772D01*
X251664D01*
X251890Y185716D01*
D02*
G37*
D36*
X91535Y92520D02*
X103347D01*
X55041Y177227D02*
X54041Y176227D01*
Y174228D01*
X55041Y173228D01*
X56041D01*
X57040Y174228D01*
Y176227D01*
X58040Y177227D01*
X59040D01*
X60039Y176227D01*
Y174228D01*
X59040Y173228D01*
X60039Y182225D02*
Y180226D01*
X59040Y179226D01*
X57040D01*
X56041Y180226D01*
Y182225D01*
X57040Y183225D01*
X58040D01*
Y179226D01*
X56041Y185224D02*
X60039D01*
X58040D01*
X57040Y186224D01*
X56041Y187224D01*
Y188224D01*
X60039Y191223D02*
Y193222D01*
Y192222D01*
X56041D01*
Y191223D01*
Y197221D02*
Y199220D01*
X57040Y200220D01*
X60039D01*
Y197221D01*
X59040Y196221D01*
X58040Y197221D01*
Y200220D01*
X60039Y202219D02*
Y204218D01*
Y203219D01*
X54041D01*
Y202219D01*
X27605Y69882D02*
Y65883D01*
X29605Y67883D02*
X25606D01*
X33372Y79724D02*
X39370D01*
Y82723D01*
X38370Y83723D01*
X37371D01*
X36371Y82723D01*
Y79724D01*
Y82723D01*
X35371Y83723D01*
X34372D01*
X33372Y82723D01*
Y79724D01*
X35371Y86722D02*
Y88722D01*
X36371Y89721D01*
X39370D01*
Y86722D01*
X38370Y85723D01*
X37371Y86722D01*
Y89721D01*
X34372Y92720D02*
X35371D01*
Y91720D01*
Y93720D01*
Y92720D01*
X38370D01*
X39370Y93720D01*
X68898Y173228D02*
X62900D01*
Y176227D01*
X63899Y177227D01*
X65899D01*
X66898Y176227D01*
Y173228D01*
Y175228D02*
X68898Y177227D01*
X64899Y183225D02*
Y180226D01*
X65899Y179226D01*
X67898D01*
X68898Y180226D01*
Y183225D01*
X64899Y185224D02*
X68898Y187224D01*
X64899Y189223D01*
Y191223D02*
X68898D01*
X66898D01*
X65899Y192222D01*
X64899Y193222D01*
Y194222D01*
X71758Y173228D02*
Y175228D01*
Y174228D01*
X77756D01*
Y173228D01*
Y175228D01*
Y182225D02*
Y178227D01*
X73757Y182225D01*
X72758D01*
X71758Y181226D01*
Y179226D01*
X72758Y178227D01*
Y188224D02*
X71758Y187224D01*
Y185224D01*
X72758Y184225D01*
X76756D01*
X77756Y185224D01*
Y187224D01*
X76756Y188224D01*
X104392Y60132D02*
X102393Y59132D01*
X100394Y57133D01*
Y55133D01*
X101393Y54134D01*
X103393D01*
X104392Y55133D01*
Y56133D01*
X103393Y57133D01*
X100394D01*
X94550Y60132D02*
X90551D01*
Y57133D01*
X92550Y58133D01*
X93550D01*
X94550Y57133D01*
Y55133D01*
X93550Y54134D01*
X91551D01*
X90551Y55133D01*
X83708Y54134D02*
Y60132D01*
X80709Y57133D01*
X84707D01*
X70866Y59132D02*
X71866Y60132D01*
X73865D01*
X74865Y59132D01*
Y58133D01*
X73865Y57133D01*
X72865D01*
X73865D01*
X74865Y56133D01*
Y55133D01*
X73865Y54134D01*
X71866D01*
X70866Y55133D01*
X65022Y54134D02*
X61024D01*
X65022Y58133D01*
Y59132D01*
X64023Y60132D01*
X62023D01*
X61024Y59132D01*
X51181Y54134D02*
X53180D01*
X52181D01*
Y60132D01*
X51181Y59132D01*
X110236Y43307D02*
Y49305D01*
X113235D01*
X114235Y48305D01*
Y46306D01*
X113235Y45306D01*
X110236D01*
X116234Y49305D02*
Y43307D01*
X118234Y45306D01*
X120233Y43307D01*
Y49305D01*
X122232Y43307D02*
Y49305D01*
X124232Y47306D01*
X126231Y49305D01*
Y43307D01*
X109252Y25637D02*
X113251D01*
X264687Y127030D02*
X263687Y126031D01*
Y124031D01*
X264687Y123031D01*
X268685D01*
X269685Y124031D01*
Y126031D01*
X268685Y127030D01*
X266686D01*
Y125031D01*
X269685Y129030D02*
X263687D01*
X269685Y133028D01*
X263687D01*
Y135028D02*
X269685D01*
Y138027D01*
X268685Y139026D01*
X264687D01*
X263687Y138027D01*
Y135028D01*
X254844Y127030D02*
X253844Y126031D01*
Y124031D01*
X254844Y123031D01*
X258843D01*
X259842Y124031D01*
Y126031D01*
X258843Y127030D01*
X259842Y129030D02*
Y132029D01*
X258843Y133028D01*
X257843Y132029D01*
Y130029D01*
X256843Y129030D01*
X255844Y130029D01*
Y133028D01*
X259842Y138027D02*
Y136027D01*
X258843Y135028D01*
X256843D01*
X255844Y136027D01*
Y138027D01*
X256843Y139026D01*
X257843D01*
Y135028D01*
X259842Y141026D02*
X255844D01*
Y144025D01*
X256843Y145024D01*
X259842D01*
Y147024D02*
Y150023D01*
X258843Y151023D01*
X257843Y150023D01*
Y148023D01*
X256843Y147024D01*
X255844Y148023D01*
Y151023D01*
X200455Y29620D02*
X196457D01*
Y26621D01*
X198456D01*
X196457D01*
Y23622D01*
X202455D02*
X204454D01*
X203454D01*
Y29620D01*
X202455D01*
X207453Y27621D02*
Y24622D01*
X208453Y23622D01*
X211452D01*
Y22622D01*
X210452Y21623D01*
X209453D01*
X211452Y23622D02*
Y27621D01*
X213451Y23622D02*
X215451D01*
X214451D01*
Y27621D01*
X213451D01*
X218450Y23622D02*
Y27621D01*
X221449D01*
X222448Y26621D01*
Y23622D01*
X226447Y21623D02*
X227447D01*
X228446Y22622D01*
Y27621D01*
X225447D01*
X224448Y26621D01*
Y24622D01*
X225447Y23622D01*
X228446D01*
X230446D02*
Y29620D01*
X233445D01*
X234444Y28620D01*
Y26621D01*
X233445Y25621D01*
X230446D01*
X236444Y23622D02*
X238443D01*
X237443D01*
Y27621D01*
X236444D01*
X212992Y35827D02*
Y41825D01*
X215991D01*
X216991Y40825D01*
Y38826D01*
X215991Y37826D01*
X212992D01*
X214991D02*
X216991Y35827D01*
X221989D02*
X219990D01*
X218990Y36826D01*
Y38826D01*
X219990Y39825D01*
X221989D01*
X222989Y38826D01*
Y37826D01*
X218990D01*
X224988Y39825D02*
X226988Y35827D01*
X228987Y39825D01*
X230986Y35827D02*
Y36826D01*
X231986D01*
Y35827D01*
X230986D01*
X241983Y41825D02*
Y35827D01*
X244982D01*
X245982Y36826D01*
Y37826D01*
X244982Y38826D01*
X241983D01*
X244982D01*
X245982Y39825D01*
Y40825D01*
X244982Y41825D01*
X241983D01*
D57*
X162021Y136221D02*
G03*
X162021Y136221I-800J0D01*
G01*
D58*
X171555Y156772D02*
G03*
X171555Y156772I-492J0D01*
G01*
X172933Y206004D02*
G03*
X172933Y206004I-492J0D01*
G01*
X155217Y42618D02*
G03*
X155217Y42618I-492J0D01*
G01*
X57382Y87815D02*
G03*
X57382Y87815I-492J0D01*
G01*
D59*
X181004Y150177D02*
G03*
X181004Y150177I-1181J0D01*
G01*
D60*
X153896Y148432D02*
Y148832D01*
X159055D01*
Y148432D02*
Y148832D01*
Y134449D02*
Y135039D01*
X153896Y134449D02*
X159055D01*
X153896D02*
Y135039D01*
X139406Y181555D02*
Y186555D01*
X130906Y181555D02*
Y186555D01*
X131327Y166791D02*
Y171791D01*
X139827Y166791D02*
Y171791D01*
X131327Y152028D02*
Y157028D01*
X139827Y152028D02*
Y157028D01*
D61*
X104724Y151575D02*
X117126D01*
X104724Y102362D02*
X117126D01*
X67913Y151575D02*
X80315D01*
X67913Y102362D02*
X80315D01*
X117126D02*
Y151575D01*
X67913Y102362D02*
Y151575D01*
X175886Y130886D02*
Y154114D01*
X199114Y130886D02*
Y154114D01*
X175886D02*
X199114D01*
X175886Y130886D02*
X199114D01*
X178543Y192717D02*
Y204921D01*
X175787Y192717D02*
Y204921D01*
Y192717D02*
X178543D01*
X175787Y204921D02*
X178543D01*
X91535Y69685D02*
Y87795D01*
X103347Y69685D02*
Y87795D01*
X91535Y69685D02*
X92618D01*
X91535Y87795D02*
X92618D01*
X102264Y69685D02*
X103347D01*
X102264Y87795D02*
X103347D01*
X32106Y211614D02*
X42106D01*
Y170118D02*
Y211614D01*
X32106Y170118D02*
X42106D01*
X32106D02*
Y211614D01*
X41776Y86224D02*
X48776D01*
X41776Y73224D02*
Y86224D01*
Y73224D02*
X48776D01*
Y86224D01*
X41776D02*
X48776D01*
X41776Y73224D02*
Y86224D01*
Y73224D02*
X48776D01*
Y86224D01*
X160433Y29528D02*
Y41339D01*
X158465Y29528D02*
Y41339D01*
Y29528D02*
X160433D01*
X158465Y41339D02*
X160433D01*
X264665Y74705D02*
Y75787D01*
X263091Y74705D02*
X264665D01*
X249902D02*
X263091D01*
X249902D02*
Y75787D01*
X264665Y94488D02*
Y95965D01*
X251476D02*
X264665D01*
X250000Y94488D02*
X251476Y95965D01*
X62992Y66929D02*
X70866D01*
X62992Y86614D02*
X70866D01*
X221063Y85581D02*
Y87598D01*
Y76722D02*
Y78937D01*
Y76722D02*
X222441D01*
X238189D02*
X239567D01*
Y78937D01*
Y85581D02*
Y88533D01*
X238189D02*
X239567D01*
X221998D02*
X222441D01*
X221063Y87598D02*
X221998Y88533D01*
X97752Y20943D02*
Y50943D01*
Y20943D02*
X107752D01*
X97752Y50943D02*
X107752D01*
Y20943D02*
Y50943D01*
X157284Y113583D02*
X157677D01*
X157284Y116732D02*
X157677D01*
X47752Y20943D02*
Y50943D01*
Y20943D02*
X57752D01*
X47752Y50943D02*
X57752D01*
Y20943D02*
Y50943D01*
Y20943D02*
Y50943D01*
Y20943D02*
X67752D01*
X57752Y50943D02*
X67752D01*
Y20943D02*
Y50943D01*
Y20943D02*
Y50943D01*
Y20943D02*
X77752D01*
X67752Y50943D02*
X77752D01*
Y20943D02*
Y50943D01*
Y20943D02*
Y50943D01*
Y20943D02*
X87752D01*
X77752Y50943D02*
X87752D01*
Y20943D02*
Y50943D01*
Y20943D02*
Y50943D01*
Y20943D02*
X97752D01*
X87752Y50943D02*
X97752D01*
Y20943D02*
Y50943D01*
X42106Y211614D02*
X52106D01*
Y170118D02*
Y211614D01*
X42106Y170118D02*
X52106D01*
X42106D02*
Y211614D01*
X22106Y211614D02*
X32106D01*
Y170118D02*
Y211614D01*
X22106Y170118D02*
X32106D01*
X22106D02*
Y211614D01*
X183071Y34843D02*
Y35236D01*
X186221Y34843D02*
Y35236D01*
X66732Y91929D02*
X67126D01*
X66732Y95079D02*
X67126D01*
X43697Y93941D02*
Y100941D01*
Y93941D02*
X56697D01*
Y100941D01*
X43697D02*
X56697D01*
X43697Y93941D02*
Y100941D01*
Y93941D02*
X56697D01*
Y100941D01*
X43697D02*
X56697D01*
X37012Y51618D02*
Y58618D01*
X24012D02*
X37012D01*
X24012Y51618D02*
Y58618D01*
Y51618D02*
X37012D01*
Y58618D01*
X24012D02*
X37012D01*
X24012Y51618D02*
Y58618D01*
Y51618D02*
X37012D01*
D62*
X251111Y120857D02*
X256111D01*
X251111Y109457D02*
Y120857D01*
Y109457D02*
X256111D01*
X267511D02*
X272511D01*
Y120857D01*
X267511D02*
X272511D01*
X21859Y72961D02*
Y77961D01*
Y72961D02*
X33259D01*
Y77961D01*
Y89361D02*
Y94361D01*
X21859D02*
X33259D01*
X21859Y89361D02*
Y94361D01*
M02*
