G04 Layer_Physical_Order=2*
G04 Layer_Color=16765976*
%FSLAX25Y25*%
%MOIN*%
G70*
G01*
G75*
%ADD42R,0.06102X0.06102*%
%ADD43C,0.06102*%
G04:AMPARAMS|DCode=44|XSize=68.9mil|YSize=68.9mil|CornerRadius=6.89mil|HoleSize=0mil|Usage=FLASHONLY|Rotation=90.000|XOffset=0mil|YOffset=0mil|HoleType=Round|Shape=RoundedRectangle|*
%AMROUNDEDRECTD44*
21,1,0.06890,0.05512,0,0,90.0*
21,1,0.05512,0.06890,0,0,90.0*
1,1,0.01378,0.02756,0.02756*
1,1,0.01378,0.02756,-0.02756*
1,1,0.01378,-0.02756,-0.02756*
1,1,0.01378,-0.02756,0.02756*
%
%ADD44ROUNDEDRECTD44*%
%ADD46C,0.06000*%
%ADD49C,0.02598*%
%ADD50C,0.03150*%
%ADD51C,0.07874*%
%ADD52C,0.05000*%
G36*
X251754Y237044D02*
X251927Y236575D01*
X251758Y236431D01*
X250309Y234735D01*
X249144Y232832D01*
X248290Y230771D01*
X247769Y228602D01*
X247594Y226378D01*
X247769Y224154D01*
X248290Y221985D01*
X249144Y219924D01*
X250309Y218021D01*
X251758Y216325D01*
X253454Y214876D01*
X255357Y213710D01*
X257418Y212857D01*
X259587Y212336D01*
X261811Y212161D01*
X264035Y212336D01*
X266204Y212857D01*
X268265Y213710D01*
X270168Y214876D01*
X271199Y215757D01*
X271654Y215548D01*
X271654Y44295D01*
X271199Y44085D01*
X270168Y44966D01*
X268265Y46132D01*
X266204Y46986D01*
X264035Y47507D01*
X261811Y47682D01*
X259587Y47507D01*
X257418Y46986D01*
X255357Y46132D01*
X253454Y44966D01*
X251758Y43518D01*
X250309Y41821D01*
X249144Y39919D01*
X248290Y37858D01*
X247769Y35689D01*
X247594Y33465D01*
X247769Y31241D01*
X248290Y29071D01*
X249144Y27010D01*
X250309Y25108D01*
X250350Y25060D01*
X250141Y24606D01*
X107230Y24606D01*
Y25443D01*
X98274D01*
Y24960D01*
X97921Y24606D01*
X97230D01*
Y25443D01*
X88274D01*
Y24960D01*
X87921Y24606D01*
X87230D01*
Y25443D01*
X78274D01*
Y24960D01*
X77921Y24606D01*
X77230D01*
Y25443D01*
X68274D01*
Y24960D01*
X67921Y24606D01*
X67230D01*
Y25443D01*
X58274D01*
Y24960D01*
X57921Y24606D01*
X57230D01*
Y25443D01*
X48274D01*
Y24960D01*
X47921Y24606D01*
X42123D01*
X41988Y25106D01*
X43129Y26443D01*
X44109Y28041D01*
X44826Y29773D01*
X45264Y31596D01*
X45411Y33465D01*
X45264Y35333D01*
X44826Y37156D01*
X44109Y38888D01*
X43129Y40486D01*
X41912Y41912D01*
X40486Y43129D01*
X38888Y44109D01*
X37156Y44826D01*
X35333Y45264D01*
X33465Y45411D01*
X31596Y45264D01*
X29773Y44826D01*
X28041Y44109D01*
X27011Y43478D01*
X26575Y43722D01*
Y59103D01*
X26772Y59276D01*
X27835Y59416D01*
X28827Y59826D01*
X29678Y60480D01*
X30331Y61331D01*
X30742Y62322D01*
X30882Y63386D01*
X30742Y64450D01*
X30331Y65441D01*
X29678Y66292D01*
X28827Y66945D01*
X27835Y67356D01*
X26772Y67496D01*
X26575Y67668D01*
Y73798D01*
X26951Y74127D01*
X27559Y74047D01*
X28753Y74204D01*
X29866Y74665D01*
X30822Y75399D01*
X31555Y76354D01*
X32016Y77467D01*
X32173Y78661D01*
X32016Y79856D01*
X31555Y80968D01*
X30822Y81924D01*
X29866Y82657D01*
X28753Y83118D01*
X27559Y83276D01*
X26951Y83196D01*
X26575Y83525D01*
Y84377D01*
X26951Y84707D01*
X27059Y84693D01*
Y88661D01*
X27559D01*
Y89161D01*
X31528D01*
X31456Y89706D01*
X31278Y90135D01*
X31556Y90551D01*
X41470D01*
X41722Y90264D01*
X44776D01*
Y93228D01*
X44362Y93174D01*
X43807Y92944D01*
X43307Y93271D01*
Y114969D01*
X43723Y115247D01*
X43816Y115208D01*
X43988Y115185D01*
Y117717D01*
Y120248D01*
X43816Y120225D01*
X43723Y120186D01*
X43307Y120464D01*
Y127611D01*
X43791Y127929D01*
Y130473D01*
Y133016D01*
X43307Y133334D01*
Y139501D01*
X43425Y139580D01*
X43807Y139763D01*
X43890Y139752D01*
Y142284D01*
Y144815D01*
X43807Y144804D01*
X43425Y144987D01*
X43307Y145066D01*
Y169291D01*
X25591D01*
Y171815D01*
X26606D01*
Y175866D01*
Y179918D01*
X25591D01*
Y181004D01*
X26091Y181334D01*
X27106Y181201D01*
X28314Y181360D01*
X29439Y181826D01*
X30406Y182567D01*
X31147Y183533D01*
X31613Y184659D01*
X31772Y185866D01*
X31613Y187074D01*
X31147Y188199D01*
X30406Y189166D01*
X29439Y189907D01*
X28314Y190373D01*
X27106Y190532D01*
X26254Y190420D01*
X25819Y190775D01*
Y190957D01*
X26254Y191313D01*
X27106Y191200D01*
X28314Y191359D01*
X29439Y191826D01*
X30406Y192567D01*
X31147Y193533D01*
X31613Y194659D01*
X31772Y195866D01*
X31613Y197074D01*
X31147Y198199D01*
X30406Y199166D01*
X29439Y199907D01*
X28314Y200373D01*
X27106Y200532D01*
X26254Y200420D01*
X25819Y200775D01*
Y200957D01*
X26254Y201313D01*
X27106Y201201D01*
X28314Y201360D01*
X29439Y201826D01*
X30406Y202567D01*
X31147Y203533D01*
X31613Y204659D01*
X31772Y205866D01*
X31613Y207074D01*
X31147Y208199D01*
X30406Y209166D01*
X29439Y209907D01*
X28314Y210373D01*
X27106Y210532D01*
X26091Y210399D01*
X25591Y210729D01*
Y216844D01*
X26045Y217053D01*
X26443Y216713D01*
X28041Y215734D01*
X29773Y215016D01*
X31596Y214579D01*
X33465Y214432D01*
X35333Y214579D01*
X37156Y215016D01*
X38888Y215734D01*
X40486Y216713D01*
X41912Y217931D01*
X43129Y219356D01*
X44109Y220954D01*
X44826Y222686D01*
X45264Y224509D01*
X45411Y226378D01*
X45264Y228247D01*
X44826Y230070D01*
X44109Y231802D01*
X43129Y233400D01*
X41912Y234825D01*
X40486Y236043D01*
X39112Y236885D01*
X39254Y237384D01*
X251754Y237044D01*
D02*
G37*
%LPC*%
G36*
X238752Y90502D02*
X236721D01*
Y88471D01*
X236893Y88494D01*
X237519Y88753D01*
X238057Y89166D01*
X238470Y89704D01*
X238729Y90330D01*
X238752Y90502D01*
D02*
G37*
G36*
X235721D02*
X233689D01*
X233712Y90330D01*
X233972Y89704D01*
X234384Y89166D01*
X234922Y88753D01*
X235548Y88494D01*
X235721Y88471D01*
Y90502D01*
D02*
G37*
G36*
X45776Y93228D02*
Y90264D01*
X48740D01*
X48686Y90677D01*
X48333Y91529D01*
X47772Y92260D01*
X47041Y92821D01*
X46189Y93174D01*
X45776Y93228D01*
D02*
G37*
G36*
X247244Y95696D02*
X246422Y95588D01*
X245656Y95271D01*
X244998Y94766D01*
X244493Y94108D01*
X244176Y93342D01*
X244067Y92520D01*
X244176Y91697D01*
X244493Y90931D01*
X244998Y90273D01*
X245656Y89768D01*
X246422Y89451D01*
X247244Y89343D01*
X248066Y89451D01*
X248832Y89768D01*
X249490Y90273D01*
X249995Y90931D01*
X250312Y91697D01*
X250421Y92520D01*
X250312Y93342D01*
X249995Y94108D01*
X249490Y94766D01*
X248832Y95271D01*
X248066Y95588D01*
X247244Y95696D01*
D02*
G37*
G36*
X48740Y89264D02*
X45776D01*
Y86299D01*
X46189Y86354D01*
X47041Y86707D01*
X47772Y87268D01*
X48333Y87999D01*
X48686Y88850D01*
X48740Y89264D01*
D02*
G37*
G36*
X247925Y87964D02*
X247753Y87941D01*
X247127Y87682D01*
X246589Y87269D01*
X246176Y86731D01*
X245917Y86105D01*
X245894Y85933D01*
X247925D01*
Y87964D01*
D02*
G37*
G36*
X31528Y88161D02*
X28059D01*
Y84693D01*
X28603Y84764D01*
X29576Y85167D01*
X30412Y85809D01*
X31053Y86644D01*
X31456Y87617D01*
X31528Y88161D01*
D02*
G37*
G36*
X44776Y89264D02*
X41811D01*
X41866Y88850D01*
X42218Y87999D01*
X42779Y87268D01*
X43510Y86707D01*
X44362Y86354D01*
X44776Y86299D01*
Y89264D01*
D02*
G37*
G36*
X248925Y87964D02*
Y85933D01*
X250956D01*
X250934Y86105D01*
X250674Y86731D01*
X250262Y87269D01*
X249724Y87682D01*
X249097Y87941D01*
X248925Y87964D01*
D02*
G37*
G36*
X151700Y101777D02*
X150878Y101669D01*
X150112Y101351D01*
X149454Y100846D01*
X148949Y100188D01*
X148632Y99422D01*
X148523Y98600D01*
X148632Y97778D01*
X148949Y97012D01*
X149454Y96354D01*
X150112Y95849D01*
X150878Y95531D01*
X151700Y95423D01*
X152522Y95531D01*
X153288Y95849D01*
X153946Y96354D01*
X154451Y97012D01*
X154769Y97778D01*
X154877Y98600D01*
X154769Y99422D01*
X154451Y100188D01*
X153946Y100846D01*
X153288Y101351D01*
X152522Y101669D01*
X151700Y101777D01*
D02*
G37*
G36*
X230421Y96232D02*
Y94201D01*
X232452D01*
X232430Y94373D01*
X232170Y94999D01*
X231758Y95537D01*
X231220Y95950D01*
X230593Y96209D01*
X230421Y96232D01*
D02*
G37*
G36*
X53600Y107810D02*
X52778Y107702D01*
X52012Y107384D01*
X51354Y106879D01*
X50849Y106221D01*
X50532Y105455D01*
X50423Y104633D01*
X50532Y103811D01*
X50849Y103045D01*
X51354Y102387D01*
X52012Y101882D01*
X52778Y101565D01*
X53600Y101456D01*
X54422Y101565D01*
X55188Y101882D01*
X55846Y102387D01*
X56351Y103045D01*
X56669Y103811D01*
X56777Y104633D01*
X56669Y105455D01*
X56351Y106221D01*
X55846Y106879D01*
X55188Y107384D01*
X54422Y107702D01*
X53600Y107810D01*
D02*
G37*
G36*
X259055Y103570D02*
X258233Y103462D01*
X257467Y103145D01*
X256809Y102640D01*
X256304Y101982D01*
X255987Y101216D01*
X255878Y100394D01*
X255987Y99572D01*
X256304Y98805D01*
X256809Y98147D01*
X257467Y97642D01*
X258233Y97325D01*
X259055Y97217D01*
X259877Y97325D01*
X260644Y97642D01*
X261301Y98147D01*
X261806Y98805D01*
X262124Y99572D01*
X262232Y100394D01*
X262124Y101216D01*
X261806Y101982D01*
X261301Y102640D01*
X260644Y103145D01*
X259877Y103462D01*
X259055Y103570D01*
D02*
G37*
G36*
X236721Y93533D02*
Y91502D01*
X238752D01*
X238729Y91674D01*
X238470Y92300D01*
X238057Y92838D01*
X237519Y93251D01*
X236893Y93511D01*
X236721Y93533D01*
D02*
G37*
G36*
X225197Y96878D02*
X224375Y96769D01*
X223608Y96452D01*
X222951Y95947D01*
X222446Y95289D01*
X222128Y94523D01*
X222020Y93701D01*
X222128Y92879D01*
X222446Y92112D01*
X222951Y91454D01*
X223608Y90950D01*
X224375Y90632D01*
X225197Y90524D01*
X226019Y90632D01*
X226785Y90950D01*
X227443Y91454D01*
X227640Y91711D01*
X228276Y91718D01*
X228623Y91452D01*
X229249Y91192D01*
X229421Y91170D01*
Y93701D01*
Y96232D01*
X229249Y96209D01*
X228623Y95950D01*
X228276Y95684D01*
X227640Y95691D01*
X227443Y95947D01*
X226785Y96452D01*
X226019Y96769D01*
X225197Y96878D01*
D02*
G37*
G36*
X144882Y108295D02*
X144060Y108187D01*
X143293Y107869D01*
X142636Y107364D01*
X142131Y106707D01*
X141813Y105940D01*
X141705Y105118D01*
X141813Y104296D01*
X142131Y103530D01*
X142636Y102872D01*
X143293Y102367D01*
X144060Y102050D01*
X144882Y101941D01*
X145704Y102050D01*
X146470Y102367D01*
X147128Y102872D01*
X147633Y103530D01*
X147950Y104296D01*
X148059Y105118D01*
X147950Y105940D01*
X147633Y106707D01*
X147128Y107364D01*
X146470Y107869D01*
X145704Y108187D01*
X144882Y108295D01*
D02*
G37*
G36*
X235721Y93533D02*
X235548Y93511D01*
X234922Y93251D01*
X234384Y92838D01*
X233972Y92300D01*
X233712Y91674D01*
X233689Y91502D01*
X235721D01*
Y93533D01*
D02*
G37*
G36*
X232452Y93201D02*
X230421D01*
Y91170D01*
X230593Y91192D01*
X231220Y91452D01*
X231758Y91864D01*
X232170Y92402D01*
X232430Y93029D01*
X232452Y93201D01*
D02*
G37*
G36*
X64461Y77048D02*
X64064Y76969D01*
X63303Y76461D01*
X62795Y75700D01*
X62716Y75303D01*
X64461D01*
Y77048D01*
D02*
G37*
G36*
X243307Y81523D02*
X242485Y81415D01*
X241719Y81098D01*
X241061Y80593D01*
X240556Y79935D01*
X240238Y79169D01*
X240130Y78346D01*
X240238Y77524D01*
X240556Y76758D01*
X241061Y76100D01*
X241719Y75595D01*
X242485Y75278D01*
X243307Y75170D01*
X244129Y75278D01*
X244895Y75595D01*
X245553Y76100D01*
X246058Y76758D01*
X246375Y77524D01*
X246484Y78346D01*
X246375Y79169D01*
X246058Y79935D01*
X245553Y80593D01*
X244895Y81098D01*
X244129Y81415D01*
X243307Y81523D01*
D02*
G37*
G36*
X68398Y77048D02*
X68001Y76969D01*
X67240Y76461D01*
X67179Y76370D01*
X66679D01*
X66618Y76461D01*
X65858Y76969D01*
X65461Y77048D01*
Y74803D01*
Y72558D01*
X65858Y72637D01*
X66618Y73146D01*
X66679Y73237D01*
X67179D01*
X67240Y73146D01*
X68001Y72637D01*
X68398Y72558D01*
Y74803D01*
Y77048D01*
D02*
G37*
G36*
X69398D02*
Y75303D01*
X71142D01*
X71063Y75700D01*
X70555Y76461D01*
X69795Y76969D01*
X69398Y77048D01*
D02*
G37*
G36*
X71142Y74303D02*
X69398D01*
Y72558D01*
X69795Y72637D01*
X70555Y73146D01*
X71063Y73906D01*
X71142Y74303D01*
D02*
G37*
G36*
X257480Y77980D02*
X256658Y77872D01*
X255892Y77554D01*
X255234Y77049D01*
X254729Y76392D01*
X254412Y75625D01*
X254304Y74803D01*
X254412Y73981D01*
X254729Y73215D01*
X255234Y72557D01*
X255892Y72052D01*
X256658Y71735D01*
X257480Y71626D01*
X258303Y71735D01*
X259069Y72052D01*
X259727Y72557D01*
X260232Y73215D01*
X260549Y73981D01*
X260657Y74803D01*
X260549Y75625D01*
X260232Y76392D01*
X259727Y77049D01*
X259069Y77554D01*
X258303Y77872D01*
X257480Y77980D01*
D02*
G37*
G36*
X107783Y75780D02*
Y71366D01*
X112197D01*
X112093Y72155D01*
X111596Y73356D01*
X110804Y74387D01*
X109773Y75179D01*
X108572Y75676D01*
X107783Y75780D01*
D02*
G37*
G36*
X64461Y74303D02*
X62716D01*
X62795Y73906D01*
X63303Y73146D01*
X64064Y72637D01*
X64461Y72558D01*
Y74303D01*
D02*
G37*
G36*
X125591Y78767D02*
X124768Y78659D01*
X124002Y78342D01*
X123344Y77837D01*
X122839Y77179D01*
X122522Y76413D01*
X122414Y75590D01*
X122522Y74768D01*
X122839Y74002D01*
X123344Y73344D01*
X124002Y72839D01*
X124768Y72522D01*
X125591Y72414D01*
X126413Y72522D01*
X127179Y72839D01*
X127837Y73344D01*
X128342Y74002D01*
X128659Y74768D01*
X128767Y75590D01*
X128659Y76413D01*
X128342Y77179D01*
X127837Y77837D01*
X127179Y78342D01*
X126413Y78659D01*
X125591Y78767D01*
D02*
G37*
G36*
X68398Y82953D02*
X68001Y82875D01*
X67240Y82366D01*
X67179Y82275D01*
X66679D01*
X66618Y82366D01*
X65858Y82875D01*
X65461Y82953D01*
Y80709D01*
Y78464D01*
X65858Y78543D01*
X66618Y79051D01*
X66679Y79142D01*
X67179D01*
X67240Y79051D01*
X68001Y78543D01*
X68398Y78464D01*
Y80709D01*
Y82953D01*
D02*
G37*
G36*
X69398D02*
Y81209D01*
X71142D01*
X71063Y81606D01*
X70555Y82366D01*
X69795Y82875D01*
X69398Y82953D01*
D02*
G37*
G36*
X250956Y84933D02*
X248925D01*
Y82902D01*
X249097Y82924D01*
X249724Y83184D01*
X250262Y83597D01*
X250674Y84135D01*
X250934Y84761D01*
X250956Y84933D01*
D02*
G37*
G36*
X247925D02*
X245894D01*
X245917Y84761D01*
X246176Y84135D01*
X246589Y83597D01*
X247127Y83184D01*
X247753Y82924D01*
X247925Y82902D01*
Y84933D01*
D02*
G37*
G36*
X64461Y82953D02*
X64064Y82875D01*
X63303Y82366D01*
X62795Y81606D01*
X62716Y81209D01*
X64461D01*
Y82953D01*
D02*
G37*
G36*
Y80209D02*
X62716D01*
X62795Y79812D01*
X63303Y79051D01*
X64064Y78543D01*
X64461Y78464D01*
Y80209D01*
D02*
G37*
G36*
X226378Y87077D02*
X225556Y86968D01*
X224790Y86651D01*
X224132Y86146D01*
X223627Y85488D01*
X223309Y84722D01*
X223201Y83900D01*
X223309Y83078D01*
X223627Y82312D01*
X224132Y81654D01*
X224790Y81149D01*
X225556Y80831D01*
X226378Y80723D01*
X227200Y80831D01*
X227966Y81149D01*
X228624Y81654D01*
X228692Y81742D01*
X229170Y81544D01*
X229107Y81061D01*
X229215Y80239D01*
X229532Y79473D01*
X230037Y78815D01*
X230695Y78310D01*
X231461Y77992D01*
X232284Y77884D01*
X233106Y77992D01*
X233872Y78310D01*
X234530Y78815D01*
X235035Y79473D01*
X235352Y80239D01*
X235460Y81061D01*
X235352Y81883D01*
X235035Y82649D01*
X234530Y83307D01*
X233872Y83812D01*
X233106Y84130D01*
X232284Y84238D01*
X231461Y84130D01*
X230695Y83812D01*
X230037Y83307D01*
X229969Y83219D01*
X229491Y83417D01*
X229555Y83900D01*
X229447Y84722D01*
X229129Y85488D01*
X228624Y86146D01*
X227966Y86651D01*
X227200Y86968D01*
X226378Y87077D01*
D02*
G37*
G36*
X148031Y85854D02*
X147209Y85746D01*
X146443Y85428D01*
X145785Y84923D01*
X145280Y84266D01*
X144963Y83499D01*
X144855Y82677D01*
X144963Y81855D01*
X145280Y81089D01*
X145785Y80431D01*
X146443Y79926D01*
X147209Y79609D01*
X148031Y79500D01*
X148854Y79609D01*
X149620Y79926D01*
X150278Y80431D01*
X150783Y81089D01*
X151100Y81855D01*
X151208Y82677D01*
X151100Y83499D01*
X150783Y84266D01*
X150278Y84923D01*
X149620Y85428D01*
X148854Y85746D01*
X148031Y85854D01*
D02*
G37*
G36*
X71142Y80209D02*
X69398D01*
Y78464D01*
X69795Y78543D01*
X70555Y79051D01*
X71063Y79812D01*
X71142Y80209D01*
D02*
G37*
G36*
X44988Y120248D02*
Y118217D01*
X47019D01*
X46997Y118389D01*
X46737Y119015D01*
X46325Y119553D01*
X45787Y119966D01*
X45160Y120225D01*
X44988Y120248D01*
D02*
G37*
G36*
X169398Y119854D02*
Y117823D01*
X171429D01*
X171406Y117995D01*
X171147Y118621D01*
X170734Y119159D01*
X170196Y119572D01*
X169570Y119831D01*
X169398Y119854D01*
D02*
G37*
G36*
X196169Y120641D02*
Y118610D01*
X198201D01*
X198178Y118782D01*
X197918Y119409D01*
X197506Y119947D01*
X196968Y120359D01*
X196342Y120619D01*
X196169Y120641D01*
D02*
G37*
G36*
X195169D02*
X194997Y120619D01*
X194371Y120359D01*
X193833Y119947D01*
X193420Y119409D01*
X193161Y118782D01*
X193138Y118610D01*
X195169D01*
Y120641D01*
D02*
G37*
G36*
X168398Y119854D02*
X168226Y119831D01*
X167599Y119572D01*
X167061Y119159D01*
X166649Y118621D01*
X166389Y117995D01*
X166367Y117823D01*
X168398D01*
Y119854D01*
D02*
G37*
G36*
X267311Y119126D02*
Y115657D01*
X270780D01*
X270708Y116202D01*
X270305Y117175D01*
X269664Y118010D01*
X268828Y118651D01*
X267855Y119054D01*
X267311Y119126D01*
D02*
G37*
G36*
X266311D02*
X265767Y119054D01*
X264794Y118651D01*
X263958Y118010D01*
X263317Y117175D01*
X262914Y116202D01*
X262842Y115657D01*
X266311D01*
Y119126D01*
D02*
G37*
G36*
X60012Y118004D02*
X57980D01*
Y115973D01*
X58153Y115995D01*
X58779Y116255D01*
X59317Y116668D01*
X59729Y117205D01*
X59989Y117832D01*
X60012Y118004D01*
D02*
G37*
G36*
X56980D02*
X54949D01*
X54972Y117832D01*
X55231Y117205D01*
X55644Y116668D01*
X56182Y116255D01*
X56808Y115995D01*
X56980Y115973D01*
Y118004D01*
D02*
G37*
G36*
X92520Y140386D02*
X91246Y140260D01*
X90022Y139889D01*
X88893Y139286D01*
X87904Y138474D01*
X87092Y137485D01*
X86489Y136356D01*
X86118Y135132D01*
X85992Y133858D01*
X86118Y132585D01*
X86489Y131360D01*
X87092Y130232D01*
X87904Y129243D01*
X88893Y128431D01*
X90022Y127828D01*
X91246Y127456D01*
X92520Y127331D01*
X93793Y127456D01*
X95018Y127828D01*
X96146Y128431D01*
X97135Y129243D01*
X97947Y130232D01*
X98550Y131360D01*
X98922Y132585D01*
X99047Y133858D01*
X98922Y135132D01*
X98550Y136356D01*
X97947Y137485D01*
X97135Y138474D01*
X96146Y139286D01*
X95018Y139889D01*
X93793Y140260D01*
X92520Y140386D01*
D02*
G37*
G36*
X219685Y132311D02*
X218863Y132202D01*
X218097Y131885D01*
X217439Y131380D01*
X216934Y130722D01*
X216617Y129956D01*
X216508Y129134D01*
X216617Y128312D01*
X216934Y127545D01*
X217439Y126888D01*
X218097Y126383D01*
X218863Y126065D01*
X219685Y125957D01*
X220507Y126065D01*
X221273Y126383D01*
X221931Y126888D01*
X222436Y127545D01*
X222754Y128312D01*
X222862Y129134D01*
X222754Y129956D01*
X222436Y130722D01*
X221931Y131380D01*
X221273Y131885D01*
X220507Y132202D01*
X219685Y132311D01*
D02*
G37*
G36*
X60012Y130071D02*
X57980D01*
Y128040D01*
X58153Y128062D01*
X58779Y128322D01*
X59317Y128735D01*
X59729Y129272D01*
X59989Y129899D01*
X60012Y130071D01*
D02*
G37*
G36*
X56980D02*
X54949D01*
X54972Y129899D01*
X55231Y129272D01*
X55644Y128735D01*
X56182Y128322D01*
X56808Y128062D01*
X56980Y128040D01*
Y130071D01*
D02*
G37*
G36*
X173100Y129377D02*
X172278Y129269D01*
X171512Y128951D01*
X170854Y128446D01*
X170349Y127788D01*
X170031Y127022D01*
X169923Y126200D01*
X170031Y125378D01*
X170349Y124612D01*
X170854Y123954D01*
X171512Y123449D01*
X172278Y123132D01*
X173100Y123023D01*
X173922Y123132D01*
X174688Y123449D01*
X175346Y123954D01*
X175851Y124612D01*
X176169Y125378D01*
X176277Y126200D01*
X176169Y127022D01*
X175851Y127788D01*
X175346Y128446D01*
X174688Y128951D01*
X173922Y129269D01*
X173100Y129377D01*
D02*
G37*
G36*
X57980Y121035D02*
Y119004D01*
X60012D01*
X59989Y119176D01*
X59729Y119802D01*
X59317Y120340D01*
X58779Y120753D01*
X58153Y121012D01*
X57980Y121035D01*
D02*
G37*
G36*
X56980D02*
X56808Y121012D01*
X56182Y120753D01*
X55644Y120340D01*
X55231Y119802D01*
X54972Y119176D01*
X54949Y119004D01*
X56980D01*
Y121035D01*
D02*
G37*
G36*
X147200Y128777D02*
X146378Y128668D01*
X145612Y128351D01*
X144954Y127846D01*
X144449Y127188D01*
X144132Y126422D01*
X144023Y125600D01*
X144132Y124778D01*
X144449Y124012D01*
X144954Y123354D01*
X145612Y122849D01*
X146378Y122531D01*
X147200Y122423D01*
X148022Y122531D01*
X148788Y122849D01*
X149446Y123354D01*
X149951Y124012D01*
X150268Y124778D01*
X150377Y125600D01*
X150268Y126422D01*
X149951Y127188D01*
X149446Y127846D01*
X148788Y128351D01*
X148022Y128668D01*
X147200Y128777D01*
D02*
G37*
G36*
X204200Y127877D02*
X203378Y127769D01*
X202612Y127451D01*
X201954Y126946D01*
X201449Y126288D01*
X201132Y125522D01*
X201023Y124700D01*
X201132Y123878D01*
X201449Y123112D01*
X201954Y122454D01*
X202612Y121949D01*
X203378Y121632D01*
X204200Y121523D01*
X205022Y121632D01*
X205788Y121949D01*
X206446Y122454D01*
X206951Y123112D01*
X207269Y123878D01*
X207377Y124700D01*
X207269Y125522D01*
X206951Y126288D01*
X206446Y126946D01*
X205788Y127451D01*
X205022Y127769D01*
X204200Y127877D01*
D02*
G37*
G36*
X198201Y117610D02*
X196169D01*
Y115579D01*
X196342Y115602D01*
X196968Y115861D01*
X197506Y116274D01*
X197918Y116812D01*
X198178Y117438D01*
X198201Y117610D01*
D02*
G37*
G36*
X212093Y111747D02*
X211271Y111638D01*
X210505Y111321D01*
X209847Y110816D01*
X209342Y110158D01*
X209025Y109392D01*
X208916Y108570D01*
X208935Y108428D01*
X208703Y108261D01*
X208462Y108187D01*
X207991Y108548D01*
X207365Y108808D01*
X207193Y108830D01*
Y106299D01*
Y103768D01*
X207365Y103791D01*
X207991Y104050D01*
X208529Y104463D01*
X208942Y105001D01*
X209201Y105627D01*
X209282Y106238D01*
X209446Y106335D01*
X209780Y106411D01*
X209847Y106324D01*
X210505Y105819D01*
X211271Y105501D01*
X212093Y105393D01*
X212915Y105501D01*
X213681Y105819D01*
X214339Y106324D01*
X214844Y106982D01*
X215161Y107748D01*
X215270Y108570D01*
X215161Y109392D01*
X214844Y110158D01*
X214339Y110816D01*
X213681Y111321D01*
X212915Y111638D01*
X212093Y111747D01*
D02*
G37*
G36*
X160630Y114291D02*
X159808Y114182D01*
X159042Y113865D01*
X158384Y113360D01*
X157879Y112702D01*
X157562Y111936D01*
X157453Y111114D01*
X157562Y110292D01*
X157879Y109526D01*
X158384Y108868D01*
X159042Y108363D01*
X159808Y108045D01*
X160630Y107937D01*
X161452Y108045D01*
X162218Y108363D01*
X162876Y108868D01*
X163381Y109526D01*
X163698Y110292D01*
X163807Y111114D01*
X163698Y111936D01*
X163381Y112702D01*
X162876Y113360D01*
X162218Y113865D01*
X161452Y114182D01*
X160630Y114291D01*
D02*
G37*
G36*
X156862Y110614D02*
X154831D01*
Y108583D01*
X155003Y108606D01*
X155629Y108865D01*
X156167Y109278D01*
X156580Y109816D01*
X156839Y110442D01*
X156862Y110614D01*
D02*
G37*
G36*
X153831D02*
X151800D01*
X151822Y110442D01*
X152082Y109816D01*
X152494Y109278D01*
X153032Y108865D01*
X153659Y108606D01*
X153831Y108583D01*
Y110614D01*
D02*
G37*
G36*
X206193Y108830D02*
X206021Y108808D01*
X205394Y108548D01*
X204856Y108136D01*
X204444Y107598D01*
X204184Y106971D01*
X204162Y106799D01*
X206193D01*
Y108830D01*
D02*
G37*
G36*
Y105799D02*
X204162D01*
X204184Y105627D01*
X204444Y105001D01*
X204856Y104463D01*
X205394Y104050D01*
X206021Y103791D01*
X206193Y103768D01*
Y105799D01*
D02*
G37*
G36*
X185600Y109377D02*
X184778Y109268D01*
X184012Y108951D01*
X183354Y108446D01*
X182849Y107788D01*
X182531Y107022D01*
X182423Y106200D01*
X182531Y105378D01*
X182849Y104612D01*
X183354Y103954D01*
X184012Y103449D01*
X184778Y103131D01*
X185600Y103023D01*
X186422Y103131D01*
X187188Y103449D01*
X187846Y103954D01*
X188351Y104612D01*
X188669Y105378D01*
X188777Y106200D01*
X188669Y107022D01*
X188351Y107788D01*
X187846Y108446D01*
X187188Y108951D01*
X186422Y109268D01*
X185600Y109377D01*
D02*
G37*
G36*
X227074Y111800D02*
X226252Y111692D01*
X225485Y111375D01*
X224828Y110870D01*
X224323Y110212D01*
X224005Y109446D01*
X223897Y108624D01*
X224005Y107801D01*
X224323Y107035D01*
X224828Y106377D01*
X225485Y105872D01*
X226252Y105555D01*
X227074Y105447D01*
X227896Y105555D01*
X228662Y105872D01*
X229320Y106377D01*
X229825Y107035D01*
X230142Y107801D01*
X230251Y108624D01*
X230142Y109446D01*
X229825Y110212D01*
X229320Y110870D01*
X228662Y111375D01*
X227896Y111692D01*
X227074Y111800D01*
D02*
G37*
G36*
X195000Y110577D02*
X194178Y110468D01*
X193412Y110151D01*
X192754Y109646D01*
X192249Y108988D01*
X191931Y108222D01*
X191823Y107400D01*
X191931Y106578D01*
X192249Y105812D01*
X192754Y105154D01*
X193412Y104649D01*
X194178Y104332D01*
X195000Y104223D01*
X195822Y104332D01*
X196588Y104649D01*
X197246Y105154D01*
X197751Y105812D01*
X198068Y106578D01*
X198177Y107400D01*
X198068Y108222D01*
X197751Y108988D01*
X197246Y109646D01*
X196588Y110151D01*
X195822Y110468D01*
X195000Y110577D01*
D02*
G37*
G36*
X171429Y116823D02*
X169398D01*
Y114792D01*
X169570Y114814D01*
X170196Y115074D01*
X170734Y115487D01*
X171147Y116024D01*
X171406Y116651D01*
X171429Y116823D01*
D02*
G37*
G36*
X168398D02*
X166367D01*
X166389Y116651D01*
X166649Y116024D01*
X167061Y115487D01*
X167599Y115074D01*
X168226Y114814D01*
X168398Y114792D01*
Y116823D01*
D02*
G37*
G36*
X195169Y117610D02*
X193138D01*
X193161Y117438D01*
X193420Y116812D01*
X193833Y116274D01*
X194371Y115861D01*
X194997Y115602D01*
X195169Y115579D01*
Y117610D01*
D02*
G37*
G36*
X47019Y117217D02*
X44988D01*
Y115185D01*
X45160Y115208D01*
X45787Y115468D01*
X46325Y115880D01*
X46737Y116418D01*
X46997Y117044D01*
X47019Y117217D01*
D02*
G37*
G36*
X154831Y113645D02*
Y111614D01*
X156862D01*
X156839Y111786D01*
X156580Y112413D01*
X156167Y112950D01*
X155629Y113363D01*
X155003Y113622D01*
X154831Y113645D01*
D02*
G37*
G36*
X266311Y114657D02*
X262842D01*
X262914Y114113D01*
X263317Y113140D01*
X263958Y112305D01*
X264794Y111663D01*
X265767Y111260D01*
X266311Y111189D01*
Y114657D01*
D02*
G37*
G36*
X256811Y119772D02*
X255617Y119615D01*
X254504Y119153D01*
X253548Y118420D01*
X252815Y117464D01*
X252354Y116352D01*
X252197Y115157D01*
X252354Y113963D01*
X252815Y112850D01*
X253548Y111895D01*
X254504Y111161D01*
X255617Y110700D01*
X256811Y110543D01*
X258005Y110700D01*
X259118Y111161D01*
X260074Y111895D01*
X260807Y112850D01*
X261268Y113963D01*
X261425Y115157D01*
X261268Y116352D01*
X260807Y117464D01*
X260074Y118420D01*
X259118Y119153D01*
X258005Y119615D01*
X256811Y119772D01*
D02*
G37*
G36*
X153831Y113645D02*
X153659Y113622D01*
X153032Y113363D01*
X152494Y112950D01*
X152082Y112413D01*
X151822Y111786D01*
X151800Y111614D01*
X153831D01*
Y113645D01*
D02*
G37*
G36*
X270780Y114657D02*
X267311D01*
Y111189D01*
X267855Y111260D01*
X268828Y111663D01*
X269664Y112305D01*
X270305Y113140D01*
X270708Y114113D01*
X270780Y114657D01*
D02*
G37*
G36*
X106783Y75780D02*
X105995Y75676D01*
X104794Y75179D01*
X103762Y74387D01*
X102971Y73356D01*
X102473Y72155D01*
X102370Y71366D01*
X106783D01*
Y75780D01*
D02*
G37*
G36*
X150984Y37964D02*
Y35933D01*
X153015D01*
X152993Y36105D01*
X152733Y36732D01*
X152321Y37270D01*
X151783Y37682D01*
X151156Y37942D01*
X150984Y37964D01*
D02*
G37*
G36*
X149984D02*
X149812Y37942D01*
X149186Y37682D01*
X148648Y37270D01*
X148235Y36732D01*
X147976Y36105D01*
X147953Y35933D01*
X149984D01*
Y37964D01*
D02*
G37*
G36*
X149606Y44909D02*
X148784Y44801D01*
X148018Y44483D01*
X147360Y43979D01*
X146855Y43321D01*
X146538Y42555D01*
X146430Y41732D01*
X146538Y40910D01*
X146855Y40144D01*
X147360Y39486D01*
X148018Y38981D01*
X148784Y38664D01*
X149606Y38555D01*
X150428Y38664D01*
X151195Y38981D01*
X151853Y39486D01*
X152357Y40144D01*
X152675Y40910D01*
X152783Y41732D01*
X152675Y42555D01*
X152357Y43321D01*
X151853Y43979D01*
X151195Y44483D01*
X150428Y44801D01*
X149606Y44909D01*
D02*
G37*
G36*
X170079Y42350D02*
X169257Y42242D01*
X168490Y41925D01*
X167833Y41420D01*
X167328Y40762D01*
X167010Y39996D01*
X166902Y39173D01*
X167010Y38351D01*
X167328Y37585D01*
X167833Y36927D01*
X168490Y36422D01*
X169257Y36105D01*
X170079Y35997D01*
X170901Y36105D01*
X171667Y36422D01*
X172325Y36927D01*
X172830Y37585D01*
X173147Y38351D01*
X173256Y39173D01*
X173147Y39996D01*
X172830Y40762D01*
X172325Y41420D01*
X171667Y41925D01*
X170901Y42242D01*
X170079Y42350D01*
D02*
G37*
G36*
X153015Y34933D02*
X150984D01*
Y32902D01*
X151156Y32925D01*
X151783Y33184D01*
X152321Y33597D01*
X152733Y34135D01*
X152993Y34761D01*
X153015Y34933D01*
D02*
G37*
G36*
X176681Y30870D02*
Y28839D01*
X178712D01*
X178690Y29011D01*
X178430Y29637D01*
X178018Y30175D01*
X177480Y30588D01*
X176853Y30847D01*
X176681Y30870D01*
D02*
G37*
G36*
X175681D02*
X175509Y30847D01*
X174883Y30588D01*
X174345Y30175D01*
X173932Y29637D01*
X173673Y29011D01*
X173650Y28839D01*
X175681D01*
Y30870D01*
D02*
G37*
G36*
X149984Y34933D02*
X147953D01*
X147976Y34761D01*
X148235Y34135D01*
X148648Y33597D01*
X149186Y33184D01*
X149812Y32925D01*
X149984Y32902D01*
Y34933D01*
D02*
G37*
G36*
X209154Y100031D02*
X196358D01*
X195744Y99909D01*
X195223Y99561D01*
X194875Y99040D01*
X194753Y98425D01*
Y31496D01*
X194875Y30882D01*
X195223Y30361D01*
X195744Y30013D01*
X196358Y29890D01*
X209154D01*
X209768Y30013D01*
X210289Y30361D01*
X210637Y30882D01*
X210759Y31496D01*
Y98425D01*
X210637Y99040D01*
X210289Y99561D01*
X209768Y99909D01*
X209154Y100031D01*
D02*
G37*
G36*
X102752Y51006D02*
X101442Y50833D01*
X100221Y50327D01*
X99172Y49523D01*
X98368Y48474D01*
X98023Y47642D01*
X97482D01*
X97137Y48474D01*
X96332Y49523D01*
X95284Y50327D01*
X94063Y50833D01*
X92752Y51006D01*
X91442Y50833D01*
X90221Y50327D01*
X89172Y49523D01*
X88367Y48474D01*
X88023Y47642D01*
X87482D01*
X87137Y48474D01*
X86332Y49523D01*
X85284Y50327D01*
X84063Y50833D01*
X82752Y51006D01*
X81442Y50833D01*
X80221Y50327D01*
X79172Y49523D01*
X78368Y48474D01*
X78023Y47642D01*
X77482D01*
X77137Y48474D01*
X76332Y49523D01*
X75284Y50327D01*
X74063Y50833D01*
X72752Y51006D01*
X71442Y50833D01*
X70221Y50327D01*
X69172Y49523D01*
X68367Y48474D01*
X68023Y47642D01*
X67482D01*
X67137Y48474D01*
X66332Y49523D01*
X65284Y50327D01*
X64063Y50833D01*
X62752Y51006D01*
X61442Y50833D01*
X60221Y50327D01*
X59172Y49523D01*
X58368Y48474D01*
X58023Y47642D01*
X57482D01*
X57137Y48474D01*
X56332Y49523D01*
X55284Y50327D01*
X54063Y50833D01*
X52752Y51006D01*
X51442Y50833D01*
X50221Y50327D01*
X49172Y49523D01*
X48368Y48474D01*
X47862Y47253D01*
X47689Y45943D01*
X47862Y44632D01*
X48368Y43411D01*
X49172Y42363D01*
X50221Y41558D01*
X51053Y41213D01*
Y40672D01*
X50221Y40328D01*
X49172Y39523D01*
X48368Y38474D01*
X47862Y37253D01*
X47689Y35943D01*
X47862Y34632D01*
X48368Y33411D01*
X49172Y32363D01*
X50221Y31558D01*
X51442Y31052D01*
X52441Y30921D01*
X52441Y30921D01*
X52752Y30880D01*
X53063Y30921D01*
X53063Y30921D01*
X54063Y31052D01*
X55284Y31558D01*
X56332Y32363D01*
X57137Y33411D01*
X57482Y34244D01*
X58023D01*
X58368Y33411D01*
X59172Y32363D01*
X60221Y31558D01*
X61442Y31052D01*
X62441Y30921D01*
X62441Y30921D01*
X62752Y30880D01*
X63063Y30921D01*
X63063Y30921D01*
X64063Y31052D01*
X65284Y31558D01*
X66332Y32363D01*
X67137Y33411D01*
X67482Y34244D01*
X68023D01*
X68367Y33411D01*
X69172Y32363D01*
X70221Y31558D01*
X71442Y31052D01*
X72441Y30921D01*
X72441Y30921D01*
X72752Y30880D01*
X73063Y30921D01*
X73063Y30921D01*
X74063Y31052D01*
X75284Y31558D01*
X76332Y32363D01*
X77137Y33411D01*
X77482Y34244D01*
X78023D01*
X78368Y33411D01*
X79172Y32363D01*
X80221Y31558D01*
X81442Y31052D01*
X82441Y30921D01*
X82441Y30921D01*
X82752Y30880D01*
X83063Y30921D01*
X83063Y30921D01*
X84063Y31052D01*
X85284Y31558D01*
X86332Y32363D01*
X87137Y33411D01*
X87482Y34244D01*
X88023D01*
X88367Y33411D01*
X89172Y32363D01*
X90221Y31558D01*
X91442Y31052D01*
X92441Y30921D01*
X92441Y30921D01*
X92752Y30880D01*
X93063Y30921D01*
X93063Y30921D01*
X94063Y31052D01*
X95284Y31558D01*
X96332Y32363D01*
X97137Y33411D01*
X97482Y34244D01*
X98023D01*
X98368Y33411D01*
X99172Y32363D01*
X100221Y31558D01*
X101442Y31052D01*
X102441Y30921D01*
X102441Y30921D01*
X102752Y30880D01*
X103063Y30921D01*
X103063Y30921D01*
X104063Y31052D01*
X105284Y31558D01*
X106332Y32363D01*
X107137Y33411D01*
X107643Y34632D01*
X107815Y35943D01*
X107643Y37253D01*
X107137Y38474D01*
X106332Y39523D01*
X105284Y40328D01*
X104452Y40672D01*
Y41213D01*
X105284Y41558D01*
X106332Y42363D01*
X107137Y43411D01*
X107643Y44632D01*
X107815Y45943D01*
X107643Y47253D01*
X107137Y48474D01*
X106332Y49523D01*
X105284Y50327D01*
X104063Y50833D01*
X102752Y51006D01*
D02*
G37*
G36*
X185146Y47807D02*
Y45776D01*
X187177D01*
X187154Y45948D01*
X186895Y46574D01*
X186482Y47112D01*
X185944Y47525D01*
X185318Y47784D01*
X185146Y47807D01*
D02*
G37*
G36*
X43082Y51100D02*
X41051D01*
Y49069D01*
X41223Y49092D01*
X41850Y49351D01*
X42388Y49764D01*
X42800Y50301D01*
X43060Y50928D01*
X43082Y51100D01*
D02*
G37*
G36*
X40051D02*
X38020D01*
X38043Y50928D01*
X38302Y50301D01*
X38715Y49764D01*
X39253Y49351D01*
X39879Y49092D01*
X40051Y49069D01*
Y51100D01*
D02*
G37*
G36*
X184146Y47807D02*
X183973Y47784D01*
X183347Y47525D01*
X182809Y47112D01*
X182396Y46574D01*
X182137Y45948D01*
X182114Y45776D01*
X184146D01*
Y47807D01*
D02*
G37*
G36*
Y44776D02*
X182114D01*
X182137Y44603D01*
X182396Y43977D01*
X182809Y43439D01*
X183347Y43027D01*
X183973Y42767D01*
X184146Y42744D01*
Y44776D01*
D02*
G37*
G36*
X134843Y45704D02*
X134020Y45596D01*
X133254Y45279D01*
X132596Y44774D01*
X132091Y44116D01*
X131774Y43350D01*
X131666Y42528D01*
X131774Y41705D01*
X132091Y40939D01*
X132596Y40281D01*
X133254Y39776D01*
X134020Y39459D01*
X134843Y39351D01*
X135665Y39459D01*
X136431Y39776D01*
X137089Y40281D01*
X137594Y40939D01*
X137911Y41705D01*
X138019Y42528D01*
X137911Y43350D01*
X137594Y44116D01*
X137089Y44774D01*
X136431Y45279D01*
X135665Y45596D01*
X134843Y45704D01*
D02*
G37*
G36*
X176181Y50705D02*
X175359Y50596D01*
X174593Y50279D01*
X173935Y49774D01*
X173430Y49116D01*
X173113Y48350D01*
X173004Y47528D01*
X173113Y46706D01*
X173430Y45939D01*
X173935Y45281D01*
X174593Y44777D01*
X175359Y44459D01*
X176181Y44351D01*
X177003Y44459D01*
X177770Y44777D01*
X178428Y45281D01*
X178932Y45939D01*
X179250Y46706D01*
X179358Y47528D01*
X179250Y48350D01*
X178932Y49116D01*
X178428Y49774D01*
X177770Y50279D01*
X177003Y50596D01*
X176181Y50705D01*
D02*
G37*
G36*
X187177Y44776D02*
X185146D01*
Y42744D01*
X185318Y42767D01*
X185944Y43027D01*
X186482Y43439D01*
X186895Y43977D01*
X187154Y44603D01*
X187177Y44776D01*
D02*
G37*
G36*
X62252Y30421D02*
X59996D01*
X59337Y30290D01*
X58779Y29916D01*
X58405Y29358D01*
X58274Y28699D01*
Y26443D01*
X62252D01*
Y30421D01*
D02*
G37*
G36*
X55508D02*
X53252D01*
Y26443D01*
X57230D01*
Y28699D01*
X57099Y29358D01*
X56726Y29916D01*
X56167Y30290D01*
X55508Y30421D01*
D02*
G37*
G36*
X72252D02*
X69996D01*
X69337Y30290D01*
X68779Y29916D01*
X68405Y29358D01*
X68274Y28699D01*
Y26443D01*
X72252D01*
Y30421D01*
D02*
G37*
G36*
X65508D02*
X63252D01*
Y26443D01*
X67230D01*
Y28699D01*
X67099Y29358D01*
X66726Y29916D01*
X66167Y30290D01*
X65508Y30421D01*
D02*
G37*
G36*
X52252D02*
X49996D01*
X49337Y30290D01*
X48779Y29916D01*
X48405Y29358D01*
X48274Y28699D01*
Y26443D01*
X52252D01*
Y30421D01*
D02*
G37*
G36*
X137374Y27838D02*
X135343D01*
Y25807D01*
X135515Y25830D01*
X136141Y26089D01*
X136679Y26502D01*
X137092Y27040D01*
X137351Y27666D01*
X137374Y27838D01*
D02*
G37*
G36*
X134343D02*
X132311D01*
X132334Y27666D01*
X132594Y27040D01*
X133006Y26502D01*
X133544Y26089D01*
X134170Y25830D01*
X134343Y25807D01*
Y27838D01*
D02*
G37*
G36*
X178712Y27839D02*
X176681D01*
Y25807D01*
X176853Y25830D01*
X177480Y26090D01*
X178018Y26502D01*
X178430Y27040D01*
X178690Y27666D01*
X178712Y27839D01*
D02*
G37*
G36*
X175681D02*
X173650D01*
X173673Y27666D01*
X173932Y27040D01*
X174345Y26502D01*
X174883Y26090D01*
X175509Y25830D01*
X175681Y25807D01*
Y27839D01*
D02*
G37*
G36*
X105508Y30421D02*
X103252D01*
Y26443D01*
X107230D01*
Y28699D01*
X107099Y29358D01*
X106726Y29916D01*
X106167Y30290D01*
X105508Y30421D01*
D02*
G37*
G36*
X102252D02*
X99996D01*
X99337Y30290D01*
X98779Y29916D01*
X98405Y29358D01*
X98274Y28699D01*
Y26443D01*
X102252D01*
Y30421D01*
D02*
G37*
G36*
X135343Y30870D02*
Y28838D01*
X137374D01*
X137351Y29011D01*
X137092Y29637D01*
X136679Y30175D01*
X136141Y30588D01*
X135515Y30847D01*
X135343Y30870D01*
D02*
G37*
G36*
X134343D02*
X134170Y30847D01*
X133544Y30588D01*
X133006Y30175D01*
X132594Y29637D01*
X132334Y29011D01*
X132311Y28838D01*
X134343D01*
Y30870D01*
D02*
G37*
G36*
X95508Y30421D02*
X93252D01*
Y26443D01*
X97230D01*
Y28699D01*
X97099Y29358D01*
X96726Y29916D01*
X96167Y30290D01*
X95508Y30421D01*
D02*
G37*
G36*
X82252D02*
X79996D01*
X79337Y30290D01*
X78779Y29916D01*
X78405Y29358D01*
X78274Y28699D01*
Y26443D01*
X82252D01*
Y30421D01*
D02*
G37*
G36*
X75508D02*
X73252D01*
Y26443D01*
X77230D01*
Y28699D01*
X77099Y29358D01*
X76726Y29916D01*
X76167Y30290D01*
X75508Y30421D01*
D02*
G37*
G36*
X92252D02*
X89996D01*
X89337Y30290D01*
X88779Y29916D01*
X88405Y29358D01*
X88274Y28699D01*
Y26443D01*
X92252D01*
Y30421D01*
D02*
G37*
G36*
X85508D02*
X83252D01*
Y26443D01*
X87230D01*
Y28699D01*
X87099Y29358D01*
X86726Y29916D01*
X86167Y30290D01*
X85508Y30421D01*
D02*
G37*
G36*
X144685Y55736D02*
X143863Y55628D01*
X143097Y55310D01*
X142439Y54805D01*
X141934Y54147D01*
X141616Y53381D01*
X141508Y52559D01*
X141616Y51737D01*
X141934Y50971D01*
X142439Y50313D01*
X143097Y49808D01*
X143863Y49490D01*
X144685Y49382D01*
X145507Y49490D01*
X146273Y49808D01*
X146931Y50313D01*
X147436Y50971D01*
X147754Y51737D01*
X147862Y52559D01*
X147754Y53381D01*
X147436Y54147D01*
X146931Y54805D01*
X146273Y55310D01*
X145507Y55628D01*
X144685Y55736D01*
D02*
G37*
G36*
X252138Y66429D02*
X250106D01*
Y64398D01*
X250279Y64421D01*
X250905Y64680D01*
X251443Y65093D01*
X251855Y65631D01*
X252115Y66257D01*
X252138Y66429D01*
D02*
G37*
G36*
X249106D02*
X247075D01*
X247098Y66257D01*
X247357Y65631D01*
X247770Y65093D01*
X248308Y64680D01*
X248934Y64421D01*
X249106Y64398D01*
Y66429D01*
D02*
G37*
G36*
X112197Y70366D02*
X107783D01*
Y65952D01*
X108572Y66056D01*
X109773Y66554D01*
X110804Y67345D01*
X111596Y68376D01*
X112093Y69577D01*
X112197Y70366D01*
D02*
G37*
G36*
X106783D02*
X102370D01*
X102473Y69577D01*
X102971Y68376D01*
X103762Y67345D01*
X104794Y66554D01*
X105995Y66056D01*
X106783Y65952D01*
Y70366D01*
D02*
G37*
G36*
X237972Y66429D02*
X235941D01*
Y64398D01*
X236113Y64421D01*
X236739Y64680D01*
X237277Y65093D01*
X237690Y65631D01*
X237949Y66257D01*
X237972Y66429D01*
D02*
G37*
G36*
X166429D02*
X164398D01*
X164421Y66257D01*
X164680Y65631D01*
X165093Y65093D01*
X165631Y64680D01*
X166257Y64421D01*
X166429Y64398D01*
Y66429D01*
D02*
G37*
G36*
X131853Y74830D02*
X131031Y74722D01*
X130265Y74405D01*
X129607Y73900D01*
X129102Y73242D01*
X128785Y72476D01*
X128677Y71653D01*
X128785Y70831D01*
X129102Y70065D01*
X129607Y69407D01*
X130265Y68902D01*
X131031Y68585D01*
X131469Y68527D01*
X131784Y67981D01*
X131774Y67956D01*
X131666Y67134D01*
X131774Y66312D01*
X132091Y65546D01*
X132596Y64888D01*
X133254Y64383D01*
X134020Y64065D01*
X134843Y63957D01*
X135665Y64065D01*
X136431Y64383D01*
X137089Y64888D01*
X137594Y65546D01*
X137911Y66312D01*
X138019Y67134D01*
X137911Y67956D01*
X137594Y68722D01*
X137089Y69380D01*
X136431Y69885D01*
X135665Y70202D01*
X135227Y70260D01*
X134912Y70806D01*
X134922Y70831D01*
X135030Y71653D01*
X134922Y72476D01*
X134605Y73242D01*
X134100Y73900D01*
X133442Y74405D01*
X132676Y74722D01*
X131853Y74830D01*
D02*
G37*
G36*
X234941Y66429D02*
X232910D01*
X232932Y66257D01*
X233192Y65631D01*
X233605Y65093D01*
X234142Y64680D01*
X234769Y64421D01*
X234941Y64398D01*
Y66429D01*
D02*
G37*
G36*
X169460D02*
X167429D01*
Y64398D01*
X167601Y64421D01*
X168228Y64680D01*
X168766Y65093D01*
X169178Y65631D01*
X169438Y66257D01*
X169460Y66429D01*
D02*
G37*
G36*
X37795Y76945D02*
X36731Y76805D01*
X35740Y76394D01*
X34889Y75741D01*
X34236Y74890D01*
X33825Y73898D01*
X33685Y72835D01*
X33825Y71771D01*
X34236Y70780D01*
X34889Y69928D01*
X35740Y69275D01*
X36731Y68865D01*
X37795Y68725D01*
X38859Y68865D01*
X39850Y69275D01*
X40701Y69928D01*
X41355Y70780D01*
X41765Y71771D01*
X41905Y72835D01*
X41765Y73898D01*
X41355Y74890D01*
X40701Y75741D01*
X39850Y76394D01*
X38859Y76805D01*
X37795Y76945D01*
D02*
G37*
G36*
X250106Y69460D02*
Y67429D01*
X252138D01*
X252115Y67601D01*
X251855Y68228D01*
X251443Y68766D01*
X250905Y69178D01*
X250279Y69438D01*
X250106Y69460D01*
D02*
G37*
G36*
X230315Y77577D02*
X229493Y77469D01*
X228727Y77151D01*
X228069Y76646D01*
X227564Y75988D01*
X227246Y75222D01*
X227138Y74400D01*
X227246Y73578D01*
X227564Y72812D01*
X228069Y72154D01*
X228727Y71649D01*
X229493Y71332D01*
X230315Y71223D01*
X231137Y71332D01*
X231903Y71649D01*
X232561Y72154D01*
X233066Y72812D01*
X233383Y73578D01*
X233492Y74400D01*
X233383Y75222D01*
X233066Y75988D01*
X232561Y76646D01*
X231903Y77151D01*
X231137Y77469D01*
X230315Y77577D01*
D02*
G37*
G36*
X86614Y81347D02*
X85175Y81157D01*
X83834Y80602D01*
X82683Y79719D01*
X81800Y78567D01*
X81244Y77226D01*
X81055Y75787D01*
X81244Y74348D01*
X81800Y73008D01*
X82683Y71856D01*
X83834Y70973D01*
X85175Y70417D01*
X86614Y70228D01*
X88053Y70417D01*
X89394Y70973D01*
X90545Y71856D01*
X91429Y73008D01*
X91984Y74348D01*
X92174Y75787D01*
X91984Y77226D01*
X91429Y78567D01*
X90545Y79719D01*
X89394Y80602D01*
X88053Y81157D01*
X86614Y81347D01*
D02*
G37*
G36*
X249106Y69460D02*
X248934Y69438D01*
X248308Y69178D01*
X247770Y68766D01*
X247357Y68228D01*
X247098Y67601D01*
X247075Y67429D01*
X249106D01*
Y69460D01*
D02*
G37*
G36*
X167429D02*
Y67429D01*
X169460D01*
X169438Y67601D01*
X169178Y68228D01*
X168766Y68766D01*
X168228Y69178D01*
X167601Y69438D01*
X167429Y69460D01*
D02*
G37*
G36*
X166429D02*
X166257Y69438D01*
X165631Y69178D01*
X165093Y68766D01*
X164680Y68228D01*
X164421Y67601D01*
X164398Y67429D01*
X166429D01*
Y69460D01*
D02*
G37*
G36*
X235941D02*
Y67429D01*
X237972D01*
X237949Y67601D01*
X237690Y68228D01*
X237277Y68766D01*
X236739Y69178D01*
X236113Y69438D01*
X235941Y69460D01*
D02*
G37*
G36*
X234941D02*
X234769Y69438D01*
X234142Y69178D01*
X233605Y68766D01*
X233192Y68228D01*
X232932Y67601D01*
X232910Y67429D01*
X234941D01*
Y69460D01*
D02*
G37*
G36*
X123516Y55476D02*
X123344Y55453D01*
X122717Y55194D01*
X122179Y54781D01*
X121767Y54243D01*
X121507Y53617D01*
X121485Y53445D01*
X123516D01*
Y55476D01*
D02*
G37*
G36*
X41051Y54131D02*
Y52100D01*
X43082D01*
X43060Y52272D01*
X42800Y52899D01*
X42388Y53436D01*
X41850Y53849D01*
X41223Y54109D01*
X41051Y54131D01*
D02*
G37*
G36*
X134343Y55476D02*
X134170Y55453D01*
X133544Y55194D01*
X133006Y54781D01*
X132594Y54243D01*
X132334Y53617D01*
X132311Y53445D01*
X134343D01*
Y55476D01*
D02*
G37*
G36*
X124516D02*
Y53445D01*
X126547D01*
X126524Y53617D01*
X126265Y54243D01*
X125852Y54781D01*
X125314Y55194D01*
X124688Y55453D01*
X124516Y55476D01*
D02*
G37*
G36*
X40051Y54131D02*
X39879Y54109D01*
X39253Y53849D01*
X38715Y53436D01*
X38302Y52899D01*
X38043Y52272D01*
X38020Y52100D01*
X40051D01*
Y54131D01*
D02*
G37*
G36*
X126547Y52445D02*
X124516D01*
Y50414D01*
X124688Y50436D01*
X125314Y50696D01*
X125852Y51108D01*
X126265Y51646D01*
X126524Y52273D01*
X126547Y52445D01*
D02*
G37*
G36*
X123516D02*
X121485D01*
X121507Y52273D01*
X121767Y51646D01*
X122179Y51108D01*
X122717Y50696D01*
X123344Y50436D01*
X123516Y50414D01*
Y52445D01*
D02*
G37*
G36*
X137374D02*
X135343D01*
Y50414D01*
X135515Y50436D01*
X136141Y50696D01*
X136679Y51108D01*
X137092Y51646D01*
X137351Y52273D01*
X137374Y52445D01*
D02*
G37*
G36*
X134343D02*
X132311D01*
X132334Y52273D01*
X132594Y51646D01*
X133006Y51108D01*
X133544Y50696D01*
X134170Y50436D01*
X134343Y50414D01*
Y52445D01*
D02*
G37*
G36*
X216400Y74437D02*
X215578Y74328D01*
X214812Y74011D01*
X214154Y73506D01*
X213649Y72848D01*
X213332Y72082D01*
X213223Y71260D01*
X213332Y70438D01*
X213649Y69671D01*
X214154Y69014D01*
X214812Y68509D01*
X215578Y68191D01*
X216400Y68083D01*
X217035Y68167D01*
X217410Y67766D01*
X217404Y67751D01*
X217296Y66929D01*
X217404Y66107D01*
X217721Y65341D01*
X218226Y64683D01*
X218884Y64178D01*
X219650Y63861D01*
X220472Y63752D01*
X221295Y63861D01*
X222061Y64178D01*
X222719Y64683D01*
X223224Y65341D01*
X223541Y66107D01*
X223649Y66929D01*
X223541Y67751D01*
X223224Y68518D01*
X222719Y69175D01*
X222061Y69680D01*
X221295Y69998D01*
X220472Y70106D01*
X219838Y70022D01*
X219462Y70423D01*
X219468Y70438D01*
X219577Y71260D01*
X219468Y72082D01*
X219151Y72848D01*
X218646Y73506D01*
X217988Y74011D01*
X217222Y74328D01*
X216400Y74437D01*
D02*
G37*
G36*
X140657Y65130D02*
Y63098D01*
X142689D01*
X142666Y63271D01*
X142406Y63897D01*
X141994Y64435D01*
X141456Y64847D01*
X140830Y65107D01*
X140657Y65130D01*
D02*
G37*
G36*
X124016Y70311D02*
X123194Y70202D01*
X122427Y69885D01*
X121769Y69380D01*
X121265Y68722D01*
X120947Y67956D01*
X120839Y67134D01*
X120947Y66312D01*
X121265Y65546D01*
X121769Y64888D01*
X122427Y64383D01*
X123194Y64065D01*
X124016Y63957D01*
X124838Y64065D01*
X125604Y64383D01*
X126262Y64888D01*
X126767Y65546D01*
X127084Y66312D01*
X127193Y67134D01*
X127084Y67956D01*
X126767Y68722D01*
X126262Y69380D01*
X125604Y69885D01*
X124838Y70202D01*
X124016Y70311D01*
D02*
G37*
G36*
X264173Y70106D02*
X263351Y69998D01*
X262585Y69680D01*
X261927Y69175D01*
X261422Y68518D01*
X261105Y67751D01*
X260997Y66929D01*
X261105Y66107D01*
X261422Y65341D01*
X261927Y64683D01*
X262585Y64178D01*
X263351Y63861D01*
X264173Y63752D01*
X264995Y63861D01*
X265762Y64178D01*
X266420Y64683D01*
X266924Y65341D01*
X267242Y66107D01*
X267350Y66929D01*
X267242Y67751D01*
X266924Y68518D01*
X266420Y69175D01*
X265762Y69680D01*
X264995Y69998D01*
X264173Y70106D01*
D02*
G37*
G36*
X139657Y65130D02*
X139485Y65107D01*
X138859Y64847D01*
X138321Y64435D01*
X137908Y63897D01*
X137649Y63271D01*
X137626Y63098D01*
X139657D01*
Y65130D01*
D02*
G37*
G36*
X56890Y66315D02*
X55826Y66175D01*
X54835Y65764D01*
X53984Y65111D01*
X53330Y64260D01*
X52920Y63269D01*
X52780Y62205D01*
X52920Y61141D01*
X53330Y60150D01*
X53984Y59299D01*
X54835Y58645D01*
X55826Y58235D01*
X56890Y58095D01*
X57954Y58235D01*
X58945Y58645D01*
X59796Y59299D01*
X60449Y60150D01*
X60860Y61141D01*
X61000Y62205D01*
X60860Y63269D01*
X60449Y64260D01*
X59796Y65111D01*
X58945Y65764D01*
X57954Y66175D01*
X56890Y66315D01*
D02*
G37*
G36*
X135343Y55476D02*
Y53445D01*
X137374D01*
X137351Y53617D01*
X137092Y54243D01*
X136679Y54781D01*
X136141Y55194D01*
X135515Y55453D01*
X135343Y55476D01*
D02*
G37*
G36*
X142689Y62098D02*
X140657D01*
Y60067D01*
X140830Y60090D01*
X141456Y60349D01*
X141994Y60762D01*
X142406Y61300D01*
X142666Y61926D01*
X142689Y62098D01*
D02*
G37*
G36*
X139657D02*
X137626D01*
X137649Y61926D01*
X137908Y61300D01*
X138321Y60762D01*
X138859Y60349D01*
X139485Y60090D01*
X139657Y60067D01*
Y62098D01*
D02*
G37*
G36*
X232638Y226044D02*
X231430Y225885D01*
X230305Y225419D01*
X229339Y224677D01*
X228597Y223711D01*
X228131Y222586D01*
X227972Y221378D01*
X228131Y220170D01*
X228597Y219045D01*
X229339Y218079D01*
X230305Y217337D01*
X231430Y216871D01*
X232638Y216712D01*
X233845Y216871D01*
X234971Y217337D01*
X235937Y218079D01*
X236679Y219045D01*
X237145Y220170D01*
X237304Y221378D01*
X237145Y222586D01*
X236679Y223711D01*
X235937Y224677D01*
X234971Y225419D01*
X233845Y225885D01*
X232638Y226044D01*
D02*
G37*
G36*
X222638D02*
X221430Y225885D01*
X220305Y225419D01*
X219338Y224677D01*
X218597Y223711D01*
X218131Y222586D01*
X217972Y221378D01*
X218131Y220170D01*
X218597Y219045D01*
X219338Y218079D01*
X220305Y217337D01*
X221430Y216871D01*
X222638Y216712D01*
X223845Y216871D01*
X224971Y217337D01*
X225937Y218079D01*
X226679Y219045D01*
X227145Y220170D01*
X227304Y221378D01*
X227145Y222586D01*
X226679Y223711D01*
X225937Y224677D01*
X224971Y225419D01*
X223845Y225885D01*
X222638Y226044D01*
D02*
G37*
G36*
X92138Y220878D02*
X88617D01*
X88691Y220320D01*
X89099Y219335D01*
X89749Y218489D01*
X90595Y217839D01*
X91580Y217431D01*
X92138Y217358D01*
Y220878D01*
D02*
G37*
G36*
X57264Y226004D02*
X48012D01*
Y216752D01*
X57264D01*
Y226004D01*
D02*
G37*
G36*
X212638Y226044D02*
X211430Y225885D01*
X210305Y225419D01*
X209338Y224677D01*
X208597Y223711D01*
X208131Y222586D01*
X207972Y221378D01*
X208131Y220170D01*
X208597Y219045D01*
X209338Y218079D01*
X210305Y217337D01*
X211430Y216871D01*
X212638Y216712D01*
X213845Y216871D01*
X214971Y217337D01*
X215937Y218079D01*
X216679Y219045D01*
X217145Y220170D01*
X217304Y221378D01*
X217145Y222586D01*
X216679Y223711D01*
X215937Y224677D01*
X214971Y225419D01*
X213845Y225885D01*
X212638Y226044D01*
D02*
G37*
G36*
X182638D02*
X181430Y225885D01*
X180305Y225419D01*
X179339Y224677D01*
X178597Y223711D01*
X178131Y222586D01*
X177972Y221378D01*
X178131Y220170D01*
X178597Y219045D01*
X179339Y218079D01*
X180305Y217337D01*
X181430Y216871D01*
X182638Y216712D01*
X183845Y216871D01*
X184971Y217337D01*
X185937Y218079D01*
X186679Y219045D01*
X187145Y220170D01*
X187304Y221378D01*
X187145Y222586D01*
X186679Y223711D01*
X185937Y224677D01*
X184971Y225419D01*
X183845Y225885D01*
X182638Y226044D01*
D02*
G37*
G36*
X162638D02*
X161430Y225885D01*
X160305Y225419D01*
X159338Y224677D01*
X158597Y223711D01*
X158131Y222586D01*
X157972Y221378D01*
X158131Y220170D01*
X158597Y219045D01*
X159338Y218079D01*
X160305Y217337D01*
X161430Y216871D01*
X162638Y216712D01*
X163845Y216871D01*
X164971Y217337D01*
X165937Y218079D01*
X166679Y219045D01*
X167145Y220170D01*
X167304Y221378D01*
X167145Y222586D01*
X166679Y223711D01*
X165937Y224677D01*
X164971Y225419D01*
X163845Y225885D01*
X162638Y226044D01*
D02*
G37*
G36*
X202638D02*
X201430Y225885D01*
X200305Y225419D01*
X199338Y224677D01*
X198597Y223711D01*
X198131Y222586D01*
X197972Y221378D01*
X198131Y220170D01*
X198597Y219045D01*
X199338Y218079D01*
X200305Y217337D01*
X201430Y216871D01*
X202638Y216712D01*
X203845Y216871D01*
X204971Y217337D01*
X205937Y218079D01*
X206679Y219045D01*
X207145Y220170D01*
X207304Y221378D01*
X207145Y222586D01*
X206679Y223711D01*
X205937Y224677D01*
X204971Y225419D01*
X203845Y225885D01*
X202638Y226044D01*
D02*
G37*
G36*
X192638D02*
X191430Y225885D01*
X190305Y225419D01*
X189339Y224677D01*
X188597Y223711D01*
X188131Y222586D01*
X187972Y221378D01*
X188131Y220170D01*
X188597Y219045D01*
X189339Y218079D01*
X190305Y217337D01*
X191430Y216871D01*
X192638Y216712D01*
X193845Y216871D01*
X194971Y217337D01*
X195937Y218079D01*
X196679Y219045D01*
X197145Y220170D01*
X197304Y221378D01*
X197145Y222586D01*
X196679Y223711D01*
X195937Y224677D01*
X194971Y225419D01*
X193845Y225885D01*
X192638Y226044D01*
D02*
G37*
G36*
X93138Y225398D02*
Y221878D01*
X96658D01*
X96585Y222436D01*
X96176Y223421D01*
X95527Y224267D01*
X94681Y224917D01*
X93695Y225325D01*
X93138Y225398D01*
D02*
G37*
G36*
X92138D02*
X91580Y225325D01*
X90595Y224917D01*
X89749Y224267D01*
X89099Y223421D01*
X88691Y222436D01*
X88617Y221878D01*
X92138D01*
Y225398D01*
D02*
G37*
G36*
X173138D02*
Y221878D01*
X176658D01*
X176585Y222436D01*
X176177Y223421D01*
X175527Y224267D01*
X174681Y224917D01*
X173695Y225325D01*
X173138Y225398D01*
D02*
G37*
G36*
X172138D02*
X171580Y225325D01*
X170595Y224917D01*
X169748Y224267D01*
X169099Y223421D01*
X168691Y222436D01*
X168617Y221878D01*
X172138D01*
Y225398D01*
D02*
G37*
G36*
X246658Y220878D02*
X243138D01*
Y217358D01*
X243695Y217431D01*
X244681Y217839D01*
X245527Y218489D01*
X246177Y219335D01*
X246585Y220320D01*
X246658Y220878D01*
D02*
G37*
G36*
X172138D02*
X168617D01*
X168691Y220320D01*
X169099Y219335D01*
X169748Y218489D01*
X170595Y217839D01*
X171580Y217431D01*
X172138Y217358D01*
Y220878D01*
D02*
G37*
G36*
X96658D02*
X93138D01*
Y217358D01*
X93695Y217431D01*
X94681Y217839D01*
X95527Y218489D01*
X96176Y219335D01*
X96585Y220320D01*
X96658Y220878D01*
D02*
G37*
G36*
X242138D02*
X238617D01*
X238691Y220320D01*
X239099Y219335D01*
X239749Y218489D01*
X240595Y217839D01*
X241580Y217431D01*
X242138Y217358D01*
Y220878D01*
D02*
G37*
G36*
X176658D02*
X173138D01*
Y217358D01*
X173695Y217431D01*
X174681Y217839D01*
X175527Y218489D01*
X176177Y219335D01*
X176585Y220320D01*
X176658Y220878D01*
D02*
G37*
G36*
X228300Y211243D02*
X227478Y211135D01*
X226712Y210818D01*
X226054Y210313D01*
X225549Y209655D01*
X225232Y208889D01*
X225123Y208067D01*
X225232Y207244D01*
X225549Y206478D01*
X226054Y205820D01*
X226712Y205315D01*
X227478Y204998D01*
X228300Y204890D01*
X229122Y204998D01*
X229888Y205315D01*
X230546Y205820D01*
X231051Y206478D01*
X231368Y207244D01*
X231477Y208067D01*
X231368Y208889D01*
X231051Y209655D01*
X230546Y210313D01*
X229888Y210818D01*
X229122Y211135D01*
X228300Y211243D01*
D02*
G37*
G36*
X73622Y209082D02*
X72800Y208974D01*
X72034Y208657D01*
X71376Y208152D01*
X70871Y207494D01*
X70553Y206728D01*
X70445Y205906D01*
X70553Y205083D01*
X70871Y204317D01*
X71376Y203659D01*
X72034Y203154D01*
X72800Y202837D01*
X73622Y202729D01*
X74444Y202837D01*
X75210Y203154D01*
X75868Y203659D01*
X76373Y204317D01*
X76691Y205083D01*
X76799Y205906D01*
X76691Y206728D01*
X76373Y207494D01*
X75868Y208152D01*
X75210Y208657D01*
X74444Y208974D01*
X73622Y209082D01*
D02*
G37*
G36*
X59055Y215775D02*
X58233Y215667D01*
X57467Y215350D01*
X56809Y214845D01*
X56304Y214187D01*
X55987Y213421D01*
X55878Y212598D01*
X55987Y211776D01*
X56304Y211010D01*
X56809Y210352D01*
X57467Y209847D01*
X58233Y209530D01*
X59055Y209422D01*
X59877Y209530D01*
X60644Y209847D01*
X61301Y210352D01*
X61806Y211010D01*
X62124Y211776D01*
X62232Y212598D01*
X62124Y213421D01*
X61806Y214187D01*
X61301Y214845D01*
X60644Y215350D01*
X59877Y215667D01*
X59055Y215775D01*
D02*
G37*
G36*
X99410Y211247D02*
X98587Y211139D01*
X97821Y210822D01*
X97163Y210317D01*
X96658Y209659D01*
X96341Y208893D01*
X96233Y208070D01*
X96341Y207248D01*
X96658Y206482D01*
X97163Y205824D01*
X97821Y205319D01*
X98587Y205002D01*
X99410Y204894D01*
X100232Y205002D01*
X100998Y205319D01*
X101656Y205824D01*
X102161Y206482D01*
X102478Y207248D01*
X102586Y208070D01*
X102478Y208893D01*
X102161Y209659D01*
X101656Y210317D01*
X100998Y210822D01*
X100232Y211139D01*
X99410Y211247D01*
D02*
G37*
G36*
X112205Y208689D02*
X111382Y208580D01*
X110616Y208263D01*
X109958Y207758D01*
X109453Y207100D01*
X109136Y206334D01*
X109028Y205512D01*
X109136Y204690D01*
X109453Y203923D01*
X109958Y203266D01*
X110616Y202761D01*
X111382Y202443D01*
X112205Y202335D01*
X113027Y202443D01*
X113793Y202761D01*
X114451Y203266D01*
X114956Y203923D01*
X115273Y204690D01*
X115382Y205512D01*
X115273Y206334D01*
X114956Y207100D01*
X114451Y207758D01*
X113793Y208263D01*
X113027Y208580D01*
X112205Y208689D01*
D02*
G37*
G36*
X143012Y201744D02*
Y199713D01*
X145043D01*
X145020Y199885D01*
X144761Y200511D01*
X144348Y201049D01*
X143810Y201462D01*
X143184Y201721D01*
X143012Y201744D01*
D02*
G37*
G36*
X142012D02*
X141840Y201721D01*
X141213Y201462D01*
X140675Y201049D01*
X140263Y200511D01*
X140003Y199885D01*
X139981Y199713D01*
X142012D01*
Y201744D01*
D02*
G37*
G36*
X37106Y210532D02*
X35899Y210373D01*
X34773Y209907D01*
X33807Y209166D01*
X33066Y208199D01*
X32599Y207074D01*
X32441Y205866D01*
X32599Y204659D01*
X33066Y203533D01*
X33807Y202567D01*
X34773Y201826D01*
X35899Y201360D01*
X37106Y201201D01*
X38314Y201360D01*
X39439Y201826D01*
X40406Y202567D01*
X41147Y203533D01*
X41613Y204659D01*
X41772Y205866D01*
X41613Y207074D01*
X41147Y208199D01*
X40406Y209166D01*
X39439Y209907D01*
X38314Y210373D01*
X37106Y210532D01*
D02*
G37*
G36*
X47106Y210532D02*
X45899Y210373D01*
X44774Y209907D01*
X43807Y209166D01*
X43066Y208199D01*
X42599Y207074D01*
X42441Y205866D01*
X42599Y204659D01*
X43066Y203533D01*
X43807Y202567D01*
X44774Y201825D01*
X45899Y201359D01*
X47106Y201200D01*
X48314Y201359D01*
X49439Y201825D01*
X50406Y202567D01*
X51147Y203533D01*
X51613Y204659D01*
X51772Y205866D01*
X51613Y207074D01*
X51147Y208199D01*
X50406Y209166D01*
X49439Y209907D01*
X48314Y210373D01*
X47106Y210532D01*
D02*
G37*
G36*
X132638Y226044D02*
X131430Y225885D01*
X130305Y225419D01*
X129339Y224677D01*
X128597Y223711D01*
X128131Y222586D01*
X127972Y221378D01*
X128131Y220170D01*
X128597Y219045D01*
X129339Y218079D01*
X130305Y217337D01*
X131430Y216871D01*
X132638Y216712D01*
X133845Y216871D01*
X134971Y217337D01*
X135937Y218079D01*
X136679Y219045D01*
X137145Y220170D01*
X137304Y221378D01*
X137145Y222586D01*
X136679Y223711D01*
X135937Y224677D01*
X134971Y225419D01*
X133845Y225885D01*
X132638Y226044D01*
D02*
G37*
G36*
X122638D02*
X121430Y225885D01*
X120305Y225419D01*
X119339Y224677D01*
X118597Y223711D01*
X118131Y222586D01*
X117972Y221378D01*
X118131Y220170D01*
X118597Y219045D01*
X119339Y218079D01*
X120305Y217337D01*
X121430Y216871D01*
X122638Y216712D01*
X123845Y216871D01*
X124971Y217337D01*
X125937Y218079D01*
X126679Y219045D01*
X127145Y220170D01*
X127304Y221378D01*
X127145Y222586D01*
X126679Y223711D01*
X125937Y224677D01*
X124971Y225419D01*
X123845Y225885D01*
X122638Y226044D01*
D02*
G37*
G36*
X152638D02*
X151430Y225885D01*
X150305Y225419D01*
X149338Y224677D01*
X148597Y223711D01*
X148131Y222586D01*
X147972Y221378D01*
X148131Y220170D01*
X148597Y219045D01*
X149338Y218079D01*
X150305Y217337D01*
X151430Y216871D01*
X152638Y216712D01*
X153845Y216871D01*
X154971Y217337D01*
X155937Y218079D01*
X156679Y219045D01*
X157145Y220170D01*
X157304Y221378D01*
X157145Y222586D01*
X156679Y223711D01*
X155937Y224677D01*
X154971Y225419D01*
X153845Y225885D01*
X152638Y226044D01*
D02*
G37*
G36*
X142638D02*
X141430Y225885D01*
X140305Y225419D01*
X139339Y224677D01*
X138597Y223711D01*
X138131Y222586D01*
X137972Y221378D01*
X138131Y220170D01*
X138597Y219045D01*
X139339Y218079D01*
X140305Y217337D01*
X141430Y216871D01*
X142638Y216712D01*
X143845Y216871D01*
X144971Y217337D01*
X145937Y218079D01*
X146679Y219045D01*
X147145Y220170D01*
X147304Y221378D01*
X147145Y222586D01*
X146679Y223711D01*
X145937Y224677D01*
X144971Y225419D01*
X143845Y225885D01*
X142638Y226044D01*
D02*
G37*
G36*
X112638D02*
X111430Y225885D01*
X110305Y225419D01*
X109338Y224677D01*
X108597Y223711D01*
X108131Y222586D01*
X107972Y221378D01*
X108131Y220170D01*
X108597Y219045D01*
X109338Y218079D01*
X110305Y217337D01*
X111430Y216871D01*
X112638Y216712D01*
X113845Y216871D01*
X114971Y217337D01*
X115937Y218079D01*
X116679Y219045D01*
X117145Y220170D01*
X117304Y221378D01*
X117145Y222586D01*
X116679Y223711D01*
X115937Y224677D01*
X114971Y225419D01*
X113845Y225885D01*
X112638Y226044D01*
D02*
G37*
G36*
X72638D02*
X71430Y225885D01*
X70305Y225419D01*
X69339Y224677D01*
X68597Y223711D01*
X68131Y222586D01*
X67972Y221378D01*
X68131Y220170D01*
X68597Y219045D01*
X69339Y218079D01*
X70305Y217337D01*
X71430Y216871D01*
X72638Y216712D01*
X73845Y216871D01*
X74971Y217337D01*
X75937Y218079D01*
X76679Y219045D01*
X77145Y220170D01*
X77304Y221378D01*
X77145Y222586D01*
X76679Y223711D01*
X75937Y224677D01*
X74971Y225419D01*
X73845Y225885D01*
X72638Y226044D01*
D02*
G37*
G36*
X62638D02*
X61430Y225885D01*
X60305Y225419D01*
X59338Y224677D01*
X58597Y223711D01*
X58131Y222586D01*
X57972Y221378D01*
X58131Y220170D01*
X58597Y219045D01*
X59338Y218079D01*
X60305Y217337D01*
X61430Y216871D01*
X62638Y216712D01*
X63845Y216871D01*
X64971Y217337D01*
X65937Y218079D01*
X66679Y219045D01*
X67145Y220170D01*
X67304Y221378D01*
X67145Y222586D01*
X66679Y223711D01*
X65937Y224677D01*
X64971Y225419D01*
X63845Y225885D01*
X62638Y226044D01*
D02*
G37*
G36*
X102638D02*
X101430Y225885D01*
X100305Y225419D01*
X99339Y224677D01*
X98597Y223711D01*
X98131Y222586D01*
X97972Y221378D01*
X98131Y220170D01*
X98597Y219045D01*
X99339Y218079D01*
X100305Y217337D01*
X101430Y216871D01*
X102638Y216712D01*
X103845Y216871D01*
X104971Y217337D01*
X105937Y218079D01*
X106679Y219045D01*
X107145Y220170D01*
X107304Y221378D01*
X107145Y222586D01*
X106679Y223711D01*
X105937Y224677D01*
X104971Y225419D01*
X103845Y225885D01*
X102638Y226044D01*
D02*
G37*
G36*
X82638D02*
X81430Y225885D01*
X80305Y225419D01*
X79339Y224677D01*
X78597Y223711D01*
X78131Y222586D01*
X77972Y221378D01*
X78131Y220170D01*
X78597Y219045D01*
X79339Y218079D01*
X80305Y217337D01*
X81430Y216871D01*
X82638Y216712D01*
X83845Y216871D01*
X84971Y217337D01*
X85937Y218079D01*
X86679Y219045D01*
X87145Y220170D01*
X87304Y221378D01*
X87145Y222586D01*
X86679Y223711D01*
X85937Y224677D01*
X84971Y225419D01*
X83845Y225885D01*
X82638Y226044D01*
D02*
G37*
G36*
X242138Y225398D02*
X241580Y225325D01*
X240595Y224917D01*
X239749Y224267D01*
X239099Y223421D01*
X238691Y222436D01*
X238617Y221878D01*
X242138D01*
Y225398D01*
D02*
G37*
G36*
X212138Y230878D02*
X208617D01*
X208691Y230320D01*
X209099Y229335D01*
X209749Y228489D01*
X210595Y227839D01*
X211580Y227431D01*
X212138Y227358D01*
Y230878D01*
D02*
G37*
G36*
X196658D02*
X193138D01*
Y227358D01*
X193695Y227431D01*
X194681Y227839D01*
X195527Y228489D01*
X196177Y229335D01*
X196585Y230320D01*
X196658Y230878D01*
D02*
G37*
G36*
X72138Y235398D02*
X71580Y235325D01*
X70595Y234917D01*
X69749Y234267D01*
X69099Y233421D01*
X68691Y232436D01*
X68617Y231878D01*
X72138D01*
Y235398D01*
D02*
G37*
G36*
X216658Y230878D02*
X213138D01*
Y227358D01*
X213695Y227431D01*
X214681Y227839D01*
X215527Y228489D01*
X216177Y229335D01*
X216585Y230320D01*
X216658Y230878D01*
D02*
G37*
G36*
X192138D02*
X188618D01*
X188691Y230320D01*
X189099Y229335D01*
X189749Y228489D01*
X190595Y227839D01*
X191580Y227431D01*
X192138Y227358D01*
Y230878D01*
D02*
G37*
G36*
X116658D02*
X113138D01*
Y227358D01*
X113695Y227431D01*
X114681Y227839D01*
X115527Y228489D01*
X116176Y229335D01*
X116585Y230320D01*
X116658Y230878D01*
D02*
G37*
G36*
X112138D02*
X108617D01*
X108691Y230320D01*
X109099Y229335D01*
X109748Y228489D01*
X110595Y227839D01*
X111580Y227431D01*
X112138Y227358D01*
Y230878D01*
D02*
G37*
G36*
X146658D02*
X143138D01*
Y227358D01*
X143695Y227431D01*
X144681Y227839D01*
X145527Y228489D01*
X146177Y229335D01*
X146585Y230320D01*
X146658Y230878D01*
D02*
G37*
G36*
X142138D02*
X138618D01*
X138691Y230320D01*
X139099Y229335D01*
X139749Y228489D01*
X140595Y227839D01*
X141580Y227431D01*
X142138Y227358D01*
Y230878D01*
D02*
G37*
G36*
X193138Y235398D02*
Y231878D01*
X196658D01*
X196585Y232436D01*
X196177Y233421D01*
X195527Y234267D01*
X194681Y234917D01*
X193695Y235325D01*
X193138Y235398D01*
D02*
G37*
G36*
X192138D02*
X191580Y235325D01*
X190595Y234917D01*
X189749Y234267D01*
X189099Y233421D01*
X188691Y232436D01*
X188618Y231878D01*
X192138D01*
Y235398D01*
D02*
G37*
G36*
X213138D02*
Y231878D01*
X216658D01*
X216585Y232436D01*
X216177Y233421D01*
X215527Y234267D01*
X214681Y234917D01*
X213695Y235325D01*
X213138Y235398D01*
D02*
G37*
G36*
X212138D02*
X211580Y235325D01*
X210595Y234917D01*
X209749Y234267D01*
X209099Y233421D01*
X208691Y232436D01*
X208617Y231878D01*
X212138D01*
Y235398D01*
D02*
G37*
G36*
X143138D02*
Y231878D01*
X146658D01*
X146585Y232436D01*
X146177Y233421D01*
X145527Y234267D01*
X144681Y234917D01*
X143695Y235325D01*
X143138Y235398D01*
D02*
G37*
G36*
X112138D02*
X111580Y235325D01*
X110595Y234917D01*
X109748Y234267D01*
X109099Y233421D01*
X108691Y232436D01*
X108617Y231878D01*
X112138D01*
Y235398D01*
D02*
G37*
G36*
X73138D02*
Y231878D01*
X76658D01*
X76585Y232436D01*
X76177Y233421D01*
X75527Y234267D01*
X74681Y234917D01*
X73695Y235325D01*
X73138Y235398D01*
D02*
G37*
G36*
X142138D02*
X141580Y235325D01*
X140595Y234917D01*
X139749Y234267D01*
X139099Y233421D01*
X138691Y232436D01*
X138618Y231878D01*
X142138D01*
Y235398D01*
D02*
G37*
G36*
X113138D02*
Y231878D01*
X116658D01*
X116585Y232436D01*
X116176Y233421D01*
X115527Y234267D01*
X114681Y234917D01*
X113695Y235325D01*
X113138Y235398D01*
D02*
G37*
G36*
X122638Y236044D02*
X121430Y235885D01*
X120305Y235419D01*
X119339Y234677D01*
X118597Y233711D01*
X118131Y232586D01*
X117972Y231378D01*
X118131Y230170D01*
X118597Y229045D01*
X119339Y228079D01*
X120305Y227337D01*
X121430Y226871D01*
X122638Y226712D01*
X123845Y226871D01*
X124971Y227337D01*
X125937Y228079D01*
X126679Y229045D01*
X127145Y230170D01*
X127304Y231378D01*
X127145Y232586D01*
X126679Y233711D01*
X125937Y234677D01*
X124971Y235419D01*
X123845Y235885D01*
X122638Y236044D01*
D02*
G37*
G36*
X102638D02*
X101430Y235885D01*
X100305Y235419D01*
X99339Y234677D01*
X98597Y233711D01*
X98131Y232586D01*
X97972Y231378D01*
X98131Y230170D01*
X98597Y229045D01*
X99339Y228079D01*
X100305Y227337D01*
X101430Y226871D01*
X102638Y226712D01*
X103845Y226871D01*
X104971Y227337D01*
X105937Y228079D01*
X106679Y229045D01*
X107145Y230170D01*
X107304Y231378D01*
X107145Y232586D01*
X106679Y233711D01*
X105937Y234677D01*
X104971Y235419D01*
X103845Y235885D01*
X102638Y236044D01*
D02*
G37*
G36*
X152638D02*
X151430Y235885D01*
X150305Y235419D01*
X149338Y234677D01*
X148597Y233711D01*
X148131Y232586D01*
X147972Y231378D01*
X148131Y230170D01*
X148597Y229045D01*
X149338Y228079D01*
X150305Y227337D01*
X151430Y226871D01*
X152638Y226712D01*
X153845Y226871D01*
X154971Y227337D01*
X155937Y228079D01*
X156679Y229045D01*
X157145Y230170D01*
X157304Y231378D01*
X157145Y232586D01*
X156679Y233711D01*
X155937Y234677D01*
X154971Y235419D01*
X153845Y235885D01*
X152638Y236044D01*
D02*
G37*
G36*
X132638D02*
X131430Y235885D01*
X130305Y235419D01*
X129339Y234677D01*
X128597Y233711D01*
X128131Y232586D01*
X127972Y231378D01*
X128131Y230170D01*
X128597Y229045D01*
X129339Y228079D01*
X130305Y227337D01*
X131430Y226871D01*
X132638Y226712D01*
X133845Y226871D01*
X134971Y227337D01*
X135937Y228079D01*
X136679Y229045D01*
X137145Y230170D01*
X137304Y231378D01*
X137145Y232586D01*
X136679Y233711D01*
X135937Y234677D01*
X134971Y235419D01*
X133845Y235885D01*
X132638Y236044D01*
D02*
G37*
G36*
X92638D02*
X91430Y235885D01*
X90305Y235419D01*
X89338Y234677D01*
X88597Y233711D01*
X88131Y232586D01*
X87972Y231378D01*
X88131Y230170D01*
X88597Y229045D01*
X89338Y228079D01*
X90305Y227337D01*
X91430Y226871D01*
X92638Y226712D01*
X93845Y226871D01*
X94971Y227337D01*
X95937Y228079D01*
X96679Y229045D01*
X97145Y230170D01*
X97304Y231378D01*
X97145Y232586D01*
X96679Y233711D01*
X95937Y234677D01*
X94971Y235419D01*
X93845Y235885D01*
X92638Y236044D01*
D02*
G37*
G36*
X52638D02*
X51430Y235885D01*
X50305Y235419D01*
X49338Y234677D01*
X48597Y233711D01*
X48131Y232586D01*
X47972Y231378D01*
X48131Y230170D01*
X48597Y229045D01*
X49338Y228079D01*
X50305Y227337D01*
X51430Y226871D01*
X52638Y226712D01*
X53845Y226871D01*
X54971Y227337D01*
X55937Y228079D01*
X56679Y229045D01*
X57145Y230170D01*
X57304Y231378D01*
X57145Y232586D01*
X56679Y233711D01*
X55937Y234677D01*
X54971Y235419D01*
X53845Y235885D01*
X52638Y236044D01*
D02*
G37*
G36*
X243138Y225398D02*
Y221878D01*
X246658D01*
X246585Y222436D01*
X246177Y223421D01*
X245527Y224267D01*
X244681Y224917D01*
X243695Y225325D01*
X243138Y225398D01*
D02*
G37*
G36*
X82638Y236044D02*
X81430Y235885D01*
X80305Y235419D01*
X79339Y234677D01*
X78597Y233711D01*
X78131Y232586D01*
X77972Y231378D01*
X78131Y230170D01*
X78597Y229045D01*
X79339Y228079D01*
X80305Y227337D01*
X81430Y226871D01*
X82638Y226712D01*
X83845Y226871D01*
X84971Y227337D01*
X85937Y228079D01*
X86679Y229045D01*
X87145Y230170D01*
X87304Y231378D01*
X87145Y232586D01*
X86679Y233711D01*
X85937Y234677D01*
X84971Y235419D01*
X83845Y235885D01*
X82638Y236044D01*
D02*
G37*
G36*
X62638D02*
X61430Y235885D01*
X60305Y235419D01*
X59338Y234677D01*
X58597Y233711D01*
X58131Y232586D01*
X57972Y231378D01*
X58131Y230170D01*
X58597Y229045D01*
X59338Y228079D01*
X60305Y227337D01*
X61430Y226871D01*
X62638Y226712D01*
X63845Y226871D01*
X64971Y227337D01*
X65937Y228079D01*
X66679Y229045D01*
X67145Y230170D01*
X67304Y231378D01*
X67145Y232586D01*
X66679Y233711D01*
X65937Y234677D01*
X64971Y235419D01*
X63845Y235885D01*
X62638Y236044D01*
D02*
G37*
G36*
X242638D02*
X241430Y235885D01*
X240305Y235419D01*
X239338Y234677D01*
X238597Y233711D01*
X238131Y232586D01*
X237972Y231378D01*
X238131Y230170D01*
X238597Y229045D01*
X239338Y228079D01*
X240305Y227337D01*
X241430Y226871D01*
X242638Y226712D01*
X243845Y226871D01*
X244971Y227337D01*
X245937Y228079D01*
X246679Y229045D01*
X247145Y230170D01*
X247304Y231378D01*
X247145Y232586D01*
X246679Y233711D01*
X245937Y234677D01*
X244971Y235419D01*
X243845Y235885D01*
X242638Y236044D01*
D02*
G37*
G36*
X232638D02*
X231430Y235885D01*
X230305Y235419D01*
X229339Y234677D01*
X228597Y233711D01*
X228131Y232586D01*
X227972Y231378D01*
X228131Y230170D01*
X228597Y229045D01*
X229339Y228079D01*
X230305Y227337D01*
X231430Y226871D01*
X232638Y226712D01*
X233845Y226871D01*
X234971Y227337D01*
X235937Y228079D01*
X236679Y229045D01*
X237145Y230170D01*
X237304Y231378D01*
X237145Y232586D01*
X236679Y233711D01*
X235937Y234677D01*
X234971Y235419D01*
X233845Y235885D01*
X232638Y236044D01*
D02*
G37*
G36*
X76658Y230878D02*
X73138D01*
Y227358D01*
X73695Y227431D01*
X74681Y227839D01*
X75527Y228489D01*
X76177Y229335D01*
X76585Y230320D01*
X76658Y230878D01*
D02*
G37*
G36*
X72138D02*
X68617D01*
X68691Y230320D01*
X69099Y229335D01*
X69749Y228489D01*
X70595Y227839D01*
X71580Y227431D01*
X72138Y227358D01*
Y230878D01*
D02*
G37*
G36*
X222638Y236044D02*
X221430Y235885D01*
X220305Y235419D01*
X219338Y234677D01*
X218597Y233711D01*
X218131Y232586D01*
X217972Y231378D01*
X218131Y230170D01*
X218597Y229045D01*
X219338Y228079D01*
X220305Y227337D01*
X221430Y226871D01*
X222638Y226712D01*
X223845Y226871D01*
X224971Y227337D01*
X225937Y228079D01*
X226679Y229045D01*
X227145Y230170D01*
X227304Y231378D01*
X227145Y232586D01*
X226679Y233711D01*
X225937Y234677D01*
X224971Y235419D01*
X223845Y235885D01*
X222638Y236044D01*
D02*
G37*
G36*
X172638D02*
X171430Y235885D01*
X170305Y235419D01*
X169339Y234677D01*
X168597Y233711D01*
X168131Y232586D01*
X167972Y231378D01*
X168131Y230170D01*
X168597Y229045D01*
X169339Y228079D01*
X170305Y227337D01*
X171430Y226871D01*
X172638Y226712D01*
X173845Y226871D01*
X174971Y227337D01*
X175937Y228079D01*
X176679Y229045D01*
X177145Y230170D01*
X177304Y231378D01*
X177145Y232586D01*
X176679Y233711D01*
X175937Y234677D01*
X174971Y235419D01*
X173845Y235885D01*
X172638Y236044D01*
D02*
G37*
G36*
X162638D02*
X161430Y235885D01*
X160305Y235419D01*
X159338Y234677D01*
X158597Y233711D01*
X158131Y232586D01*
X157972Y231378D01*
X158131Y230170D01*
X158597Y229045D01*
X159338Y228079D01*
X160305Y227337D01*
X161430Y226871D01*
X162638Y226712D01*
X163845Y226871D01*
X164971Y227337D01*
X165937Y228079D01*
X166679Y229045D01*
X167145Y230170D01*
X167304Y231378D01*
X167145Y232586D01*
X166679Y233711D01*
X165937Y234677D01*
X164971Y235419D01*
X163845Y235885D01*
X162638Y236044D01*
D02*
G37*
G36*
X202638D02*
X201430Y235885D01*
X200305Y235419D01*
X199338Y234677D01*
X198597Y233711D01*
X198131Y232586D01*
X197972Y231378D01*
X198131Y230170D01*
X198597Y229045D01*
X199338Y228079D01*
X200305Y227337D01*
X201430Y226871D01*
X202638Y226712D01*
X203845Y226871D01*
X204971Y227337D01*
X205937Y228079D01*
X206679Y229045D01*
X207145Y230170D01*
X207304Y231378D01*
X207145Y232586D01*
X206679Y233711D01*
X205937Y234677D01*
X204971Y235419D01*
X203845Y235885D01*
X202638Y236044D01*
D02*
G37*
G36*
X182638D02*
X181430Y235885D01*
X180305Y235419D01*
X179339Y234677D01*
X178597Y233711D01*
X178131Y232586D01*
X177972Y231378D01*
X178131Y230170D01*
X178597Y229045D01*
X179339Y228079D01*
X180305Y227337D01*
X181430Y226871D01*
X182638Y226712D01*
X183845Y226871D01*
X184971Y227337D01*
X185937Y228079D01*
X186679Y229045D01*
X187145Y230170D01*
X187304Y231378D01*
X187145Y232586D01*
X186679Y233711D01*
X185937Y234677D01*
X184971Y235419D01*
X183845Y235885D01*
X182638Y236044D01*
D02*
G37*
G36*
X169094Y201350D02*
Y199319D01*
X171126D01*
X171103Y199491D01*
X170844Y200117D01*
X170431Y200655D01*
X169893Y201068D01*
X169267Y201327D01*
X169094Y201350D01*
D02*
G37*
G36*
X57374Y155012D02*
X55343D01*
X55366Y154840D01*
X55625Y154213D01*
X56038Y153675D01*
X56576Y153263D01*
X57202Y153003D01*
X57374Y152981D01*
Y155012D01*
D02*
G37*
G36*
X179126Y153114D02*
X177095D01*
X177118Y152942D01*
X177377Y152315D01*
X177790Y151778D01*
X178328Y151365D01*
X178954Y151105D01*
X179126Y151083D01*
Y153114D01*
D02*
G37*
G36*
Y156145D02*
X178954Y156123D01*
X178328Y155863D01*
X177790Y155450D01*
X177377Y154912D01*
X177118Y154286D01*
X177095Y154114D01*
X179126D01*
Y156145D01*
D02*
G37*
G36*
X60405Y155012D02*
X58374D01*
Y152981D01*
X58546Y153003D01*
X59172Y153263D01*
X59710Y153675D01*
X60123Y154213D01*
X60383Y154840D01*
X60405Y155012D01*
D02*
G37*
G36*
X92520Y162055D02*
X91081Y161866D01*
X89740Y161311D01*
X88589Y160427D01*
X87705Y159276D01*
X87150Y157935D01*
X86960Y156496D01*
X87150Y155057D01*
X87705Y153716D01*
X88589Y152565D01*
X89740Y151681D01*
X91081Y151126D01*
X92520Y150937D01*
X93958Y151126D01*
X95299Y151681D01*
X96451Y152565D01*
X97334Y153716D01*
X97890Y155057D01*
X98079Y156496D01*
X97890Y157935D01*
X97334Y159276D01*
X96451Y160427D01*
X95299Y161311D01*
X93958Y161866D01*
X92520Y162055D01*
D02*
G37*
G36*
X233571Y150563D02*
Y148531D01*
X235602D01*
X235579Y148704D01*
X235320Y149330D01*
X234907Y149868D01*
X234369Y150281D01*
X233743Y150540D01*
X233571Y150563D01*
D02*
G37*
G36*
X232571D02*
X232399Y150540D01*
X231772Y150281D01*
X231235Y149868D01*
X230822Y149330D01*
X230562Y148704D01*
X230540Y148531D01*
X232571D01*
Y150563D01*
D02*
G37*
G36*
X180126Y156145D02*
Y153614D01*
Y150793D01*
X180315Y150603D01*
X180288Y150394D01*
X180324Y150117D01*
X179856Y149846D01*
X179588Y150051D01*
X178822Y150368D01*
X178000Y150477D01*
X177178Y150368D01*
X176412Y150051D01*
X175754Y149546D01*
X175249Y148888D01*
X174932Y148122D01*
X174823Y147300D01*
X174932Y146478D01*
X175249Y145712D01*
X175754Y145054D01*
X176363Y144587D01*
X176347Y144379D01*
X176233Y144082D01*
X175564Y143994D01*
X174798Y143676D01*
X174140Y143172D01*
X173635Y142514D01*
X173318Y141747D01*
X173209Y140925D01*
X173318Y140103D01*
X173635Y139337D01*
X174140Y138679D01*
X174798Y138174D01*
X175564Y137857D01*
X176386Y137748D01*
X176592Y137776D01*
X177049Y137405D01*
X177131Y136778D01*
X177449Y136012D01*
X177954Y135354D01*
X178612Y134849D01*
X179378Y134531D01*
X180200Y134423D01*
X181022Y134531D01*
X181788Y134849D01*
X182446Y135354D01*
X182951Y136012D01*
X183268Y136778D01*
X183377Y137600D01*
X183367Y137672D01*
X183822Y137732D01*
X184588Y138049D01*
X185246Y138554D01*
X185751Y139212D01*
X186068Y139978D01*
X186177Y140800D01*
X186068Y141622D01*
X185751Y142388D01*
X185246Y143046D01*
X184588Y143551D01*
X183822Y143869D01*
X183000Y143977D01*
X182178Y143869D01*
X181412Y143551D01*
X180754Y143046D01*
X180249Y142388D01*
X179965Y141703D01*
X179928Y141698D01*
X179455Y141747D01*
X179137Y142514D01*
X178632Y143172D01*
X178024Y143639D01*
X178040Y143846D01*
X178153Y144143D01*
X178822Y144231D01*
X179588Y144549D01*
X180246Y145054D01*
X180751Y145712D01*
X181069Y146478D01*
X181177Y147300D01*
X181140Y147577D01*
X181609Y147848D01*
X181876Y147643D01*
X182642Y147325D01*
X183465Y147217D01*
X184287Y147325D01*
X185053Y147643D01*
X185711Y148147D01*
X186216Y148805D01*
X186533Y149572D01*
X186641Y150394D01*
X186533Y151216D01*
X186216Y151982D01*
X185711Y152640D01*
X185053Y153145D01*
X184287Y153462D01*
X183465Y153571D01*
X182709Y153471D01*
X182587Y153507D01*
X182196Y153819D01*
X182134Y154286D01*
X181875Y154912D01*
X181462Y155450D01*
X180924Y155863D01*
X180298Y156123D01*
X180126Y156145D01*
D02*
G37*
G36*
X163800Y155477D02*
X162978Y155368D01*
X162212Y155051D01*
X161554Y154546D01*
X161049Y153888D01*
X160731Y153122D01*
X160623Y152300D01*
X160731Y151478D01*
X161049Y150712D01*
X161554Y150054D01*
X162212Y149549D01*
X162978Y149232D01*
X163800Y149123D01*
X164622Y149232D01*
X165388Y149549D01*
X166046Y150054D01*
X166551Y150712D01*
X166868Y151478D01*
X166977Y152300D01*
X166868Y153122D01*
X166551Y153888D01*
X166046Y154546D01*
X165388Y155051D01*
X164622Y155368D01*
X163800Y155477D01*
D02*
G37*
G36*
X169008Y163760D02*
X166976D01*
Y161729D01*
X167149Y161751D01*
X167775Y162011D01*
X168313Y162424D01*
X168726Y162961D01*
X168985Y163588D01*
X169008Y163760D01*
D02*
G37*
G36*
X165976D02*
X163945D01*
X163968Y163588D01*
X164227Y162961D01*
X164640Y162424D01*
X165178Y162011D01*
X165804Y161751D01*
X165976Y161729D01*
Y163760D01*
D02*
G37*
G36*
X173228Y169712D02*
X172406Y169604D01*
X171640Y169287D01*
X170982Y168782D01*
X170477Y168124D01*
X170160Y167358D01*
X170052Y166535D01*
X170160Y165713D01*
X170477Y164947D01*
X170982Y164289D01*
X171640Y163784D01*
X172406Y163467D01*
X173228Y163359D01*
X174051Y163467D01*
X174817Y163784D01*
X175475Y164289D01*
X175980Y164947D01*
X176297Y165713D01*
X176405Y166535D01*
X176297Y167358D01*
X175980Y168124D01*
X175475Y168782D01*
X174817Y169287D01*
X174051Y169604D01*
X173228Y169712D01*
D02*
G37*
G36*
X118504Y168531D02*
X117682Y168423D01*
X116916Y168105D01*
X116258Y167601D01*
X115753Y166943D01*
X115435Y166176D01*
X115327Y165354D01*
X115435Y164532D01*
X115753Y163766D01*
X116258Y163108D01*
X116916Y162603D01*
X117682Y162286D01*
X118504Y162178D01*
X119326Y162286D01*
X120092Y162603D01*
X120750Y163108D01*
X121255Y163766D01*
X121572Y164532D01*
X121681Y165354D01*
X121572Y166176D01*
X121255Y166943D01*
X120750Y167601D01*
X120092Y168105D01*
X119326Y168423D01*
X118504Y168531D01*
D02*
G37*
G36*
X126827Y167393D02*
X126005Y167285D01*
X125238Y166968D01*
X124581Y166463D01*
X124076Y165805D01*
X123758Y165039D01*
X123650Y164217D01*
X123758Y163394D01*
X124076Y162628D01*
X124581Y161970D01*
X125238Y161465D01*
X126005Y161148D01*
X126827Y161040D01*
X127649Y161148D01*
X128415Y161465D01*
X129073Y161970D01*
X129578Y162628D01*
X129895Y163394D01*
X130004Y164217D01*
X129895Y165039D01*
X129578Y165805D01*
X129073Y166463D01*
X128415Y166968D01*
X127649Y167285D01*
X126827Y167393D01*
D02*
G37*
G36*
X58374Y158043D02*
Y156012D01*
X60405D01*
X60383Y156184D01*
X60123Y156810D01*
X59710Y157348D01*
X59172Y157761D01*
X58546Y158020D01*
X58374Y158043D01*
D02*
G37*
G36*
X57374D02*
X57202Y158020D01*
X56576Y157761D01*
X56038Y157348D01*
X55625Y156810D01*
X55366Y156184D01*
X55343Y156012D01*
X57374D01*
Y158043D01*
D02*
G37*
G36*
X211024Y166563D02*
X210201Y166454D01*
X209435Y166137D01*
X208777Y165632D01*
X208272Y164974D01*
X207955Y164208D01*
X207847Y163386D01*
X207955Y162564D01*
X208272Y161797D01*
X208777Y161140D01*
X209435Y160635D01*
X210201Y160317D01*
X211024Y160209D01*
X211846Y160317D01*
X212612Y160635D01*
X213270Y161140D01*
X213775Y161797D01*
X214092Y162564D01*
X214200Y163386D01*
X214092Y164208D01*
X213775Y164974D01*
X213270Y165632D01*
X212612Y166137D01*
X211846Y166454D01*
X211024Y166563D01*
D02*
G37*
G36*
X202700Y164377D02*
X201878Y164269D01*
X201112Y163951D01*
X200454Y163446D01*
X199949Y162788D01*
X199632Y162022D01*
X199523Y161200D01*
X199632Y160378D01*
X199949Y159612D01*
X200454Y158954D01*
X201112Y158449D01*
X201878Y158132D01*
X202700Y158023D01*
X203522Y158132D01*
X204288Y158449D01*
X204946Y158954D01*
X205451Y159612D01*
X205768Y160378D01*
X205877Y161200D01*
X205768Y162022D01*
X205451Y162788D01*
X204946Y163446D01*
X204288Y163951D01*
X203522Y164269D01*
X202700Y164377D01*
D02*
G37*
G36*
X151138Y141232D02*
X149107D01*
Y139201D01*
X149279Y139224D01*
X149905Y139483D01*
X150443Y139896D01*
X150856Y140434D01*
X151115Y141060D01*
X151138Y141232D01*
D02*
G37*
G36*
X148107D02*
X146075D01*
X146098Y141060D01*
X146358Y140434D01*
X146770Y139896D01*
X147308Y139483D01*
X147934Y139224D01*
X148107Y139201D01*
Y141232D01*
D02*
G37*
G36*
X60799Y141882D02*
X58768D01*
Y139851D01*
X58940Y139874D01*
X59566Y140133D01*
X60104Y140546D01*
X60517Y141084D01*
X60776Y141710D01*
X60799Y141882D01*
D02*
G37*
G36*
X57768D02*
X55737D01*
X55759Y141710D01*
X56019Y141084D01*
X56431Y140546D01*
X56969Y140133D01*
X57596Y139874D01*
X57768Y139851D01*
Y141882D01*
D02*
G37*
G36*
X163800Y143677D02*
X162978Y143569D01*
X162212Y143251D01*
X161554Y142746D01*
X161049Y142088D01*
X160731Y141322D01*
X160623Y140500D01*
X160731Y139678D01*
X161049Y138912D01*
X161554Y138254D01*
X162212Y137749D01*
X162978Y137432D01*
X163800Y137323D01*
X164622Y137432D01*
X165388Y137749D01*
X166046Y138254D01*
X166551Y138912D01*
X166868Y139678D01*
X166977Y140500D01*
X166868Y141322D01*
X166551Y142088D01*
X166046Y142746D01*
X165388Y143251D01*
X164622Y143569D01*
X163800Y143677D01*
D02*
G37*
G36*
X57980Y133102D02*
Y131071D01*
X60012D01*
X59989Y131243D01*
X59729Y131869D01*
X59317Y132407D01*
X58779Y132820D01*
X58153Y133080D01*
X57980Y133102D01*
D02*
G37*
G36*
X56980D02*
X56808Y133080D01*
X56182Y132820D01*
X55644Y132407D01*
X55231Y131869D01*
X54972Y131243D01*
X54949Y131071D01*
X56980D01*
Y133102D01*
D02*
G37*
G36*
X198400Y140677D02*
X197578Y140568D01*
X196812Y140251D01*
X196154Y139746D01*
X195649Y139088D01*
X195332Y138322D01*
X195258Y137768D01*
X194847Y137714D01*
X194081Y137397D01*
X193423Y136892D01*
X192987Y136324D01*
X192648Y136356D01*
X192468Y136437D01*
X192438Y136662D01*
X192121Y137428D01*
X191616Y138086D01*
X190958Y138591D01*
X190192Y138908D01*
X189370Y139016D01*
X188548Y138908D01*
X187782Y138591D01*
X187124Y138086D01*
X186619Y137428D01*
X186302Y136662D01*
X186193Y135840D01*
X186302Y135017D01*
X186619Y134251D01*
X187124Y133593D01*
X187782Y133088D01*
X188548Y132771D01*
X189370Y132663D01*
X190192Y132771D01*
X190958Y133088D01*
X191616Y133593D01*
X192052Y134161D01*
X192391Y134129D01*
X192571Y134048D01*
X192601Y133823D01*
X192918Y133057D01*
X193423Y132399D01*
X194081Y131894D01*
X194847Y131577D01*
X195669Y131469D01*
X196491Y131577D01*
X197258Y131894D01*
X197915Y132399D01*
X198420Y133057D01*
X198738Y133823D01*
X198811Y134377D01*
X199222Y134432D01*
X199988Y134749D01*
X200646Y135254D01*
X201151Y135912D01*
X201468Y136678D01*
X201577Y137500D01*
X201468Y138322D01*
X201151Y139088D01*
X200646Y139746D01*
X199988Y140251D01*
X199222Y140568D01*
X198400Y140677D01*
D02*
G37*
G36*
X49016Y133649D02*
X48194Y133541D01*
X47427Y133224D01*
X46769Y132719D01*
X46573Y132462D01*
X45937Y132455D01*
X45590Y132722D01*
X44964Y132981D01*
X44791Y133004D01*
Y130473D01*
Y127941D01*
X44964Y127964D01*
X45590Y128223D01*
X45937Y128490D01*
X46573Y128483D01*
X46769Y128226D01*
X47427Y127721D01*
X48194Y127404D01*
X49016Y127296D01*
X49838Y127404D01*
X50604Y127721D01*
X51262Y128226D01*
X51767Y128884D01*
X52084Y129650D01*
X52193Y130473D01*
X52084Y131295D01*
X51767Y132061D01*
X51262Y132719D01*
X50604Y133224D01*
X49838Y133541D01*
X49016Y133649D01*
D02*
G37*
G36*
X232571Y147531D02*
X230540D01*
X230562Y147359D01*
X230822Y146733D01*
X231235Y146195D01*
X231772Y145782D01*
X232399Y145523D01*
X232571Y145500D01*
Y147531D01*
D02*
G37*
G36*
X191827Y153551D02*
X191005Y153443D01*
X190238Y153125D01*
X189581Y152620D01*
X189076Y151963D01*
X188758Y151196D01*
X188650Y150374D01*
X188758Y149552D01*
X189076Y148786D01*
X189581Y148128D01*
X190238Y147623D01*
X190265Y147612D01*
X190277Y147562D01*
X190234Y147084D01*
X189612Y146826D01*
X188954Y146321D01*
X188449Y145663D01*
X188131Y144897D01*
X188023Y144075D01*
X188131Y143253D01*
X188449Y142486D01*
X188954Y141829D01*
X189612Y141324D01*
X190378Y141006D01*
X191200Y140898D01*
X192022Y141006D01*
X192788Y141324D01*
X193446Y141829D01*
X193951Y142486D01*
X194269Y143253D01*
X194377Y144075D01*
X194269Y144897D01*
X194141Y145204D01*
X194141Y145204D01*
X194037Y145456D01*
X194036Y145459D01*
X194039Y145460D01*
X194041Y145461D01*
X194073Y145475D01*
X194084Y145480D01*
X194446Y145635D01*
X194472Y145647D01*
X194641Y145462D01*
X194652Y145448D01*
X194652Y145448D01*
X194997Y144998D01*
X195655Y144493D01*
X196422Y144175D01*
X197244Y144067D01*
X198066Y144175D01*
X198832Y144493D01*
X199490Y144998D01*
X199995Y145655D01*
X200312Y146422D01*
X200420Y147244D01*
X200312Y148066D01*
X199995Y148832D01*
X199490Y149490D01*
X198832Y149995D01*
X198066Y150312D01*
X197244Y150421D01*
X196422Y150312D01*
X195655Y149995D01*
X195436Y149827D01*
X194967Y150097D01*
X195004Y150374D01*
X194895Y151196D01*
X194578Y151963D01*
X194073Y152620D01*
X193415Y153125D01*
X192649Y153443D01*
X191827Y153551D01*
D02*
G37*
G36*
X126827Y152630D02*
X126005Y152521D01*
X125238Y152204D01*
X124581Y151699D01*
X124076Y151041D01*
X123758Y150275D01*
X123650Y149453D01*
X123758Y148631D01*
X124076Y147864D01*
X124581Y147206D01*
X125238Y146702D01*
X126005Y146384D01*
X126827Y146276D01*
X127649Y146384D01*
X128415Y146702D01*
X129073Y147206D01*
X129578Y147864D01*
X129895Y148631D01*
X130004Y149453D01*
X129895Y150275D01*
X129578Y151041D01*
X129073Y151699D01*
X128415Y152204D01*
X127649Y152521D01*
X126827Y152630D01*
D02*
G37*
G36*
X235602Y147531D02*
X233571D01*
Y145500D01*
X233743Y145523D01*
X234369Y145782D01*
X234907Y146195D01*
X235320Y146733D01*
X235579Y147359D01*
X235602Y147531D01*
D02*
G37*
G36*
X49803Y145460D02*
X48981Y145352D01*
X48215Y145035D01*
X47557Y144530D01*
X47052Y143872D01*
X47045Y143854D01*
X46478Y143792D01*
X46226Y144120D01*
X45688Y144533D01*
X45062Y144792D01*
X44890Y144815D01*
Y142284D01*
Y139752D01*
X45062Y139775D01*
X45688Y140034D01*
X46226Y140447D01*
X46478Y140775D01*
X47045Y140714D01*
X47052Y140695D01*
X47557Y140037D01*
X48215Y139532D01*
X48981Y139215D01*
X49803Y139107D01*
X50625Y139215D01*
X51392Y139532D01*
X52049Y140037D01*
X52554Y140695D01*
X52872Y141461D01*
X52980Y142284D01*
X52872Y143106D01*
X52554Y143872D01*
X52049Y144530D01*
X51392Y145035D01*
X50625Y145352D01*
X49803Y145460D01*
D02*
G37*
G36*
X149107Y144263D02*
Y142232D01*
X151138D01*
X151115Y142404D01*
X150856Y143031D01*
X150443Y143569D01*
X149905Y143981D01*
X149279Y144241D01*
X149107Y144263D01*
D02*
G37*
G36*
X148107D02*
X147934Y144241D01*
X147308Y143981D01*
X146770Y143569D01*
X146358Y143031D01*
X146098Y142404D01*
X146075Y142232D01*
X148107D01*
Y144263D01*
D02*
G37*
G36*
X58768Y144913D02*
Y142882D01*
X60799D01*
X60776Y143054D01*
X60517Y143681D01*
X60104Y144218D01*
X59566Y144631D01*
X58940Y144891D01*
X58768Y144913D01*
D02*
G37*
G36*
X57768D02*
X57596Y144891D01*
X56969Y144631D01*
X56431Y144218D01*
X56019Y143681D01*
X55759Y143054D01*
X55737Y142882D01*
X57768D01*
Y144913D01*
D02*
G37*
G36*
X166300Y171577D02*
X165478Y171468D01*
X164712Y171151D01*
X164054Y170646D01*
X163549Y169988D01*
X163232Y169222D01*
X163123Y168400D01*
X163232Y167578D01*
X163549Y166812D01*
X164054Y166154D01*
X164170Y166065D01*
X164235Y165569D01*
X164227Y165559D01*
X163968Y164932D01*
X163945Y164760D01*
X169008D01*
X168985Y164932D01*
X168726Y165559D01*
X168506Y165845D01*
X168546Y166154D01*
X169051Y166812D01*
X169369Y167578D01*
X169477Y168400D01*
X169369Y169222D01*
X169051Y169988D01*
X168546Y170646D01*
X167888Y171151D01*
X167122Y171468D01*
X166300Y171577D01*
D02*
G37*
G36*
X37106Y200532D02*
X35899Y200373D01*
X34773Y199907D01*
X33807Y199166D01*
X33066Y198199D01*
X32599Y197074D01*
X32441Y195866D01*
X32599Y194659D01*
X33066Y193533D01*
X33807Y192567D01*
X34773Y191826D01*
X35899Y191359D01*
X37106Y191200D01*
X38314Y191359D01*
X39439Y191826D01*
X40406Y192567D01*
X41147Y193533D01*
X41613Y194659D01*
X41772Y195866D01*
X41613Y197074D01*
X41147Y198199D01*
X40406Y199166D01*
X39439Y199907D01*
X38314Y200373D01*
X37106Y200532D01*
D02*
G37*
G36*
X47106Y200532D02*
X45899Y200373D01*
X44774Y199907D01*
X43807Y199165D01*
X43066Y198199D01*
X42599Y197074D01*
X42441Y195866D01*
X42599Y194659D01*
X43066Y193533D01*
X43807Y192567D01*
X44774Y191825D01*
X45899Y191359D01*
X47106Y191200D01*
X48314Y191359D01*
X49439Y191825D01*
X50406Y192567D01*
X51147Y193533D01*
X51613Y194659D01*
X51772Y195866D01*
X51613Y197074D01*
X51147Y198199D01*
X50406Y199165D01*
X49439Y199907D01*
X48314Y200373D01*
X47106Y200532D01*
D02*
G37*
G36*
X74185Y195563D02*
X72154D01*
Y193532D01*
X72326Y193554D01*
X72952Y193814D01*
X73490Y194227D01*
X73903Y194764D01*
X74162Y195391D01*
X74185Y195563D01*
D02*
G37*
G36*
X71153D02*
X69122D01*
X69145Y195391D01*
X69404Y194764D01*
X69817Y194227D01*
X70355Y193814D01*
X70981Y193554D01*
X71153Y193532D01*
Y195563D01*
D02*
G37*
G36*
X182283Y193728D02*
X181461Y193620D01*
X180695Y193302D01*
X180037Y192798D01*
X179532Y192140D01*
X179215Y191373D01*
X179107Y190551D01*
X179215Y189729D01*
X179532Y188963D01*
X180037Y188305D01*
X180695Y187800D01*
X181461Y187483D01*
X182283Y187374D01*
X182735Y187434D01*
X183131Y187129D01*
X183152Y186973D01*
X183469Y186207D01*
X183974Y185549D01*
X184632Y185044D01*
X185398Y184727D01*
X186221Y184618D01*
X187043Y184727D01*
X187809Y185044D01*
X188467Y185549D01*
X188972Y186207D01*
X189289Y186973D01*
X189397Y187795D01*
X189289Y188618D01*
X188972Y189384D01*
X188467Y190042D01*
X187809Y190547D01*
X187043Y190864D01*
X186221Y190972D01*
X185769Y190913D01*
X185373Y191217D01*
X185352Y191373D01*
X185035Y192140D01*
X184530Y192798D01*
X183872Y193302D01*
X183106Y193620D01*
X182283Y193728D01*
D02*
G37*
G36*
X47106Y190532D02*
X45899Y190373D01*
X44774Y189907D01*
X43807Y189165D01*
X43066Y188199D01*
X42599Y187074D01*
X42441Y185866D01*
X42599Y184659D01*
X43066Y183533D01*
X43807Y182567D01*
X44774Y181825D01*
X45899Y181359D01*
X47106Y181200D01*
X48314Y181359D01*
X49439Y181825D01*
X50406Y182567D01*
X51147Y183533D01*
X51613Y184659D01*
X51772Y185866D01*
X51613Y187074D01*
X51147Y188199D01*
X50406Y189165D01*
X49439Y189907D01*
X48314Y190373D01*
X47106Y190532D01*
D02*
G37*
G36*
X200598Y179894D02*
Y177863D01*
X202630D01*
X202607Y178035D01*
X202347Y178662D01*
X201935Y179199D01*
X201397Y179612D01*
X200771Y179871D01*
X200598Y179894D01*
D02*
G37*
G36*
X65945Y189200D02*
X65123Y189092D01*
X64356Y188775D01*
X63699Y188270D01*
X63194Y187612D01*
X62876Y186846D01*
X62768Y186024D01*
X62876Y185201D01*
X63194Y184435D01*
X63699Y183777D01*
X64356Y183273D01*
X65123Y182955D01*
X65945Y182847D01*
X66767Y182955D01*
X67533Y183273D01*
X68191Y183777D01*
X68696Y184435D01*
X69013Y185201D01*
X69122Y186024D01*
X69013Y186846D01*
X68696Y187612D01*
X68191Y188270D01*
X67533Y188775D01*
X66767Y189092D01*
X65945Y189200D01*
D02*
G37*
G36*
X37106Y190532D02*
X35899Y190373D01*
X34773Y189907D01*
X33807Y189166D01*
X33066Y188199D01*
X32599Y187074D01*
X32441Y185866D01*
X32599Y184659D01*
X33066Y183533D01*
X33807Y182567D01*
X34773Y181826D01*
X35899Y181360D01*
X37106Y181201D01*
X38314Y181360D01*
X39439Y181826D01*
X40406Y182567D01*
X41147Y183533D01*
X41613Y184659D01*
X41772Y185866D01*
X41613Y187074D01*
X41147Y188199D01*
X40406Y189166D01*
X39439Y189907D01*
X38314Y190373D01*
X37106Y190532D01*
D02*
G37*
G36*
X142012Y198713D02*
X139981D01*
X140003Y198540D01*
X140263Y197914D01*
X140675Y197376D01*
X141213Y196964D01*
X141840Y196704D01*
X142012Y196681D01*
Y198713D01*
D02*
G37*
G36*
X72154Y198594D02*
Y196563D01*
X74185D01*
X74162Y196735D01*
X73903Y197362D01*
X73490Y197899D01*
X72952Y198312D01*
X72326Y198572D01*
X72154Y198594D01*
D02*
G37*
G36*
X168094Y201350D02*
X167922Y201327D01*
X167296Y201068D01*
X166758Y200655D01*
X166345Y200117D01*
X166086Y199491D01*
X166063Y199319D01*
X168094D01*
Y201350D01*
D02*
G37*
G36*
X145043Y198713D02*
X143012D01*
Y196681D01*
X143184Y196704D01*
X143810Y196964D01*
X144348Y197376D01*
X144761Y197914D01*
X145020Y198540D01*
X145043Y198713D01*
D02*
G37*
G36*
X71153Y198594D02*
X70981Y198572D01*
X70355Y198312D01*
X69817Y197899D01*
X69404Y197362D01*
X69145Y196735D01*
X69122Y196563D01*
X71153D01*
Y198594D01*
D02*
G37*
G36*
X156701Y202389D02*
X155879Y202281D01*
X155113Y201964D01*
X154455Y201459D01*
X153950Y200801D01*
X153632Y200035D01*
X153524Y199213D01*
X153632Y198390D01*
X153950Y197624D01*
X154455Y196966D01*
X155113Y196461D01*
X155879Y196144D01*
X156701Y196036D01*
X157523Y196144D01*
X158289Y196461D01*
X158947Y196966D01*
X159452Y197624D01*
X159769Y198390D01*
X159878Y199213D01*
X159769Y200035D01*
X159452Y200801D01*
X158947Y201459D01*
X158289Y201964D01*
X157523Y202281D01*
X156701Y202389D01*
D02*
G37*
G36*
X200000Y201996D02*
X199178Y201887D01*
X198412Y201570D01*
X197754Y201065D01*
X197249Y200407D01*
X196932Y199641D01*
X196823Y198819D01*
X196932Y197997D01*
X197249Y197231D01*
X197754Y196573D01*
X198412Y196068D01*
X199178Y195750D01*
X200000Y195642D01*
X200822Y195750D01*
X201588Y196068D01*
X202246Y196573D01*
X202751Y197231D01*
X203068Y197997D01*
X203177Y198819D01*
X203068Y199641D01*
X202751Y200407D01*
X202246Y201065D01*
X201588Y201570D01*
X200822Y201887D01*
X200000Y201996D01*
D02*
G37*
G36*
X171126Y198319D02*
X169094D01*
Y196288D01*
X169267Y196310D01*
X169893Y196570D01*
X170431Y196983D01*
X170844Y197520D01*
X171103Y198147D01*
X171126Y198319D01*
D02*
G37*
G36*
X168094D02*
X166063D01*
X166086Y198147D01*
X166345Y197520D01*
X166758Y196983D01*
X167296Y196570D01*
X167922Y196310D01*
X168094Y196288D01*
Y198319D01*
D02*
G37*
G36*
X199598Y176863D02*
X197567D01*
X197590Y176691D01*
X197849Y176065D01*
X198262Y175527D01*
X198800Y175114D01*
X199426Y174855D01*
X199598Y174832D01*
Y176863D01*
D02*
G37*
G36*
X180110Y173909D02*
X178079D01*
X178102Y173737D01*
X178361Y173111D01*
X178774Y172573D01*
X179312Y172160D01*
X179938Y171901D01*
X180110Y171878D01*
Y173909D01*
D02*
G37*
G36*
Y176941D02*
X179938Y176918D01*
X179312Y176658D01*
X178774Y176246D01*
X178361Y175708D01*
X178102Y175082D01*
X178079Y174909D01*
X180110D01*
Y176941D01*
D02*
G37*
G36*
X202630Y176863D02*
X200598D01*
Y174832D01*
X200771Y174855D01*
X201397Y175114D01*
X201935Y175527D01*
X202347Y176065D01*
X202607Y176691D01*
X202630Y176863D01*
D02*
G37*
G36*
X41158Y175366D02*
X37606D01*
Y171815D01*
X41158D01*
Y175366D01*
D02*
G37*
G36*
X51158Y175366D02*
X47606D01*
Y171815D01*
X51158D01*
Y175366D01*
D02*
G37*
G36*
X46606D02*
X43055D01*
Y171815D01*
X46606D01*
Y175366D01*
D02*
G37*
G36*
X36606Y175366D02*
X33055D01*
Y171815D01*
X36606D01*
Y175366D01*
D02*
G37*
G36*
X31158D02*
X27606D01*
Y171815D01*
X31158D01*
Y175366D01*
D02*
G37*
G36*
X36606Y179918D02*
X33055D01*
Y176366D01*
X36606D01*
Y179918D01*
D02*
G37*
G36*
X31158D02*
X27606D01*
Y176366D01*
X31158D01*
Y179918D01*
D02*
G37*
G36*
X199598Y179894D02*
X199426Y179871D01*
X198800Y179612D01*
X198262Y179199D01*
X197849Y178662D01*
X197590Y178035D01*
X197567Y177863D01*
X199598D01*
Y179894D01*
D02*
G37*
G36*
X41158Y179918D02*
X37606D01*
Y176366D01*
X41158D01*
Y179918D01*
D02*
G37*
G36*
X51158Y179917D02*
X47606D01*
Y176366D01*
X51158D01*
Y179917D01*
D02*
G37*
G36*
X185531Y177192D02*
X184709Y177084D01*
X183943Y176767D01*
X183285Y176262D01*
X183175Y176118D01*
X182545D01*
X182447Y176246D01*
X181909Y176658D01*
X181282Y176918D01*
X181110Y176941D01*
Y174409D01*
Y171878D01*
X181282Y171901D01*
X181909Y172160D01*
X182243Y172417D01*
X182462Y172421D01*
X182803Y172350D01*
X182873Y172307D01*
X183285Y171769D01*
X183943Y171265D01*
X184709Y170947D01*
X185531Y170839D01*
X186354Y170947D01*
X187120Y171265D01*
X187778Y171769D01*
X188283Y172427D01*
X188600Y173194D01*
X188708Y174016D01*
X188600Y174838D01*
X188283Y175604D01*
X187778Y176262D01*
X187120Y176767D01*
X186354Y177084D01*
X185531Y177192D01*
D02*
G37*
G36*
X126406Y182157D02*
X125583Y182049D01*
X124817Y181732D01*
X124159Y181227D01*
X123654Y180569D01*
X123337Y179803D01*
X123229Y178980D01*
X123337Y178158D01*
X123654Y177392D01*
X124159Y176734D01*
X124817Y176229D01*
X125583Y175912D01*
X126406Y175804D01*
X127228Y175912D01*
X127994Y176229D01*
X128652Y176734D01*
X129157Y177392D01*
X129474Y178158D01*
X129582Y178980D01*
X129474Y179803D01*
X129157Y180569D01*
X128652Y181227D01*
X127994Y181732D01*
X127228Y182049D01*
X126406Y182157D01*
D02*
G37*
G36*
X46606Y179917D02*
X43055D01*
Y176366D01*
X46606D01*
Y179917D01*
D02*
G37*
G36*
X189763Y182704D02*
X188941Y182596D01*
X188175Y182278D01*
X187517Y181773D01*
X187012Y181116D01*
X186695Y180349D01*
X186587Y179527D01*
X186695Y178705D01*
X187012Y177939D01*
X187517Y177281D01*
X188175Y176776D01*
X188941Y176459D01*
X189763Y176350D01*
X190586Y176459D01*
X191352Y176776D01*
X192010Y177281D01*
X192515Y177939D01*
X192832Y178705D01*
X192940Y179527D01*
X192832Y180349D01*
X192515Y181116D01*
X192010Y181773D01*
X191352Y182278D01*
X190586Y182596D01*
X189763Y182704D01*
D02*
G37*
%LPD*%
D42*
X37106Y175866D02*
D03*
X47106Y175866D02*
D03*
X27106Y175866D02*
D03*
D43*
X72638Y231378D02*
D03*
X92638Y221378D02*
D03*
X112638Y231378D02*
D03*
X142638D02*
D03*
X242638Y221378D02*
D03*
X212638Y231378D02*
D03*
X192638D02*
D03*
X172638Y221378D02*
D03*
D44*
X102752Y25943D02*
D03*
X52752D02*
D03*
X62752D02*
D03*
X72752D02*
D03*
X82752D02*
D03*
X92752D02*
D03*
D46*
X266811Y115157D02*
D03*
X27559Y88661D02*
D03*
D49*
X68898Y74803D02*
D03*
X64961D02*
D03*
Y80709D02*
D03*
X68898D02*
D03*
D50*
X206693Y106299D02*
D03*
X57480Y130571D02*
D03*
X44291Y130473D02*
D03*
X58268Y142382D02*
D03*
X44390Y142284D02*
D03*
X57874Y155512D02*
D03*
X180610Y174409D02*
D03*
X200098Y177363D02*
D03*
X140157Y62598D02*
D03*
X195669Y118110D02*
D03*
X148607Y141732D02*
D03*
X184646Y45276D02*
D03*
X229921Y93701D02*
D03*
X44488Y117717D02*
D03*
X40551Y51600D02*
D03*
X248425Y85433D02*
D03*
X249606Y66929D02*
D03*
X166929D02*
D03*
X166476Y164260D02*
D03*
X124016Y52945D02*
D03*
X134843Y28338D02*
D03*
Y52945D02*
D03*
X150484Y35433D02*
D03*
X176181Y28339D02*
D03*
X154331Y111114D02*
D03*
X235441Y66929D02*
D03*
X179626Y153614D02*
D03*
X142512Y199213D02*
D03*
X236221Y91002D02*
D03*
X168594Y198819D02*
D03*
X71653Y196063D02*
D03*
X233071Y148031D02*
D03*
X168898Y117323D02*
D03*
X57480Y118504D02*
D03*
D51*
X107283Y70866D02*
D03*
D52*
X45276Y89764D02*
D03*
M02*
