G04 Layer_Color=7318015*
%FSLAX25Y25*%
%MOIN*%
G70*
G01*
G75*
%ADD10R,0.06700X0.02800*%
%ADD11R,0.21260X0.11417*%
%ADD12O,0.06496X0.02165*%
%ADD13O,0.02165X0.06496*%
%ADD14R,0.03543X0.02559*%
%ADD15R,0.06496X0.09055*%
%ADD16R,0.06000X0.06000*%
%ADD17R,0.02756X0.03347*%
%ADD18R,0.03347X0.02756*%
%ADD19R,0.05118X0.03543*%
%ADD20R,0.04331X0.02559*%
%ADD21R,0.04331X0.02362*%
%ADD22O,0.04331X0.02362*%
%ADD23R,0.04134X0.03937*%
%ADD24R,0.09055X0.12205*%
%ADD25O,0.08268X0.02756*%
%ADD26R,0.02658X0.00984*%
%ADD27R,0.00984X0.02658*%
%ADD28R,0.02953X0.03347*%
%ADD29R,0.03543X0.03937*%
%ADD30R,0.03937X0.04134*%
%ADD31R,0.03937X0.03543*%
%ADD32R,0.03347X0.02953*%
%ADD33R,0.03543X0.05118*%
D10*
X156496Y137008D02*
D03*
Y141732D02*
D03*
Y146532D02*
D03*
D11*
X92520Y146457D02*
D03*
Y107480D02*
D03*
D12*
X171063Y153524D02*
D03*
Y150374D02*
D03*
Y147224D02*
D03*
Y144075D02*
D03*
Y140925D02*
D03*
Y137776D02*
D03*
Y134626D02*
D03*
Y131476D02*
D03*
X203937D02*
D03*
Y134626D02*
D03*
Y137776D02*
D03*
Y140925D02*
D03*
Y144075D02*
D03*
Y147224D02*
D03*
Y150374D02*
D03*
Y153524D02*
D03*
D13*
X176476Y126063D02*
D03*
X179626D02*
D03*
X182776D02*
D03*
X185925D02*
D03*
X189075D02*
D03*
X192224D02*
D03*
X195374D02*
D03*
X198524D02*
D03*
Y158937D02*
D03*
X195374D02*
D03*
X192224D02*
D03*
X189075D02*
D03*
X185925D02*
D03*
X182776D02*
D03*
X179626D02*
D03*
X176476D02*
D03*
D14*
X181890Y202559D02*
D03*
Y195079D02*
D03*
X172441D02*
D03*
Y198819D02*
D03*
Y202559D02*
D03*
D15*
X97441Y71457D02*
D03*
Y86024D02*
D03*
D16*
X126406Y184055D02*
D03*
X135406D02*
D03*
X135827Y169291D02*
D03*
X126827D02*
D03*
X135827Y154528D02*
D03*
X126827D02*
D03*
D17*
X195571Y192913D02*
D03*
X200098D02*
D03*
Y203740D02*
D03*
X195571D02*
D03*
X185335Y182087D02*
D03*
X180807D02*
D03*
X82382Y202756D02*
D03*
X86909D02*
D03*
X99114D02*
D03*
X103642D02*
D03*
X82382Y192913D02*
D03*
X86910D02*
D03*
X99114D02*
D03*
X103642D02*
D03*
X148327Y154528D02*
D03*
X152854D02*
D03*
X148327Y169291D02*
D03*
X152854D02*
D03*
X139468Y99409D02*
D03*
X143996D02*
D03*
X148327Y182087D02*
D03*
X152854D02*
D03*
X155217Y99409D02*
D03*
X159744D02*
D03*
X139468Y82677D02*
D03*
X143996D02*
D03*
X170965Y99409D02*
D03*
X175492D02*
D03*
X154232Y82677D02*
D03*
X158760D02*
D03*
X170965D02*
D03*
X175492D02*
D03*
X170965Y66929D02*
D03*
X175492D02*
D03*
X62303Y159449D02*
D03*
X57776D02*
D03*
X62500Y147107D02*
D03*
X57972D02*
D03*
X62008Y123701D02*
D03*
X57480D02*
D03*
X57776Y111220D02*
D03*
X62303D02*
D03*
X200098Y182087D02*
D03*
X195571D02*
D03*
X44980Y111220D02*
D03*
X49508D02*
D03*
X229626Y115157D02*
D03*
X225098D02*
D03*
D18*
X43307Y63484D02*
D03*
Y58563D02*
D03*
D19*
X45276Y75984D02*
D03*
Y83465D02*
D03*
Y75984D02*
D03*
Y83465D02*
D03*
D20*
X164173Y39173D02*
D03*
Y31693D02*
D03*
X154724D02*
D03*
Y35433D02*
D03*
Y39173D02*
D03*
D21*
X261516Y92520D02*
D03*
Y87598D02*
D03*
Y82677D02*
D03*
Y77756D02*
D03*
X252953D02*
D03*
Y82677D02*
D03*
Y87598D02*
D03*
D22*
Y92520D02*
D03*
D23*
X152559Y199213D02*
D03*
X146654D02*
D03*
X225394Y66929D02*
D03*
X231299D02*
D03*
X50197Y123701D02*
D03*
X44291D02*
D03*
D24*
X66929Y76772D02*
D03*
D25*
X76969Y69272D02*
D03*
Y74272D02*
D03*
Y79272D02*
D03*
Y84272D02*
D03*
X56890Y69272D02*
D03*
Y74272D02*
D03*
Y79272D02*
D03*
Y84272D02*
D03*
D26*
X221998Y84596D02*
D03*
Y82628D02*
D03*
Y80659D02*
D03*
X238632D02*
D03*
Y82628D02*
D03*
Y84596D02*
D03*
D27*
X224410Y77657D02*
D03*
X226378D02*
D03*
X228347D02*
D03*
X230315D02*
D03*
X232284D02*
D03*
X234252D02*
D03*
X236221D02*
D03*
Y87598D02*
D03*
X234252D02*
D03*
X232284D02*
D03*
X230315D02*
D03*
X228347D02*
D03*
X226378D02*
D03*
X224410D02*
D03*
D28*
X180610Y169291D02*
D03*
X185531D02*
D03*
X254429Y66929D02*
D03*
X259350D02*
D03*
X229823Y99409D02*
D03*
X224902D02*
D03*
X44390Y147244D02*
D03*
X49311D02*
D03*
X43996Y135433D02*
D03*
X48917D02*
D03*
X57775D02*
D03*
X62697D02*
D03*
X204232Y115157D02*
D03*
X209154D02*
D03*
D29*
X160630D02*
D03*
X154331D02*
D03*
X70079Y93504D02*
D03*
X63780D02*
D03*
D30*
X176181Y38386D02*
D03*
Y32480D02*
D03*
X134843Y38386D02*
D03*
Y32480D02*
D03*
X124016Y62992D02*
D03*
Y57087D02*
D03*
X134843Y62992D02*
D03*
Y57087D02*
D03*
D31*
X184646Y31890D02*
D03*
Y38189D02*
D03*
D32*
X144685Y61516D02*
D03*
Y56594D02*
D03*
D33*
X53937Y97441D02*
D03*
X46457D02*
D03*
X53937D02*
D03*
X46457D02*
D03*
X26772Y55118D02*
D03*
X34252D02*
D03*
X26772D02*
D03*
X34252D02*
D03*
M02*
