G04 Layer_Physical_Order=3*
G04 Layer_Color=56745*
%FSLAX25Y25*%
%MOIN*%
G70*
G01*
G75*
%ADD36C,0.01000*%
%ADD43C,0.06102*%
G04:AMPARAMS|DCode=44|XSize=68.9mil|YSize=68.9mil|CornerRadius=6.89mil|HoleSize=0mil|Usage=FLASHONLY|Rotation=90.000|XOffset=0mil|YOffset=0mil|HoleType=Round|Shape=RoundedRectangle|*
%AMROUNDEDRECTD44*
21,1,0.06890,0.05512,0,0,90.0*
21,1,0.05512,0.06890,0,0,90.0*
1,1,0.01378,0.02756,0.02756*
1,1,0.01378,0.02756,-0.02756*
1,1,0.01378,-0.02756,-0.02756*
1,1,0.01378,-0.02756,0.02756*
%
%ADD44ROUNDEDRECTD44*%
%ADD45C,0.06890*%
%ADD46C,0.06000*%
%ADD50C,0.03150*%
%ADD51C,0.07874*%
%ADD52C,0.05000*%
%ADD53C,0.09843*%
%ADD54C,0.07874*%
%ADD55C,0.03937*%
%ADD56C,0.02756*%
G36*
X272638Y97441D02*
Y58071D01*
X265748Y51181D01*
X250984D01*
X223425Y23622D01*
X169291D01*
X162402Y30512D01*
Y47244D01*
X168307Y53150D01*
X190945D01*
X192913Y51181D01*
Y30512D01*
X194882Y28543D01*
X209646D01*
X211614Y30512D01*
X211614Y95051D01*
X221293Y103347D01*
X256908Y103347D01*
X257078Y102847D01*
X256809Y102640D01*
X256304Y101982D01*
X255987Y101216D01*
X255878Y100394D01*
X255987Y99572D01*
X256304Y98805D01*
X256809Y98147D01*
X257467Y97642D01*
X258233Y97325D01*
X259055Y97217D01*
X259877Y97325D01*
X260644Y97642D01*
X261301Y98147D01*
X261806Y98805D01*
X262124Y99572D01*
X262232Y100394D01*
X262124Y101216D01*
X261806Y101982D01*
X261301Y102640D01*
X261032Y102847D01*
X261202Y103347D01*
X266732D01*
X272638Y97441D01*
D02*
G37*
G36*
X238348Y233109D02*
X238131Y232586D01*
X237972Y231378D01*
X238131Y230170D01*
X238597Y229045D01*
X239338Y228079D01*
X240305Y227337D01*
X241430Y226871D01*
X242638Y226712D01*
X243845Y226871D01*
X244369Y227088D01*
X247916Y223540D01*
X248290Y221985D01*
X249144Y219924D01*
X250309Y218021D01*
X251758Y216325D01*
X253454Y214876D01*
X255357Y213710D01*
X257418Y212857D01*
X258973Y212483D01*
X273622Y197835D01*
Y167323D01*
Y164370D01*
X263779Y154528D01*
X213583Y104331D01*
X209717D01*
X209494Y104831D01*
X209761Y105477D01*
X209870Y106299D01*
X209851Y106441D01*
X210083Y106608D01*
X210324Y106682D01*
X210794Y106321D01*
X211421Y106061D01*
X211593Y106039D01*
Y108570D01*
Y111101D01*
X211421Y111079D01*
X210794Y110819D01*
X210257Y110406D01*
X209844Y109869D01*
X209584Y109242D01*
X209504Y108631D01*
X209340Y108534D01*
X209006Y108458D01*
X208939Y108545D01*
X208281Y109050D01*
X207515Y109368D01*
X206693Y109476D01*
X205871Y109368D01*
X205104Y109050D01*
X204447Y108545D01*
X203942Y107888D01*
X203624Y107121D01*
X203516Y106299D01*
X203624Y105477D01*
X203892Y104831D01*
X203669Y104331D01*
X196995D01*
X196825Y104831D01*
X197246Y105154D01*
X197751Y105812D01*
X198068Y106578D01*
X198177Y107400D01*
X198068Y108222D01*
X197751Y108988D01*
X197246Y109646D01*
X196588Y110151D01*
X195822Y110468D01*
X195000Y110577D01*
X194178Y110468D01*
X193412Y110151D01*
X192754Y109646D01*
X192249Y108988D01*
X191931Y108222D01*
X191823Y107400D01*
X191931Y106578D01*
X192249Y105812D01*
X192754Y105154D01*
X193175Y104831D01*
X193005Y104331D01*
X188724D01*
X188442Y104831D01*
X188669Y105378D01*
X188777Y106200D01*
X188669Y107022D01*
X188351Y107788D01*
X187846Y108446D01*
X187188Y108951D01*
X186422Y109268D01*
X185600Y109377D01*
X184778Y109268D01*
X184012Y108951D01*
X183354Y108446D01*
X182849Y107788D01*
X182531Y107022D01*
X182423Y106200D01*
X182531Y105378D01*
X182758Y104831D01*
X182476Y104331D01*
X148334D01*
X148004Y104707D01*
X148059Y105118D01*
X147950Y105940D01*
X147633Y106707D01*
X147128Y107364D01*
X146470Y107869D01*
X145704Y108187D01*
X144882Y108295D01*
X144060Y108187D01*
X143293Y107869D01*
X142636Y107364D01*
X142131Y106707D01*
X141813Y105940D01*
X141705Y105118D01*
X141759Y104707D01*
X141429Y104331D01*
X125984D01*
X117126Y113189D01*
Y161417D01*
X98425Y180118D01*
X83964D01*
X80860Y183222D01*
X80339Y183570D01*
X80237Y183590D01*
X79724Y183692D01*
X79724Y183692D01*
X67958D01*
X67788Y184168D01*
X67785Y184192D01*
X68194Y184725D01*
X68453Y185352D01*
X68476Y185524D01*
X63414D01*
X63436Y185352D01*
X63696Y184725D01*
X64105Y184192D01*
X64102Y184168D01*
X63932Y183692D01*
X61709D01*
X59329Y186178D01*
X59664Y200549D01*
X62898Y204866D01*
X62985Y205047D01*
X63097Y205214D01*
X63119Y205327D01*
X63169Y205431D01*
X63180Y205631D01*
X63219Y205828D01*
X63196Y205941D01*
X63203Y206056D01*
X63136Y206246D01*
X63097Y206443D01*
X63033Y206539D01*
X62994Y206647D01*
X62860Y206797D01*
X62749Y206964D01*
X60036Y209677D01*
X60153Y210266D01*
X60354Y210349D01*
X60891Y210762D01*
X61304Y211300D01*
X61387Y211500D01*
X61977Y211618D01*
X63735Y209859D01*
X63783Y209827D01*
X63819Y209782D01*
X64042Y209654D01*
X64256Y209511D01*
X64313Y209500D01*
X64363Y209471D01*
X64618Y209439D01*
X64871Y209389D01*
X64927Y209401D01*
X64985Y209393D01*
X65633Y209439D01*
X65689Y209455D01*
X65746Y209452D01*
X65989Y209537D01*
X66237Y209605D01*
X66283Y209641D01*
X66337Y209660D01*
X66529Y209832D01*
X66732Y209989D01*
X66760Y210040D01*
X66803Y210078D01*
X70183Y214588D01*
X70269Y214770D01*
X70381Y214937D01*
X70403Y215050D01*
X70453Y215154D01*
X70464Y215354D01*
X70503Y215551D01*
Y216805D01*
X70919Y217083D01*
X71430Y216871D01*
X72638Y216712D01*
X73845Y216871D01*
X74971Y217337D01*
X75937Y218079D01*
X76679Y219045D01*
X77145Y220170D01*
X77304Y221378D01*
X77145Y222586D01*
X76679Y223711D01*
X75937Y224677D01*
X74971Y225419D01*
X73845Y225885D01*
X72638Y226044D01*
X71430Y225885D01*
X70919Y225673D01*
X70503Y225951D01*
Y226805D01*
X70919Y227083D01*
X71430Y226871D01*
X72638Y226712D01*
X73845Y226871D01*
X74971Y227337D01*
X75937Y228079D01*
X76679Y229045D01*
X77145Y230170D01*
X77304Y231378D01*
X77145Y232586D01*
X76679Y233711D01*
X75937Y234677D01*
X74971Y235419D01*
X73845Y235885D01*
X72638Y236044D01*
X71430Y235885D01*
X70803Y235625D01*
X70381Y235851D01*
X70033Y236372D01*
X70033Y236372D01*
X68678Y237727D01*
X68869Y238189D01*
X233268D01*
X238348Y233109D01*
D02*
G37*
G36*
X82677Y86614D02*
X88583D01*
X94488Y80709D01*
X96457Y78740D01*
Y72835D01*
X90599Y66977D01*
X59725D01*
X59670Y67019D01*
X58329Y67575D01*
X56890Y67764D01*
X55451Y67575D01*
X54110Y67019D01*
X53992Y66929D01*
X53150D01*
X51181Y68898D01*
X49213Y66929D01*
Y53150D01*
X45276Y49213D01*
X43319D01*
X43073Y49713D01*
X43302Y50012D01*
X43620Y50778D01*
X43728Y51600D01*
X43620Y52422D01*
X43302Y53188D01*
X42797Y53846D01*
X42140Y54351D01*
X41373Y54668D01*
X40551Y54777D01*
X39729Y54668D01*
X38963Y54351D01*
X38305Y53846D01*
X37800Y53188D01*
X37483Y52422D01*
X37374Y51600D01*
X37483Y50778D01*
X37800Y50012D01*
X38030Y49713D01*
X37783Y49213D01*
X25591D01*
X23622Y51181D01*
Y60920D01*
X24122Y61089D01*
X24275Y60890D01*
X25006Y60329D01*
X25858Y59976D01*
X26272Y59921D01*
Y63386D01*
Y66850D01*
X25858Y66796D01*
X25006Y66443D01*
X24275Y65882D01*
X24122Y65682D01*
X23622Y65852D01*
Y76434D01*
X23840Y76538D01*
X24122Y76570D01*
X24706Y75809D01*
X25542Y75167D01*
X26515Y74764D01*
X27059Y74693D01*
Y78661D01*
Y82630D01*
X26515Y82559D01*
X25542Y82155D01*
X24706Y81514D01*
X24122Y80753D01*
X23840Y80785D01*
X23622Y80889D01*
Y85499D01*
X24095Y85660D01*
X24296Y85399D01*
X25252Y84665D01*
X26365Y84204D01*
X27559Y84047D01*
X28753Y84204D01*
X29866Y84665D01*
X30822Y85399D01*
X31555Y86354D01*
X32016Y87467D01*
X32173Y88661D01*
X32016Y89856D01*
X31900Y90135D01*
X32178Y90551D01*
X39370D01*
X43307Y94488D01*
Y108268D01*
X47244Y112205D01*
X52821D01*
X82677Y86614D01*
D02*
G37*
G36*
X68898Y235236D02*
Y234103D01*
X68597Y233711D01*
X68131Y232586D01*
X67972Y231378D01*
X68131Y230170D01*
X68597Y229045D01*
X68898Y228653D01*
Y224103D01*
X68597Y223711D01*
X68131Y222586D01*
X67972Y221378D01*
X68131Y220170D01*
X68597Y219045D01*
X68898Y218653D01*
Y215551D01*
X65519Y211041D01*
X64871Y210995D01*
X61897Y213969D01*
X61806Y214187D01*
X61301Y214845D01*
X60644Y215350D01*
X59877Y215667D01*
X59055Y215775D01*
X58233Y215667D01*
X57467Y215350D01*
X56809Y214845D01*
X56304Y214187D01*
X55987Y213421D01*
X55878Y212598D01*
X55987Y211776D01*
X56304Y211010D01*
X56809Y210352D01*
X57467Y209847D01*
X57685Y209757D01*
X61613Y205828D01*
X58071Y201100D01*
X57708Y185549D01*
X61024Y182087D01*
X79724D01*
X103347Y158465D01*
X110236Y151575D01*
Y103347D01*
Y102362D01*
X155512Y57087D01*
Y30512D01*
X148622Y23622D01*
X119095D01*
X116142Y26575D01*
Y61024D01*
Y70866D01*
X68898Y118110D01*
X64961Y122047D01*
X47244D01*
X44291Y125000D01*
Y127296D01*
X44291Y127296D01*
X45114Y127404D01*
X45880Y127721D01*
X46538Y128226D01*
X46643Y128364D01*
X47489Y128399D01*
X47717Y128223D01*
X48344Y127964D01*
X48516Y127941D01*
Y130473D01*
Y133004D01*
X48344Y132981D01*
X47717Y132722D01*
X47489Y132546D01*
X46643Y132581D01*
X46538Y132719D01*
X45880Y133224D01*
X45114Y133541D01*
X44291Y133649D01*
X44291Y133649D01*
Y139020D01*
X44390Y139107D01*
X45212Y139215D01*
X45978Y139532D01*
X46636Y140037D01*
X47049Y140576D01*
X47520Y140663D01*
X47820Y140638D01*
X47967Y140447D01*
X48505Y140034D01*
X49131Y139775D01*
X49303Y139752D01*
Y142284D01*
Y144815D01*
X49131Y144792D01*
X48505Y144533D01*
X47967Y144120D01*
X47820Y143929D01*
X47520Y143904D01*
X47049Y143991D01*
X46636Y144530D01*
X45978Y145035D01*
X45212Y145352D01*
X44390Y145460D01*
X44291Y145547D01*
Y166339D01*
X35433Y166339D01*
X31131Y170640D01*
X31380Y171240D01*
X31732D01*
Y180492D01*
X25591D01*
Y181491D01*
X26240Y181894D01*
X26606Y181846D01*
Y185866D01*
Y189887D01*
X26240Y189839D01*
X25607Y190231D01*
X25597Y190849D01*
X26240Y191314D01*
X27106Y191200D01*
X28314Y191359D01*
X29439Y191826D01*
X30406Y192567D01*
X31147Y193533D01*
X31613Y194659D01*
X31772Y195866D01*
X31613Y197074D01*
X31147Y198199D01*
X30406Y199166D01*
X29439Y199907D01*
X28314Y200373D01*
X27106Y200532D01*
X26693Y200478D01*
X26240Y200866D01*
X26693Y201255D01*
X27106Y201201D01*
X28314Y201360D01*
X29439Y201826D01*
X30406Y202567D01*
X31147Y203533D01*
X31613Y204659D01*
X31772Y205866D01*
X31613Y207074D01*
X31147Y208199D01*
X30406Y209166D01*
X29439Y209907D01*
X28314Y210373D01*
X27106Y210532D01*
X26240Y210418D01*
X25591Y210888D01*
Y216587D01*
X26240Y216886D01*
X26443Y216713D01*
X28041Y215734D01*
X29773Y215016D01*
X31596Y214579D01*
X33465Y214432D01*
X35333Y214579D01*
X37156Y215016D01*
X38888Y215734D01*
X40486Y216713D01*
X41912Y217931D01*
X43129Y219356D01*
X44109Y220954D01*
X44826Y222686D01*
X45264Y224509D01*
X45411Y226378D01*
X45264Y228247D01*
X44826Y230070D01*
X44109Y231802D01*
X43129Y233400D01*
X41912Y234825D01*
X41868Y235436D01*
X44291Y238189D01*
X65945D01*
X68898Y235236D01*
D02*
G37*
%LPC*%
G36*
X247744Y95051D02*
Y93020D01*
X249775D01*
X249752Y93192D01*
X249493Y93818D01*
X249080Y94356D01*
X248542Y94769D01*
X247916Y95028D01*
X247744Y95051D01*
D02*
G37*
G36*
X224697Y96232D02*
X224525Y96209D01*
X223898Y95950D01*
X223360Y95537D01*
X222948Y94999D01*
X222688Y94373D01*
X222666Y94201D01*
X224697D01*
Y96232D01*
D02*
G37*
G36*
X246744Y95051D02*
X246572Y95028D01*
X245946Y94769D01*
X245408Y94356D01*
X244995Y93818D01*
X244736Y93192D01*
X244713Y93020D01*
X246744D01*
Y95051D01*
D02*
G37*
G36*
X154331Y114291D02*
X153509Y114182D01*
X152742Y113865D01*
X152085Y113360D01*
X151580Y112702D01*
X151262Y111936D01*
X151154Y111114D01*
X151262Y110292D01*
X151580Y109526D01*
X152085Y108868D01*
X152742Y108363D01*
X153509Y108045D01*
X154331Y107937D01*
X155153Y108045D01*
X155919Y108363D01*
X156577Y108868D01*
X157082Y109526D01*
X157399Y110292D01*
X157508Y111114D01*
X157399Y111936D01*
X157082Y112702D01*
X156577Y113360D01*
X155919Y113865D01*
X155153Y114182D01*
X154331Y114291D01*
D02*
G37*
G36*
X224697Y93201D02*
X222666D01*
X222688Y93029D01*
X222948Y92402D01*
X223360Y91864D01*
X223898Y91452D01*
X224525Y91192D01*
X224697Y91170D01*
Y93201D01*
D02*
G37*
G36*
X214624Y108070D02*
X212593D01*
Y106039D01*
X212765Y106061D01*
X213391Y106321D01*
X213929Y106734D01*
X214342Y107272D01*
X214601Y107898D01*
X214624Y108070D01*
D02*
G37*
G36*
X56131Y104133D02*
X54100D01*
Y102102D01*
X54272Y102125D01*
X54899Y102384D01*
X55436Y102797D01*
X55849Y103334D01*
X56108Y103961D01*
X56131Y104133D01*
D02*
G37*
G36*
X53100Y107164D02*
X52928Y107141D01*
X52302Y106882D01*
X51764Y106469D01*
X51351Y105931D01*
X51091Y105305D01*
X51069Y105133D01*
X53100D01*
Y107164D01*
D02*
G37*
G36*
Y104133D02*
X51069D01*
X51091Y103961D01*
X51351Y103334D01*
X51764Y102797D01*
X52302Y102384D01*
X52928Y102125D01*
X53100Y102102D01*
Y104133D01*
D02*
G37*
G36*
X229921Y96878D02*
X229099Y96769D01*
X228333Y96452D01*
X227675Y95947D01*
X227478Y95691D01*
X226842Y95684D01*
X226495Y95950D01*
X225869Y96209D01*
X225697Y96232D01*
Y93701D01*
Y91170D01*
X225869Y91192D01*
X226495Y91452D01*
X226842Y91718D01*
X227478Y91711D01*
X227675Y91454D01*
X228333Y90950D01*
X229099Y90632D01*
X229921Y90524D01*
X230743Y90632D01*
X231510Y90950D01*
X232168Y91454D01*
X232672Y92112D01*
X232990Y92879D01*
X233098Y93701D01*
X232990Y94523D01*
X232672Y95289D01*
X232168Y95947D01*
X231510Y96452D01*
X230743Y96769D01*
X229921Y96878D01*
D02*
G37*
G36*
X54100Y107164D02*
Y105133D01*
X56131D01*
X56108Y105305D01*
X55849Y105931D01*
X55436Y106469D01*
X54899Y106882D01*
X54272Y107141D01*
X54100Y107164D01*
D02*
G37*
G36*
X28059Y82630D02*
Y79161D01*
X31528D01*
X31456Y79706D01*
X31053Y80679D01*
X30412Y81514D01*
X29576Y82155D01*
X28603Y82559D01*
X28059Y82630D01*
D02*
G37*
G36*
X226378Y87077D02*
X225556Y86968D01*
X224790Y86651D01*
X224132Y86146D01*
X223627Y85488D01*
X223309Y84722D01*
X223201Y83900D01*
X223309Y83078D01*
X223627Y82312D01*
X224132Y81654D01*
X224790Y81149D01*
X225556Y80831D01*
X226378Y80723D01*
X227200Y80831D01*
X227966Y81149D01*
X228624Y81654D01*
X229129Y82312D01*
X229447Y83078D01*
X229555Y83900D01*
X229447Y84722D01*
X229129Y85488D01*
X228624Y86146D01*
X227966Y86651D01*
X227200Y86968D01*
X226378Y87077D01*
D02*
G37*
G36*
X231784Y83592D02*
X231611Y83570D01*
X230985Y83310D01*
X230447Y82897D01*
X230034Y82359D01*
X229775Y81733D01*
X229752Y81561D01*
X231784D01*
Y83592D01*
D02*
G37*
G36*
X234815Y80561D02*
X232784D01*
Y78530D01*
X232956Y78553D01*
X233582Y78812D01*
X234120Y79225D01*
X234533Y79763D01*
X234792Y80389D01*
X234815Y80561D01*
D02*
G37*
G36*
X86114Y80701D02*
X85325Y80597D01*
X84124Y80100D01*
X83093Y79308D01*
X82302Y78277D01*
X81804Y77076D01*
X81700Y76287D01*
X86114D01*
Y80701D01*
D02*
G37*
G36*
X87114D02*
Y76287D01*
X91528D01*
X91424Y77076D01*
X90927Y78277D01*
X90135Y79308D01*
X89104Y80100D01*
X87903Y80597D01*
X87114Y80701D01*
D02*
G37*
G36*
X231784Y80561D02*
X229752D01*
X229775Y80389D01*
X230034Y79763D01*
X230447Y79225D01*
X230985Y78812D01*
X231611Y78553D01*
X231784Y78530D01*
Y80561D01*
D02*
G37*
G36*
X236221Y94179D02*
X235398Y94071D01*
X234632Y93753D01*
X233974Y93248D01*
X233469Y92590D01*
X233152Y91824D01*
X233044Y91002D01*
X233152Y90180D01*
X233469Y89414D01*
X233974Y88756D01*
X234632Y88251D01*
X235398Y87933D01*
X236221Y87825D01*
X237043Y87933D01*
X237809Y88251D01*
X238467Y88756D01*
X238972Y89414D01*
X239289Y90180D01*
X239397Y91002D01*
X239289Y91824D01*
X238972Y92590D01*
X238467Y93248D01*
X237809Y93753D01*
X237043Y94071D01*
X236221Y94179D01*
D02*
G37*
G36*
X246744Y92020D02*
X244713D01*
X244736Y91847D01*
X244995Y91221D01*
X245408Y90683D01*
X245946Y90271D01*
X246572Y90011D01*
X246744Y89988D01*
Y92020D01*
D02*
G37*
G36*
X249775D02*
X247744D01*
Y89988D01*
X247916Y90011D01*
X248542Y90271D01*
X249080Y90683D01*
X249493Y91221D01*
X249752Y91847D01*
X249775Y92020D01*
D02*
G37*
G36*
X45276Y93874D02*
X44212Y93734D01*
X43221Y93323D01*
X42369Y92670D01*
X41716Y91819D01*
X41306Y90828D01*
X41166Y89764D01*
X41306Y88700D01*
X41716Y87709D01*
X42369Y86858D01*
X43221Y86204D01*
X44212Y85794D01*
X45276Y85654D01*
X46339Y85794D01*
X47331Y86204D01*
X48182Y86858D01*
X48835Y87709D01*
X49246Y88700D01*
X49386Y89764D01*
X49246Y90828D01*
X48835Y91819D01*
X48182Y92670D01*
X47331Y93323D01*
X46339Y93734D01*
X45276Y93874D01*
D02*
G37*
G36*
X232784Y83592D02*
Y81561D01*
X234815D01*
X234792Y81733D01*
X234533Y82359D01*
X234120Y82897D01*
X233582Y83310D01*
X232956Y83570D01*
X232784Y83592D01*
D02*
G37*
G36*
X248425Y88610D02*
X247603Y88502D01*
X246837Y88184D01*
X246179Y87679D01*
X245674Y87021D01*
X245357Y86255D01*
X245248Y85433D01*
X245357Y84611D01*
X245674Y83845D01*
X246179Y83187D01*
X246837Y82682D01*
X247603Y82364D01*
X248425Y82256D01*
X249247Y82364D01*
X250014Y82682D01*
X250672Y83187D01*
X251176Y83845D01*
X251494Y84611D01*
X251602Y85433D01*
X251494Y86255D01*
X251176Y87021D01*
X250672Y87679D01*
X250014Y88184D01*
X249247Y88502D01*
X248425Y88610D01*
D02*
G37*
G36*
X68898Y83608D02*
X68147Y83509D01*
X67448Y83219D01*
X66929Y82821D01*
X66410Y83219D01*
X65711Y83509D01*
X64961Y83608D01*
X64210Y83509D01*
X63511Y83219D01*
X62911Y82758D01*
X62450Y82158D01*
X62161Y81459D01*
X62062Y80709D01*
X62161Y79958D01*
X62450Y79259D01*
X62911Y78659D01*
X63511Y78198D01*
X63926Y78026D01*
Y77485D01*
X63511Y77314D01*
X62911Y76853D01*
X62450Y76253D01*
X62161Y75553D01*
X62062Y74803D01*
X62161Y74053D01*
X62450Y73354D01*
X62911Y72753D01*
X63511Y72293D01*
X64210Y72003D01*
X64961Y71904D01*
X65711Y72003D01*
X66410Y72293D01*
X66929Y72691D01*
X67448Y72293D01*
X68147Y72003D01*
X68898Y71904D01*
X69648Y72003D01*
X70347Y72293D01*
X70947Y72753D01*
X71408Y73354D01*
X71698Y74053D01*
X71797Y74803D01*
X71698Y75553D01*
X71408Y76253D01*
X70947Y76853D01*
X70347Y77314D01*
X69933Y77485D01*
Y78026D01*
X70347Y78198D01*
X70947Y78659D01*
X71408Y79259D01*
X71698Y79958D01*
X71797Y80709D01*
X71698Y81459D01*
X71408Y82158D01*
X70947Y82758D01*
X70347Y83219D01*
X69648Y83509D01*
X68898Y83608D01*
D02*
G37*
G36*
X189370Y139016D02*
X188548Y138908D01*
X187782Y138591D01*
X187124Y138086D01*
X186619Y137428D01*
X186302Y136662D01*
X186193Y135840D01*
X186302Y135017D01*
X186619Y134251D01*
X187124Y133593D01*
X187782Y133088D01*
X188548Y132771D01*
X189370Y132663D01*
X190192Y132771D01*
X190958Y133088D01*
X191616Y133593D01*
X192121Y134251D01*
X192438Y135017D01*
X192547Y135840D01*
X192438Y136662D01*
X192121Y137428D01*
X191616Y138086D01*
X190958Y138591D01*
X190192Y138908D01*
X189370Y139016D01*
D02*
G37*
G36*
X92020Y139759D02*
X91359Y139694D01*
X90243Y139355D01*
X89214Y138805D01*
X88312Y138065D01*
X87572Y137164D01*
X87023Y136135D01*
X86684Y135019D01*
X86619Y134358D01*
X92020D01*
Y139759D01*
D02*
G37*
G36*
X93020D02*
Y134358D01*
X98420D01*
X98355Y135019D01*
X98017Y136135D01*
X97467Y137164D01*
X96727Y138065D01*
X95825Y138805D01*
X94797Y139355D01*
X93680Y139694D01*
X93020Y139759D01*
D02*
G37*
G36*
X198400Y140677D02*
X197578Y140568D01*
X196812Y140251D01*
X196154Y139746D01*
X195649Y139088D01*
X195332Y138322D01*
X195223Y137500D01*
X195229Y137456D01*
X194997Y137154D01*
X194371Y136895D01*
X193833Y136482D01*
X193420Y135944D01*
X193161Y135318D01*
X193138Y135146D01*
X195669D01*
Y134646D01*
X196169D01*
Y132114D01*
X196341Y132137D01*
X196968Y132396D01*
X197506Y132809D01*
X197918Y133347D01*
X198178Y133973D01*
X198204Y134173D01*
X198400Y134323D01*
X199222Y134432D01*
X199988Y134749D01*
X200646Y135254D01*
X201151Y135912D01*
X201468Y136678D01*
X201577Y137500D01*
X201468Y138322D01*
X201151Y139088D01*
X200646Y139746D01*
X199988Y140251D01*
X199222Y140568D01*
X198400Y140677D01*
D02*
G37*
G36*
X98420Y133358D02*
X93020D01*
Y127957D01*
X93680Y128023D01*
X94797Y128361D01*
X95825Y128911D01*
X96727Y129651D01*
X97467Y130553D01*
X98017Y131581D01*
X98355Y132697D01*
X98420Y133358D01*
D02*
G37*
G36*
X49516Y133004D02*
Y130973D01*
X51547D01*
X51524Y131145D01*
X51265Y131771D01*
X50852Y132309D01*
X50314Y132722D01*
X49688Y132981D01*
X49516Y133004D01*
D02*
G37*
G36*
X195169Y134146D02*
X193138D01*
X193161Y133973D01*
X193420Y133347D01*
X193833Y132809D01*
X194371Y132396D01*
X194997Y132137D01*
X195169Y132114D01*
Y134146D01*
D02*
G37*
G36*
X52334Y141784D02*
X50303D01*
Y139752D01*
X50475Y139775D01*
X51102Y140034D01*
X51640Y140447D01*
X52052Y140985D01*
X52312Y141611D01*
X52334Y141784D01*
D02*
G37*
G36*
X183000Y143977D02*
X182178Y143869D01*
X181412Y143551D01*
X180754Y143046D01*
X180249Y142388D01*
X179931Y141622D01*
X179841Y140937D01*
X179432Y140756D01*
X179330Y140744D01*
X179246Y140788D01*
X178968Y141040D01*
X178894Y141597D01*
X178635Y142224D01*
X178222Y142762D01*
X177684Y143174D01*
X177058Y143434D01*
X176886Y143456D01*
Y140925D01*
Y138092D01*
X177065Y137913D01*
X177023Y137600D01*
X177131Y136778D01*
X177449Y136012D01*
X177954Y135354D01*
X178612Y134849D01*
X179378Y134531D01*
X180200Y134423D01*
X181022Y134531D01*
X181788Y134849D01*
X182446Y135354D01*
X182951Y136012D01*
X183268Y136778D01*
X183377Y137600D01*
X183367Y137672D01*
X183822Y137732D01*
X184588Y138049D01*
X185246Y138554D01*
X185751Y139212D01*
X186068Y139978D01*
X186177Y140800D01*
X186068Y141622D01*
X185751Y142388D01*
X185246Y143046D01*
X184588Y143551D01*
X183822Y143869D01*
X183000Y143977D01*
D02*
G37*
G36*
X175886Y143456D02*
X175714Y143434D01*
X175087Y143174D01*
X174550Y142762D01*
X174137Y142224D01*
X173878Y141597D01*
X173855Y141425D01*
X175886D01*
Y143456D01*
D02*
G37*
G36*
X58268Y145559D02*
X57446Y145451D01*
X56679Y145133D01*
X56021Y144628D01*
X55516Y143970D01*
X55199Y143204D01*
X55091Y142382D01*
X55199Y141560D01*
X55516Y140794D01*
X56021Y140136D01*
X56679Y139631D01*
X57446Y139313D01*
X58268Y139205D01*
X59090Y139313D01*
X59856Y139631D01*
X60514Y140136D01*
X61019Y140794D01*
X61336Y141560D01*
X61444Y142382D01*
X61336Y143204D01*
X61019Y143970D01*
X60514Y144628D01*
X59856Y145133D01*
X59090Y145451D01*
X58268Y145559D01*
D02*
G37*
G36*
X163800Y143677D02*
X162978Y143569D01*
X162212Y143251D01*
X161554Y142746D01*
X161049Y142088D01*
X160731Y141322D01*
X160623Y140500D01*
X160731Y139678D01*
X161049Y138912D01*
X161554Y138254D01*
X162212Y137749D01*
X162978Y137432D01*
X163800Y137323D01*
X164622Y137432D01*
X165388Y137749D01*
X166046Y138254D01*
X166551Y138912D01*
X166868Y139678D01*
X166977Y140500D01*
X166868Y141322D01*
X166551Y142088D01*
X166046Y142746D01*
X165388Y143251D01*
X164622Y143569D01*
X163800Y143677D01*
D02*
G37*
G36*
X175886Y140425D02*
X173855D01*
X173878Y140253D01*
X174137Y139627D01*
X174550Y139089D01*
X175087Y138676D01*
X175714Y138417D01*
X175886Y138394D01*
Y140425D01*
D02*
G37*
G36*
X148607Y144909D02*
X147784Y144801D01*
X147018Y144483D01*
X146360Y143979D01*
X145855Y143321D01*
X145538Y142554D01*
X145430Y141732D01*
X145538Y140910D01*
X145855Y140144D01*
X146360Y139486D01*
X147018Y138981D01*
X147784Y138664D01*
X148607Y138555D01*
X149429Y138664D01*
X150195Y138981D01*
X150853Y139486D01*
X151358Y140144D01*
X151675Y140910D01*
X151783Y141732D01*
X151675Y142554D01*
X151358Y143321D01*
X150853Y143979D01*
X150195Y144483D01*
X149429Y144801D01*
X148607Y144909D01*
D02*
G37*
G36*
X161130Y113645D02*
Y111614D01*
X163161D01*
X163138Y111786D01*
X162879Y112413D01*
X162466Y112950D01*
X161928Y113363D01*
X161302Y113622D01*
X161130Y113645D01*
D02*
G37*
G36*
X168898Y120500D02*
X168075Y120391D01*
X167309Y120074D01*
X166651Y119569D01*
X166147Y118911D01*
X165829Y118145D01*
X165721Y117323D01*
X165829Y116501D01*
X166147Y115734D01*
X166651Y115076D01*
X167309Y114572D01*
X168075Y114254D01*
X168898Y114146D01*
X169720Y114254D01*
X170486Y114572D01*
X171144Y115076D01*
X171649Y115734D01*
X171966Y116501D01*
X172074Y117323D01*
X171966Y118145D01*
X171649Y118911D01*
X171144Y119569D01*
X170486Y120074D01*
X169720Y120391D01*
X168898Y120500D01*
D02*
G37*
G36*
X195669Y121287D02*
X194847Y121179D01*
X194081Y120861D01*
X193423Y120357D01*
X192918Y119699D01*
X192601Y118932D01*
X192492Y118110D01*
X192601Y117288D01*
X192918Y116522D01*
X193423Y115864D01*
X194081Y115359D01*
X194847Y115042D01*
X195669Y114934D01*
X196492Y115042D01*
X197258Y115359D01*
X197916Y115864D01*
X198421Y116522D01*
X198738Y117288D01*
X198846Y118110D01*
X198738Y118932D01*
X198421Y119699D01*
X197916Y120357D01*
X197258Y120861D01*
X196492Y121179D01*
X195669Y121287D01*
D02*
G37*
G36*
X160130Y113645D02*
X159958Y113622D01*
X159332Y113363D01*
X158794Y112950D01*
X158381Y112413D01*
X158122Y111786D01*
X158099Y111614D01*
X160130D01*
Y113645D01*
D02*
G37*
G36*
Y110614D02*
X158099D01*
X158122Y110442D01*
X158381Y109816D01*
X158794Y109278D01*
X159332Y108865D01*
X159958Y108606D01*
X160130Y108583D01*
Y110614D01*
D02*
G37*
G36*
X163161D02*
X161130D01*
Y108583D01*
X161302Y108606D01*
X161928Y108865D01*
X162466Y109278D01*
X162879Y109816D01*
X163138Y110442D01*
X163161Y110614D01*
D02*
G37*
G36*
X212593Y111101D02*
Y109070D01*
X214624D01*
X214601Y109242D01*
X214342Y109869D01*
X213929Y110406D01*
X213391Y110819D01*
X212765Y111079D01*
X212593Y111101D01*
D02*
G37*
G36*
X57480Y133748D02*
X56658Y133640D01*
X55892Y133322D01*
X55234Y132817D01*
X54729Y132159D01*
X54412Y131393D01*
X54303Y130571D01*
X54412Y129749D01*
X54729Y128983D01*
X55234Y128325D01*
X55892Y127820D01*
X56658Y127503D01*
X57480Y127394D01*
X58302Y127503D01*
X59069Y127820D01*
X59727Y128325D01*
X60232Y128983D01*
X60549Y129749D01*
X60657Y130571D01*
X60549Y131393D01*
X60232Y132159D01*
X59727Y132817D01*
X59069Y133322D01*
X58302Y133640D01*
X57480Y133748D01*
D02*
G37*
G36*
X51547Y129973D02*
X49516D01*
Y127941D01*
X49688Y127964D01*
X50314Y128223D01*
X50852Y128636D01*
X51265Y129174D01*
X51524Y129800D01*
X51547Y129973D01*
D02*
G37*
G36*
X92020Y133358D02*
X86619D01*
X86684Y132697D01*
X87023Y131581D01*
X87572Y130553D01*
X88312Y129651D01*
X89214Y128911D01*
X90243Y128361D01*
X91359Y128023D01*
X92020Y127957D01*
Y133358D01*
D02*
G37*
G36*
X219685Y132311D02*
X218863Y132202D01*
X218097Y131885D01*
X217439Y131380D01*
X216934Y130722D01*
X216617Y129956D01*
X216508Y129134D01*
X216617Y128312D01*
X216934Y127545D01*
X217439Y126888D01*
X218097Y126383D01*
X218863Y126065D01*
X219685Y125957D01*
X220507Y126065D01*
X221273Y126383D01*
X221931Y126888D01*
X222436Y127545D01*
X222754Y128312D01*
X222862Y129134D01*
X222754Y129956D01*
X222436Y130722D01*
X221931Y131380D01*
X221273Y131885D01*
X220507Y132202D01*
X219685Y132311D01*
D02*
G37*
G36*
X204200Y127877D02*
X203378Y127769D01*
X202612Y127451D01*
X201954Y126946D01*
X201449Y126288D01*
X201132Y125522D01*
X201023Y124700D01*
X201132Y123878D01*
X201449Y123112D01*
X201954Y122454D01*
X202612Y121949D01*
X203378Y121632D01*
X204200Y121523D01*
X205022Y121632D01*
X205788Y121949D01*
X206446Y122454D01*
X206951Y123112D01*
X207269Y123878D01*
X207377Y124700D01*
X207269Y125522D01*
X206951Y126288D01*
X206446Y126946D01*
X205788Y127451D01*
X205022Y127769D01*
X204200Y127877D01*
D02*
G37*
G36*
X147200Y128777D02*
X146378Y128668D01*
X145612Y128351D01*
X144954Y127846D01*
X144449Y127188D01*
X144132Y126422D01*
X144023Y125600D01*
X144132Y124778D01*
X144449Y124012D01*
X144954Y123354D01*
X145612Y122849D01*
X146378Y122531D01*
X147200Y122423D01*
X148022Y122531D01*
X148788Y122849D01*
X149446Y123354D01*
X149951Y124012D01*
X150268Y124778D01*
X150377Y125600D01*
X150268Y126422D01*
X149951Y127188D01*
X149446Y127846D01*
X148788Y128351D01*
X148022Y128668D01*
X147200Y128777D01*
D02*
G37*
G36*
X173100Y129377D02*
X172278Y129269D01*
X171512Y128951D01*
X170854Y128446D01*
X170349Y127788D01*
X170031Y127022D01*
X169923Y126200D01*
X170031Y125378D01*
X170349Y124612D01*
X170854Y123954D01*
X171512Y123449D01*
X172278Y123132D01*
X173100Y123023D01*
X173922Y123132D01*
X174688Y123449D01*
X175346Y123954D01*
X175851Y124612D01*
X176169Y125378D01*
X176277Y126200D01*
X176169Y127022D01*
X175851Y127788D01*
X175346Y128446D01*
X174688Y128951D01*
X173922Y129269D01*
X173100Y129377D01*
D02*
G37*
G36*
X176681Y50059D02*
Y48028D01*
X178712D01*
X178690Y48200D01*
X178430Y48826D01*
X178018Y49364D01*
X177480Y49777D01*
X176853Y50036D01*
X176681Y50059D01*
D02*
G37*
G36*
X124016Y56122D02*
X123194Y56013D01*
X122427Y55696D01*
X121769Y55191D01*
X121265Y54533D01*
X120947Y53767D01*
X120839Y52945D01*
X120947Y52123D01*
X121265Y51356D01*
X121769Y50699D01*
X122427Y50194D01*
X123194Y49876D01*
X124016Y49768D01*
X124838Y49876D01*
X125604Y50194D01*
X126262Y50699D01*
X126767Y51356D01*
X127084Y52123D01*
X127193Y52945D01*
X127084Y53767D01*
X126767Y54533D01*
X126262Y55191D01*
X125604Y55696D01*
X124838Y56013D01*
X124016Y56122D01*
D02*
G37*
G36*
X134843D02*
X134020Y56013D01*
X133254Y55696D01*
X132596Y55191D01*
X132091Y54533D01*
X131774Y53767D01*
X131666Y52945D01*
X131774Y52123D01*
X132091Y51356D01*
X132596Y50699D01*
X133254Y50194D01*
X134020Y49876D01*
X134843Y49768D01*
X135665Y49876D01*
X136431Y50194D01*
X137089Y50699D01*
X137594Y51356D01*
X137911Y52123D01*
X138019Y52945D01*
X137911Y53767D01*
X137594Y54533D01*
X137089Y55191D01*
X136431Y55696D01*
X135665Y56013D01*
X134843Y56122D01*
D02*
G37*
G36*
X175681Y47028D02*
X173650D01*
X173673Y46856D01*
X173932Y46229D01*
X174345Y45691D01*
X174883Y45279D01*
X175509Y45019D01*
X175681Y44997D01*
Y47028D01*
D02*
G37*
G36*
X178712D02*
X176681D01*
Y44997D01*
X176853Y45019D01*
X177480Y45279D01*
X178018Y45691D01*
X178430Y46229D01*
X178690Y46856D01*
X178712Y47028D01*
D02*
G37*
G36*
X175681Y50059D02*
X175509Y50036D01*
X174883Y49777D01*
X174345Y49364D01*
X173932Y48826D01*
X173673Y48200D01*
X173650Y48028D01*
X175681D01*
Y50059D01*
D02*
G37*
G36*
X144185Y52059D02*
X142154D01*
X142176Y51887D01*
X142436Y51261D01*
X142849Y50723D01*
X143386Y50310D01*
X144013Y50050D01*
X144185Y50028D01*
Y52059D01*
D02*
G37*
G36*
X140157Y65775D02*
X139335Y65667D01*
X138569Y65350D01*
X137911Y64845D01*
X137406Y64187D01*
X137089Y63421D01*
X136981Y62598D01*
X137089Y61776D01*
X137406Y61010D01*
X137911Y60352D01*
X138569Y59847D01*
X139335Y59530D01*
X140157Y59422D01*
X140980Y59530D01*
X141746Y59847D01*
X142404Y60352D01*
X142909Y61010D01*
X143226Y61776D01*
X143334Y62598D01*
X143226Y63421D01*
X142909Y64187D01*
X142404Y64845D01*
X141746Y65350D01*
X140980Y65667D01*
X140157Y65775D01*
D02*
G37*
G36*
X30236Y62886D02*
X27272D01*
Y59921D01*
X27685Y59976D01*
X28537Y60329D01*
X29268Y60890D01*
X29829Y61621D01*
X30182Y62472D01*
X30236Y62886D01*
D02*
G37*
G36*
X235441Y70106D02*
X234619Y69998D01*
X233853Y69680D01*
X233195Y69175D01*
X232690Y68518D01*
X232372Y67751D01*
X232264Y66929D01*
X232372Y66107D01*
X232690Y65341D01*
X233195Y64683D01*
X233853Y64178D01*
X234619Y63861D01*
X235441Y63752D01*
X236263Y63861D01*
X237029Y64178D01*
X237687Y64683D01*
X238192Y65341D01*
X238509Y66107D01*
X238618Y66929D01*
X238509Y67751D01*
X238192Y68518D01*
X237687Y69175D01*
X237029Y69680D01*
X236263Y69998D01*
X235441Y70106D01*
D02*
G37*
G36*
X147216Y52059D02*
X145185D01*
Y50028D01*
X145357Y50050D01*
X145984Y50310D01*
X146521Y50723D01*
X146934Y51261D01*
X147194Y51887D01*
X147216Y52059D01*
D02*
G37*
G36*
X144185Y55090D02*
X144013Y55067D01*
X143386Y54808D01*
X142849Y54395D01*
X142436Y53857D01*
X142176Y53231D01*
X142154Y53059D01*
X144185D01*
Y55090D01*
D02*
G37*
G36*
X145185D02*
Y53059D01*
X147216D01*
X147194Y53231D01*
X146934Y53857D01*
X146521Y54395D01*
X145984Y54808D01*
X145357Y55067D01*
X145185Y55090D01*
D02*
G37*
G36*
X135343Y45059D02*
Y43028D01*
X137374D01*
X137351Y43200D01*
X137092Y43826D01*
X136679Y44364D01*
X136141Y44777D01*
X135515Y45036D01*
X135343Y45059D01*
D02*
G37*
G36*
X169579Y38673D02*
X167548D01*
X167570Y38501D01*
X167830Y37875D01*
X168242Y37337D01*
X168780Y36924D01*
X169407Y36665D01*
X169579Y36642D01*
Y38673D01*
D02*
G37*
G36*
X172610D02*
X170579D01*
Y36642D01*
X170751Y36665D01*
X171377Y36924D01*
X171915Y37337D01*
X172328Y37875D01*
X172587Y38501D01*
X172610Y38673D01*
D02*
G37*
G36*
X169579Y41705D02*
X169407Y41682D01*
X168780Y41423D01*
X168242Y41010D01*
X167830Y40472D01*
X167570Y39846D01*
X167548Y39673D01*
X169579D01*
Y41705D01*
D02*
G37*
G36*
X134843Y31515D02*
X134020Y31407D01*
X133254Y31090D01*
X132596Y30585D01*
X132091Y29927D01*
X131774Y29161D01*
X131666Y28338D01*
X131774Y27516D01*
X132091Y26750D01*
X132596Y26092D01*
X133254Y25587D01*
X134020Y25270D01*
X134843Y25162D01*
X135665Y25270D01*
X136431Y25587D01*
X137089Y26092D01*
X137594Y26750D01*
X137911Y27516D01*
X138019Y28338D01*
X137911Y29161D01*
X137594Y29927D01*
X137089Y30585D01*
X136431Y31090D01*
X135665Y31407D01*
X134843Y31515D01*
D02*
G37*
G36*
X176181Y31515D02*
X175359Y31407D01*
X174593Y31090D01*
X173935Y30585D01*
X173430Y29927D01*
X173113Y29161D01*
X173004Y28339D01*
X173113Y27516D01*
X173430Y26750D01*
X173935Y26092D01*
X174593Y25587D01*
X175359Y25270D01*
X176181Y25162D01*
X177003Y25270D01*
X177770Y25587D01*
X178428Y26092D01*
X178932Y26750D01*
X179250Y27516D01*
X179358Y28339D01*
X179250Y29161D01*
X178932Y29927D01*
X178428Y30585D01*
X177770Y31090D01*
X177003Y31407D01*
X176181Y31515D01*
D02*
G37*
G36*
X152137Y41232D02*
X147075D01*
X147098Y41060D01*
X147357Y40434D01*
X147770Y39896D01*
X148308Y39483D01*
X148934Y39224D01*
X149606Y39135D01*
X149662Y38502D01*
X148896Y38184D01*
X148238Y37679D01*
X147733Y37022D01*
X147416Y36255D01*
X147307Y35433D01*
X147416Y34611D01*
X147733Y33845D01*
X148238Y33187D01*
X148896Y32682D01*
X149662Y32365D01*
X150484Y32256D01*
X151306Y32365D01*
X152073Y32682D01*
X152731Y33187D01*
X153235Y33845D01*
X153553Y34611D01*
X153661Y35433D01*
X153553Y36255D01*
X153235Y37022D01*
X152731Y37679D01*
X152073Y38184D01*
X151306Y38502D01*
X150484Y38610D01*
X150396Y38598D01*
X150278Y39224D01*
X150905Y39483D01*
X151443Y39896D01*
X151855Y40434D01*
X152115Y41060D01*
X152137Y41232D01*
D02*
G37*
G36*
X170579Y41705D02*
Y39673D01*
X172610D01*
X172587Y39846D01*
X172328Y40472D01*
X171915Y41010D01*
X171377Y41423D01*
X170751Y41682D01*
X170579Y41705D01*
D02*
G37*
G36*
X149106Y44263D02*
X148934Y44241D01*
X148308Y43981D01*
X147770Y43569D01*
X147357Y43031D01*
X147098Y42404D01*
X147075Y42232D01*
X149106D01*
Y44263D01*
D02*
G37*
G36*
X150106D02*
Y42232D01*
X152137D01*
X152115Y42404D01*
X151855Y43031D01*
X151443Y43569D01*
X150905Y43981D01*
X150278Y44241D01*
X150106Y44263D01*
D02*
G37*
G36*
X134343Y45059D02*
X134170Y45036D01*
X133544Y44777D01*
X133006Y44364D01*
X132594Y43826D01*
X132334Y43200D01*
X132311Y43028D01*
X134343D01*
Y45059D01*
D02*
G37*
G36*
Y42028D02*
X132311D01*
X132334Y41855D01*
X132594Y41229D01*
X133006Y40691D01*
X133544Y40279D01*
X134170Y40019D01*
X134343Y39996D01*
Y42028D01*
D02*
G37*
G36*
X137374D02*
X135343D01*
Y39996D01*
X135515Y40019D01*
X136141Y40279D01*
X136679Y40691D01*
X137092Y41229D01*
X137351Y41855D01*
X137374Y42028D01*
D02*
G37*
G36*
X184646Y48452D02*
X183823Y48344D01*
X183057Y48027D01*
X182399Y47522D01*
X181894Y46864D01*
X181577Y46098D01*
X181469Y45276D01*
X181577Y44453D01*
X181894Y43687D01*
X182399Y43029D01*
X183057Y42524D01*
X183823Y42207D01*
X184646Y42099D01*
X185468Y42207D01*
X186234Y42524D01*
X186892Y43029D01*
X187397Y43687D01*
X187714Y44453D01*
X187822Y45276D01*
X187714Y46098D01*
X187397Y46864D01*
X186892Y47522D01*
X186234Y48027D01*
X185468Y48344D01*
X184646Y48452D01*
D02*
G37*
G36*
X249606Y70106D02*
X248784Y69998D01*
X248018Y69680D01*
X247360Y69175D01*
X246855Y68518D01*
X246538Y67751D01*
X246430Y66929D01*
X246538Y66107D01*
X246855Y65341D01*
X247360Y64683D01*
X248018Y64178D01*
X248784Y63861D01*
X249606Y63752D01*
X250429Y63861D01*
X251195Y64178D01*
X251853Y64683D01*
X252358Y65341D01*
X252675Y66107D01*
X252783Y66929D01*
X252675Y67751D01*
X252358Y68518D01*
X251853Y69175D01*
X251195Y69680D01*
X250429Y69998D01*
X249606Y70106D01*
D02*
G37*
G36*
X41260Y72335D02*
X38295D01*
Y69370D01*
X38709Y69425D01*
X39560Y69777D01*
X40291Y70338D01*
X40852Y71070D01*
X41205Y71921D01*
X41260Y72335D01*
D02*
G37*
G36*
X86114Y75287D02*
X81700D01*
X81804Y74499D01*
X82302Y73298D01*
X83093Y72266D01*
X84124Y71475D01*
X85325Y70977D01*
X86114Y70874D01*
Y75287D01*
D02*
G37*
G36*
X91528D02*
X87114D01*
Y70874D01*
X87903Y70977D01*
X89104Y71475D01*
X90135Y72266D01*
X90927Y73298D01*
X91424Y74499D01*
X91528Y75287D01*
D02*
G37*
G36*
X124516Y69665D02*
Y67634D01*
X126547D01*
X126524Y67806D01*
X126265Y68432D01*
X125852Y68970D01*
X125314Y69383D01*
X124688Y69643D01*
X124516Y69665D01*
D02*
G37*
G36*
X131853Y74830D02*
X131031Y74722D01*
X130265Y74405D01*
X129607Y73900D01*
X129102Y73242D01*
X128785Y72476D01*
X128677Y71653D01*
X128785Y70831D01*
X129102Y70065D01*
X129607Y69407D01*
X130265Y68902D01*
X131031Y68585D01*
X131853Y68477D01*
X131912Y68484D01*
X132369Y67889D01*
X132334Y67806D01*
X132311Y67634D01*
X137374D01*
X137351Y67806D01*
X137092Y68432D01*
X136679Y68970D01*
X136141Y69383D01*
X135515Y69643D01*
X135126Y69694D01*
X135062Y69739D01*
X134754Y70243D01*
X134732Y70372D01*
X134922Y70831D01*
X135030Y71653D01*
X134922Y72476D01*
X134605Y73242D01*
X134100Y73900D01*
X133442Y74405D01*
X132676Y74722D01*
X131853Y74830D01*
D02*
G37*
G36*
X37295Y72335D02*
X34331D01*
X34385Y71921D01*
X34738Y71070D01*
X35299Y70338D01*
X36030Y69777D01*
X36882Y69425D01*
X37295Y69370D01*
Y72335D01*
D02*
G37*
G36*
X230315Y77577D02*
X229493Y77469D01*
X228727Y77151D01*
X228069Y76646D01*
X227564Y75988D01*
X227246Y75222D01*
X227138Y74400D01*
X227246Y73578D01*
X227564Y72812D01*
X228069Y72154D01*
X228727Y71649D01*
X229493Y71332D01*
X230315Y71223D01*
X231137Y71332D01*
X231903Y71649D01*
X232561Y72154D01*
X233066Y72812D01*
X233383Y73578D01*
X233492Y74400D01*
X233383Y75222D01*
X233066Y75988D01*
X232561Y76646D01*
X231903Y77151D01*
X231137Y77469D01*
X230315Y77577D01*
D02*
G37*
G36*
X38295Y76299D02*
Y73335D01*
X41260D01*
X41205Y73748D01*
X40852Y74600D01*
X40291Y75331D01*
X39560Y75892D01*
X38709Y76244D01*
X38295Y76299D01*
D02*
G37*
G36*
X31528Y78161D02*
X28059D01*
Y74693D01*
X28603Y74764D01*
X29576Y75167D01*
X30412Y75809D01*
X31053Y76644D01*
X31456Y77617D01*
X31528Y78161D01*
D02*
G37*
G36*
X243307Y81523D02*
X242485Y81415D01*
X241719Y81098D01*
X241061Y80593D01*
X240556Y79935D01*
X240238Y79169D01*
X240130Y78346D01*
X240238Y77524D01*
X240556Y76758D01*
X241061Y76100D01*
X241719Y75595D01*
X242485Y75278D01*
X243307Y75170D01*
X244129Y75278D01*
X244895Y75595D01*
X245553Y76100D01*
X246058Y76758D01*
X246375Y77524D01*
X246484Y78346D01*
X246375Y79169D01*
X246058Y79935D01*
X245553Y80593D01*
X244895Y81098D01*
X244129Y81415D01*
X243307Y81523D01*
D02*
G37*
G36*
X257480Y77980D02*
X256658Y77872D01*
X255892Y77554D01*
X255234Y77049D01*
X254729Y76392D01*
X254412Y75625D01*
X254304Y74803D01*
X254412Y73981D01*
X254729Y73215D01*
X255234Y72557D01*
X255892Y72052D01*
X256658Y71735D01*
X257480Y71626D01*
X258303Y71735D01*
X259069Y72052D01*
X259727Y72557D01*
X260232Y73215D01*
X260549Y73981D01*
X260657Y74803D01*
X260549Y75625D01*
X260232Y76392D01*
X259727Y77049D01*
X259069Y77554D01*
X258303Y77872D01*
X257480Y77980D01*
D02*
G37*
G36*
X125591Y78767D02*
X124768Y78659D01*
X124002Y78342D01*
X123344Y77837D01*
X122839Y77179D01*
X122522Y76413D01*
X122414Y75590D01*
X122522Y74768D01*
X122839Y74002D01*
X123344Y73344D01*
X124002Y72839D01*
X124768Y72522D01*
X125591Y72414D01*
X126413Y72522D01*
X127179Y72839D01*
X127837Y73344D01*
X128342Y74002D01*
X128659Y74768D01*
X128767Y75590D01*
X128659Y76413D01*
X128342Y77179D01*
X127837Y77837D01*
X127179Y78342D01*
X126413Y78659D01*
X125591Y78767D01*
D02*
G37*
G36*
X37295Y76299D02*
X36882Y76244D01*
X36030Y75892D01*
X35299Y75331D01*
X34738Y74600D01*
X34385Y73748D01*
X34331Y73335D01*
X37295D01*
Y76299D01*
D02*
G37*
G36*
X123516Y69665D02*
X123344Y69643D01*
X122717Y69383D01*
X122179Y68970D01*
X121767Y68432D01*
X121507Y67806D01*
X121485Y67634D01*
X123516D01*
Y69665D01*
D02*
G37*
G36*
X263673Y66429D02*
X261642D01*
X261665Y66257D01*
X261924Y65631D01*
X262337Y65093D01*
X262875Y64680D01*
X263501Y64421D01*
X263673Y64398D01*
Y66429D01*
D02*
G37*
G36*
X266704D02*
X264673D01*
Y64398D01*
X264845Y64421D01*
X265472Y64680D01*
X266010Y65093D01*
X266422Y65631D01*
X266682Y66257D01*
X266704Y66429D01*
D02*
G37*
G36*
X123516Y66634D02*
X121485D01*
X121507Y66462D01*
X121767Y65835D01*
X122179Y65298D01*
X122717Y64885D01*
X123344Y64626D01*
X123516Y64603D01*
Y66634D01*
D02*
G37*
G36*
X27272Y66850D02*
Y63886D01*
X30236D01*
X30182Y64299D01*
X29829Y65151D01*
X29268Y65882D01*
X28537Y66443D01*
X27685Y66796D01*
X27272Y66850D01*
D02*
G37*
G36*
X219972Y66429D02*
X217941D01*
X217964Y66257D01*
X218223Y65631D01*
X218636Y65093D01*
X219174Y64680D01*
X219800Y64421D01*
X219972Y64398D01*
Y66429D01*
D02*
G37*
G36*
X223004D02*
X220972D01*
Y64398D01*
X221145Y64421D01*
X221771Y64680D01*
X222309Y65093D01*
X222722Y65631D01*
X222981Y66257D01*
X223004Y66429D01*
D02*
G37*
G36*
X126547Y66634D02*
X124516D01*
Y64603D01*
X124688Y64626D01*
X125314Y64885D01*
X125852Y65298D01*
X126265Y65835D01*
X126524Y66462D01*
X126547Y66634D01*
D02*
G37*
G36*
X220972Y69460D02*
Y67429D01*
X223004D01*
X222981Y67601D01*
X222722Y68228D01*
X222309Y68765D01*
X221771Y69178D01*
X221145Y69438D01*
X220972Y69460D01*
D02*
G37*
G36*
X263673D02*
X263501Y69438D01*
X262875Y69178D01*
X262337Y68765D01*
X261924Y68228D01*
X261665Y67601D01*
X261642Y67429D01*
X263673D01*
Y69460D01*
D02*
G37*
G36*
X264673D02*
Y67429D01*
X266704D01*
X266682Y67601D01*
X266422Y68228D01*
X266010Y68765D01*
X265472Y69178D01*
X264845Y69438D01*
X264673Y69460D01*
D02*
G37*
G36*
X134343Y66634D02*
X132311D01*
X132334Y66462D01*
X132594Y65835D01*
X133006Y65298D01*
X133544Y64885D01*
X134170Y64626D01*
X134343Y64603D01*
Y66634D01*
D02*
G37*
G36*
X137374D02*
X135343D01*
Y64603D01*
X135515Y64626D01*
X136141Y64885D01*
X136679Y65298D01*
X137092Y65835D01*
X137351Y66462D01*
X137374Y66634D01*
D02*
G37*
G36*
X216400Y74437D02*
X215578Y74328D01*
X214812Y74011D01*
X214154Y73506D01*
X213649Y72848D01*
X213332Y72082D01*
X213223Y71260D01*
X213332Y70438D01*
X213649Y69671D01*
X214154Y69014D01*
X214812Y68509D01*
X215578Y68191D01*
X216400Y68083D01*
X217222Y68191D01*
X217759Y68414D01*
X218142Y68031D01*
X217964Y67601D01*
X217941Y67429D01*
X219972D01*
Y69460D01*
X219800Y69438D01*
X219510Y69317D01*
X219246Y69578D01*
X219170Y69718D01*
X219468Y70438D01*
X219577Y71260D01*
X219468Y72082D01*
X219151Y72848D01*
X218646Y73506D01*
X217988Y74011D01*
X217222Y74328D01*
X216400Y74437D01*
D02*
G37*
G36*
X50303Y144815D02*
Y142784D01*
X52334D01*
X52312Y142956D01*
X52052Y143582D01*
X51640Y144120D01*
X51102Y144533D01*
X50475Y144792D01*
X50303Y144815D01*
D02*
G37*
G36*
X162638Y226044D02*
X161430Y225885D01*
X160305Y225419D01*
X159338Y224677D01*
X158597Y223711D01*
X158131Y222586D01*
X157972Y221378D01*
X158131Y220170D01*
X158597Y219045D01*
X159338Y218079D01*
X160305Y217337D01*
X161430Y216871D01*
X162638Y216712D01*
X163845Y216871D01*
X164971Y217337D01*
X165937Y218079D01*
X166679Y219045D01*
X167145Y220170D01*
X167304Y221378D01*
X167145Y222586D01*
X166679Y223711D01*
X165937Y224677D01*
X164971Y225419D01*
X163845Y225885D01*
X162638Y226044D01*
D02*
G37*
G36*
X172638D02*
X171430Y225885D01*
X170305Y225419D01*
X169339Y224677D01*
X168597Y223711D01*
X168131Y222586D01*
X167972Y221378D01*
X168131Y220170D01*
X168597Y219045D01*
X169339Y218079D01*
X170305Y217337D01*
X171430Y216871D01*
X172638Y216712D01*
X173845Y216871D01*
X174971Y217337D01*
X175937Y218079D01*
X176679Y219045D01*
X177145Y220170D01*
X177304Y221378D01*
X177145Y222586D01*
X176679Y223711D01*
X175937Y224677D01*
X174971Y225419D01*
X173845Y225885D01*
X172638Y226044D01*
D02*
G37*
G36*
X182638D02*
X181430Y225885D01*
X180305Y225419D01*
X179339Y224677D01*
X178597Y223711D01*
X178131Y222586D01*
X177972Y221378D01*
X178131Y220170D01*
X178597Y219045D01*
X179339Y218079D01*
X180305Y217337D01*
X181430Y216871D01*
X182638Y216712D01*
X183845Y216871D01*
X184971Y217337D01*
X185937Y218079D01*
X186679Y219045D01*
X187145Y220170D01*
X187304Y221378D01*
X187145Y222586D01*
X186679Y223711D01*
X185937Y224677D01*
X184971Y225419D01*
X183845Y225885D01*
X182638Y226044D01*
D02*
G37*
G36*
X122638D02*
X121430Y225885D01*
X120305Y225419D01*
X119339Y224677D01*
X118597Y223711D01*
X118131Y222586D01*
X117972Y221378D01*
X118131Y220170D01*
X118597Y219045D01*
X119339Y218079D01*
X120305Y217337D01*
X121430Y216871D01*
X122638Y216712D01*
X123845Y216871D01*
X124971Y217337D01*
X125937Y218079D01*
X126679Y219045D01*
X127145Y220170D01*
X127304Y221378D01*
X127145Y222586D01*
X126679Y223711D01*
X125937Y224677D01*
X124971Y225419D01*
X123845Y225885D01*
X122638Y226044D01*
D02*
G37*
G36*
X142638D02*
X141430Y225885D01*
X140305Y225419D01*
X139339Y224677D01*
X138597Y223711D01*
X138131Y222586D01*
X137972Y221378D01*
X138131Y220170D01*
X138597Y219045D01*
X139339Y218079D01*
X140305Y217337D01*
X141430Y216871D01*
X142638Y216712D01*
X143845Y216871D01*
X144971Y217337D01*
X145937Y218079D01*
X146679Y219045D01*
X147145Y220170D01*
X147304Y221378D01*
X147145Y222586D01*
X146679Y223711D01*
X145937Y224677D01*
X144971Y225419D01*
X143845Y225885D01*
X142638Y226044D01*
D02*
G37*
G36*
X152638D02*
X151430Y225885D01*
X150305Y225419D01*
X149338Y224677D01*
X148597Y223711D01*
X148131Y222586D01*
X147972Y221378D01*
X148131Y220170D01*
X148597Y219045D01*
X149338Y218079D01*
X150305Y217337D01*
X151430Y216871D01*
X152638Y216712D01*
X153845Y216871D01*
X154971Y217337D01*
X155937Y218079D01*
X156679Y219045D01*
X157145Y220170D01*
X157304Y221378D01*
X157145Y222586D01*
X156679Y223711D01*
X155937Y224677D01*
X154971Y225419D01*
X153845Y225885D01*
X152638Y226044D01*
D02*
G37*
G36*
X192638D02*
X191430Y225885D01*
X190305Y225419D01*
X189339Y224677D01*
X188597Y223711D01*
X188131Y222586D01*
X187972Y221378D01*
X188131Y220170D01*
X188597Y219045D01*
X189339Y218079D01*
X190305Y217337D01*
X191430Y216871D01*
X192638Y216712D01*
X193845Y216871D01*
X194971Y217337D01*
X195937Y218079D01*
X196679Y219045D01*
X197145Y220170D01*
X197304Y221378D01*
X197145Y222586D01*
X196679Y223711D01*
X195937Y224677D01*
X194971Y225419D01*
X193845Y225885D01*
X192638Y226044D01*
D02*
G37*
G36*
X232638D02*
X231430Y225885D01*
X230305Y225419D01*
X229339Y224677D01*
X228597Y223711D01*
X228131Y222586D01*
X227972Y221378D01*
X228131Y220170D01*
X228597Y219045D01*
X229339Y218079D01*
X230305Y217337D01*
X231430Y216871D01*
X232638Y216712D01*
X233845Y216871D01*
X234971Y217337D01*
X235937Y218079D01*
X236679Y219045D01*
X237145Y220170D01*
X237304Y221378D01*
X237145Y222586D01*
X236679Y223711D01*
X235937Y224677D01*
X234971Y225419D01*
X233845Y225885D01*
X232638Y226044D01*
D02*
G37*
G36*
X242638D02*
X241430Y225885D01*
X240305Y225419D01*
X239338Y224677D01*
X238597Y223711D01*
X238131Y222586D01*
X237972Y221378D01*
X238131Y220170D01*
X238597Y219045D01*
X239338Y218079D01*
X240305Y217337D01*
X241430Y216871D01*
X242638Y216712D01*
X243845Y216871D01*
X244971Y217337D01*
X245937Y218079D01*
X246679Y219045D01*
X247145Y220170D01*
X247304Y221378D01*
X247145Y222586D01*
X246679Y223711D01*
X245937Y224677D01*
X244971Y225419D01*
X243845Y225885D01*
X242638Y226044D01*
D02*
G37*
G36*
X57264Y226004D02*
X48012D01*
Y216752D01*
X57264D01*
Y226004D01*
D02*
G37*
G36*
X202638Y226044D02*
X201430Y225885D01*
X200305Y225419D01*
X199338Y224677D01*
X198597Y223711D01*
X198131Y222586D01*
X197972Y221378D01*
X198131Y220170D01*
X198597Y219045D01*
X199338Y218079D01*
X200305Y217337D01*
X201430Y216871D01*
X202638Y216712D01*
X203845Y216871D01*
X204971Y217337D01*
X205937Y218079D01*
X206679Y219045D01*
X207145Y220170D01*
X207304Y221378D01*
X207145Y222586D01*
X206679Y223711D01*
X205937Y224677D01*
X204971Y225419D01*
X203845Y225885D01*
X202638Y226044D01*
D02*
G37*
G36*
X212638D02*
X211430Y225885D01*
X210305Y225419D01*
X209338Y224677D01*
X208597Y223711D01*
X208131Y222586D01*
X207972Y221378D01*
X208131Y220170D01*
X208597Y219045D01*
X209338Y218079D01*
X210305Y217337D01*
X211430Y216871D01*
X212638Y216712D01*
X213845Y216871D01*
X214971Y217337D01*
X215937Y218079D01*
X216679Y219045D01*
X217145Y220170D01*
X217304Y221378D01*
X217145Y222586D01*
X216679Y223711D01*
X215937Y224677D01*
X214971Y225419D01*
X213845Y225885D01*
X212638Y226044D01*
D02*
G37*
G36*
X222638D02*
X221430Y225885D01*
X220305Y225419D01*
X219338Y224677D01*
X218597Y223711D01*
X218131Y222586D01*
X217972Y221378D01*
X218131Y220170D01*
X218597Y219045D01*
X219338Y218079D01*
X220305Y217337D01*
X221430Y216871D01*
X222638Y216712D01*
X223845Y216871D01*
X224971Y217337D01*
X225937Y218079D01*
X226679Y219045D01*
X227145Y220170D01*
X227304Y221378D01*
X227145Y222586D01*
X226679Y223711D01*
X225937Y224677D01*
X224971Y225419D01*
X223845Y225885D01*
X222638Y226044D01*
D02*
G37*
G36*
X112638D02*
X111430Y225885D01*
X110305Y225419D01*
X109338Y224677D01*
X108597Y223711D01*
X108131Y222586D01*
X107972Y221378D01*
X108131Y220170D01*
X108597Y219045D01*
X109338Y218079D01*
X110305Y217337D01*
X111430Y216871D01*
X112638Y216712D01*
X113845Y216871D01*
X114971Y217337D01*
X115937Y218079D01*
X116679Y219045D01*
X117145Y220170D01*
X117304Y221378D01*
X117145Y222586D01*
X116679Y223711D01*
X115937Y224677D01*
X114971Y225419D01*
X113845Y225885D01*
X112638Y226044D01*
D02*
G37*
G36*
X47106Y210532D02*
X45899Y210373D01*
X44774Y209907D01*
X43807Y209166D01*
X43066Y208199D01*
X42599Y207074D01*
X42441Y205866D01*
X42599Y204659D01*
X43066Y203533D01*
X43807Y202567D01*
X44774Y201825D01*
X45899Y201359D01*
X47106Y201200D01*
X48314Y201359D01*
X49439Y201825D01*
X50406Y202567D01*
X51147Y203533D01*
X51613Y204659D01*
X51772Y205866D01*
X51613Y207074D01*
X51147Y208199D01*
X50406Y209166D01*
X49439Y209907D01*
X48314Y210373D01*
X47106Y210532D01*
D02*
G37*
G36*
X37106Y210532D02*
X35899Y210373D01*
X34773Y209907D01*
X33807Y209166D01*
X33066Y208199D01*
X32599Y207074D01*
X32441Y205866D01*
X32599Y204659D01*
X33066Y203533D01*
X33807Y202567D01*
X34773Y201826D01*
X35899Y201360D01*
X37106Y201201D01*
X38314Y201360D01*
X39439Y201826D01*
X40406Y202567D01*
X41147Y203533D01*
X41613Y204659D01*
X41772Y205866D01*
X41613Y207074D01*
X41147Y208199D01*
X40406Y209166D01*
X39439Y209907D01*
X38314Y210373D01*
X37106Y210532D01*
D02*
G37*
G36*
X112205Y208689D02*
X111382Y208580D01*
X110616Y208263D01*
X109958Y207758D01*
X109453Y207100D01*
X109136Y206334D01*
X109028Y205512D01*
X109136Y204690D01*
X109453Y203923D01*
X109958Y203266D01*
X110616Y202761D01*
X111382Y202443D01*
X112205Y202335D01*
X113027Y202443D01*
X113793Y202761D01*
X114451Y203266D01*
X114956Y203923D01*
X115273Y204690D01*
X115382Y205512D01*
X115273Y206334D01*
X114956Y207100D01*
X114451Y207758D01*
X113793Y208263D01*
X113027Y208580D01*
X112205Y208689D01*
D02*
G37*
G36*
X200500Y201350D02*
Y199319D01*
X202531D01*
X202508Y199491D01*
X202249Y200117D01*
X201836Y200655D01*
X201298Y201068D01*
X200672Y201327D01*
X200500Y201350D01*
D02*
G37*
G36*
X156201Y201744D02*
X156029Y201721D01*
X155403Y201462D01*
X154865Y201049D01*
X154452Y200511D01*
X154192Y199885D01*
X154170Y199713D01*
X156201D01*
Y201744D01*
D02*
G37*
G36*
X157201D02*
Y199713D01*
X159232D01*
X159210Y199885D01*
X158950Y200511D01*
X158537Y201049D01*
X158000Y201462D01*
X157373Y201721D01*
X157201Y201744D01*
D02*
G37*
G36*
X73622Y209082D02*
X72800Y208974D01*
X72034Y208657D01*
X71376Y208152D01*
X70871Y207494D01*
X70553Y206728D01*
X70445Y205906D01*
X70553Y205083D01*
X70871Y204317D01*
X71376Y203659D01*
X72034Y203154D01*
X72800Y202837D01*
X73622Y202729D01*
X74444Y202837D01*
X75210Y203154D01*
X75868Y203659D01*
X76373Y204317D01*
X76691Y205083D01*
X76799Y205906D01*
X76691Y206728D01*
X76373Y207494D01*
X75868Y208152D01*
X75210Y208657D01*
X74444Y208974D01*
X73622Y209082D01*
D02*
G37*
G36*
X82638Y226044D02*
X81430Y225885D01*
X80305Y225419D01*
X79339Y224677D01*
X78597Y223711D01*
X78131Y222586D01*
X77972Y221378D01*
X78131Y220170D01*
X78597Y219045D01*
X79339Y218079D01*
X80305Y217337D01*
X81430Y216871D01*
X82638Y216712D01*
X83845Y216871D01*
X84971Y217337D01*
X85937Y218079D01*
X86679Y219045D01*
X87145Y220170D01*
X87304Y221378D01*
X87145Y222586D01*
X86679Y223711D01*
X85937Y224677D01*
X84971Y225419D01*
X83845Y225885D01*
X82638Y226044D01*
D02*
G37*
G36*
X92638D02*
X91430Y225885D01*
X90305Y225419D01*
X89338Y224677D01*
X88597Y223711D01*
X88131Y222586D01*
X87972Y221378D01*
X88131Y220170D01*
X88597Y219045D01*
X89338Y218079D01*
X90305Y217337D01*
X91430Y216871D01*
X92638Y216712D01*
X93845Y216871D01*
X94971Y217337D01*
X95937Y218079D01*
X96679Y219045D01*
X97145Y220170D01*
X97304Y221378D01*
X97145Y222586D01*
X96679Y223711D01*
X95937Y224677D01*
X94971Y225419D01*
X93845Y225885D01*
X92638Y226044D01*
D02*
G37*
G36*
X102638D02*
X101430Y225885D01*
X100305Y225419D01*
X99339Y224677D01*
X98597Y223711D01*
X98131Y222586D01*
X97972Y221378D01*
X98131Y220170D01*
X98597Y219045D01*
X99339Y218079D01*
X100305Y217337D01*
X101430Y216871D01*
X102638Y216712D01*
X103845Y216871D01*
X104971Y217337D01*
X105937Y218079D01*
X106679Y219045D01*
X107145Y220170D01*
X107304Y221378D01*
X107145Y222586D01*
X106679Y223711D01*
X105937Y224677D01*
X104971Y225419D01*
X103845Y225885D01*
X102638Y226044D01*
D02*
G37*
G36*
X228300Y211243D02*
X227478Y211135D01*
X226712Y210818D01*
X226054Y210313D01*
X225549Y209655D01*
X225232Y208889D01*
X225123Y208067D01*
X225232Y207244D01*
X225549Y206478D01*
X226054Y205820D01*
X226712Y205315D01*
X227478Y204998D01*
X228300Y204890D01*
X229122Y204998D01*
X229888Y205315D01*
X230546Y205820D01*
X231051Y206478D01*
X231368Y207244D01*
X231477Y208067D01*
X231368Y208889D01*
X231051Y209655D01*
X230546Y210313D01*
X229888Y210818D01*
X229122Y211135D01*
X228300Y211243D01*
D02*
G37*
G36*
X99410Y211247D02*
X98587Y211139D01*
X97821Y210822D01*
X97163Y210317D01*
X96658Y209659D01*
X96341Y208893D01*
X96233Y208070D01*
X96341Y207248D01*
X96658Y206482D01*
X97163Y205824D01*
X97821Y205319D01*
X98587Y205002D01*
X99410Y204894D01*
X100232Y205002D01*
X100998Y205319D01*
X101656Y205824D01*
X102161Y206482D01*
X102478Y207248D01*
X102586Y208070D01*
X102478Y208893D01*
X102161Y209659D01*
X101656Y210317D01*
X100998Y210822D01*
X100232Y211139D01*
X99410Y211247D01*
D02*
G37*
G36*
X62638Y226044D02*
X61430Y225885D01*
X60305Y225419D01*
X59338Y224677D01*
X58597Y223711D01*
X58131Y222586D01*
X57972Y221378D01*
X58131Y220170D01*
X58597Y219045D01*
X59338Y218079D01*
X60305Y217337D01*
X61430Y216871D01*
X62638Y216712D01*
X63845Y216871D01*
X64971Y217337D01*
X65937Y218079D01*
X66679Y219045D01*
X67145Y220170D01*
X67304Y221378D01*
X67145Y222586D01*
X66679Y223711D01*
X65937Y224677D01*
X64971Y225419D01*
X63845Y225885D01*
X62638Y226044D01*
D02*
G37*
G36*
X132138Y220878D02*
X128618D01*
X128691Y220320D01*
X129099Y219335D01*
X129748Y218489D01*
X130595Y217839D01*
X131580Y217431D01*
X132138Y217358D01*
Y220878D01*
D02*
G37*
G36*
X222638Y236044D02*
X221430Y235885D01*
X220305Y235419D01*
X219338Y234677D01*
X218597Y233711D01*
X218131Y232586D01*
X217972Y231378D01*
X218131Y230170D01*
X218597Y229045D01*
X219338Y228079D01*
X220305Y227337D01*
X221430Y226871D01*
X222638Y226712D01*
X223845Y226871D01*
X224971Y227337D01*
X225937Y228079D01*
X226679Y229045D01*
X227145Y230170D01*
X227304Y231378D01*
X227145Y232586D01*
X226679Y233711D01*
X225937Y234677D01*
X224971Y235419D01*
X223845Y235885D01*
X222638Y236044D01*
D02*
G37*
G36*
X232638D02*
X231430Y235885D01*
X230305Y235419D01*
X229339Y234677D01*
X228597Y233711D01*
X228131Y232586D01*
X227972Y231378D01*
X228131Y230170D01*
X228597Y229045D01*
X229339Y228079D01*
X230305Y227337D01*
X231430Y226871D01*
X232638Y226712D01*
X233845Y226871D01*
X234971Y227337D01*
X235937Y228079D01*
X236679Y229045D01*
X237145Y230170D01*
X237304Y231378D01*
X237145Y232586D01*
X236679Y233711D01*
X235937Y234677D01*
X234971Y235419D01*
X233845Y235885D01*
X232638Y236044D01*
D02*
G37*
G36*
X52138Y230878D02*
X48618D01*
X48691Y230320D01*
X49099Y229335D01*
X49749Y228489D01*
X50595Y227839D01*
X51580Y227431D01*
X52138Y227358D01*
Y230878D01*
D02*
G37*
G36*
X192638Y236044D02*
X191430Y235885D01*
X190305Y235419D01*
X189339Y234677D01*
X188597Y233711D01*
X188131Y232586D01*
X187972Y231378D01*
X188131Y230170D01*
X188597Y229045D01*
X189339Y228079D01*
X190305Y227337D01*
X191430Y226871D01*
X192638Y226712D01*
X193845Y226871D01*
X194971Y227337D01*
X195937Y228079D01*
X196679Y229045D01*
X197145Y230170D01*
X197304Y231378D01*
X197145Y232586D01*
X196679Y233711D01*
X195937Y234677D01*
X194971Y235419D01*
X193845Y235885D01*
X192638Y236044D01*
D02*
G37*
G36*
X202638D02*
X201430Y235885D01*
X200305Y235419D01*
X199338Y234677D01*
X198597Y233711D01*
X198131Y232586D01*
X197972Y231378D01*
X198131Y230170D01*
X198597Y229045D01*
X199338Y228079D01*
X200305Y227337D01*
X201430Y226871D01*
X202638Y226712D01*
X203845Y226871D01*
X204971Y227337D01*
X205937Y228079D01*
X206679Y229045D01*
X207145Y230170D01*
X207304Y231378D01*
X207145Y232586D01*
X206679Y233711D01*
X205937Y234677D01*
X204971Y235419D01*
X203845Y235885D01*
X202638Y236044D01*
D02*
G37*
G36*
X212638D02*
X211430Y235885D01*
X210305Y235419D01*
X209338Y234677D01*
X208597Y233711D01*
X208131Y232586D01*
X207972Y231378D01*
X208131Y230170D01*
X208597Y229045D01*
X209338Y228079D01*
X210305Y227337D01*
X211430Y226871D01*
X212638Y226712D01*
X213845Y226871D01*
X214971Y227337D01*
X215937Y228079D01*
X216679Y229045D01*
X217145Y230170D01*
X217304Y231378D01*
X217145Y232586D01*
X216679Y233711D01*
X215937Y234677D01*
X214971Y235419D01*
X213845Y235885D01*
X212638Y236044D01*
D02*
G37*
G36*
X56658Y230878D02*
X53138D01*
Y227358D01*
X53695Y227431D01*
X54681Y227839D01*
X55527Y228489D01*
X56177Y229335D01*
X56585Y230320D01*
X56658Y230878D01*
D02*
G37*
G36*
X53138Y235398D02*
Y231878D01*
X56658D01*
X56585Y232436D01*
X56177Y233421D01*
X55527Y234267D01*
X54681Y234917D01*
X53695Y235325D01*
X53138Y235398D01*
D02*
G37*
G36*
X62138D02*
X61580Y235325D01*
X60595Y234917D01*
X59749Y234267D01*
X59099Y233421D01*
X58691Y232436D01*
X58618Y231878D01*
X62138D01*
Y235398D01*
D02*
G37*
G36*
X63138D02*
Y231878D01*
X66658D01*
X66585Y232436D01*
X66176Y233421D01*
X65527Y234267D01*
X64681Y234917D01*
X63695Y235325D01*
X63138Y235398D01*
D02*
G37*
G36*
X62138Y230878D02*
X58618D01*
X58691Y230320D01*
X59099Y229335D01*
X59749Y228489D01*
X60595Y227839D01*
X61580Y227431D01*
X62138Y227358D01*
Y230878D01*
D02*
G37*
G36*
X66658D02*
X63138D01*
Y227358D01*
X63695Y227431D01*
X64681Y227839D01*
X65527Y228489D01*
X66176Y229335D01*
X66585Y230320D01*
X66658Y230878D01*
D02*
G37*
G36*
X52138Y235398D02*
X51580Y235325D01*
X50595Y234917D01*
X49749Y234267D01*
X49099Y233421D01*
X48691Y232436D01*
X48618Y231878D01*
X52138D01*
Y235398D01*
D02*
G37*
G36*
X182638Y236044D02*
X181430Y235885D01*
X180305Y235419D01*
X179339Y234677D01*
X178597Y233711D01*
X178131Y232586D01*
X177972Y231378D01*
X178131Y230170D01*
X178597Y229045D01*
X179339Y228079D01*
X180305Y227337D01*
X181430Y226871D01*
X182638Y226712D01*
X183845Y226871D01*
X184971Y227337D01*
X185937Y228079D01*
X186679Y229045D01*
X187145Y230170D01*
X187304Y231378D01*
X187145Y232586D01*
X186679Y233711D01*
X185937Y234677D01*
X184971Y235419D01*
X183845Y235885D01*
X182638Y236044D01*
D02*
G37*
G36*
X82638D02*
X81430Y235885D01*
X80305Y235419D01*
X79339Y234677D01*
X78597Y233711D01*
X78131Y232586D01*
X77972Y231378D01*
X78131Y230170D01*
X78597Y229045D01*
X79339Y228079D01*
X80305Y227337D01*
X81430Y226871D01*
X82638Y226712D01*
X83845Y226871D01*
X84971Y227337D01*
X85937Y228079D01*
X86679Y229045D01*
X87145Y230170D01*
X87304Y231378D01*
X87145Y232586D01*
X86679Y233711D01*
X85937Y234677D01*
X84971Y235419D01*
X83845Y235885D01*
X82638Y236044D01*
D02*
G37*
G36*
X92638D02*
X91430Y235885D01*
X90305Y235419D01*
X89338Y234677D01*
X88597Y233711D01*
X88131Y232586D01*
X87972Y231378D01*
X88131Y230170D01*
X88597Y229045D01*
X89338Y228079D01*
X90305Y227337D01*
X91430Y226871D01*
X92638Y226712D01*
X93845Y226871D01*
X94971Y227337D01*
X95937Y228079D01*
X96679Y229045D01*
X97145Y230170D01*
X97304Y231378D01*
X97145Y232586D01*
X96679Y233711D01*
X95937Y234677D01*
X94971Y235419D01*
X93845Y235885D01*
X92638Y236044D01*
D02*
G37*
G36*
X102638D02*
X101430Y235885D01*
X100305Y235419D01*
X99339Y234677D01*
X98597Y233711D01*
X98131Y232586D01*
X97972Y231378D01*
X98131Y230170D01*
X98597Y229045D01*
X99339Y228079D01*
X100305Y227337D01*
X101430Y226871D01*
X102638Y226712D01*
X103845Y226871D01*
X104971Y227337D01*
X105937Y228079D01*
X106679Y229045D01*
X107145Y230170D01*
X107304Y231378D01*
X107145Y232586D01*
X106679Y233711D01*
X105937Y234677D01*
X104971Y235419D01*
X103845Y235885D01*
X102638Y236044D01*
D02*
G37*
G36*
X136658Y220878D02*
X133138D01*
Y217358D01*
X133695Y217431D01*
X134681Y217839D01*
X135527Y218489D01*
X136177Y219335D01*
X136585Y220320D01*
X136658Y220878D01*
D02*
G37*
G36*
X132138Y225398D02*
X131580Y225325D01*
X130595Y224917D01*
X129748Y224267D01*
X129099Y223421D01*
X128691Y222436D01*
X128618Y221878D01*
X132138D01*
Y225398D01*
D02*
G37*
G36*
X133138D02*
Y221878D01*
X136658D01*
X136585Y222436D01*
X136177Y223421D01*
X135527Y224267D01*
X134681Y224917D01*
X133695Y225325D01*
X133138Y225398D01*
D02*
G37*
G36*
X112638Y236044D02*
X111430Y235885D01*
X110305Y235419D01*
X109338Y234677D01*
X108597Y233711D01*
X108131Y232586D01*
X107972Y231378D01*
X108131Y230170D01*
X108597Y229045D01*
X109338Y228079D01*
X110305Y227337D01*
X111430Y226871D01*
X112638Y226712D01*
X113845Y226871D01*
X114971Y227337D01*
X115937Y228079D01*
X116679Y229045D01*
X117145Y230170D01*
X117304Y231378D01*
X117145Y232586D01*
X116679Y233711D01*
X115937Y234677D01*
X114971Y235419D01*
X113845Y235885D01*
X112638Y236044D01*
D02*
G37*
G36*
X152638D02*
X151430Y235885D01*
X150305Y235419D01*
X149338Y234677D01*
X148597Y233711D01*
X148131Y232586D01*
X147972Y231378D01*
X148131Y230170D01*
X148597Y229045D01*
X149338Y228079D01*
X150305Y227337D01*
X151430Y226871D01*
X152638Y226712D01*
X153845Y226871D01*
X154971Y227337D01*
X155937Y228079D01*
X156679Y229045D01*
X157145Y230170D01*
X157304Y231378D01*
X157145Y232586D01*
X156679Y233711D01*
X155937Y234677D01*
X154971Y235419D01*
X153845Y235885D01*
X152638Y236044D01*
D02*
G37*
G36*
X162638D02*
X161430Y235885D01*
X160305Y235419D01*
X159338Y234677D01*
X158597Y233711D01*
X158131Y232586D01*
X157972Y231378D01*
X158131Y230170D01*
X158597Y229045D01*
X159338Y228079D01*
X160305Y227337D01*
X161430Y226871D01*
X162638Y226712D01*
X163845Y226871D01*
X164971Y227337D01*
X165937Y228079D01*
X166679Y229045D01*
X167145Y230170D01*
X167304Y231378D01*
X167145Y232586D01*
X166679Y233711D01*
X165937Y234677D01*
X164971Y235419D01*
X163845Y235885D01*
X162638Y236044D01*
D02*
G37*
G36*
X172638D02*
X171430Y235885D01*
X170305Y235419D01*
X169339Y234677D01*
X168597Y233711D01*
X168131Y232586D01*
X167972Y231378D01*
X168131Y230170D01*
X168597Y229045D01*
X169339Y228079D01*
X170305Y227337D01*
X171430Y226871D01*
X172638Y226712D01*
X173845Y226871D01*
X174971Y227337D01*
X175937Y228079D01*
X176679Y229045D01*
X177145Y230170D01*
X177304Y231378D01*
X177145Y232586D01*
X176679Y233711D01*
X175937Y234677D01*
X174971Y235419D01*
X173845Y235885D01*
X172638Y236044D01*
D02*
G37*
G36*
X122638D02*
X121430Y235885D01*
X120305Y235419D01*
X119339Y234677D01*
X118597Y233711D01*
X118131Y232586D01*
X117972Y231378D01*
X118131Y230170D01*
X118597Y229045D01*
X119339Y228079D01*
X120305Y227337D01*
X121430Y226871D01*
X122638Y226712D01*
X123845Y226871D01*
X124971Y227337D01*
X125937Y228079D01*
X126679Y229045D01*
X127145Y230170D01*
X127304Y231378D01*
X127145Y232586D01*
X126679Y233711D01*
X125937Y234677D01*
X124971Y235419D01*
X123845Y235885D01*
X122638Y236044D01*
D02*
G37*
G36*
X132638D02*
X131430Y235885D01*
X130305Y235419D01*
X129339Y234677D01*
X128597Y233711D01*
X128131Y232586D01*
X127972Y231378D01*
X128131Y230170D01*
X128597Y229045D01*
X129339Y228079D01*
X130305Y227337D01*
X131430Y226871D01*
X132638Y226712D01*
X133845Y226871D01*
X134971Y227337D01*
X135937Y228079D01*
X136679Y229045D01*
X137145Y230170D01*
X137304Y231378D01*
X137145Y232586D01*
X136679Y233711D01*
X135937Y234677D01*
X134971Y235419D01*
X133845Y235885D01*
X132638Y236044D01*
D02*
G37*
G36*
X142638D02*
X141430Y235885D01*
X140305Y235419D01*
X139339Y234677D01*
X138597Y233711D01*
X138131Y232586D01*
X137972Y231378D01*
X138131Y230170D01*
X138597Y229045D01*
X139339Y228079D01*
X140305Y227337D01*
X141430Y226871D01*
X142638Y226712D01*
X143845Y226871D01*
X144971Y227337D01*
X145937Y228079D01*
X146679Y229045D01*
X147145Y230170D01*
X147304Y231378D01*
X147145Y232586D01*
X146679Y233711D01*
X145937Y234677D01*
X144971Y235419D01*
X143845Y235885D01*
X142638Y236044D01*
D02*
G37*
G36*
X129358Y163717D02*
X127327D01*
Y161685D01*
X127499Y161708D01*
X128125Y161968D01*
X128663Y162380D01*
X129076Y162918D01*
X129335Y163544D01*
X129358Y163717D01*
D02*
G37*
G36*
X118504Y168531D02*
X117682Y168423D01*
X116916Y168105D01*
X116258Y167601D01*
X115753Y166943D01*
X115435Y166176D01*
X115327Y165354D01*
X115435Y164532D01*
X115753Y163766D01*
X116258Y163108D01*
X116916Y162603D01*
X117682Y162286D01*
X118504Y162178D01*
X119326Y162286D01*
X120092Y162603D01*
X120750Y163108D01*
X121255Y163766D01*
X121572Y164532D01*
X121681Y165354D01*
X121572Y166176D01*
X121255Y166943D01*
X120750Y167601D01*
X120092Y168105D01*
X119326Y168423D01*
X118504Y168531D01*
D02*
G37*
G36*
X173228Y169712D02*
X172406Y169604D01*
X171640Y169287D01*
X170982Y168782D01*
X170477Y168124D01*
X170160Y167358D01*
X170052Y166535D01*
X170160Y165713D01*
X170477Y164947D01*
X170982Y164289D01*
X171640Y163784D01*
X172406Y163467D01*
X173228Y163359D01*
X174051Y163467D01*
X174817Y163784D01*
X175475Y164289D01*
X175980Y164947D01*
X176297Y165713D01*
X176405Y166535D01*
X176297Y167358D01*
X175980Y168124D01*
X175475Y168782D01*
X174817Y169287D01*
X174051Y169604D01*
X173228Y169712D01*
D02*
G37*
G36*
X211024Y166563D02*
X210201Y166454D01*
X209435Y166137D01*
X208777Y165632D01*
X208272Y164974D01*
X207955Y164208D01*
X207847Y163386D01*
X207955Y162564D01*
X208272Y161797D01*
X208777Y161140D01*
X209435Y160635D01*
X210201Y160317D01*
X211024Y160209D01*
X211846Y160317D01*
X212612Y160635D01*
X213270Y161140D01*
X213775Y161797D01*
X214092Y162564D01*
X214200Y163386D01*
X214092Y164208D01*
X213775Y164974D01*
X213270Y165632D01*
X212612Y166137D01*
X211846Y166454D01*
X211024Y166563D01*
D02*
G37*
G36*
X166300Y171577D02*
X165478Y171468D01*
X164712Y171151D01*
X164054Y170646D01*
X163549Y169988D01*
X163232Y169222D01*
X163123Y168400D01*
X163232Y167578D01*
X163549Y166812D01*
X164007Y166215D01*
X163725Y165848D01*
X163408Y165082D01*
X163300Y164260D01*
X163408Y163438D01*
X163725Y162672D01*
X164230Y162014D01*
X164888Y161509D01*
X165654Y161191D01*
X166476Y161083D01*
X167299Y161191D01*
X168065Y161509D01*
X168723Y162014D01*
X169228Y162672D01*
X169545Y163438D01*
X169653Y164260D01*
X169545Y165082D01*
X169228Y165848D01*
X168770Y166445D01*
X169051Y166812D01*
X169369Y167578D01*
X169477Y168400D01*
X169369Y169222D01*
X169051Y169988D01*
X168546Y170646D01*
X167888Y171151D01*
X167122Y171468D01*
X166300Y171577D01*
D02*
G37*
G36*
X126327Y163717D02*
X124296D01*
X124318Y163544D01*
X124578Y162918D01*
X124990Y162380D01*
X125528Y161968D01*
X126155Y161708D01*
X126327Y161685D01*
Y163717D01*
D02*
G37*
G36*
Y166748D02*
X126155Y166725D01*
X125528Y166466D01*
X124990Y166053D01*
X124578Y165515D01*
X124318Y164889D01*
X124296Y164717D01*
X126327D01*
Y166748D01*
D02*
G37*
G36*
X180610Y177586D02*
X179788Y177478D01*
X179022Y177161D01*
X178364Y176656D01*
X177859Y175998D01*
X177542Y175232D01*
X177433Y174409D01*
X177542Y173587D01*
X177859Y172821D01*
X178364Y172163D01*
X179022Y171658D01*
X179788Y171341D01*
X180610Y171233D01*
X181432Y171341D01*
X182199Y171658D01*
X182857Y172163D01*
X182967Y172307D01*
X183597D01*
X183695Y172179D01*
X184233Y171767D01*
X184859Y171507D01*
X185031Y171485D01*
Y174016D01*
Y176547D01*
X184859Y176524D01*
X184233Y176265D01*
X183898Y176008D01*
X183679Y176004D01*
X183338Y176075D01*
X183269Y176118D01*
X182857Y176656D01*
X182199Y177161D01*
X181432Y177478D01*
X180610Y177586D01*
D02*
G37*
G36*
X188063Y173516D02*
X186031D01*
Y171485D01*
X186204Y171507D01*
X186830Y171767D01*
X187368Y172179D01*
X187780Y172717D01*
X188040Y173344D01*
X188063Y173516D01*
D02*
G37*
G36*
X200098Y180540D02*
X199276Y180431D01*
X198510Y180114D01*
X197852Y179609D01*
X197347Y178951D01*
X197030Y178185D01*
X196922Y177363D01*
X197030Y176541D01*
X197347Y175775D01*
X197852Y175117D01*
X198510Y174612D01*
X199276Y174294D01*
X200098Y174186D01*
X200921Y174294D01*
X201687Y174612D01*
X202345Y175117D01*
X202850Y175775D01*
X203167Y176541D01*
X203275Y177363D01*
X203167Y178185D01*
X202850Y178951D01*
X202345Y179609D01*
X201687Y180114D01*
X200921Y180431D01*
X200098Y180540D01*
D02*
G37*
G36*
X127327Y166748D02*
Y164717D01*
X129358D01*
X129335Y164889D01*
X129076Y165515D01*
X128663Y166053D01*
X128125Y166466D01*
X127499Y166725D01*
X127327Y166748D01*
D02*
G37*
G36*
X51732Y180492D02*
X42480D01*
Y171240D01*
X51732D01*
Y180492D01*
D02*
G37*
G36*
X41732Y180492D02*
X32480D01*
Y171240D01*
X41732D01*
Y180492D01*
D02*
G37*
G36*
X202700Y164377D02*
X201878Y164269D01*
X201112Y163951D01*
X200454Y163446D01*
X199949Y162788D01*
X199632Y162022D01*
X199523Y161200D01*
X199632Y160378D01*
X199949Y159612D01*
X200454Y158954D01*
X201112Y158449D01*
X201878Y158132D01*
X202700Y158023D01*
X203522Y158132D01*
X204288Y158449D01*
X204946Y158954D01*
X205451Y159612D01*
X205768Y160378D01*
X205877Y161200D01*
X205768Y162022D01*
X205451Y162788D01*
X204946Y163446D01*
X204288Y163951D01*
X203522Y164269D01*
X202700Y164377D01*
D02*
G37*
G36*
X129358Y148953D02*
X127327D01*
Y146922D01*
X127499Y146944D01*
X128125Y147204D01*
X128663Y147616D01*
X129076Y148154D01*
X129335Y148781D01*
X129358Y148953D01*
D02*
G37*
G36*
X179626Y156791D02*
X178804Y156683D01*
X178038Y156365D01*
X177380Y155860D01*
X176875Y155202D01*
X176558Y154436D01*
X176449Y153614D01*
X176558Y152792D01*
X176875Y152026D01*
X177380Y151368D01*
X177901Y150968D01*
X177795Y150450D01*
X177178Y150368D01*
X176412Y150051D01*
X175754Y149546D01*
X175249Y148888D01*
X174932Y148122D01*
X174823Y147300D01*
X174932Y146478D01*
X175249Y145712D01*
X175754Y145054D01*
X176412Y144549D01*
X177178Y144231D01*
X178000Y144123D01*
X178822Y144231D01*
X179588Y144549D01*
X180246Y145054D01*
X180751Y145712D01*
X181069Y146478D01*
X181177Y147300D01*
X181140Y147577D01*
X181609Y147848D01*
X181876Y147643D01*
X182642Y147325D01*
X183465Y147217D01*
X184287Y147325D01*
X185053Y147643D01*
X185711Y148147D01*
X186216Y148805D01*
X186533Y149572D01*
X186641Y150394D01*
X186533Y151216D01*
X186216Y151982D01*
X185711Y152640D01*
X185053Y153145D01*
X184287Y153462D01*
X183465Y153571D01*
X182918Y153499D01*
X182803Y153614D01*
X182694Y154436D01*
X182377Y155202D01*
X181872Y155860D01*
X181214Y156365D01*
X180448Y156683D01*
X179626Y156791D01*
D02*
G37*
G36*
X163800Y155477D02*
X162978Y155368D01*
X162212Y155051D01*
X161554Y154546D01*
X161049Y153888D01*
X160731Y153122D01*
X160623Y152300D01*
X160731Y151478D01*
X161049Y150712D01*
X161554Y150054D01*
X162212Y149549D01*
X162978Y149232D01*
X163800Y149123D01*
X164622Y149232D01*
X165388Y149549D01*
X166046Y150054D01*
X166551Y150712D01*
X166868Y151478D01*
X166977Y152300D01*
X166868Y153122D01*
X166551Y153888D01*
X166046Y154546D01*
X165388Y155051D01*
X164622Y155368D01*
X163800Y155477D01*
D02*
G37*
G36*
X191827Y153551D02*
X191005Y153443D01*
X190238Y153125D01*
X189581Y152620D01*
X189076Y151963D01*
X188758Y151196D01*
X188650Y150374D01*
X188758Y149552D01*
X189076Y148786D01*
X189581Y148128D01*
X190238Y147623D01*
X190265Y147612D01*
X190277Y147562D01*
X190234Y147084D01*
X189612Y146826D01*
X188954Y146321D01*
X188449Y145663D01*
X188131Y144897D01*
X188023Y144075D01*
X188131Y143253D01*
X188449Y142486D01*
X188954Y141829D01*
X189612Y141324D01*
X190378Y141006D01*
X191200Y140898D01*
X192022Y141006D01*
X192788Y141324D01*
X193446Y141829D01*
X193951Y142486D01*
X194269Y143253D01*
X194377Y144075D01*
X194269Y144897D01*
X194141Y145204D01*
X194141Y145204D01*
X194037Y145456D01*
X194036Y145459D01*
X194039Y145460D01*
X194041Y145461D01*
X194073Y145475D01*
X194084Y145480D01*
X194446Y145635D01*
X194472Y145647D01*
X194641Y145462D01*
X194652Y145448D01*
X194652Y145448D01*
X194997Y144998D01*
X195655Y144493D01*
X196422Y144175D01*
X197244Y144067D01*
X198066Y144175D01*
X198832Y144493D01*
X199490Y144998D01*
X199995Y145655D01*
X200312Y146422D01*
X200420Y147244D01*
X200312Y148066D01*
X199995Y148832D01*
X199490Y149490D01*
X198832Y149995D01*
X198066Y150312D01*
X197244Y150421D01*
X196422Y150312D01*
X195655Y149995D01*
X195436Y149827D01*
X194967Y150097D01*
X195004Y150374D01*
X194895Y151196D01*
X194578Y151963D01*
X194073Y152620D01*
X193415Y153125D01*
X192649Y153443D01*
X191827Y153551D01*
D02*
G37*
G36*
X233071Y151208D02*
X232249Y151100D01*
X231483Y150783D01*
X230824Y150278D01*
X230320Y149620D01*
X230002Y148854D01*
X229894Y148031D01*
X230002Y147209D01*
X230320Y146443D01*
X230824Y145785D01*
X231483Y145280D01*
X232249Y144963D01*
X233071Y144855D01*
X233893Y144963D01*
X234659Y145280D01*
X235317Y145785D01*
X235822Y146443D01*
X236139Y147209D01*
X236248Y148031D01*
X236139Y148854D01*
X235822Y149620D01*
X235317Y150278D01*
X234659Y150783D01*
X233893Y151100D01*
X233071Y151208D01*
D02*
G37*
G36*
X126327Y148953D02*
X124296D01*
X124318Y148781D01*
X124578Y148154D01*
X124990Y147616D01*
X125528Y147204D01*
X126155Y146944D01*
X126327Y146922D01*
Y148953D01*
D02*
G37*
G36*
Y151984D02*
X126155Y151961D01*
X125528Y151702D01*
X124990Y151289D01*
X124578Y150751D01*
X124318Y150125D01*
X124296Y149953D01*
X126327D01*
Y151984D01*
D02*
G37*
G36*
X57874Y158689D02*
X57052Y158580D01*
X56286Y158263D01*
X55628Y157758D01*
X55123Y157100D01*
X54805Y156334D01*
X54697Y155512D01*
X54805Y154690D01*
X55123Y153923D01*
X55628Y153266D01*
X56286Y152761D01*
X57052Y152443D01*
X57874Y152335D01*
X58696Y152443D01*
X59462Y152761D01*
X60120Y153266D01*
X60625Y153923D01*
X60943Y154690D01*
X61051Y155512D01*
X60943Y156334D01*
X60625Y157100D01*
X60120Y157758D01*
X59462Y158263D01*
X58696Y158580D01*
X57874Y158689D01*
D02*
G37*
G36*
X92020Y161410D02*
X91231Y161306D01*
X90030Y160809D01*
X88999Y160017D01*
X88207Y158986D01*
X87710Y157785D01*
X87606Y156996D01*
X92020D01*
Y161410D01*
D02*
G37*
G36*
X93020D02*
Y156996D01*
X97433D01*
X97329Y157785D01*
X96832Y158986D01*
X96041Y160017D01*
X95009Y160809D01*
X93808Y161306D01*
X93020Y161410D01*
D02*
G37*
G36*
X127327Y151984D02*
Y149953D01*
X129358D01*
X129335Y150125D01*
X129076Y150751D01*
X128663Y151289D01*
X128125Y151702D01*
X127499Y151961D01*
X127327Y151984D01*
D02*
G37*
G36*
X92020Y155996D02*
X87606D01*
X87710Y155207D01*
X88207Y154006D01*
X88999Y152975D01*
X90030Y152183D01*
X91231Y151686D01*
X92020Y151582D01*
Y155996D01*
D02*
G37*
G36*
X97433D02*
X93020D01*
Y151582D01*
X93808Y151686D01*
X95009Y152183D01*
X96041Y152975D01*
X96832Y154006D01*
X97329Y155207D01*
X97433Y155996D01*
D02*
G37*
G36*
X186031Y176547D02*
Y174516D01*
X188063D01*
X188040Y174688D01*
X187780Y175314D01*
X187368Y175852D01*
X186830Y176265D01*
X186204Y176524D01*
X186031Y176547D01*
D02*
G37*
G36*
X47106Y200532D02*
X45899Y200373D01*
X44774Y199907D01*
X43807Y199165D01*
X43066Y198199D01*
X42599Y197074D01*
X42441Y195866D01*
X42599Y194659D01*
X43066Y193533D01*
X43807Y192567D01*
X44774Y191825D01*
X45899Y191359D01*
X47106Y191200D01*
X48314Y191359D01*
X49439Y191825D01*
X50406Y192567D01*
X51147Y193533D01*
X51613Y194659D01*
X51772Y195866D01*
X51613Y197074D01*
X51147Y198199D01*
X50406Y199165D01*
X49439Y199907D01*
X48314Y200373D01*
X47106Y200532D01*
D02*
G37*
G36*
X37106Y200532D02*
X35899Y200373D01*
X34773Y199907D01*
X33807Y199166D01*
X33066Y198199D01*
X32599Y197074D01*
X32441Y195866D01*
X32599Y194659D01*
X33066Y193533D01*
X33807Y192567D01*
X34773Y191826D01*
X35899Y191359D01*
X37106Y191200D01*
X38314Y191359D01*
X39439Y191826D01*
X40406Y192567D01*
X41147Y193533D01*
X41613Y194659D01*
X41772Y195866D01*
X41613Y197074D01*
X41147Y198199D01*
X40406Y199166D01*
X39439Y199907D01*
X38314Y200373D01*
X37106Y200532D01*
D02*
G37*
G36*
X71653Y199240D02*
X70831Y199132D01*
X70065Y198814D01*
X69407Y198309D01*
X68902Y197651D01*
X68585Y196885D01*
X68477Y196063D01*
X68585Y195241D01*
X68902Y194475D01*
X69407Y193817D01*
X70065Y193312D01*
X70831Y192994D01*
X71653Y192886D01*
X72476Y192994D01*
X73242Y193312D01*
X73900Y193817D01*
X74405Y194475D01*
X74722Y195241D01*
X74830Y196063D01*
X74722Y196885D01*
X74405Y197651D01*
X73900Y198309D01*
X73242Y198814D01*
X72476Y199132D01*
X71653Y199240D01*
D02*
G37*
G36*
X66445Y188555D02*
Y186524D01*
X68476D01*
X68453Y186696D01*
X68194Y187322D01*
X67781Y187860D01*
X67243Y188273D01*
X66617Y188532D01*
X66445Y188555D01*
D02*
G37*
G36*
X181783Y190051D02*
X179752D01*
X179775Y189879D01*
X180034Y189253D01*
X180447Y188715D01*
X180985Y188302D01*
X181611Y188043D01*
X181783Y188020D01*
Y190051D01*
D02*
G37*
G36*
Y193082D02*
X181611Y193060D01*
X180985Y192800D01*
X180447Y192388D01*
X180034Y191850D01*
X179775Y191223D01*
X179752Y191051D01*
X181783D01*
Y193082D01*
D02*
G37*
G36*
X168594Y201996D02*
X167772Y201887D01*
X167006Y201570D01*
X166348Y201065D01*
X165843Y200407D01*
X165526Y199641D01*
X165418Y198819D01*
X165526Y197997D01*
X165843Y197231D01*
X166348Y196573D01*
X167006Y196068D01*
X167772Y195750D01*
X168594Y195642D01*
X169417Y195750D01*
X170183Y196068D01*
X170841Y196573D01*
X171346Y197231D01*
X171663Y197997D01*
X171771Y198819D01*
X171663Y199641D01*
X171346Y200407D01*
X170841Y201065D01*
X170183Y201570D01*
X169417Y201887D01*
X168594Y201996D01*
D02*
G37*
G36*
X156201Y198713D02*
X154170D01*
X154192Y198540D01*
X154452Y197914D01*
X154865Y197376D01*
X155403Y196964D01*
X156029Y196704D01*
X156201Y196681D01*
Y198713D01*
D02*
G37*
G36*
X159232D02*
X157201D01*
Y196681D01*
X157373Y196704D01*
X158000Y196964D01*
X158537Y197376D01*
X158950Y197914D01*
X159210Y198540D01*
X159232Y198713D01*
D02*
G37*
G36*
X199500Y201350D02*
X199328Y201327D01*
X198702Y201068D01*
X198164Y200655D01*
X197751Y200117D01*
X197492Y199491D01*
X197469Y199319D01*
X199500D01*
Y201350D01*
D02*
G37*
G36*
X142512Y202389D02*
X141690Y202281D01*
X140923Y201964D01*
X140266Y201459D01*
X139761Y200801D01*
X139443Y200035D01*
X139335Y199213D01*
X139443Y198390D01*
X139761Y197624D01*
X140266Y196966D01*
X140923Y196461D01*
X141690Y196144D01*
X142512Y196036D01*
X143334Y196144D01*
X144100Y196461D01*
X144758Y196966D01*
X145263Y197624D01*
X145580Y198390D01*
X145689Y199213D01*
X145580Y200035D01*
X145263Y200801D01*
X144758Y201459D01*
X144100Y201964D01*
X143334Y202281D01*
X142512Y202389D01*
D02*
G37*
G36*
X199500Y198319D02*
X197469D01*
X197492Y198147D01*
X197751Y197520D01*
X198164Y196983D01*
X198702Y196570D01*
X199328Y196310D01*
X199500Y196288D01*
Y198319D01*
D02*
G37*
G36*
X202531D02*
X200500D01*
Y196288D01*
X200672Y196310D01*
X201298Y196570D01*
X201836Y196983D01*
X202249Y197520D01*
X202508Y198147D01*
X202531Y198319D01*
D02*
G37*
G36*
X65445Y188555D02*
X65273Y188532D01*
X64646Y188273D01*
X64109Y187860D01*
X63696Y187322D01*
X63436Y186696D01*
X63414Y186524D01*
X65445D01*
Y188555D01*
D02*
G37*
G36*
X125906Y181512D02*
X125733Y181489D01*
X125107Y181229D01*
X124569Y180817D01*
X124156Y180279D01*
X123897Y179653D01*
X123874Y179480D01*
X125906D01*
Y181512D01*
D02*
G37*
G36*
X126906D02*
Y179480D01*
X128937D01*
X128914Y179653D01*
X128655Y180279D01*
X128242Y180817D01*
X127704Y181229D01*
X127078Y181489D01*
X126906Y181512D01*
D02*
G37*
G36*
X47106Y190532D02*
X45899Y190373D01*
X44774Y189907D01*
X43807Y189165D01*
X43066Y188199D01*
X42599Y187074D01*
X42441Y185866D01*
X42599Y184659D01*
X43066Y183533D01*
X43807Y182567D01*
X44774Y181825D01*
X45899Y181359D01*
X47106Y181200D01*
X48314Y181359D01*
X49439Y181825D01*
X50406Y182567D01*
X51147Y183533D01*
X51613Y184659D01*
X51772Y185866D01*
X51613Y187074D01*
X51147Y188199D01*
X50406Y189165D01*
X49439Y189907D01*
X48314Y190373D01*
X47106Y190532D01*
D02*
G37*
G36*
X189763Y182704D02*
X188941Y182596D01*
X188175Y182278D01*
X187517Y181773D01*
X187012Y181116D01*
X186695Y180349D01*
X186587Y179527D01*
X186695Y178705D01*
X187012Y177939D01*
X187517Y177281D01*
X188175Y176776D01*
X188941Y176459D01*
X189763Y176350D01*
X190586Y176459D01*
X191352Y176776D01*
X192010Y177281D01*
X192515Y177939D01*
X192832Y178705D01*
X192940Y179527D01*
X192832Y180349D01*
X192515Y181116D01*
X192010Y181773D01*
X191352Y182278D01*
X190586Y182596D01*
X189763Y182704D01*
D02*
G37*
G36*
X125906Y178480D02*
X123874D01*
X123897Y178308D01*
X124156Y177682D01*
X124569Y177144D01*
X125107Y176731D01*
X125733Y176472D01*
X125906Y176449D01*
Y178480D01*
D02*
G37*
G36*
X128937D02*
X126906D01*
Y176449D01*
X127078Y176472D01*
X127704Y176731D01*
X128242Y177144D01*
X128655Y177682D01*
X128914Y178308D01*
X128937Y178480D01*
D02*
G37*
G36*
X31127Y185366D02*
X27606D01*
Y181846D01*
X28164Y181920D01*
X29149Y182328D01*
X29996Y182977D01*
X30645Y183823D01*
X31053Y184809D01*
X31127Y185366D01*
D02*
G37*
G36*
X27606Y189887D02*
Y186366D01*
X31127D01*
X31053Y186924D01*
X30645Y187909D01*
X29996Y188756D01*
X29149Y189405D01*
X28164Y189813D01*
X27606Y189887D01*
D02*
G37*
G36*
X36606D02*
X36049Y189813D01*
X35063Y189405D01*
X34217Y188756D01*
X33568Y187909D01*
X33160Y186924D01*
X33086Y186366D01*
X36606D01*
Y189887D01*
D02*
G37*
G36*
X37606D02*
Y186366D01*
X41127D01*
X41053Y186924D01*
X40645Y187909D01*
X39996Y188756D01*
X39149Y189405D01*
X38164Y189813D01*
X37606Y189887D01*
D02*
G37*
G36*
X36606Y185366D02*
X33086D01*
X33160Y184809D01*
X33568Y183823D01*
X34217Y182977D01*
X35063Y182328D01*
X36049Y181920D01*
X36606Y181846D01*
Y185366D01*
D02*
G37*
G36*
X41127D02*
X37606D01*
Y181846D01*
X38164Y181920D01*
X39149Y182328D01*
X39996Y182977D01*
X40645Y183823D01*
X41053Y184809D01*
X41127Y185366D01*
D02*
G37*
G36*
X182783Y193082D02*
Y190551D01*
Y187902D01*
X183015Y187807D01*
X183072Y187581D01*
X183152Y186973D01*
X183469Y186207D01*
X183974Y185549D01*
X184632Y185044D01*
X185398Y184727D01*
X186221Y184618D01*
X187043Y184727D01*
X187809Y185044D01*
X188467Y185549D01*
X188972Y186207D01*
X189289Y186973D01*
X189397Y187795D01*
X189289Y188618D01*
X188972Y189384D01*
X188467Y190042D01*
X187809Y190547D01*
X187043Y190864D01*
X186221Y190972D01*
X185398Y190864D01*
X185248Y190801D01*
X184815Y191051D01*
X184792Y191223D01*
X184532Y191850D01*
X184120Y192388D01*
X183582Y192800D01*
X182956Y193060D01*
X182783Y193082D01*
D02*
G37*
%LPD*%
D36*
X65945Y205709D02*
Y205709D01*
D43*
X52638Y231378D02*
D03*
X62638D02*
D03*
X132638Y221378D02*
D03*
X37106Y185866D02*
D03*
X27106D02*
D03*
D44*
X102752Y25943D02*
D03*
X52752D02*
D03*
X62752D02*
D03*
X72752D02*
D03*
X82752D02*
D03*
X92752D02*
D03*
D45*
X102752Y35943D02*
D03*
X52752D02*
D03*
X62752D02*
D03*
X72752D02*
D03*
X82752D02*
D03*
X92752D02*
D03*
D46*
X27559Y78661D02*
D03*
D50*
X65945Y186024D02*
D03*
X59055Y212598D02*
D03*
X49016Y130473D02*
D03*
X49803Y142284D02*
D03*
X182283Y190551D02*
D03*
X185531Y174016D02*
D03*
X200000Y198819D02*
D03*
X247244Y92520D02*
D03*
X225197Y93701D02*
D03*
X195669Y134646D02*
D03*
X144685Y52559D02*
D03*
X170079Y39173D02*
D03*
X53600Y104633D02*
D03*
X124016Y67134D02*
D03*
X134843Y42528D02*
D03*
Y67134D02*
D03*
X160630Y111114D02*
D03*
X126827Y149453D02*
D03*
Y164217D02*
D03*
X176386Y140925D02*
D03*
X126406Y178980D02*
D03*
X212093Y108570D02*
D03*
X156701Y199213D02*
D03*
X176181Y47528D02*
D03*
X232284Y81061D02*
D03*
X220472Y66929D02*
D03*
X264173D02*
D03*
X149606Y41732D02*
D03*
D51*
X92520Y156496D02*
D03*
X86614Y75787D02*
D03*
D52*
X37795Y72835D02*
D03*
X26772Y63386D02*
D03*
X56890Y62205D02*
D03*
D53*
X92520Y133858D02*
D03*
D54*
X57677Y61417D02*
X118110D01*
X56890Y62205D02*
X57677Y61417D01*
D55*
X92752Y25943D02*
X102752D01*
X82752D02*
X92752D01*
X72752D02*
X82752D01*
X62752D02*
X72752D01*
X52752D02*
X62752D01*
X92752Y35943D02*
X102752D01*
X82752D02*
X92752D01*
X72752D02*
X82752D01*
X62752D02*
X72752D01*
X52752D02*
X62752D01*
D56*
X59055Y212598D02*
X65945Y205709D01*
M02*
