G04 Layer_Physical_Order=4*
G04 Layer_Color=11436288*
%FSLAX25Y25*%
%MOIN*%
G70*
G01*
G75*
%ADD34C,0.00704*%
%ADD35C,0.00705*%
%ADD36C,0.01000*%
%ADD37C,0.01969*%
%ADD42R,0.06102X0.06102*%
%ADD43C,0.06102*%
G04:AMPARAMS|DCode=44|XSize=68.9mil|YSize=68.9mil|CornerRadius=6.89mil|HoleSize=0mil|Usage=FLASHONLY|Rotation=90.000|XOffset=0mil|YOffset=0mil|HoleType=Round|Shape=RoundedRectangle|*
%AMROUNDEDRECTD44*
21,1,0.06890,0.05512,0,0,90.0*
21,1,0.05512,0.06890,0,0,90.0*
1,1,0.01378,0.02756,0.02756*
1,1,0.01378,0.02756,-0.02756*
1,1,0.01378,-0.02756,-0.02756*
1,1,0.01378,-0.02756,0.02756*
%
%ADD44ROUNDEDRECTD44*%
%ADD45C,0.06890*%
%ADD46C,0.06000*%
%ADD48C,0.25197*%
%ADD49C,0.02598*%
%ADD50C,0.03150*%
%ADD51C,0.07874*%
%ADD52C,0.05000*%
%ADD53C,0.09843*%
%ADD55C,0.03937*%
G36*
X241357Y142173D02*
Y110630D01*
X241450Y109921D01*
X241724Y109261D01*
X242159Y108694D01*
X242726Y108259D01*
X242874Y108198D01*
X248662Y102409D01*
Y96886D01*
X247954Y96397D01*
X247244Y96491D01*
X246216Y96355D01*
X245258Y95959D01*
X244436Y95328D01*
X243805Y94505D01*
X243408Y93547D01*
X243273Y92520D01*
X243408Y91492D01*
X243805Y90534D01*
X244436Y89712D01*
X245258Y89081D01*
X246216Y88684D01*
X247244Y88549D01*
X247424Y88572D01*
X247609Y87882D01*
X247127Y87682D01*
X246589Y87269D01*
X246176Y86731D01*
X245917Y86105D01*
X245894Y85933D01*
X248425D01*
Y84933D01*
X245894D01*
X245917Y84761D01*
X246176Y84135D01*
X246589Y83597D01*
X247127Y83184D01*
X247753Y82924D01*
X248425Y82836D01*
X248662Y82628D01*
Y81274D01*
X247543Y80154D01*
X246832Y80236D01*
X246734Y80348D01*
X246115Y81154D01*
X245292Y81785D01*
X244335Y82182D01*
X243307Y82317D01*
X242279Y82182D01*
X241321Y81785D01*
X240499Y81154D01*
X240445Y81084D01*
X236251D01*
X236119Y82089D01*
X235723Y83047D01*
X235091Y83869D01*
X234269Y84500D01*
X233311Y84897D01*
X232372Y85020D01*
X232208Y85273D01*
X232068Y85718D01*
X235036Y88686D01*
X235047Y88701D01*
X235548Y88494D01*
X235721Y88471D01*
Y89856D01*
X235745Y89913D01*
X235838Y90622D01*
Y91002D01*
X236221D01*
Y91502D01*
X238752D01*
X238729Y91674D01*
X238470Y92300D01*
X238057Y92838D01*
X237519Y93251D01*
X236893Y93511D01*
X236221Y93599D01*
X235838Y93935D01*
Y140916D01*
X235744Y141624D01*
X235551Y142091D01*
X235471Y142285D01*
X235036Y142851D01*
X233153Y144735D01*
X233410Y145479D01*
X233743Y145523D01*
X234369Y145782D01*
X234907Y146195D01*
X235320Y146733D01*
X235459Y147069D01*
X236234Y147296D01*
X241357Y142173D01*
D02*
G37*
G36*
X137722Y190478D02*
X137723Y190478D01*
X138320Y190020D01*
X138728Y189850D01*
X139017Y189731D01*
X139764Y189633D01*
X146048D01*
X163667Y172014D01*
X163621Y171307D01*
X163492Y171208D01*
X162861Y170386D01*
X162464Y169428D01*
X162329Y168400D01*
X162464Y167372D01*
X162861Y166414D01*
X163492Y165592D01*
X164060Y165156D01*
X163968Y164932D01*
X163945Y164760D01*
X164799D01*
X165272Y164564D01*
X166300Y164429D01*
X166388Y164440D01*
X166476Y164352D01*
Y164260D01*
X166568D01*
X166976Y163852D01*
Y161729D01*
X167149Y161751D01*
X167775Y162011D01*
X168313Y162424D01*
X168399Y162429D01*
X171564Y159264D01*
X172131Y158829D01*
X172792Y158556D01*
X173500Y158462D01*
X177430D01*
X179043Y156849D01*
X179000Y156499D01*
X178822Y156068D01*
X178328Y155863D01*
X177790Y155450D01*
X177377Y154912D01*
X177118Y154286D01*
X177095Y154114D01*
X179626D01*
Y153114D01*
X177095D01*
X177118Y152942D01*
X177377Y152315D01*
X177664Y151942D01*
X177524Y151387D01*
X177390Y151191D01*
X176972Y151136D01*
X176014Y150739D01*
X175346Y150226D01*
X132691Y192881D01*
X132124Y193316D01*
X131464Y193589D01*
X130755Y193683D01*
X73932D01*
X73803Y193841D01*
X73616Y194391D01*
X73903Y194764D01*
X74162Y195391D01*
X74185Y195563D01*
X71653D01*
Y196563D01*
X74185D01*
X74162Y196735D01*
X73973Y197192D01*
X74196Y197691D01*
X74382Y197900D01*
X130300D01*
X137722Y190478D01*
D02*
G37*
G36*
X185883Y133786D02*
X186028Y133728D01*
X186562Y133032D01*
X187384Y132401D01*
X188342Y132004D01*
X189370Y131869D01*
X190398Y132004D01*
X191356Y132401D01*
X191577Y132570D01*
X192463Y132357D01*
X192861Y131838D01*
X193684Y131207D01*
X194641Y130810D01*
X195669Y130675D01*
X196697Y130810D01*
X196947Y130914D01*
X197656Y130440D01*
Y120724D01*
X196968Y120359D01*
X196342Y120619D01*
X196169Y120641D01*
Y118110D01*
X195669D01*
Y117610D01*
X193138D01*
X193161Y117438D01*
X193420Y116812D01*
X193833Y116274D01*
X193971Y116168D01*
X194070Y115264D01*
X192743Y113938D01*
X190600D01*
X189892Y113844D01*
X189231Y113571D01*
X188664Y113136D01*
X185688Y110159D01*
X185600Y110171D01*
X184572Y110036D01*
X183615Y109639D01*
X182792Y109008D01*
X182161Y108186D01*
X181764Y107228D01*
X181629Y106200D01*
X181764Y105172D01*
X182106Y104346D01*
X181849Y103726D01*
X181157Y103657D01*
X175838Y108977D01*
Y123338D01*
X175908Y123392D01*
X176539Y124214D01*
X176936Y125172D01*
X177071Y126200D01*
X176936Y127228D01*
X176539Y128185D01*
X176341Y128444D01*
X176690Y129152D01*
X179528D01*
X180236Y129245D01*
X180896Y129519D01*
X181463Y129954D01*
X184936Y133426D01*
X185199Y133770D01*
X185583Y133814D01*
X185883Y133786D01*
D02*
G37*
G36*
X26353Y72601D02*
X27559Y72482D01*
X28765Y72601D01*
X29164Y72722D01*
X33761Y70105D01*
X34327Y69367D01*
X35343Y68587D01*
X36526Y68098D01*
X37795Y67930D01*
X39064Y68098D01*
X39955Y68467D01*
X51340D01*
X53466Y66341D01*
X53422Y65673D01*
X52643Y64657D01*
X52153Y63474D01*
X51986Y62205D01*
X52153Y60935D01*
X52643Y59753D01*
X53422Y58737D01*
X54438Y57958D01*
X55620Y57468D01*
X56890Y57301D01*
X58159Y57468D01*
X59342Y57958D01*
X60358Y58737D01*
X61137Y59753D01*
X61627Y60935D01*
X61794Y62205D01*
X61627Y63474D01*
X61434Y63940D01*
X61827Y64530D01*
X76542D01*
X76813Y63875D01*
X65069Y52131D01*
X64045Y52442D01*
X62752Y52569D01*
X61459Y52442D01*
X60216Y52065D01*
X59071Y51452D01*
X58067Y50628D01*
X57438D01*
X56434Y51452D01*
X55288Y52065D01*
X54045Y52442D01*
X52752Y52569D01*
X51459Y52442D01*
X50216Y52065D01*
X49071Y51452D01*
X48067Y50628D01*
X47243Y49624D01*
X46630Y48479D01*
X46253Y47236D01*
X46126Y45943D01*
X46253Y44650D01*
X46630Y43407D01*
X46656Y43359D01*
X46067Y42957D01*
X44635Y44635D01*
X42750Y46244D01*
X40636Y47540D01*
X38346Y48488D01*
X35936Y49067D01*
X33465Y49261D01*
X30994Y49067D01*
X28583Y48488D01*
X26293Y47540D01*
X25762Y47214D01*
X25142Y47558D01*
X25060Y58148D01*
X25765Y58614D01*
X26772Y58482D01*
X28041Y58649D01*
X29224Y59139D01*
X30239Y59918D01*
X31019Y60934D01*
X31509Y62116D01*
X31676Y63386D01*
X31509Y64655D01*
X31019Y65838D01*
X30239Y66854D01*
X29224Y67633D01*
X28041Y68123D01*
X26772Y68290D01*
X25692Y68148D01*
X24980Y68577D01*
X24951Y72305D01*
X25655Y72812D01*
X26353Y72601D01*
D02*
G37*
G36*
X161497Y156332D02*
X161403Y155423D01*
X160992Y155108D01*
X160361Y154286D01*
X159964Y153328D01*
X159829Y152300D01*
X159964Y151272D01*
X160361Y150314D01*
X160992Y149492D01*
X161062Y149438D01*
Y143362D01*
X160992Y143308D01*
X160361Y142485D01*
X159964Y141528D01*
X159829Y140500D01*
X159964Y139472D01*
X160361Y138514D01*
X160992Y137692D01*
X161814Y137061D01*
X162772Y136664D01*
X163800Y136529D01*
X163960Y136550D01*
X164291Y135879D01*
X147891Y119479D01*
X142946Y114534D01*
X142511Y113968D01*
X142339Y113551D01*
X142238Y113307D01*
X142157Y112692D01*
X142144Y112599D01*
Y112599D01*
X142144Y107980D01*
X142074Y107926D01*
X141443Y107104D01*
X141046Y106146D01*
X140911Y105118D01*
X141046Y104090D01*
X141443Y103133D01*
X142074Y102310D01*
X142418Y102046D01*
X142177Y101338D01*
X120866D01*
X120158Y101244D01*
X119497Y100971D01*
X118930Y100536D01*
X93599Y75204D01*
X92918Y75526D01*
X92944Y75787D01*
X92822Y77022D01*
X92462Y78210D01*
X91877Y79304D01*
X91090Y80263D01*
X90131Y81050D01*
X89037Y81635D01*
X87849Y81995D01*
X86614Y82117D01*
X85379Y81995D01*
X84192Y81635D01*
X83098Y81050D01*
X82138Y80263D01*
X81351Y79304D01*
X80766Y78210D01*
X80406Y77022D01*
X80285Y75787D01*
X80298Y75649D01*
X77915Y73266D01*
X71387D01*
X71110Y73784D01*
X71077Y73974D01*
X71142Y74303D01*
X68898D01*
Y74803D01*
X68398D01*
Y77048D01*
X68001Y76969D01*
X67399Y76567D01*
X66929Y76503D01*
X66459Y76567D01*
X65858Y76969D01*
X65461Y77048D01*
Y74803D01*
X64961D01*
Y74303D01*
X62716D01*
X62781Y73974D01*
X62748Y73784D01*
X62471Y73266D01*
X58896D01*
X56238Y75923D01*
X55334Y76617D01*
X54280Y77054D01*
X53150Y77203D01*
X39955D01*
X39064Y77572D01*
X38074Y77702D01*
X33484Y80315D01*
X33268Y81026D01*
X32697Y82095D01*
X31929Y83031D01*
X30992Y83799D01*
X29924Y84370D01*
X29681Y84444D01*
X29602Y84993D01*
X29622Y85202D01*
X30412Y85809D01*
X31053Y86644D01*
X31456Y87617D01*
X31528Y88161D01*
X27559D01*
Y89161D01*
X31528D01*
X31456Y89706D01*
X31053Y90679D01*
X31034Y90703D01*
X31348Y91339D01*
X41502D01*
X41844Y90827D01*
X41859Y90630D01*
X41811Y90264D01*
X44776D01*
Y93228D01*
X44711Y93220D01*
X43977Y93708D01*
X43701Y99283D01*
X43791Y114497D01*
X44488Y115120D01*
X45160Y115208D01*
X45787Y115468D01*
X46325Y115880D01*
X46737Y116418D01*
X46997Y117044D01*
X47019Y117217D01*
X44488D01*
Y117717D01*
X43988D01*
Y120624D01*
X43828Y120765D01*
X43868Y127507D01*
X44291Y127875D01*
X44964Y127964D01*
X45590Y128223D01*
X45800Y128196D01*
X46208Y127665D01*
X47030Y127034D01*
X47988Y126637D01*
X49016Y126502D01*
X50044Y126637D01*
X51001Y127034D01*
X51824Y127665D01*
X52455Y128487D01*
X52851Y129445D01*
X52987Y130473D01*
X52851Y131500D01*
X52455Y132458D01*
X51824Y133280D01*
X51001Y133912D01*
X50044Y134308D01*
X49016Y134443D01*
X47988Y134308D01*
X47030Y133912D01*
X46208Y133280D01*
X45800Y132749D01*
X45590Y132722D01*
X44964Y132981D01*
X44291Y133070D01*
X43903Y133412D01*
X43938Y139293D01*
X44390Y139687D01*
X45062Y139775D01*
X45688Y140034D01*
X45702Y140045D01*
X45774Y140073D01*
X46668Y139902D01*
X46995Y139476D01*
X47818Y138845D01*
X48776Y138448D01*
X49803Y138313D01*
X50831Y138448D01*
X51789Y138845D01*
X52611Y139476D01*
X53242Y140298D01*
X53639Y141256D01*
X53774Y142284D01*
X53639Y143311D01*
X53242Y144269D01*
X52611Y145091D01*
X51789Y145722D01*
X50831Y146119D01*
X49803Y146255D01*
X48776Y146119D01*
X47818Y145722D01*
X46995Y145091D01*
X46668Y144665D01*
X45774Y144494D01*
X45702Y144522D01*
X45688Y144533D01*
X45062Y144792D01*
X44390Y144881D01*
X43973Y145248D01*
X44094Y165748D01*
X31022Y171131D01*
X31158Y171815D01*
X31158D01*
X31158Y171815D01*
Y175366D01*
X27106D01*
Y176366D01*
X31158D01*
Y178763D01*
X32549Y178790D01*
X33055Y178293D01*
Y176366D01*
X41158D01*
Y178952D01*
X42549Y178978D01*
X43055Y178482D01*
Y176366D01*
X51158D01*
Y179917D01*
X50787D01*
Y180866D01*
X51512Y181460D01*
X52287Y182405D01*
X52863Y183482D01*
X53218Y184651D01*
X53337Y185866D01*
X53218Y187082D01*
X53049Y187638D01*
X53471Y188207D01*
X61821D01*
X62295Y187499D01*
X62109Y187051D01*
X61974Y186024D01*
X62109Y184996D01*
X62506Y184038D01*
X63137Y183216D01*
X63959Y182585D01*
X64917Y182188D01*
X65945Y182053D01*
X66973Y182188D01*
X67930Y182585D01*
X68753Y183216D01*
X69384Y184038D01*
X69780Y184996D01*
X69916Y186024D01*
X69780Y187051D01*
X69595Y187499D01*
X70069Y188207D01*
X129621D01*
X161497Y156332D01*
D02*
G37*
G36*
X243138Y217358D02*
X243695Y217431D01*
X244681Y217839D01*
X245527Y218489D01*
X246177Y219335D01*
X246546Y220227D01*
X246844Y220304D01*
X247293Y220275D01*
X247736Y219206D01*
X249031Y217093D01*
X250641Y215208D01*
X252526Y213598D01*
X254639Y212303D01*
X256929Y211354D01*
X259340Y210776D01*
X261811Y210581D01*
X264282Y210776D01*
X266692Y211354D01*
X268983Y212303D01*
X271096Y213598D01*
X272866Y215110D01*
X273574Y214929D01*
X272884Y45563D01*
X272240Y45268D01*
X271096Y46244D01*
X268983Y47540D01*
X266692Y48488D01*
X264282Y49067D01*
X261811Y49261D01*
X259340Y49067D01*
X256929Y48488D01*
X254639Y47540D01*
X252526Y46244D01*
X250641Y44635D01*
X249031Y42750D01*
X247736Y40636D01*
X246787Y38346D01*
X246209Y35936D01*
X246014Y33465D01*
X246209Y30994D01*
X246787Y28583D01*
X247736Y26293D01*
X248708Y24706D01*
X248312Y23997D01*
X107732Y23732D01*
X107230Y24233D01*
Y25443D01*
X102752D01*
Y26443D01*
X107230D01*
Y28699D01*
X107099Y29358D01*
X106784Y29829D01*
X106727Y29928D01*
X106790Y30726D01*
X107438Y31257D01*
X108262Y32261D01*
X108874Y33407D01*
X109251Y34650D01*
X109379Y35943D01*
X109251Y37236D01*
X108874Y38479D01*
X108262Y39624D01*
X107579Y40456D01*
X107493Y40943D01*
X107579Y41429D01*
X108262Y42261D01*
X108874Y43407D01*
X109251Y44650D01*
X109379Y45943D01*
X109251Y47236D01*
X108874Y48479D01*
X108262Y49624D01*
X107438Y50628D01*
X106434Y51452D01*
X105288Y52065D01*
X104106Y52423D01*
X103907Y52787D01*
X103791Y53111D01*
X104636Y53955D01*
X109055D01*
X109764Y54049D01*
X110424Y54322D01*
X110991Y54757D01*
X120600Y64366D01*
X121208Y64326D01*
X122030Y63695D01*
X122988Y63298D01*
X124016Y63163D01*
X125044Y63298D01*
X126001Y63695D01*
X126824Y64326D01*
X127455Y65149D01*
X127851Y66106D01*
X127987Y67134D01*
X127852Y68155D01*
X127940Y68287D01*
X128414Y68656D01*
X129048Y68393D01*
X129757Y68300D01*
X129868Y68215D01*
X130826Y67818D01*
X130959Y67800D01*
X130872Y67134D01*
X131007Y66106D01*
X131404Y65149D01*
X132035Y64326D01*
X132857Y63695D01*
X133815Y63298D01*
X134843Y63163D01*
X135870Y63298D01*
X136828Y63695D01*
X137165Y63953D01*
X137747Y63507D01*
X137649Y63271D01*
X137626Y63098D01*
X139657D01*
Y65130D01*
X139485Y65107D01*
X138937Y64880D01*
X138707Y65009D01*
X138372Y65367D01*
X138678Y66106D01*
X138814Y67134D01*
X138678Y68162D01*
X138282Y69120D01*
X137651Y69942D01*
X136828Y70573D01*
X136410Y70746D01*
X135870Y70970D01*
X136058Y71617D01*
X136134Y71800D01*
X136211Y72382D01*
X136245Y72416D01*
X136781Y73115D01*
X137119Y73930D01*
X137234Y74803D01*
Y84646D01*
X137119Y85519D01*
X136781Y86333D01*
X136245Y87032D01*
X135546Y87569D01*
X134732Y87906D01*
X133858Y88021D01*
X132985Y87906D01*
X132171Y87569D01*
X131472Y87032D01*
X130935Y86333D01*
X130598Y85519D01*
X130483Y84646D01*
Y76518D01*
X130188Y76262D01*
X129436Y76547D01*
X129426Y76618D01*
X129030Y77576D01*
X128399Y78399D01*
X127576Y79030D01*
X126618Y79426D01*
X125591Y79562D01*
X124563Y79426D01*
X123605Y79030D01*
X122783Y78399D01*
X122729Y78328D01*
X122047D01*
X121339Y78235D01*
X120678Y77961D01*
X120112Y77526D01*
X112906Y70321D01*
X112235Y70652D01*
X112263Y70866D01*
X112093Y72155D01*
X111596Y73356D01*
X110804Y74387D01*
X109773Y75179D01*
X108572Y75676D01*
X107783Y75780D01*
Y70866D01*
X107283D01*
Y70366D01*
X102370D01*
X102473Y69577D01*
X102971Y68376D01*
X103762Y67345D01*
X104794Y66554D01*
X105995Y66056D01*
X107283Y65887D01*
X107498Y65915D01*
X107829Y65244D01*
X106740Y64155D01*
X91202D01*
X90962Y64864D01*
X91131Y64993D01*
X122000Y95862D01*
X148838D01*
X148892Y95792D01*
X149715Y95161D01*
X150672Y94764D01*
X151700Y94629D01*
X152728Y94764D01*
X153685Y95161D01*
X154508Y95792D01*
X155139Y96614D01*
X155536Y97572D01*
X155671Y98600D01*
X155536Y99628D01*
X155139Y100585D01*
X154508Y101408D01*
X153685Y102039D01*
X152728Y102436D01*
X151700Y102571D01*
X150672Y102436D01*
X149715Y102039D01*
X148892Y101408D01*
X148838Y101338D01*
X147586D01*
X147346Y102046D01*
X147690Y102310D01*
X148321Y103133D01*
X148717Y104090D01*
X148853Y105118D01*
X148717Y106146D01*
X148321Y107104D01*
X147690Y107926D01*
X147619Y107980D01*
X147619Y111465D01*
X151762Y115608D01*
X151763Y115608D01*
X151763Y115608D01*
X161121Y124966D01*
X161829Y124672D01*
Y115607D01*
X161121Y115020D01*
X160630Y115085D01*
X159602Y114950D01*
X158644Y114553D01*
X157822Y113922D01*
X157191Y113100D01*
X157105Y112892D01*
X156294Y112785D01*
X156167Y112950D01*
X155629Y113363D01*
X155003Y113622D01*
X154831Y113645D01*
Y111114D01*
Y108583D01*
X155003Y108606D01*
X155629Y108865D01*
X156167Y109278D01*
X156294Y109443D01*
X157105Y109336D01*
X157191Y109128D01*
X157822Y108306D01*
X158644Y107675D01*
X159602Y107278D01*
X160630Y107143D01*
X161121Y107208D01*
X161829Y106621D01*
Y100347D01*
X148119Y86637D01*
X148031Y86648D01*
X147004Y86513D01*
X146046Y86116D01*
X145224Y85485D01*
X144592Y84663D01*
X144196Y83705D01*
X144061Y82677D01*
X144196Y81649D01*
X144592Y80692D01*
X145224Y79869D01*
X146046Y79238D01*
X147004Y78842D01*
X148031Y78706D01*
X149059Y78842D01*
X150017Y79238D01*
X150839Y79869D01*
X151470Y80692D01*
X151867Y81649D01*
X152002Y82677D01*
X151991Y82765D01*
X166503Y97277D01*
X166938Y97844D01*
X167211Y98504D01*
X167305Y99213D01*
Y114442D01*
X168013Y114902D01*
X168226Y114814D01*
X168398Y114792D01*
Y117323D01*
X169398D01*
Y114792D01*
X169570Y114814D01*
X169654Y114849D01*
X170362Y114375D01*
Y107843D01*
X170456Y107135D01*
X170729Y106474D01*
X171164Y105907D01*
X178107Y98964D01*
X178674Y98529D01*
X179335Y98256D01*
X180043Y98162D01*
X193182D01*
Y31496D01*
X193290Y30674D01*
X193607Y29908D01*
X194112Y29250D01*
X194770Y28745D01*
X195536Y28427D01*
X196358Y28319D01*
X209154D01*
X209976Y28427D01*
X210742Y28745D01*
X211400Y29250D01*
X211905Y29908D01*
X212222Y30674D01*
X212330Y31496D01*
Y68979D01*
X212659Y69133D01*
X213039Y69173D01*
X213592Y68452D01*
X214415Y67821D01*
X215372Y67424D01*
X216400Y67289D01*
X216546Y66593D01*
X216637Y65901D01*
X217034Y64944D01*
X217665Y64121D01*
X218487Y63490D01*
X219445Y63094D01*
X220472Y62958D01*
X221500Y63094D01*
X222458Y63490D01*
X223280Y64121D01*
X223911Y64944D01*
X224308Y65901D01*
X224443Y66929D01*
X224327Y67814D01*
X224728Y68522D01*
X232560D01*
X233020Y67814D01*
X232932Y67601D01*
X232910Y67429D01*
X237972D01*
X237949Y67601D01*
X237862Y67814D01*
X238321Y68522D01*
X243701D01*
X243701Y68522D01*
X246726D01*
X247186Y67813D01*
X247098Y67601D01*
X247075Y67429D01*
X252138D01*
X252115Y67601D01*
X252027Y67813D01*
X252487Y68522D01*
X253937D01*
X254645Y68616D01*
X255306Y68889D01*
X255873Y69324D01*
X257393Y70844D01*
X257480Y70832D01*
X258508Y70968D01*
X259466Y71364D01*
X260288Y71995D01*
X260919Y72818D01*
X261316Y73775D01*
X261451Y74803D01*
X261316Y75831D01*
X260919Y76789D01*
X260288Y77611D01*
X259466Y78242D01*
X258508Y78639D01*
X257480Y78774D01*
X256453Y78639D01*
X255495Y78242D01*
X254673Y77611D01*
X254041Y76789D01*
X253645Y75831D01*
X253509Y74803D01*
X253521Y74715D01*
X252803Y73997D01*
X250131D01*
X249802Y74475D01*
X249745Y74613D01*
X253336Y78204D01*
X253771Y78771D01*
X254044Y79432D01*
X254138Y80140D01*
Y103543D01*
X254131Y103594D01*
X254802Y103925D01*
X255934Y102793D01*
X255616Y102379D01*
X255220Y101421D01*
X255084Y100394D01*
X255220Y99366D01*
X255616Y98408D01*
X256247Y97586D01*
X257070Y96955D01*
X258027Y96558D01*
X259055Y96423D01*
X260083Y96558D01*
X261041Y96955D01*
X261863Y97586D01*
X262494Y98408D01*
X262891Y99366D01*
X263026Y100394D01*
X262891Y101421D01*
X262494Y102379D01*
X261863Y103202D01*
X261793Y103255D01*
Y103543D01*
X261793Y103543D01*
X261699Y104252D01*
X261426Y104912D01*
X260991Y105479D01*
X258033Y108437D01*
X258292Y109180D01*
X259176Y109448D01*
X260244Y110019D01*
X261180Y110788D01*
X261949Y111724D01*
X262520Y112793D01*
X262594Y113035D01*
X263142Y113115D01*
X263352Y113094D01*
X263958Y112305D01*
X264794Y111663D01*
X265767Y111260D01*
X266311Y111189D01*
Y115157D01*
Y119126D01*
X265767Y119054D01*
X264794Y118651D01*
X263958Y118010D01*
X263352Y117220D01*
X263142Y117200D01*
X262594Y117280D01*
X262520Y117522D01*
X261949Y118590D01*
X261180Y119527D01*
X260244Y120295D01*
X259176Y120866D01*
X258016Y121218D01*
X256811Y121337D01*
X255606Y121218D01*
X254446Y120866D01*
X253378Y120295D01*
X252659Y119705D01*
X251950Y119997D01*
Y149213D01*
X251857Y149921D01*
X251663Y150388D01*
X251583Y150581D01*
X251148Y151148D01*
X236975Y165322D01*
X236408Y165757D01*
X235748Y166030D01*
X235039Y166123D01*
X213885D01*
X213831Y166194D01*
X213116Y166743D01*
X212875Y167503D01*
X239731Y194360D01*
X240166Y194927D01*
X240440Y195587D01*
X240533Y196295D01*
Y217098D01*
X241242Y217571D01*
X241580Y217431D01*
X242138Y217358D01*
Y221378D01*
X243138D01*
Y217358D01*
D02*
G37*
%LPC*%
G36*
X134343Y55476D02*
X134170Y55453D01*
X133544Y55194D01*
X133006Y54781D01*
X132594Y54243D01*
X132334Y53617D01*
X132311Y53445D01*
X134343D01*
Y55476D01*
D02*
G37*
G36*
X135343D02*
Y53445D01*
X137374D01*
X137351Y53617D01*
X137092Y54243D01*
X136679Y54781D01*
X136141Y55194D01*
X135515Y55453D01*
X135343Y55476D01*
D02*
G37*
G36*
X142689Y62098D02*
X140657D01*
Y60067D01*
X140830Y60090D01*
X141456Y60349D01*
X141994Y60762D01*
X142406Y61300D01*
X142666Y61926D01*
X142689Y62098D01*
D02*
G37*
G36*
X139657D02*
X137626D01*
X137649Y61926D01*
X137908Y61300D01*
X138321Y60762D01*
X138859Y60349D01*
X139485Y60090D01*
X139657Y60067D01*
Y62098D01*
D02*
G37*
G36*
X40051Y54131D02*
X39879Y54109D01*
X39253Y53849D01*
X38715Y53436D01*
X38302Y52899D01*
X38043Y52272D01*
X38020Y52100D01*
X40051D01*
Y54131D01*
D02*
G37*
G36*
X137374Y52445D02*
X135343D01*
Y50414D01*
X135515Y50436D01*
X136141Y50696D01*
X136679Y51108D01*
X137092Y51646D01*
X137351Y52273D01*
X137374Y52445D01*
D02*
G37*
G36*
X41051Y54131D02*
Y52100D01*
X43082D01*
X43060Y52272D01*
X42800Y52899D01*
X42388Y53436D01*
X41850Y53849D01*
X41223Y54109D01*
X41051Y54131D01*
D02*
G37*
G36*
X124516Y55476D02*
Y53445D01*
X126547D01*
X126524Y53617D01*
X126265Y54243D01*
X125852Y54781D01*
X125314Y55194D01*
X124688Y55453D01*
X124516Y55476D01*
D02*
G37*
G36*
X123516D02*
X123344Y55453D01*
X122717Y55194D01*
X122179Y54781D01*
X121767Y54243D01*
X121507Y53617D01*
X121485Y53445D01*
X123516D01*
Y55476D01*
D02*
G37*
G36*
X264173Y70900D02*
X263145Y70765D01*
X262188Y70368D01*
X261365Y69737D01*
X260734Y68915D01*
X260338Y67957D01*
X260202Y66929D01*
X260338Y65901D01*
X260734Y64944D01*
X261365Y64121D01*
X262188Y63490D01*
X263145Y63094D01*
X264173Y62958D01*
X265201Y63094D01*
X266159Y63490D01*
X266981Y64121D01*
X267612Y64944D01*
X268009Y65901D01*
X268144Y66929D01*
X268009Y67957D01*
X267612Y68915D01*
X266981Y69737D01*
X266159Y70368D01*
X265201Y70765D01*
X264173Y70900D01*
D02*
G37*
G36*
X249106Y66429D02*
X247075D01*
X247098Y66257D01*
X247357Y65631D01*
X247770Y65093D01*
X248308Y64680D01*
X248934Y64421D01*
X249106Y64398D01*
Y66429D01*
D02*
G37*
G36*
X237972D02*
X235941D01*
Y64398D01*
X236113Y64421D01*
X236739Y64680D01*
X237277Y65093D01*
X237690Y65631D01*
X237949Y66257D01*
X237972Y66429D01*
D02*
G37*
G36*
X252138D02*
X250106D01*
Y64398D01*
X250279Y64421D01*
X250905Y64680D01*
X251443Y65093D01*
X251855Y65631D01*
X252115Y66257D01*
X252138Y66429D01*
D02*
G37*
G36*
X167429Y69460D02*
Y67429D01*
X169460D01*
X169438Y67601D01*
X169178Y68228D01*
X168766Y68766D01*
X168228Y69178D01*
X167601Y69438D01*
X167429Y69460D01*
D02*
G37*
G36*
X166429D02*
X166257Y69438D01*
X165631Y69178D01*
X165093Y68766D01*
X164680Y68228D01*
X164421Y67601D01*
X164398Y67429D01*
X166429D01*
Y69460D01*
D02*
G37*
G36*
X234941Y66429D02*
X232910D01*
X232932Y66257D01*
X233192Y65631D01*
X233605Y65093D01*
X234142Y64680D01*
X234769Y64421D01*
X234941Y64398D01*
Y66429D01*
D02*
G37*
G36*
X64461Y77048D02*
X64064Y76969D01*
X63303Y76461D01*
X62795Y75700D01*
X62716Y75303D01*
X64461D01*
Y77048D01*
D02*
G37*
G36*
X140657Y65130D02*
Y63098D01*
X142689D01*
X142666Y63271D01*
X142406Y63897D01*
X141994Y64435D01*
X141456Y64847D01*
X140830Y65107D01*
X140657Y65130D01*
D02*
G37*
G36*
X106783Y75780D02*
X105995Y75676D01*
X104794Y75179D01*
X103762Y74387D01*
X102971Y73356D01*
X102473Y72155D01*
X102370Y71366D01*
X106783D01*
Y75780D01*
D02*
G37*
G36*
X169460Y66429D02*
X167429D01*
Y64398D01*
X167601Y64421D01*
X168228Y64680D01*
X168766Y65093D01*
X169178Y65631D01*
X169438Y66257D01*
X169460Y66429D01*
D02*
G37*
G36*
X166429D02*
X164398D01*
X164421Y66257D01*
X164680Y65631D01*
X165093Y65093D01*
X165631Y64680D01*
X166257Y64421D01*
X166429Y64398D01*
Y66429D01*
D02*
G37*
G36*
X149984Y34933D02*
X147953D01*
X147976Y34761D01*
X148235Y34135D01*
X148648Y33597D01*
X149186Y33184D01*
X149812Y32925D01*
X149984Y32902D01*
Y34933D01*
D02*
G37*
G36*
X176681Y30870D02*
Y28839D01*
X178712D01*
X178690Y29011D01*
X178430Y29637D01*
X178018Y30175D01*
X177480Y30588D01*
X176853Y30847D01*
X176681Y30870D01*
D02*
G37*
G36*
X175681D02*
X175509Y30847D01*
X174883Y30588D01*
X174345Y30175D01*
X173932Y29637D01*
X173673Y29011D01*
X173650Y28839D01*
X175681D01*
Y30870D01*
D02*
G37*
G36*
X149606Y45703D02*
X148579Y45568D01*
X147621Y45171D01*
X146798Y44540D01*
X146167Y43718D01*
X145771Y42760D01*
X145635Y41732D01*
X145771Y40705D01*
X146167Y39747D01*
X146798Y38924D01*
X147621Y38293D01*
X148398Y37971D01*
X148580Y37461D01*
X148580Y37182D01*
X148235Y36732D01*
X147976Y36105D01*
X147953Y35933D01*
X153015D01*
X152993Y36105D01*
X152733Y36732D01*
X152321Y37270D01*
X151848Y37632D01*
X151784Y37797D01*
X151791Y38446D01*
X152414Y38924D01*
X153045Y39747D01*
X153442Y40705D01*
X153577Y41732D01*
X153442Y42760D01*
X153045Y43718D01*
X152414Y44540D01*
X151592Y45171D01*
X150634Y45568D01*
X149606Y45703D01*
D02*
G37*
G36*
X170079Y43144D02*
X169051Y43009D01*
X168093Y42612D01*
X167271Y41981D01*
X166640Y41159D01*
X166243Y40201D01*
X166108Y39173D01*
X166243Y38146D01*
X166640Y37188D01*
X167271Y36366D01*
X168093Y35734D01*
X169051Y35338D01*
X170079Y35202D01*
X171107Y35338D01*
X172064Y35734D01*
X172887Y36366D01*
X173518Y37188D01*
X173915Y38146D01*
X174050Y39173D01*
X173915Y40201D01*
X173518Y41159D01*
X172887Y41981D01*
X172064Y42612D01*
X171107Y43009D01*
X170079Y43144D01*
D02*
G37*
G36*
X153015Y34933D02*
X150984D01*
Y32902D01*
X151156Y32925D01*
X151783Y33184D01*
X152321Y33597D01*
X152733Y34135D01*
X152993Y34761D01*
X153015Y34933D01*
D02*
G37*
G36*
X175681Y27839D02*
X173650D01*
X173673Y27666D01*
X173932Y27040D01*
X174345Y26502D01*
X174883Y26090D01*
X175509Y25830D01*
X175681Y25807D01*
Y27839D01*
D02*
G37*
G36*
X137374Y27838D02*
X135343D01*
Y25807D01*
X135515Y25830D01*
X136141Y26089D01*
X136679Y26502D01*
X137092Y27040D01*
X137351Y27666D01*
X137374Y27838D01*
D02*
G37*
G36*
X134343D02*
X132311D01*
X132334Y27666D01*
X132594Y27040D01*
X133006Y26502D01*
X133544Y26089D01*
X134170Y25830D01*
X134343Y25807D01*
Y27838D01*
D02*
G37*
G36*
X135343Y30870D02*
Y28838D01*
X137374D01*
X137351Y29011D01*
X137092Y29637D01*
X136679Y30175D01*
X136141Y30588D01*
X135515Y30847D01*
X135343Y30870D01*
D02*
G37*
G36*
X134343D02*
X134170Y30847D01*
X133544Y30588D01*
X133006Y30175D01*
X132594Y29637D01*
X132334Y29011D01*
X132311Y28838D01*
X134343D01*
Y30870D01*
D02*
G37*
G36*
X178712Y27839D02*
X176681D01*
Y25807D01*
X176853Y25830D01*
X177480Y26090D01*
X178018Y26502D01*
X178430Y27040D01*
X178690Y27666D01*
X178712Y27839D01*
D02*
G37*
G36*
X43082Y51100D02*
X41051D01*
Y49069D01*
X41223Y49092D01*
X41850Y49351D01*
X42388Y49764D01*
X42800Y50301D01*
X43060Y50928D01*
X43082Y51100D01*
D02*
G37*
G36*
X40051D02*
X38020D01*
X38043Y50928D01*
X38302Y50301D01*
X38715Y49764D01*
X39253Y49351D01*
X39879Y49092D01*
X40051Y49069D01*
Y51100D01*
D02*
G37*
G36*
X144685Y56530D02*
X143657Y56395D01*
X142700Y55998D01*
X141877Y55367D01*
X141246Y54545D01*
X140849Y53587D01*
X140714Y52559D01*
X140849Y51531D01*
X141246Y50573D01*
X141877Y49751D01*
X142700Y49120D01*
X143657Y48723D01*
X144685Y48588D01*
X145713Y48723D01*
X146670Y49120D01*
X147493Y49751D01*
X148124Y50573D01*
X148521Y51531D01*
X148656Y52559D01*
X148521Y53587D01*
X148124Y54545D01*
X147493Y55367D01*
X146670Y55998D01*
X145713Y56395D01*
X144685Y56530D01*
D02*
G37*
G36*
X134343Y52445D02*
X132311D01*
X132334Y52273D01*
X132594Y51646D01*
X133006Y51108D01*
X133544Y50696D01*
X134170Y50436D01*
X134343Y50414D01*
Y52445D01*
D02*
G37*
G36*
X126547D02*
X124516D01*
Y50414D01*
X124688Y50436D01*
X125314Y50696D01*
X125852Y51108D01*
X126265Y51646D01*
X126524Y52273D01*
X126547Y52445D01*
D02*
G37*
G36*
X123516D02*
X121485D01*
X121507Y52273D01*
X121767Y51646D01*
X122179Y51108D01*
X122717Y50696D01*
X123344Y50436D01*
X123516Y50414D01*
Y52445D01*
D02*
G37*
G36*
X187177Y44776D02*
X185146D01*
Y42744D01*
X185318Y42767D01*
X185944Y43027D01*
X186482Y43439D01*
X186895Y43977D01*
X187154Y44603D01*
X187177Y44776D01*
D02*
G37*
G36*
X184146D02*
X182114D01*
X182137Y44603D01*
X182396Y43977D01*
X182809Y43439D01*
X183347Y43027D01*
X183973Y42767D01*
X184146Y42744D01*
Y44776D01*
D02*
G37*
G36*
X134843Y46499D02*
X133815Y46363D01*
X132857Y45967D01*
X132035Y45336D01*
X131404Y44513D01*
X131007Y43555D01*
X130872Y42528D01*
X131007Y41500D01*
X131404Y40542D01*
X132035Y39720D01*
X132857Y39089D01*
X133815Y38692D01*
X134843Y38557D01*
X135870Y38692D01*
X136828Y39089D01*
X137651Y39720D01*
X138282Y40542D01*
X138678Y41500D01*
X138814Y42528D01*
X138678Y43555D01*
X138282Y44513D01*
X137651Y45336D01*
X136828Y45967D01*
X135870Y46363D01*
X134843Y46499D01*
D02*
G37*
G36*
X185146Y47807D02*
Y45776D01*
X187177D01*
X187154Y45948D01*
X186895Y46574D01*
X186482Y47112D01*
X185944Y47525D01*
X185318Y47784D01*
X185146Y47807D01*
D02*
G37*
G36*
X184146D02*
X183973Y47784D01*
X183347Y47525D01*
X182809Y47112D01*
X182396Y46574D01*
X182137Y45948D01*
X182114Y45776D01*
X184146D01*
Y47807D01*
D02*
G37*
G36*
X176181Y51499D02*
X175153Y51363D01*
X174196Y50967D01*
X173373Y50336D01*
X172742Y49513D01*
X172345Y48556D01*
X172210Y47528D01*
X172345Y46500D01*
X172742Y45542D01*
X173373Y44720D01*
X174196Y44089D01*
X175153Y43692D01*
X176181Y43557D01*
X177209Y43692D01*
X178167Y44089D01*
X178989Y44720D01*
X179620Y45542D01*
X180017Y46500D01*
X180152Y47528D01*
X180017Y48556D01*
X179620Y49513D01*
X178989Y50336D01*
X178167Y50967D01*
X177209Y51363D01*
X176181Y51499D01*
D02*
G37*
G36*
X60799Y141882D02*
X58768D01*
Y139851D01*
X58940Y139874D01*
X59566Y140133D01*
X60104Y140546D01*
X60517Y141084D01*
X60776Y141710D01*
X60799Y141882D01*
D02*
G37*
G36*
X57768D02*
X55737D01*
X55759Y141710D01*
X56019Y141084D01*
X56431Y140546D01*
X56969Y140133D01*
X57596Y139874D01*
X57768Y139851D01*
Y141882D01*
D02*
G37*
G36*
X148107Y144263D02*
X147934Y144241D01*
X147308Y143981D01*
X146770Y143569D01*
X146358Y143031D01*
X146098Y142404D01*
X146075Y142232D01*
X148107D01*
Y144263D01*
D02*
G37*
G36*
X57768Y144913D02*
X57596Y144891D01*
X56969Y144631D01*
X56431Y144218D01*
X56019Y143681D01*
X55759Y143054D01*
X55737Y142882D01*
X57768D01*
Y144913D01*
D02*
G37*
G36*
X149107Y144263D02*
Y142232D01*
X151138D01*
X151115Y142404D01*
X150856Y143031D01*
X150443Y143569D01*
X149905Y143981D01*
X149279Y144241D01*
X149107Y144263D01*
D02*
G37*
G36*
X151138Y141232D02*
X149107D01*
Y139201D01*
X149279Y139224D01*
X149905Y139483D01*
X150443Y139896D01*
X150856Y140434D01*
X151115Y141060D01*
X151138Y141232D01*
D02*
G37*
G36*
X60012Y130071D02*
X57980D01*
Y128040D01*
X58153Y128062D01*
X58779Y128322D01*
X59317Y128735D01*
X59729Y129272D01*
X59989Y129899D01*
X60012Y130071D01*
D02*
G37*
G36*
X56980D02*
X54949D01*
X54972Y129899D01*
X55231Y129272D01*
X55644Y128735D01*
X56182Y128322D01*
X56808Y128062D01*
X56980Y128040D01*
Y130071D01*
D02*
G37*
G36*
Y133102D02*
X56808Y133080D01*
X56182Y132820D01*
X55644Y132407D01*
X55231Y131869D01*
X54972Y131243D01*
X54949Y131071D01*
X56980D01*
Y133102D01*
D02*
G37*
G36*
X148107Y141232D02*
X146075D01*
X146098Y141060D01*
X146358Y140434D01*
X146770Y139896D01*
X147308Y139483D01*
X147934Y139224D01*
X148107Y139201D01*
Y141232D01*
D02*
G37*
G36*
X57980Y133102D02*
Y131071D01*
X60012D01*
X59989Y131243D01*
X59729Y131869D01*
X59317Y132407D01*
X58779Y132820D01*
X58153Y133080D01*
X57980Y133102D01*
D02*
G37*
G36*
X58768Y144913D02*
Y142882D01*
X60799D01*
X60776Y143054D01*
X60517Y143681D01*
X60104Y144218D01*
X59566Y144631D01*
X58940Y144891D01*
X58768Y144913D01*
D02*
G37*
G36*
X51158Y175366D02*
X47606D01*
Y171815D01*
X51158D01*
Y175366D01*
D02*
G37*
G36*
X46606D02*
X43055D01*
Y171815D01*
X46606D01*
Y175366D01*
D02*
G37*
G36*
X36606Y175366D02*
X33055D01*
Y171815D01*
X36606D01*
Y175366D01*
D02*
G37*
G36*
X126406Y182951D02*
X125378Y182816D01*
X124420Y182419D01*
X123598Y181788D01*
X122967Y180966D01*
X122570Y180008D01*
X122435Y178980D01*
X122570Y177953D01*
X122967Y176995D01*
X123598Y176172D01*
X124420Y175541D01*
X125378Y175145D01*
X126406Y175009D01*
X127433Y175145D01*
X128391Y175541D01*
X129214Y176172D01*
X129845Y176995D01*
X130241Y177953D01*
X130377Y178980D01*
X130241Y180008D01*
X129845Y180966D01*
X129214Y181788D01*
X128391Y182419D01*
X127433Y182816D01*
X126406Y182951D01*
D02*
G37*
G36*
X41158Y175366D02*
X37606D01*
Y171815D01*
X41158D01*
Y175366D01*
D02*
G37*
G36*
X165976Y163760D02*
X163945D01*
X163968Y163588D01*
X164227Y162961D01*
X164640Y162424D01*
X165178Y162011D01*
X165804Y161751D01*
X165976Y161729D01*
Y163760D01*
D02*
G37*
G36*
X57374Y155012D02*
X55343D01*
X55366Y154840D01*
X55625Y154213D01*
X56038Y153675D01*
X56576Y153263D01*
X57202Y153003D01*
X57374Y152981D01*
Y155012D01*
D02*
G37*
G36*
X92520Y162826D02*
X91285Y162704D01*
X90097Y162344D01*
X89003Y161759D01*
X88044Y160972D01*
X87257Y160013D01*
X86672Y158918D01*
X86312Y157731D01*
X86190Y156496D01*
X86312Y155261D01*
X86672Y154074D01*
X87257Y152979D01*
X88044Y152020D01*
X89003Y151233D01*
X90097Y150648D01*
X91285Y150288D01*
X92520Y150166D01*
X93755Y150288D01*
X94942Y150648D01*
X96036Y151233D01*
X96995Y152020D01*
X97782Y152979D01*
X98368Y154074D01*
X98728Y155261D01*
X98849Y156496D01*
X98728Y157731D01*
X98368Y158918D01*
X97782Y160013D01*
X96995Y160972D01*
X96036Y161759D01*
X94942Y162344D01*
X93755Y162704D01*
X92520Y162826D01*
D02*
G37*
G36*
X60405Y155012D02*
X58374D01*
Y152981D01*
X58546Y153003D01*
X59172Y153263D01*
X59710Y153675D01*
X60123Y154213D01*
X60383Y154840D01*
X60405Y155012D01*
D02*
G37*
G36*
X58374Y158043D02*
Y156012D01*
X60405D01*
X60383Y156184D01*
X60123Y156810D01*
X59710Y157348D01*
X59172Y157761D01*
X58546Y158020D01*
X58374Y158043D01*
D02*
G37*
G36*
X57374D02*
X57202Y158020D01*
X56576Y157761D01*
X56038Y157348D01*
X55625Y156810D01*
X55366Y156184D01*
X55343Y156012D01*
X57374D01*
Y158043D01*
D02*
G37*
G36*
X48740Y89264D02*
X45776D01*
Y86299D01*
X46189Y86354D01*
X47041Y86707D01*
X47772Y87268D01*
X48333Y87999D01*
X48686Y88850D01*
X48740Y89264D01*
D02*
G37*
G36*
X44776D02*
X41811D01*
X41866Y88850D01*
X42218Y87999D01*
X42779Y87268D01*
X43510Y86707D01*
X44362Y86354D01*
X44776Y86299D01*
Y89264D01*
D02*
G37*
G36*
X238752Y90502D02*
X236721D01*
Y88471D01*
X236893Y88494D01*
X237519Y88753D01*
X238057Y89166D01*
X238470Y89704D01*
X238729Y90330D01*
X238752Y90502D01*
D02*
G37*
G36*
X53600Y108604D02*
X52572Y108469D01*
X51614Y108072D01*
X50792Y107441D01*
X50161Y106618D01*
X49764Y105661D01*
X49629Y104633D01*
X49764Y103605D01*
X50161Y102647D01*
X50792Y101825D01*
X51614Y101194D01*
X52572Y100797D01*
X53600Y100662D01*
X54628Y100797D01*
X55585Y101194D01*
X56408Y101825D01*
X57039Y102647D01*
X57436Y103605D01*
X57571Y104633D01*
X57436Y105661D01*
X57039Y106618D01*
X56408Y107441D01*
X55585Y108072D01*
X54628Y108469D01*
X53600Y108604D01*
D02*
G37*
G36*
X45776Y93228D02*
Y90264D01*
X48740D01*
X48686Y90677D01*
X48333Y91529D01*
X47772Y92260D01*
X47041Y92821D01*
X46189Y93174D01*
X45776Y93228D01*
D02*
G37*
G36*
X68398Y82953D02*
X68001Y82875D01*
X67399Y82473D01*
X66929Y82409D01*
X66459Y82473D01*
X65858Y82875D01*
X65461Y82953D01*
Y80709D01*
Y78464D01*
X65858Y78543D01*
X66459Y78944D01*
X66929Y79009D01*
X67399Y78944D01*
X68001Y78543D01*
X68398Y78464D01*
Y80709D01*
Y82953D01*
D02*
G37*
G36*
X64461Y80209D02*
X62716D01*
X62795Y79812D01*
X63303Y79051D01*
X64064Y78543D01*
X64461Y78464D01*
Y80209D01*
D02*
G37*
G36*
X69398Y77048D02*
Y75303D01*
X71142D01*
X71063Y75700D01*
X70555Y76461D01*
X69795Y76969D01*
X69398Y77048D01*
D02*
G37*
G36*
X71142Y80209D02*
X69398D01*
Y78464D01*
X69795Y78543D01*
X70555Y79051D01*
X71063Y79812D01*
X71142Y80209D01*
D02*
G37*
G36*
X69398Y82953D02*
Y81209D01*
X71142D01*
X71063Y81606D01*
X70555Y82366D01*
X69795Y82875D01*
X69398Y82953D01*
D02*
G37*
G36*
X64461D02*
X64064Y82875D01*
X63303Y82366D01*
X62795Y81606D01*
X62716Y81209D01*
X64461D01*
Y82953D01*
D02*
G37*
G36*
X153831Y110614D02*
X151800D01*
X151822Y110442D01*
X152082Y109816D01*
X152494Y109278D01*
X153032Y108865D01*
X153659Y108606D01*
X153831Y108583D01*
Y110614D01*
D02*
G37*
G36*
X56980Y121035D02*
X56808Y121012D01*
X56182Y120753D01*
X55644Y120340D01*
X55231Y119802D01*
X54972Y119176D01*
X54949Y119004D01*
X56980D01*
Y121035D01*
D02*
G37*
G36*
X195169Y120641D02*
X194997Y120619D01*
X194371Y120359D01*
X193833Y119947D01*
X193420Y119409D01*
X193161Y118782D01*
X193138Y118610D01*
X195169D01*
Y120641D01*
D02*
G37*
G36*
X57980Y121035D02*
Y119004D01*
X60012D01*
X59989Y119176D01*
X59729Y119802D01*
X59317Y120340D01*
X58779Y120753D01*
X58153Y121012D01*
X57980Y121035D01*
D02*
G37*
G36*
X92520Y141177D02*
X91092Y141036D01*
X89719Y140620D01*
X88454Y139944D01*
X87344Y139033D01*
X86434Y137924D01*
X85758Y136659D01*
X85342Y135286D01*
X85201Y133858D01*
X85342Y132430D01*
X85758Y131057D01*
X86434Y129792D01*
X87344Y128683D01*
X88454Y127773D01*
X89719Y127097D01*
X91092Y126680D01*
X92520Y126540D01*
X93947Y126680D01*
X95320Y127097D01*
X96586Y127773D01*
X97695Y128683D01*
X98605Y129792D01*
X99281Y131057D01*
X99698Y132430D01*
X99838Y133858D01*
X99698Y135286D01*
X99281Y136659D01*
X98605Y137924D01*
X97695Y139033D01*
X96586Y139944D01*
X95320Y140620D01*
X93947Y141036D01*
X92520Y141177D01*
D02*
G37*
G36*
X118504Y169325D02*
X117476Y169190D01*
X116518Y168793D01*
X115696Y168162D01*
X115065Y167340D01*
X114668Y166382D01*
X114533Y165354D01*
X114668Y164327D01*
X115065Y163369D01*
X115696Y162546D01*
X116518Y161915D01*
X117476Y161519D01*
X118504Y161383D01*
X118965Y161444D01*
X126336Y154074D01*
X126082Y153326D01*
X125799Y153288D01*
X124841Y152892D01*
X124019Y152261D01*
X123388Y151438D01*
X122991Y150481D01*
X122856Y149453D01*
X122991Y148425D01*
X123388Y147467D01*
X124019Y146645D01*
X124841Y146014D01*
X125799Y145617D01*
X126827Y145482D01*
X127855Y145617D01*
X128812Y146014D01*
X129635Y146645D01*
X129654Y146670D01*
X130362Y146429D01*
Y139700D01*
X130456Y138991D01*
X130729Y138331D01*
X131164Y137764D01*
X143241Y125688D01*
X143229Y125600D01*
X143364Y124572D01*
X143761Y123615D01*
X144392Y122792D01*
X145214Y122161D01*
X146172Y121764D01*
X147200Y121629D01*
X148228Y121764D01*
X149186Y122161D01*
X150008Y122792D01*
X150639Y123615D01*
X151036Y124572D01*
X151171Y125600D01*
X151036Y126628D01*
X150639Y127585D01*
X150008Y128408D01*
X149186Y129039D01*
X148228Y129436D01*
X147200Y129571D01*
X147112Y129559D01*
X135838Y140834D01*
Y151181D01*
X135744Y151890D01*
X135631Y152163D01*
X135471Y152550D01*
X135036Y153117D01*
X128338Y159814D01*
X128505Y160650D01*
X128812Y160778D01*
X129635Y161409D01*
X130266Y162231D01*
X130663Y163189D01*
X130798Y164217D01*
X130663Y165244D01*
X130266Y166202D01*
X129635Y167025D01*
X128812Y167656D01*
X127855Y168052D01*
X126827Y168188D01*
X125799Y168052D01*
X124841Y167656D01*
X124019Y167025D01*
X123388Y166202D01*
X122606Y166064D01*
X122358Y166241D01*
X122340Y166382D01*
X121943Y167340D01*
X121312Y168162D01*
X120489Y168793D01*
X119532Y169190D01*
X118504Y169325D01*
D02*
G37*
G36*
X44988Y120248D02*
Y118217D01*
X47019D01*
X46997Y118389D01*
X46737Y119015D01*
X46325Y119553D01*
X45787Y119966D01*
X45160Y120225D01*
X44988Y120248D01*
D02*
G37*
G36*
X153831Y113645D02*
X153659Y113622D01*
X153032Y113363D01*
X152494Y112950D01*
X152082Y112413D01*
X151822Y111786D01*
X151800Y111614D01*
X153831D01*
Y113645D01*
D02*
G37*
G36*
X270780Y114657D02*
X267311D01*
Y111189D01*
X267855Y111260D01*
X268828Y111663D01*
X269664Y112305D01*
X270305Y113140D01*
X270708Y114113D01*
X270780Y114657D01*
D02*
G37*
G36*
X267311Y119126D02*
Y115657D01*
X270780D01*
X270708Y116202D01*
X270305Y117175D01*
X269664Y118010D01*
X268828Y118651D01*
X267855Y119054D01*
X267311Y119126D01*
D02*
G37*
G36*
X60012Y118004D02*
X57980D01*
Y115973D01*
X58153Y115995D01*
X58779Y116255D01*
X59317Y116668D01*
X59729Y117205D01*
X59989Y117832D01*
X60012Y118004D01*
D02*
G37*
G36*
X56980D02*
X54949D01*
X54972Y117832D01*
X55231Y117205D01*
X55644Y116668D01*
X56182Y116255D01*
X56808Y115995D01*
X56980Y115973D01*
Y118004D01*
D02*
G37*
%LPD*%
D34*
X124016Y71653D02*
X129921D01*
X57739Y210200D02*
X59277Y208661D01*
X31440Y210200D02*
X57739D01*
X88227Y61417D02*
X107874D01*
X59277Y208661D02*
X78740D01*
X79331Y208070D01*
X99410D01*
X206107Y208067D02*
X228300D01*
X197244Y216929D02*
X206107Y208067D01*
X232646Y203513D02*
Y210267D01*
X198032Y168898D02*
X232646Y203513D01*
X198032Y161056D02*
Y168898D01*
X99213Y226378D02*
X157638D01*
X97638Y224803D02*
X99213Y226378D01*
X97638Y217717D02*
Y224803D01*
X118715Y165566D02*
X133100Y151181D01*
X105118Y212598D02*
X112205Y205512D01*
X102756Y212598D02*
X105118D01*
X97638Y217717D02*
X102756Y212598D01*
X118504Y205512D02*
X144488D01*
X118504D02*
X120472D01*
X102638Y221378D02*
X118504Y205512D01*
X108661Y237402D02*
X235039D01*
X102638Y231378D02*
X108661Y237402D01*
X237795Y196295D02*
Y234646D01*
X235039Y237402D02*
X237795Y234646D01*
X202700Y161200D02*
X237795Y196295D01*
X208666Y226393D02*
X225984Y226342D01*
X227953Y214961D02*
X232646Y210267D01*
X227953Y214961D02*
Y224374D01*
X225984Y226342D02*
X227953Y224374D01*
X203681Y231378D02*
X208666Y226393D01*
X195669Y226378D02*
X197244Y224803D01*
X177638Y226378D02*
X195669D01*
X172638Y231378D02*
X177638Y226378D01*
X197244Y216929D02*
Y224803D01*
X194488Y157867D02*
X197237Y155118D01*
X197244D01*
X198032Y161056D02*
Y162598D01*
Y161056D02*
X200787Y158300D01*
X259055Y100394D02*
Y103543D01*
X249213Y113386D02*
X259055Y103543D01*
X251400Y80140D02*
Y103543D01*
X244094Y110630D02*
X244313D01*
X251400Y103543D01*
X230315Y74400D02*
X245660D01*
X251400Y80140D01*
X92752Y45943D02*
X103502Y56693D01*
X109055D01*
X124016Y71653D01*
X122047Y75590D02*
X125591D01*
X107874Y61417D02*
X122047Y75590D01*
X188583Y147448D02*
Y161417D01*
X144488Y205512D02*
X188583Y161417D01*
X190551Y151650D02*
Y173228D01*
X183465Y180315D02*
X190551Y173228D01*
X179314Y180315D02*
X183465D01*
X147424Y212205D02*
X179314Y180315D01*
X159055Y203937D02*
X178347Y184646D01*
X186221Y183070D02*
X189763Y179527D01*
X178347Y184646D02*
X184646D01*
X186221Y183071D01*
Y183070D02*
Y183071D01*
Y187795D02*
Y197795D01*
X162638Y221378D02*
X186221Y197795D01*
X159055Y203937D02*
Y214961D01*
X121811Y212205D02*
X147424D01*
X189763Y179527D02*
X189764D01*
X173500Y161200D02*
X178564D01*
X192638Y180977D02*
Y221378D01*
X202638Y231378D02*
X203681D01*
X166300Y168400D02*
X173500Y161200D01*
X176378D01*
X179528Y131890D02*
X183000Y135362D01*
Y140800D01*
X173100Y107843D02*
Y126200D01*
X174400Y147300D02*
X178000D01*
X220457Y81936D02*
Y93957D01*
Y81936D02*
X224046Y78346D01*
X220457Y93957D02*
X229800Y103300D01*
X34607Y205866D02*
X37106D01*
X32283Y203543D02*
X34607Y205866D01*
X183465Y150394D02*
Y156299D01*
X178564Y161200D02*
X183465Y156299D01*
X253937Y71260D02*
X257480Y74803D01*
X224046Y78346D02*
X243307D01*
X191031Y145000D02*
X191200Y144075D01*
X195000Y107400D02*
X201600D01*
X204200Y110000D01*
Y124700D01*
X185600Y106200D02*
X190600Y111200D01*
X229800Y103300D02*
Y129927D01*
X173100Y107843D02*
X180043Y100900D01*
X219350D01*
X227074Y108624D01*
X226378Y83900D02*
X233100Y90622D01*
X133100Y139700D02*
X147200Y125600D01*
X163800Y140500D02*
Y152300D01*
X73583Y205866D02*
X73622Y205906D01*
X47106Y205866D02*
X73583D01*
X112638Y221378D02*
X121811Y212205D01*
X133100Y139700D02*
Y151181D01*
X130755Y190945D02*
X174400Y147300D01*
X32283Y192520D02*
Y203543D01*
Y192520D02*
X33858Y190945D01*
X130755D01*
X27106Y205866D02*
X31440Y210200D01*
X157638Y226378D02*
X162638Y231378D01*
X188583Y147448D02*
X191031Y145000D01*
X152638Y221378D02*
X159055Y214961D01*
X190551Y151650D02*
X191827Y150374D01*
X197244Y147244D02*
X212483D01*
X229800Y129927D01*
X194488Y157867D02*
Y179127D01*
X192638Y180977D02*
X194488Y179127D01*
X189764Y179527D02*
X192520Y176772D01*
X197237Y155118D02*
X218898D01*
X233100Y140916D01*
Y90622D02*
Y140916D01*
X200787Y158300D02*
X229102D01*
X244094Y143307D01*
Y110630D02*
Y143307D01*
X249213Y113386D02*
Y149213D01*
X211024Y163386D02*
X235039D01*
X249213Y149213D01*
X216400Y71260D02*
X250000D01*
X250000Y71260D01*
X243701D02*
X253937D01*
X148031Y82677D02*
X164567Y99213D01*
Y125197D01*
X171260Y131890D01*
X179528D01*
X198400Y137500D02*
X200394Y135506D01*
X190600Y111200D02*
X193877D01*
X200394Y117717D01*
Y135506D01*
X149827Y117543D02*
X169884Y137600D01*
X180200D01*
X144882Y105118D02*
X144882Y112599D01*
X149827Y117543D01*
X72752Y45943D02*
X88227Y61417D01*
X89195Y66929D02*
X120866Y98600D01*
X151700D01*
X62752Y45943D02*
X83738Y66929D01*
X89195D01*
D35*
X192520Y154724D02*
Y176772D01*
Y154724D02*
X194882Y152362D01*
Y148819D02*
Y152362D01*
X194095Y148031D02*
X194882Y148819D01*
X206693Y142126D02*
X219685Y129134D01*
X194095Y144882D02*
Y148031D01*
Y144882D02*
X196850Y142126D01*
X206693D01*
D36*
X42027Y200787D02*
X131496D01*
X139764Y192520D01*
X177559Y166535D02*
X186614Y157480D01*
X173228Y166535D02*
X177559D01*
X177953Y166142D01*
X186614Y142520D02*
Y157480D01*
Y142520D02*
X189370Y139764D01*
X37106Y195866D02*
X42027Y200787D01*
X139764Y192520D02*
X147244D01*
X173228Y166535D01*
X189370Y135840D02*
Y139764D01*
D37*
X133858Y74803D02*
Y84646D01*
X132874Y73819D02*
X133858Y74803D01*
X132874Y72674D02*
Y73819D01*
X131853Y71653D02*
X132874Y72674D01*
X129921Y71653D02*
X131853D01*
D42*
X52638Y221378D02*
D03*
X37106Y175866D02*
D03*
X47106Y175866D02*
D03*
X27106Y175866D02*
D03*
D43*
X52638Y231378D02*
D03*
X62638D02*
D03*
Y221378D02*
D03*
X72638D02*
D03*
Y231378D02*
D03*
X92638D02*
D03*
Y221378D02*
D03*
X82638D02*
D03*
Y231378D02*
D03*
X122638D02*
D03*
Y221378D02*
D03*
X132638D02*
D03*
Y231378D02*
D03*
X112638D02*
D03*
Y221378D02*
D03*
X102638D02*
D03*
Y231378D02*
D03*
X152638D02*
D03*
Y221378D02*
D03*
X142638D02*
D03*
Y231378D02*
D03*
X242638D02*
D03*
Y221378D02*
D03*
X202638Y231378D02*
D03*
Y221378D02*
D03*
X212638D02*
D03*
Y231378D02*
D03*
X232638D02*
D03*
Y221378D02*
D03*
X222638D02*
D03*
Y231378D02*
D03*
X182638D02*
D03*
Y221378D02*
D03*
X192638D02*
D03*
Y231378D02*
D03*
X172638D02*
D03*
Y221378D02*
D03*
X162638D02*
D03*
Y231378D02*
D03*
X37106Y185866D02*
D03*
Y195866D02*
D03*
Y205866D02*
D03*
X47106Y185866D02*
D03*
Y195866D02*
D03*
Y205866D02*
D03*
X27106Y185866D02*
D03*
Y195866D02*
D03*
Y205866D02*
D03*
D44*
X102752Y25943D02*
D03*
X52752D02*
D03*
X62752D02*
D03*
X72752D02*
D03*
X82752D02*
D03*
X92752D02*
D03*
D45*
X102752Y35943D02*
D03*
Y45943D02*
D03*
X52752Y35943D02*
D03*
Y45943D02*
D03*
X62752Y35943D02*
D03*
Y45943D02*
D03*
X72752Y35943D02*
D03*
Y45943D02*
D03*
X82752Y35943D02*
D03*
Y45943D02*
D03*
X92752Y35943D02*
D03*
Y45943D02*
D03*
D46*
X266811Y115157D02*
D03*
X256811D02*
D03*
X27559Y88661D02*
D03*
Y78661D02*
D03*
X33465Y33465D02*
D03*
Y226378D02*
D03*
D48*
X261811Y33465D02*
D03*
Y226378D02*
D03*
D49*
X68898Y74803D02*
D03*
X64961D02*
D03*
Y80709D02*
D03*
X68898D02*
D03*
D50*
X65945Y186024D02*
D03*
X206693Y106299D02*
D03*
X59055Y212598D02*
D03*
X57480Y130571D02*
D03*
X49016Y130473D02*
D03*
X99410Y208070D02*
D03*
X44291Y130473D02*
D03*
X58268Y142382D02*
D03*
X44390Y142284D02*
D03*
X49803D02*
D03*
X57874Y155512D02*
D03*
X182283Y190551D02*
D03*
X180610Y174409D02*
D03*
X185531Y174016D02*
D03*
X200098Y177363D02*
D03*
X140157Y62598D02*
D03*
X195669Y118110D02*
D03*
X200000Y198819D02*
D03*
X118504Y165354D02*
D03*
X112205Y205512D02*
D03*
X228300Y208067D02*
D03*
X247244Y92520D02*
D03*
X259055Y100394D02*
D03*
X131853Y71653D02*
D03*
X125591Y75590D02*
D03*
X186221Y187795D02*
D03*
X148607Y141732D02*
D03*
X211024Y163386D02*
D03*
X180200Y137600D02*
D03*
X183000Y140800D02*
D03*
X178000Y147300D02*
D03*
X144882Y105118D02*
D03*
X184646Y45276D02*
D03*
X229921Y93701D02*
D03*
X225197D02*
D03*
X173228Y166535D02*
D03*
X183465Y150394D02*
D03*
X195669Y134646D02*
D03*
X189370Y135840D02*
D03*
X73622Y205906D02*
D03*
X44488Y117717D02*
D03*
X40551Y51600D02*
D03*
X257480Y74803D02*
D03*
X243307Y78346D02*
D03*
X248425Y85433D02*
D03*
X249606Y66929D02*
D03*
X144685Y52559D02*
D03*
X170079Y39173D02*
D03*
X166929Y66929D02*
D03*
X202700Y161200D02*
D03*
X191200Y144075D02*
D03*
X195000Y107400D02*
D03*
X204200Y124700D02*
D03*
X185600Y106200D02*
D03*
X198400Y137500D02*
D03*
X166300Y168400D02*
D03*
X166476Y164260D02*
D03*
X230315Y74400D02*
D03*
X173100Y126200D02*
D03*
X227074Y108624D02*
D03*
X226378Y83900D02*
D03*
X147200Y125600D02*
D03*
X163800Y152300D02*
D03*
Y140500D02*
D03*
X53600Y104633D02*
D03*
X124016Y67134D02*
D03*
X134843Y42528D02*
D03*
Y67134D02*
D03*
X160630Y111114D02*
D03*
X126827Y149453D02*
D03*
Y164217D02*
D03*
X176386Y140925D02*
D03*
X126406Y178980D02*
D03*
X212093Y108570D02*
D03*
X156701Y199213D02*
D03*
X151700Y98600D02*
D03*
X124016Y52945D02*
D03*
X134843Y28338D02*
D03*
Y52945D02*
D03*
X150484Y35433D02*
D03*
X176181Y28339D02*
D03*
X154331Y111114D02*
D03*
X235441Y66929D02*
D03*
X179626Y153614D02*
D03*
X142512Y199213D02*
D03*
X236221Y91002D02*
D03*
X168594Y198819D02*
D03*
X176181Y47528D02*
D03*
X232284Y81061D02*
D03*
X191827Y150374D02*
D03*
X197244Y147244D02*
D03*
X189763Y179527D02*
D03*
X219685Y129134D02*
D03*
X220472Y66929D02*
D03*
X216400Y71260D02*
D03*
X264173Y66929D02*
D03*
X148031Y82677D02*
D03*
X149606Y41732D02*
D03*
X71653Y196063D02*
D03*
X233071Y148031D02*
D03*
X168898Y117323D02*
D03*
X57480Y118504D02*
D03*
D51*
X107283Y70866D02*
D03*
X92520Y156496D02*
D03*
X86614Y75787D02*
D03*
D52*
X45276Y89764D02*
D03*
X37795Y72835D02*
D03*
X26772Y63386D02*
D03*
X56890Y62205D02*
D03*
D53*
X92520Y133858D02*
D03*
D55*
X37795Y72835D02*
X53150D01*
X57087Y68898D01*
X79724D01*
X86614Y75787D01*
X27559Y78661D02*
X37795Y72835D01*
M02*
