<?xml version="1.0" encoding="utf-8"?>
<!-- Generator: Adobe Illustrator 21.0.2, SVG Export Plug-In . SVG Version: 6.00 Build 0)  -->
<svg version="1.1" xmlns="http://www.w3.org/2000/svg" xmlns:xlink="http://www.w3.org/1999/xlink" x="0px" y="0px"
	 viewBox="0 0 1200 144" style="enable-background:new 0 0 1240 144;" xml:space="preserve">
<style type="text/css">
	.st0{fill:#303030;}
	.st1{fill:#202020;}
	.st2{fill:#FFFFFF;}
	.st3{fill:#C0392B;}
	.st4{fill:#2980B9;}
	.st5{fill:#F1C40F;}
	.st6{fill:#27AE60;}
	.st7{fill:#c8c8c8;}
</style>
<g id="txrxBackground">
	<g id="background">
		<path class="st0" d="M1200,128c0,8.8-7.2,16-16,16H16c-8.8,0-16-7.2-16-16V16C0,7.2,7.2,0,16,0h1168c8.8,0,16,7.2,16,16V128z"/>
		<!-- rect class="st0" width="1240" height="144"/ -->
	</g>
	<g id="barBackground">
		<rect x="126" y="25" class="st1" width="506" height="40" />
		<rect x="126" y="79" class="st1" width="506" height="40" />
	</g>
	<g>
		<path class="st7" d="M66.82,118.67h-6.08l-5.9-12.65c-0.44-0.97-0.9-1.77-1.36-2.41c-0.46-0.64-0.96-1.14-1.5-1.51
			c-0.54-0.37-1.12-0.64-1.76-0.8c-0.64-0.16-1.35-0.24-2.13-0.24h-2.54v17.62h-5.39V79.1h10.6c2.3,0,4.28,0.25,5.93,0.76
			c1.65,0.51,3.01,1.21,4.07,2.12s1.84,2,2.33,3.29c0.49,1.28,0.74,2.7,0.74,4.25c0,1.23-0.18,2.4-0.54,3.5s-0.9,2.1-1.62,3
			c-0.72,0.9-1.6,1.67-2.66,2.33s-2.28,1.15-3.65,1.47c1.11,0.38,2.05,1.05,2.83,2.01c0.78,0.96,1.57,2.24,2.38,3.83L66.82,118.67z
			 M58.19,89.97c0-2.12-0.66-3.7-1.98-4.75c-1.32-1.05-3.18-1.57-5.59-1.57h-5.09v13.08h4.36c1.27,0,2.42-0.15,3.44-0.44
			c1.02-0.29,1.89-0.73,2.6-1.3c0.72-0.58,1.27-1.28,1.67-2.12C57.99,92.02,58.19,91.06,58.19,89.97z"/>
		<path class="st7" d="M102.45,118.67h-6.81l-9.63-15.98l-9.66,15.98h-6.72L82.8,98.44L70.69,79.1h6.39l9.05,14.89l9.11-14.89h6.21
			L89.31,98.2L102.45,118.67z"/>
	</g>
	<g>
		<path class="st7" d="M66.49,28.92H54.77v34.97h-5.45V28.92H37.61v-4.6h28.88V28.92z"/>
		<path class="st7" d="M102.45,63.89h-6.81L86.02,47.9l-9.66,15.98h-6.72l13.17-20.22L70.7,24.32h6.39l9.05,14.89l9.11-14.89h6.21
			l-12.14,19.1L102.45,63.89z"/>
	</g>
	<rect id="txPH" x="642" y="25" class="st0" width="20" height="20" visibility="hidden"/>
	<rect id="rxPH" x="642" y="79" class="st0" width="20" height="20" visibility="hidden"/>
</g>
<g id="blinkystuff">
	<g id="error_sym">
		<circle class="st3" cx="845.5" cy="71.5" r="49.5"/>
		<rect x="837" y="38" class="st2" width="14" height="45"/>
		<rect x="837" y="94" class="st2" width="14" height="13"/>
	</g>
	<g id="info_sym">
		<circle class="st4" cx="1108.5" cy="72.5" r="49.5"/>
		<rect x="1102" y="61" class="st2" width="14" height="46"/>
		<rect x="1102" y="38" class="st2" width="14" height="13"/>
	</g>
	<g id="warning_sym">
		<g>
			<path class="st5" d="M986.77,30.59c-5.5-9.53-14.5-9.53-20,0L924,104.68c-5.5,9.53-1,17.32,10,17.32h85.55
				c11,0,15.5-7.79,10-17.32L986.77,30.59z"/>
		</g>
		<rect x="970" y="47.5" width="14" height="37"/>
		<rect x="970" y="95.5" width="14" height="13"/>
	</g>
	<g id="l_RX">
		<rect id="rx0" x="130" y="82" class="st6" width="66" height="34"/>
		<rect id="rx1" x="202" y="82" class="st6" width="66" height="34"/>
		<rect id="rx2" x="274" y="82" class="st6" width="66" height="34"/>
		<rect id="rx3" x="346" y="82" class="st6" width="66" height="34"/>
		<rect id="rx4" x="418" y="82" class="st5" width="66" height="34"/>
		<rect id="rx5" x="490" y="82" class="st5" width="66" height="34"/>
		<rect id="rx6" x="562" y="82" class="st3" width="66" height="34"/>
	</g>
	<g id="l_TX">
		<rect id="tx0" x="130" y="28" class="st6" width="66" height="34"/>
		<rect id="tx1" x="202" y="28" class="st6" width="66" height="34"/>
		<rect id="tx2" x="274" y="28" class="st6" width="66" height="34"/>
		<rect id="tx3" x="346" y="28" class="st6" width="66" height="34"/>
		<rect id="tx4" x="418" y="28" class="st5" width="66" height="34"/>
		<rect id="tx5" x="490" y="28" class="st5" width="66" height="34"/>
		<rect id="tx6" x="562" y="28" class="st3" width="66" height="34"/>
	</g>
</g>
</svg>
